G04 #@! TF.GenerationSoftware,KiCad,Pcbnew,(6.0.11-0)*
G04 #@! TF.CreationDate,2023-05-27T08:55:42+09:00*
G04 #@! TF.ProjectId,TargetSite-Truck,54617267-6574-4536-9974-652d54727563,1*
G04 #@! TF.SameCoordinates,Original*
G04 #@! TF.FileFunction,Copper,L2,Bot*
G04 #@! TF.FilePolarity,Positive*
%FSLAX46Y46*%
G04 Gerber Fmt 4.6, Leading zero omitted, Abs format (unit mm)*
G04 Created by KiCad (PCBNEW (6.0.11-0)) date 2023-05-27 08:55:42*
%MOMM*%
%LPD*%
G01*
G04 APERTURE LIST*
G04 #@! TA.AperFunction,ComponentPad*
%ADD10R,1.700000X1.700000*%
G04 #@! TD*
G04 #@! TA.AperFunction,ComponentPad*
%ADD11O,1.700000X1.700000*%
G04 #@! TD*
G04 #@! TA.AperFunction,ComponentPad*
%ADD12R,1.800000X1.800000*%
G04 #@! TD*
G04 #@! TA.AperFunction,ComponentPad*
%ADD13C,1.800000*%
G04 #@! TD*
G04 #@! TA.AperFunction,ComponentPad*
%ADD14C,1.600000*%
G04 #@! TD*
G04 #@! TA.AperFunction,ComponentPad*
%ADD15O,1.600000X1.600000*%
G04 #@! TD*
G04 #@! TA.AperFunction,ComponentPad*
%ADD16O,2.500000X5.000000*%
G04 #@! TD*
G04 #@! TA.AperFunction,ComponentPad*
%ADD17O,2.250000X4.500000*%
G04 #@! TD*
G04 #@! TA.AperFunction,ComponentPad*
%ADD18O,4.500000X2.250000*%
G04 #@! TD*
G04 #@! TA.AperFunction,ComponentPad*
%ADD19R,2.400000X2.400000*%
G04 #@! TD*
G04 #@! TA.AperFunction,ComponentPad*
%ADD20C,2.400000*%
G04 #@! TD*
G04 #@! TA.AperFunction,ComponentPad*
%ADD21O,1.308000X2.616000*%
G04 #@! TD*
G04 #@! TA.AperFunction,ComponentPad*
%ADD22R,1.600000X1.600000*%
G04 #@! TD*
G04 #@! TA.AperFunction,ViaPad*
%ADD23C,0.605000*%
G04 #@! TD*
G04 #@! TA.AperFunction,Conductor*
%ADD24C,0.152400*%
G04 #@! TD*
G04 APERTURE END LIST*
D10*
X143380000Y-83962850D03*
D11*
X143380000Y-86502850D03*
X143380000Y-89042850D03*
X143380000Y-91582850D03*
X143380000Y-94122850D03*
X143380000Y-96662850D03*
D12*
X136350452Y-114760000D03*
D13*
X136350452Y-112220000D03*
D14*
X143950000Y-110950000D03*
D15*
X141410000Y-110950000D03*
D16*
X193500000Y-96675000D03*
D17*
X199500000Y-96675000D03*
D18*
X196500000Y-91975000D03*
D19*
X161750000Y-124134470D03*
D20*
X158250000Y-124134470D03*
D21*
X180800000Y-110950000D03*
X178260000Y-110950000D03*
X175720000Y-110950000D03*
X173180000Y-110950000D03*
X170640000Y-110950000D03*
X168100000Y-110950000D03*
X165560000Y-110950000D03*
X163020000Y-110950000D03*
X160480000Y-110950000D03*
X157940000Y-110950000D03*
D16*
X193850000Y-109675000D03*
D17*
X199850000Y-109675000D03*
D18*
X196850000Y-104975000D03*
D12*
X136350452Y-108710000D03*
D13*
X136350452Y-106170000D03*
D14*
X187150000Y-95700000D03*
X187150000Y-98200000D03*
X143950000Y-104600000D03*
D15*
X141410000Y-104600000D03*
D22*
X180800000Y-94450000D03*
D15*
X178260000Y-94450000D03*
X175720000Y-94450000D03*
X173180000Y-94450000D03*
X170640000Y-94450000D03*
X168100000Y-94450000D03*
X165560000Y-94450000D03*
X163020000Y-94450000D03*
X160480000Y-94450000D03*
X160480000Y-102070000D03*
X163020000Y-102070000D03*
X165560000Y-102070000D03*
X168100000Y-102070000D03*
X170640000Y-102070000D03*
X173180000Y-102070000D03*
X175720000Y-102070000D03*
X178260000Y-102070000D03*
X180800000Y-102070000D03*
D23*
X150320000Y-84280000D03*
X194770000Y-124285000D03*
X183975000Y-119205000D03*
X149050000Y-119205000D03*
X157305000Y-103965000D03*
X144605000Y-119205000D03*
X190960000Y-90630000D03*
X166195000Y-119205000D03*
X150320000Y-89995000D03*
X150320000Y-96345000D03*
X153495000Y-124285000D03*
X150320000Y-103965000D03*
X181435000Y-104600000D03*
X168735000Y-107140000D03*
X183975000Y-124285000D03*
X175085000Y-124285000D03*
X164925000Y-90630000D03*
X149050000Y-124285000D03*
X164925000Y-104600000D03*
X194770000Y-119205000D03*
X190960000Y-104600000D03*
X166195000Y-124285000D03*
X164925000Y-84280000D03*
X178260000Y-90630000D03*
X157305000Y-96345000D03*
X177625000Y-96345000D03*
X178260000Y-84280000D03*
X175085000Y-119205000D03*
X136350000Y-103965000D03*
X136350000Y-119205000D03*
X162385000Y-107140000D03*
X171910000Y-104600000D03*
X161750000Y-96345000D03*
X144605000Y-124285000D03*
X153495000Y-119205000D03*
X190960000Y-84280000D03*
D24*
X136350452Y-108710000D02*
X135221852Y-109838600D01*
X135221852Y-113631400D02*
X136350452Y-114760000D01*
X143380000Y-89042850D02*
X140381400Y-92041450D01*
X140381400Y-92041450D02*
X140381400Y-104679052D01*
X135221852Y-109838600D02*
X135221852Y-113631400D01*
X140381400Y-104679052D02*
X136350452Y-108710000D01*
X163020000Y-112220000D02*
X163020000Y-110950000D01*
X193850000Y-109675000D02*
X193850000Y-110600000D01*
X193850000Y-110600000D02*
X187150000Y-117300000D01*
X168100000Y-117300000D02*
X163020000Y-112220000D01*
X187150000Y-117300000D02*
X168100000Y-117300000D01*
X179288600Y-95478600D02*
X179288600Y-104841400D01*
X179288600Y-104841400D02*
X173180000Y-110950000D01*
X178260000Y-94450000D02*
X179288600Y-95478600D01*
G04 #@! TA.AperFunction,Conductor*
G36*
X204442121Y-80520002D02*
G01*
X204488614Y-80573658D01*
X204500000Y-80626000D01*
X204500000Y-129374000D01*
X204479998Y-129442121D01*
X204426342Y-129488614D01*
X204374000Y-129500000D01*
X130626000Y-129500000D01*
X130557879Y-129479998D01*
X130511386Y-129426342D01*
X130500000Y-129374000D01*
X130500000Y-124969285D01*
X133044759Y-124969285D01*
X133045003Y-124973720D01*
X133045003Y-124973724D01*
X133048895Y-125044432D01*
X133059938Y-125245087D01*
X133113825Y-125515999D01*
X133205347Y-125776616D01*
X133332678Y-126021737D01*
X133335261Y-126025352D01*
X133335265Y-126025358D01*
X133372272Y-126077144D01*
X133493275Y-126246471D01*
X133683936Y-126446335D01*
X133687431Y-126449091D01*
X133687433Y-126449092D01*
X133735469Y-126486960D01*
X133900856Y-126617341D01*
X133962559Y-126653181D01*
X134135853Y-126753839D01*
X134135859Y-126753842D01*
X134139707Y-126756077D01*
X134395723Y-126859774D01*
X134400036Y-126860845D01*
X134400041Y-126860847D01*
X134659475Y-126925291D01*
X134659480Y-126925292D01*
X134663796Y-126926364D01*
X134668224Y-126926818D01*
X134668226Y-126926818D01*
X134743339Y-126934514D01*
X134899370Y-126950500D01*
X135070362Y-126950500D01*
X135275530Y-126935973D01*
X135279885Y-126935035D01*
X135279888Y-126935035D01*
X135541215Y-126878773D01*
X135541217Y-126878773D01*
X135545562Y-126877837D01*
X135804709Y-126782233D01*
X135853185Y-126756077D01*
X136043884Y-126653181D01*
X136047800Y-126651068D01*
X136269984Y-126486960D01*
X136466829Y-126293183D01*
X136634406Y-126073604D01*
X136769373Y-125832604D01*
X136869036Y-125574991D01*
X136876840Y-125541325D01*
X136930401Y-125310244D01*
X136931407Y-125305905D01*
X136955241Y-125030715D01*
X136954997Y-125026276D01*
X136940307Y-124759356D01*
X136940306Y-124759349D01*
X136940062Y-124754913D01*
X136886175Y-124484001D01*
X136794653Y-124223384D01*
X136748466Y-124134470D01*
X156694706Y-124134470D01*
X156713854Y-124377772D01*
X156770828Y-124615082D01*
X156772718Y-124619645D01*
X156772720Y-124619651D01*
X156862328Y-124835985D01*
X156864223Y-124840559D01*
X156991741Y-125048649D01*
X157150241Y-125234229D01*
X157335821Y-125392729D01*
X157543911Y-125520247D01*
X157548481Y-125522140D01*
X157548485Y-125522142D01*
X157764819Y-125611750D01*
X157764825Y-125611752D01*
X157769388Y-125613642D01*
X157774188Y-125614794D01*
X157774193Y-125614796D01*
X157882702Y-125640847D01*
X158006698Y-125670616D01*
X158250000Y-125689764D01*
X158493302Y-125670616D01*
X158617298Y-125640847D01*
X158725807Y-125614796D01*
X158725812Y-125614794D01*
X158730612Y-125613642D01*
X158735175Y-125611752D01*
X158735181Y-125611750D01*
X158951515Y-125522142D01*
X158951519Y-125522140D01*
X158956089Y-125520247D01*
X159164179Y-125392729D01*
X159193498Y-125367688D01*
X160199500Y-125367688D01*
X160200170Y-125372238D01*
X160200170Y-125372241D01*
X160208216Y-125426896D01*
X160209642Y-125436582D01*
X160213958Y-125445372D01*
X160251650Y-125522142D01*
X160261068Y-125541325D01*
X160343650Y-125623763D01*
X160448482Y-125675006D01*
X160478973Y-125679454D01*
X160512256Y-125684310D01*
X160512260Y-125684310D01*
X160516782Y-125684970D01*
X162983218Y-125684970D01*
X162987768Y-125684300D01*
X162987771Y-125684300D01*
X163042426Y-125676254D01*
X163042427Y-125676254D01*
X163052112Y-125674828D01*
X163146804Y-125628337D01*
X163147507Y-125627992D01*
X163147509Y-125627991D01*
X163156855Y-125623402D01*
X163239293Y-125540820D01*
X163253559Y-125511636D01*
X163286240Y-125444776D01*
X163290536Y-125435988D01*
X163300500Y-125367688D01*
X163300500Y-122901252D01*
X163291871Y-122842632D01*
X163291784Y-122842044D01*
X163291784Y-122842043D01*
X163290358Y-122832358D01*
X163265860Y-122782462D01*
X163243522Y-122736963D01*
X163243521Y-122736961D01*
X163238932Y-122727615D01*
X163156350Y-122645177D01*
X163051518Y-122593934D01*
X163021027Y-122589486D01*
X162987744Y-122584630D01*
X162987740Y-122584630D01*
X162983218Y-122583970D01*
X160516782Y-122583970D01*
X160512232Y-122584640D01*
X160512229Y-122584640D01*
X160457574Y-122592686D01*
X160457573Y-122592686D01*
X160447888Y-122594112D01*
X160436957Y-122599479D01*
X160352493Y-122640948D01*
X160352491Y-122640949D01*
X160343145Y-122645538D01*
X160260707Y-122728120D01*
X160209464Y-122832952D01*
X160199500Y-122901252D01*
X160199500Y-125367688D01*
X159193498Y-125367688D01*
X159349759Y-125234229D01*
X159508259Y-125048649D01*
X159635777Y-124840559D01*
X159637672Y-124835985D01*
X159727280Y-124619651D01*
X159727282Y-124619645D01*
X159729172Y-124615082D01*
X159786146Y-124377772D01*
X159805294Y-124134470D01*
X159786146Y-123891168D01*
X159729172Y-123653858D01*
X159727282Y-123649295D01*
X159727280Y-123649289D01*
X159637672Y-123432955D01*
X159637670Y-123432951D01*
X159635777Y-123428381D01*
X159508259Y-123220291D01*
X159349759Y-123034711D01*
X159164179Y-122876211D01*
X158956089Y-122748693D01*
X158951519Y-122746800D01*
X158951515Y-122746798D01*
X158735181Y-122657190D01*
X158735175Y-122657188D01*
X158730612Y-122655298D01*
X158725812Y-122654146D01*
X158725807Y-122654144D01*
X158617298Y-122628093D01*
X158493302Y-122598324D01*
X158250000Y-122579176D01*
X158006698Y-122598324D01*
X157882702Y-122628093D01*
X157774193Y-122654144D01*
X157774188Y-122654146D01*
X157769388Y-122655298D01*
X157764825Y-122657188D01*
X157764819Y-122657190D01*
X157548485Y-122746798D01*
X157548481Y-122746800D01*
X157543911Y-122748693D01*
X157335821Y-122876211D01*
X157150241Y-123034711D01*
X156991741Y-123220291D01*
X156864223Y-123428381D01*
X156862330Y-123432951D01*
X156862328Y-123432955D01*
X156772720Y-123649289D01*
X156772718Y-123649295D01*
X156770828Y-123653858D01*
X156713854Y-123891168D01*
X156694706Y-124134470D01*
X136748466Y-124134470D01*
X136667322Y-123978263D01*
X136664739Y-123974648D01*
X136664735Y-123974642D01*
X136509313Y-123757150D01*
X136509310Y-123757146D01*
X136506725Y-123753529D01*
X136316064Y-123553665D01*
X136312567Y-123550908D01*
X136102639Y-123385414D01*
X136102637Y-123385413D01*
X136099144Y-123382659D01*
X135986609Y-123317294D01*
X135864147Y-123246161D01*
X135864141Y-123246158D01*
X135860293Y-123243923D01*
X135604277Y-123140226D01*
X135599964Y-123139155D01*
X135599959Y-123139153D01*
X135340525Y-123074709D01*
X135340520Y-123074708D01*
X135336204Y-123073636D01*
X135331776Y-123073182D01*
X135331774Y-123073182D01*
X135251573Y-123064965D01*
X135100630Y-123049500D01*
X134929638Y-123049500D01*
X134724470Y-123064027D01*
X134720115Y-123064965D01*
X134720112Y-123064965D01*
X134458785Y-123121227D01*
X134458783Y-123121227D01*
X134454438Y-123122163D01*
X134195291Y-123217767D01*
X134191373Y-123219881D01*
X134142668Y-123246161D01*
X133952200Y-123348932D01*
X133730016Y-123513040D01*
X133533171Y-123706817D01*
X133365594Y-123926396D01*
X133363416Y-123930285D01*
X133246306Y-124139400D01*
X133230627Y-124167396D01*
X133130964Y-124425009D01*
X133068593Y-124694095D01*
X133044759Y-124969285D01*
X130500000Y-124969285D01*
X130500000Y-115704669D01*
X134942453Y-115704669D01*
X134942823Y-115711490D01*
X134948347Y-115762352D01*
X134951973Y-115777604D01*
X134997128Y-115898054D01*
X135005666Y-115913649D01*
X135082167Y-116015724D01*
X135094728Y-116028285D01*
X135196803Y-116104786D01*
X135212398Y-116113324D01*
X135332846Y-116158478D01*
X135348101Y-116162105D01*
X135398966Y-116167631D01*
X135405780Y-116168000D01*
X136078337Y-116168000D01*
X136093576Y-116163525D01*
X136094781Y-116162135D01*
X136096452Y-116154452D01*
X136096452Y-116149884D01*
X136604452Y-116149884D01*
X136608927Y-116165123D01*
X136610317Y-116166328D01*
X136618000Y-116167999D01*
X137295121Y-116167999D01*
X137301942Y-116167629D01*
X137352804Y-116162105D01*
X137368056Y-116158479D01*
X137488506Y-116113324D01*
X137504101Y-116104786D01*
X137606176Y-116028285D01*
X137618737Y-116015724D01*
X137695238Y-115913649D01*
X137703776Y-115898054D01*
X137748930Y-115777606D01*
X137752557Y-115762351D01*
X137758083Y-115711486D01*
X137758452Y-115704672D01*
X137758452Y-115032115D01*
X137753977Y-115016876D01*
X137752587Y-115015671D01*
X137744904Y-115014000D01*
X136622567Y-115014000D01*
X136607328Y-115018475D01*
X136606123Y-115019865D01*
X136604452Y-115027548D01*
X136604452Y-116149884D01*
X136096452Y-116149884D01*
X136096452Y-115032115D01*
X136091977Y-115016876D01*
X136090587Y-115015671D01*
X136082904Y-115014000D01*
X134960568Y-115014000D01*
X134945329Y-115018475D01*
X134944124Y-115019865D01*
X134942453Y-115027548D01*
X134942453Y-115704669D01*
X130500000Y-115704669D01*
X130500000Y-114487885D01*
X134942452Y-114487885D01*
X134946927Y-114503124D01*
X134948317Y-114504329D01*
X134956000Y-114506000D01*
X137740336Y-114506000D01*
X137755575Y-114501525D01*
X137756780Y-114500135D01*
X137758451Y-114492452D01*
X137758451Y-113815331D01*
X137758081Y-113808510D01*
X137752557Y-113757648D01*
X137748931Y-113742396D01*
X137703776Y-113621946D01*
X137695238Y-113606351D01*
X137618737Y-113504276D01*
X137606176Y-113491715D01*
X137504101Y-113415214D01*
X137488506Y-113406676D01*
X137368058Y-113361522D01*
X137352803Y-113357895D01*
X137301938Y-113352369D01*
X137295124Y-113352000D01*
X137291117Y-113352000D01*
X137222996Y-113331998D01*
X137176503Y-113278342D01*
X137166399Y-113208068D01*
X137195893Y-113143488D01*
X137202022Y-113136905D01*
X137312050Y-113026877D01*
X137437554Y-112847638D01*
X137530027Y-112649330D01*
X137540159Y-112611519D01*
X137567487Y-112509528D01*
X137586659Y-112437977D01*
X137605729Y-112220000D01*
X137586659Y-112002023D01*
X137530027Y-111790670D01*
X137500557Y-111727472D01*
X137439877Y-111597343D01*
X137439875Y-111597340D01*
X137437554Y-111592362D01*
X137312050Y-111413123D01*
X137157329Y-111258402D01*
X137152821Y-111255245D01*
X137152818Y-111255243D01*
X136982600Y-111136055D01*
X136982597Y-111136053D01*
X136978091Y-111132898D01*
X136973109Y-111130575D01*
X136973104Y-111130572D01*
X136784764Y-111042748D01*
X136784763Y-111042747D01*
X136779782Y-111040425D01*
X136774474Y-111039003D01*
X136774472Y-111039002D01*
X136681685Y-111014140D01*
X136568429Y-110983793D01*
X136350452Y-110964723D01*
X136132475Y-110983793D01*
X136019219Y-111014140D01*
X135926432Y-111039002D01*
X135926430Y-111039003D01*
X135921122Y-111040425D01*
X135916142Y-111042747D01*
X135916140Y-111042748D01*
X135727795Y-111130575D01*
X135727792Y-111130577D01*
X135722814Y-111132898D01*
X135543575Y-111258402D01*
X135388854Y-111413123D01*
X135263350Y-111592362D01*
X135261029Y-111597340D01*
X135261027Y-111597343D01*
X135200347Y-111727472D01*
X135170877Y-111790670D01*
X135114245Y-112002023D01*
X135095175Y-112220000D01*
X135114245Y-112437977D01*
X135133417Y-112509528D01*
X135160746Y-112611519D01*
X135170877Y-112649330D01*
X135263350Y-112847638D01*
X135388854Y-113026877D01*
X135498883Y-113136906D01*
X135532909Y-113199218D01*
X135527844Y-113270033D01*
X135485297Y-113326869D01*
X135418777Y-113351680D01*
X135409788Y-113352001D01*
X135405783Y-113352001D01*
X135398962Y-113352371D01*
X135348100Y-113357895D01*
X135332848Y-113361521D01*
X135212398Y-113406676D01*
X135196803Y-113415214D01*
X135094728Y-113491715D01*
X135082167Y-113504276D01*
X135005666Y-113606351D01*
X134997128Y-113621946D01*
X134951974Y-113742394D01*
X134948347Y-113757649D01*
X134942821Y-113808514D01*
X134942452Y-113815328D01*
X134942452Y-114487885D01*
X130500000Y-114487885D01*
X130500000Y-110919754D01*
X140254967Y-110919754D01*
X140268796Y-111130749D01*
X140270217Y-111136345D01*
X140270218Y-111136350D01*
X140305973Y-111277133D01*
X140320845Y-111335690D01*
X140409369Y-111527714D01*
X140531405Y-111700391D01*
X140682865Y-111847937D01*
X140687661Y-111851142D01*
X140687664Y-111851144D01*
X140830936Y-111946875D01*
X140858677Y-111965411D01*
X140863985Y-111967692D01*
X140863986Y-111967692D01*
X141047650Y-112046600D01*
X141047653Y-112046601D01*
X141052953Y-112048878D01*
X141058582Y-112050152D01*
X141058583Y-112050152D01*
X141253550Y-112094269D01*
X141253553Y-112094269D01*
X141259186Y-112095544D01*
X141264957Y-112095771D01*
X141264959Y-112095771D01*
X141326989Y-112098208D01*
X141470470Y-112103846D01*
X141476179Y-112103018D01*
X141476183Y-112103018D01*
X141674015Y-112074333D01*
X141674019Y-112074332D01*
X141679730Y-112073504D01*
X141791136Y-112035687D01*
X141874483Y-112007395D01*
X141874488Y-112007393D01*
X141879955Y-112005537D01*
X141886230Y-112002023D01*
X142059395Y-111905046D01*
X142059399Y-111905043D01*
X142064442Y-111902219D01*
X142227012Y-111767012D01*
X142362219Y-111604442D01*
X142365043Y-111599399D01*
X142365046Y-111599395D01*
X142462713Y-111424998D01*
X142462714Y-111424996D01*
X142465537Y-111419955D01*
X142467393Y-111414488D01*
X142467395Y-111414483D01*
X142531647Y-111225200D01*
X142533504Y-111219730D01*
X142534333Y-111214015D01*
X142555090Y-111070860D01*
X142584660Y-111006315D01*
X142644432Y-110968003D01*
X142715429Y-110968087D01*
X142775109Y-111006542D01*
X142804525Y-111071158D01*
X142805515Y-111080695D01*
X142808796Y-111130749D01*
X142810217Y-111136345D01*
X142810218Y-111136350D01*
X142845973Y-111277133D01*
X142860845Y-111335690D01*
X142949369Y-111527714D01*
X143071405Y-111700391D01*
X143222865Y-111847937D01*
X143227661Y-111851142D01*
X143227664Y-111851144D01*
X143370936Y-111946875D01*
X143398677Y-111965411D01*
X143403985Y-111967692D01*
X143403986Y-111967692D01*
X143587650Y-112046600D01*
X143587653Y-112046601D01*
X143592953Y-112048878D01*
X143598582Y-112050152D01*
X143598583Y-112050152D01*
X143793550Y-112094269D01*
X143793553Y-112094269D01*
X143799186Y-112095544D01*
X143804957Y-112095771D01*
X143804959Y-112095771D01*
X143866989Y-112098208D01*
X144010470Y-112103846D01*
X144016179Y-112103018D01*
X144016183Y-112103018D01*
X144214015Y-112074333D01*
X144214019Y-112074332D01*
X144219730Y-112073504D01*
X144331136Y-112035687D01*
X144414483Y-112007395D01*
X144414488Y-112007393D01*
X144419955Y-112005537D01*
X144426230Y-112002023D01*
X144599395Y-111905046D01*
X144599399Y-111905043D01*
X144604442Y-111902219D01*
X144767012Y-111767012D01*
X144860173Y-111654997D01*
X156935500Y-111654997D01*
X156950942Y-111807024D01*
X157011967Y-112001755D01*
X157015065Y-112007344D01*
X157029390Y-112033187D01*
X157110902Y-112180238D01*
X157243705Y-112335182D01*
X157404951Y-112460257D01*
X157410673Y-112463072D01*
X157410672Y-112463072D01*
X157582332Y-112547540D01*
X157582337Y-112547542D01*
X157588054Y-112550355D01*
X157594227Y-112551963D01*
X157594230Y-112551964D01*
X157661557Y-112569501D01*
X157785533Y-112601794D01*
X157887428Y-112607134D01*
X157982942Y-112612141D01*
X157982946Y-112612141D01*
X157989323Y-112612475D01*
X158191097Y-112581959D01*
X158382615Y-112511494D01*
X158556051Y-112403959D01*
X158704323Y-112263746D01*
X158716727Y-112246032D01*
X158817708Y-112101815D01*
X158817711Y-112101810D01*
X158821372Y-112096582D01*
X158902418Y-111909297D01*
X158944149Y-111709540D01*
X158944500Y-111702842D01*
X158944500Y-111654997D01*
X159475500Y-111654997D01*
X159490942Y-111807024D01*
X159551967Y-112001755D01*
X159555065Y-112007344D01*
X159569390Y-112033187D01*
X159650902Y-112180238D01*
X159783705Y-112335182D01*
X159944951Y-112460257D01*
X159950673Y-112463072D01*
X159950672Y-112463072D01*
X160122332Y-112547540D01*
X160122337Y-112547542D01*
X160128054Y-112550355D01*
X160134227Y-112551963D01*
X160134230Y-112551964D01*
X160201557Y-112569501D01*
X160325533Y-112601794D01*
X160427428Y-112607134D01*
X160522942Y-112612141D01*
X160522946Y-112612141D01*
X160529323Y-112612475D01*
X160731097Y-112581959D01*
X160922615Y-112511494D01*
X161096051Y-112403959D01*
X161244323Y-112263746D01*
X161256727Y-112246032D01*
X161357708Y-112101815D01*
X161357711Y-112101810D01*
X161361372Y-112096582D01*
X161442418Y-111909297D01*
X161484149Y-111709540D01*
X161484500Y-111702842D01*
X161484500Y-111654997D01*
X162015500Y-111654997D01*
X162030942Y-111807024D01*
X162091967Y-112001755D01*
X162095065Y-112007344D01*
X162109390Y-112033187D01*
X162190902Y-112180238D01*
X162323705Y-112335182D01*
X162484951Y-112460257D01*
X162490673Y-112463072D01*
X162490672Y-112463072D01*
X162662332Y-112547540D01*
X162662337Y-112547542D01*
X162668054Y-112550355D01*
X162741558Y-112569501D01*
X162798892Y-112602337D01*
X167775077Y-117578522D01*
X167784932Y-117589612D01*
X167798771Y-117607167D01*
X167798775Y-117607170D01*
X167804604Y-117614565D01*
X167812351Y-117619919D01*
X167812355Y-117619923D01*
X167850251Y-117646115D01*
X167853471Y-117648415D01*
X167866374Y-117657945D01*
X167898079Y-117681363D01*
X167904531Y-117683629D01*
X167910157Y-117687517D01*
X167919134Y-117690356D01*
X167919136Y-117690357D01*
X167963061Y-117704248D01*
X167966791Y-117705493D01*
X168019141Y-117723877D01*
X168025977Y-117724146D01*
X168032495Y-117726207D01*
X168038759Y-117726700D01*
X168088520Y-117726700D01*
X168093466Y-117726797D01*
X168147352Y-117728914D01*
X168154163Y-117727108D01*
X168161578Y-117726700D01*
X187117190Y-117726700D01*
X187131998Y-117727573D01*
X187163555Y-117731308D01*
X187172817Y-117729616D01*
X187172826Y-117729616D01*
X187218152Y-117721337D01*
X187222060Y-117720686D01*
X187224089Y-117720381D01*
X187276884Y-117712444D01*
X187283048Y-117709484D01*
X187289777Y-117708255D01*
X187339015Y-117682678D01*
X187342531Y-117680921D01*
X187384059Y-117660980D01*
X187384063Y-117660978D01*
X187392550Y-117656902D01*
X187397572Y-117652259D01*
X187403641Y-117649107D01*
X187408419Y-117645026D01*
X187443594Y-117609851D01*
X187447160Y-117606421D01*
X187479856Y-117576197D01*
X187486771Y-117569805D01*
X187490310Y-117563713D01*
X187495269Y-117558176D01*
X192788527Y-112264918D01*
X192850839Y-112230892D01*
X192921654Y-112235957D01*
X192943457Y-112246581D01*
X193116911Y-112352875D01*
X193116921Y-112352880D01*
X193121141Y-112355466D01*
X193125711Y-112357359D01*
X193125715Y-112357361D01*
X193349316Y-112449979D01*
X193353889Y-112451873D01*
X193400537Y-112463072D01*
X193594039Y-112509528D01*
X193594045Y-112509529D01*
X193598852Y-112510683D01*
X193850000Y-112530449D01*
X194101148Y-112510683D01*
X194105955Y-112509529D01*
X194105961Y-112509528D01*
X194299463Y-112463072D01*
X194346111Y-112451873D01*
X194350684Y-112449979D01*
X194574285Y-112357361D01*
X194574289Y-112357359D01*
X194578859Y-112355466D01*
X194793659Y-112223836D01*
X194797419Y-112220624D01*
X194797424Y-112220621D01*
X194981462Y-112063437D01*
X194985224Y-112060224D01*
X195034343Y-112002713D01*
X195145621Y-111872424D01*
X195145624Y-111872419D01*
X195148836Y-111868659D01*
X195280466Y-111653859D01*
X195329456Y-111535588D01*
X195374979Y-111425684D01*
X195374980Y-111425682D01*
X195376873Y-111421111D01*
X195403252Y-111311234D01*
X195434528Y-111180961D01*
X195434529Y-111180955D01*
X195435683Y-111176148D01*
X195446182Y-111042748D01*
X195450307Y-110990339D01*
X195450307Y-110990330D01*
X195450500Y-110987882D01*
X195450500Y-110861508D01*
X198374500Y-110861508D01*
X198374712Y-110864081D01*
X198374712Y-110864092D01*
X198388900Y-111036662D01*
X198388901Y-111036668D01*
X198389324Y-111041813D01*
X198390583Y-111046824D01*
X198442934Y-111255243D01*
X198448432Y-111277133D01*
X198450490Y-111281866D01*
X198450491Y-111281869D01*
X198512726Y-111424998D01*
X198545180Y-111499638D01*
X198676970Y-111703355D01*
X198680449Y-111707178D01*
X198680451Y-111707181D01*
X198836785Y-111878989D01*
X198840263Y-111882811D01*
X198844314Y-111886010D01*
X198844318Y-111886014D01*
X198873800Y-111909297D01*
X199030672Y-112033187D01*
X199243086Y-112150446D01*
X199350516Y-112188489D01*
X199466923Y-112229711D01*
X199466927Y-112229712D01*
X199471798Y-112231437D01*
X199476891Y-112232344D01*
X199476894Y-112232345D01*
X199705578Y-112273080D01*
X199705584Y-112273081D01*
X199710667Y-112273986D01*
X199790442Y-112274961D01*
X199948108Y-112276887D01*
X199948110Y-112276887D01*
X199953278Y-112276950D01*
X200193116Y-112240250D01*
X200423739Y-112164871D01*
X200599253Y-112073504D01*
X200634365Y-112055226D01*
X200634366Y-112055225D01*
X200638954Y-112052837D01*
X200643087Y-112049734D01*
X200643090Y-112049732D01*
X200828846Y-111910263D01*
X200828849Y-111910261D01*
X200832981Y-111907158D01*
X201000609Y-111731745D01*
X201017366Y-111707181D01*
X201134418Y-111535588D01*
X201137337Y-111531309D01*
X201239492Y-111311234D01*
X201304332Y-111077429D01*
X201314390Y-110983314D01*
X201325144Y-110882691D01*
X201325144Y-110882683D01*
X201325500Y-110879356D01*
X201325500Y-108488492D01*
X201324033Y-108470644D01*
X201311100Y-108313338D01*
X201311099Y-108313332D01*
X201310676Y-108308187D01*
X201251568Y-108072867D01*
X201238911Y-108043758D01*
X201156880Y-107855099D01*
X201156878Y-107855096D01*
X201154820Y-107850362D01*
X201023030Y-107646645D01*
X201001086Y-107622528D01*
X200863215Y-107471011D01*
X200863213Y-107471010D01*
X200859737Y-107467189D01*
X200855686Y-107463990D01*
X200855682Y-107463986D01*
X200673386Y-107320018D01*
X200669328Y-107316813D01*
X200456914Y-107199554D01*
X200242370Y-107123580D01*
X200233077Y-107120289D01*
X200233073Y-107120288D01*
X200228202Y-107118563D01*
X200223109Y-107117656D01*
X200223106Y-107117655D01*
X199994422Y-107076920D01*
X199994416Y-107076919D01*
X199989333Y-107076014D01*
X199909558Y-107075039D01*
X199751892Y-107073113D01*
X199751890Y-107073113D01*
X199746722Y-107073050D01*
X199506884Y-107109750D01*
X199276261Y-107185129D01*
X199248551Y-107199554D01*
X199068010Y-107293538D01*
X199061046Y-107297163D01*
X199056913Y-107300266D01*
X199056910Y-107300268D01*
X198970410Y-107365214D01*
X198867019Y-107442842D01*
X198699391Y-107618255D01*
X198696477Y-107622527D01*
X198696476Y-107622528D01*
X198646261Y-107696141D01*
X198562663Y-107818691D01*
X198460508Y-108038766D01*
X198395668Y-108272571D01*
X198395119Y-108277708D01*
X198376244Y-108454329D01*
X198374500Y-108470644D01*
X198374500Y-110861508D01*
X195450500Y-110861508D01*
X195450500Y-108362118D01*
X195446256Y-108308187D01*
X195436071Y-108178786D01*
X195435683Y-108173852D01*
X195404451Y-108043758D01*
X195378028Y-107933701D01*
X195376873Y-107928889D01*
X195374979Y-107924316D01*
X195282361Y-107700715D01*
X195282359Y-107700711D01*
X195280466Y-107696141D01*
X195148836Y-107481341D01*
X195145624Y-107477581D01*
X195145621Y-107477576D01*
X194988437Y-107293538D01*
X194985224Y-107289776D01*
X194913294Y-107228342D01*
X194797424Y-107129379D01*
X194797419Y-107129376D01*
X194793659Y-107126164D01*
X194578859Y-106994534D01*
X194574289Y-106992641D01*
X194574285Y-106992639D01*
X194350684Y-106900021D01*
X194350682Y-106900020D01*
X194346111Y-106898127D01*
X194261711Y-106877865D01*
X194105961Y-106840472D01*
X194105955Y-106840471D01*
X194101148Y-106839317D01*
X193850000Y-106819551D01*
X193598852Y-106839317D01*
X193594045Y-106840471D01*
X193594039Y-106840472D01*
X193438289Y-106877865D01*
X193353889Y-106898127D01*
X193349318Y-106900020D01*
X193349316Y-106900021D01*
X193125715Y-106992639D01*
X193125711Y-106992641D01*
X193121141Y-106994534D01*
X192906341Y-107126164D01*
X192902581Y-107129376D01*
X192902576Y-107129379D01*
X192786706Y-107228342D01*
X192714776Y-107289776D01*
X192711563Y-107293538D01*
X192554379Y-107477576D01*
X192554376Y-107477581D01*
X192551164Y-107481341D01*
X192419534Y-107696141D01*
X192417641Y-107700711D01*
X192417639Y-107700715D01*
X192325021Y-107924316D01*
X192323127Y-107928889D01*
X192321972Y-107933701D01*
X192295550Y-108043758D01*
X192264317Y-108173852D01*
X192263929Y-108178786D01*
X192253745Y-108308187D01*
X192249500Y-108362118D01*
X192249500Y-110987882D01*
X192249693Y-110990330D01*
X192249693Y-110990339D01*
X192253818Y-111042748D01*
X192264317Y-111176148D01*
X192265471Y-111180955D01*
X192265472Y-111180961D01*
X192296748Y-111311234D01*
X192323127Y-111421111D01*
X192324675Y-111424849D01*
X192326694Y-111495565D01*
X192293929Y-111552627D01*
X187010160Y-116836395D01*
X186947848Y-116870421D01*
X186921065Y-116873300D01*
X168328934Y-116873300D01*
X168260813Y-116853298D01*
X168239839Y-116836395D01*
X163810843Y-112407398D01*
X163776817Y-112345086D01*
X163781882Y-112274271D01*
X163796721Y-112246040D01*
X163901372Y-112096582D01*
X163982418Y-111909297D01*
X164024149Y-111709540D01*
X164024500Y-111702842D01*
X164024500Y-111654997D01*
X164555500Y-111654997D01*
X164570942Y-111807024D01*
X164631967Y-112001755D01*
X164635065Y-112007344D01*
X164649390Y-112033187D01*
X164730902Y-112180238D01*
X164863705Y-112335182D01*
X165024951Y-112460257D01*
X165030673Y-112463072D01*
X165030672Y-112463072D01*
X165202332Y-112547540D01*
X165202337Y-112547542D01*
X165208054Y-112550355D01*
X165214227Y-112551963D01*
X165214230Y-112551964D01*
X165281557Y-112569501D01*
X165405533Y-112601794D01*
X165507428Y-112607134D01*
X165602942Y-112612141D01*
X165602946Y-112612141D01*
X165609323Y-112612475D01*
X165811097Y-112581959D01*
X166002615Y-112511494D01*
X166176051Y-112403959D01*
X166324323Y-112263746D01*
X166336727Y-112246032D01*
X166437708Y-112101815D01*
X166437711Y-112101810D01*
X166441372Y-112096582D01*
X166522418Y-111909297D01*
X166564149Y-111709540D01*
X166564500Y-111702842D01*
X166564500Y-111654997D01*
X167095500Y-111654997D01*
X167110942Y-111807024D01*
X167171967Y-112001755D01*
X167175065Y-112007344D01*
X167189390Y-112033187D01*
X167270902Y-112180238D01*
X167403705Y-112335182D01*
X167564951Y-112460257D01*
X167570673Y-112463072D01*
X167570672Y-112463072D01*
X167742332Y-112547540D01*
X167742337Y-112547542D01*
X167748054Y-112550355D01*
X167754227Y-112551963D01*
X167754230Y-112551964D01*
X167821557Y-112569501D01*
X167945533Y-112601794D01*
X168047428Y-112607134D01*
X168142942Y-112612141D01*
X168142946Y-112612141D01*
X168149323Y-112612475D01*
X168351097Y-112581959D01*
X168542615Y-112511494D01*
X168716051Y-112403959D01*
X168864323Y-112263746D01*
X168876727Y-112246032D01*
X168977708Y-112101815D01*
X168977711Y-112101810D01*
X168981372Y-112096582D01*
X169062418Y-111909297D01*
X169104149Y-111709540D01*
X169104500Y-111702842D01*
X169104500Y-111654997D01*
X169635500Y-111654997D01*
X169650942Y-111807024D01*
X169711967Y-112001755D01*
X169715065Y-112007344D01*
X169729390Y-112033187D01*
X169810902Y-112180238D01*
X169943705Y-112335182D01*
X170104951Y-112460257D01*
X170110673Y-112463072D01*
X170110672Y-112463072D01*
X170282332Y-112547540D01*
X170282337Y-112547542D01*
X170288054Y-112550355D01*
X170294227Y-112551963D01*
X170294230Y-112551964D01*
X170361557Y-112569501D01*
X170485533Y-112601794D01*
X170587428Y-112607134D01*
X170682942Y-112612141D01*
X170682946Y-112612141D01*
X170689323Y-112612475D01*
X170891097Y-112581959D01*
X171082615Y-112511494D01*
X171256051Y-112403959D01*
X171404323Y-112263746D01*
X171416727Y-112246032D01*
X171517708Y-112101815D01*
X171517711Y-112101810D01*
X171521372Y-112096582D01*
X171602418Y-111909297D01*
X171644149Y-111709540D01*
X171644500Y-111702842D01*
X171644500Y-110245003D01*
X171635323Y-110154655D01*
X171629703Y-110099324D01*
X171629703Y-110099322D01*
X171629058Y-110092976D01*
X171568033Y-109898245D01*
X171469098Y-109719762D01*
X171336295Y-109564818D01*
X171175049Y-109439743D01*
X171066439Y-109386300D01*
X170997668Y-109352460D01*
X170997663Y-109352458D01*
X170991946Y-109349645D01*
X170985773Y-109348037D01*
X170985770Y-109348036D01*
X170866949Y-109317086D01*
X170794467Y-109298206D01*
X170692572Y-109292865D01*
X170597058Y-109287859D01*
X170597054Y-109287859D01*
X170590677Y-109287525D01*
X170388903Y-109318041D01*
X170197385Y-109388506D01*
X170023949Y-109496041D01*
X169875677Y-109636254D01*
X169872015Y-109641484D01*
X169872014Y-109641485D01*
X169762292Y-109798185D01*
X169758628Y-109803418D01*
X169677582Y-109990703D01*
X169635851Y-110190460D01*
X169635500Y-110197158D01*
X169635500Y-111654997D01*
X169104500Y-111654997D01*
X169104500Y-110245003D01*
X169095323Y-110154655D01*
X169089703Y-110099324D01*
X169089703Y-110099322D01*
X169089058Y-110092976D01*
X169028033Y-109898245D01*
X168929098Y-109719762D01*
X168796295Y-109564818D01*
X168635049Y-109439743D01*
X168526439Y-109386300D01*
X168457668Y-109352460D01*
X168457663Y-109352458D01*
X168451946Y-109349645D01*
X168445773Y-109348037D01*
X168445770Y-109348036D01*
X168326949Y-109317086D01*
X168254467Y-109298206D01*
X168152572Y-109292865D01*
X168057058Y-109287859D01*
X168057054Y-109287859D01*
X168050677Y-109287525D01*
X167848903Y-109318041D01*
X167657385Y-109388506D01*
X167483949Y-109496041D01*
X167335677Y-109636254D01*
X167332015Y-109641484D01*
X167332014Y-109641485D01*
X167222292Y-109798185D01*
X167218628Y-109803418D01*
X167137582Y-109990703D01*
X167095851Y-110190460D01*
X167095500Y-110197158D01*
X167095500Y-111654997D01*
X166564500Y-111654997D01*
X166564500Y-110245003D01*
X166555323Y-110154655D01*
X166549703Y-110099324D01*
X166549703Y-110099322D01*
X166549058Y-110092976D01*
X166488033Y-109898245D01*
X166389098Y-109719762D01*
X166256295Y-109564818D01*
X166095049Y-109439743D01*
X165986439Y-109386300D01*
X165917668Y-109352460D01*
X165917663Y-109352458D01*
X165911946Y-109349645D01*
X165905773Y-109348037D01*
X165905770Y-109348036D01*
X165786949Y-109317086D01*
X165714467Y-109298206D01*
X165612572Y-109292865D01*
X165517058Y-109287859D01*
X165517054Y-109287859D01*
X165510677Y-109287525D01*
X165308903Y-109318041D01*
X165117385Y-109388506D01*
X164943949Y-109496041D01*
X164795677Y-109636254D01*
X164792015Y-109641484D01*
X164792014Y-109641485D01*
X164682292Y-109798185D01*
X164678628Y-109803418D01*
X164597582Y-109990703D01*
X164555851Y-110190460D01*
X164555500Y-110197158D01*
X164555500Y-111654997D01*
X164024500Y-111654997D01*
X164024500Y-110245003D01*
X164015323Y-110154655D01*
X164009703Y-110099324D01*
X164009703Y-110099322D01*
X164009058Y-110092976D01*
X163948033Y-109898245D01*
X163849098Y-109719762D01*
X163716295Y-109564818D01*
X163555049Y-109439743D01*
X163446439Y-109386300D01*
X163377668Y-109352460D01*
X163377663Y-109352458D01*
X163371946Y-109349645D01*
X163365773Y-109348037D01*
X163365770Y-109348036D01*
X163246949Y-109317086D01*
X163174467Y-109298206D01*
X163072572Y-109292865D01*
X162977058Y-109287859D01*
X162977054Y-109287859D01*
X162970677Y-109287525D01*
X162768903Y-109318041D01*
X162577385Y-109388506D01*
X162403949Y-109496041D01*
X162255677Y-109636254D01*
X162252015Y-109641484D01*
X162252014Y-109641485D01*
X162142292Y-109798185D01*
X162138628Y-109803418D01*
X162057582Y-109990703D01*
X162015851Y-110190460D01*
X162015500Y-110197158D01*
X162015500Y-111654997D01*
X161484500Y-111654997D01*
X161484500Y-110245003D01*
X161475323Y-110154655D01*
X161469703Y-110099324D01*
X161469703Y-110099322D01*
X161469058Y-110092976D01*
X161408033Y-109898245D01*
X161309098Y-109719762D01*
X161176295Y-109564818D01*
X161015049Y-109439743D01*
X160906439Y-109386300D01*
X160837668Y-109352460D01*
X160837663Y-109352458D01*
X160831946Y-109349645D01*
X160825773Y-109348037D01*
X160825770Y-109348036D01*
X160706949Y-109317086D01*
X160634467Y-109298206D01*
X160532572Y-109292865D01*
X160437058Y-109287859D01*
X160437054Y-109287859D01*
X160430677Y-109287525D01*
X160228903Y-109318041D01*
X160037385Y-109388506D01*
X159863949Y-109496041D01*
X159715677Y-109636254D01*
X159712015Y-109641484D01*
X159712014Y-109641485D01*
X159602292Y-109798185D01*
X159598628Y-109803418D01*
X159517582Y-109990703D01*
X159475851Y-110190460D01*
X159475500Y-110197158D01*
X159475500Y-111654997D01*
X158944500Y-111654997D01*
X158944500Y-110245003D01*
X158935323Y-110154655D01*
X158929703Y-110099324D01*
X158929703Y-110099322D01*
X158929058Y-110092976D01*
X158868033Y-109898245D01*
X158769098Y-109719762D01*
X158636295Y-109564818D01*
X158475049Y-109439743D01*
X158366439Y-109386300D01*
X158297668Y-109352460D01*
X158297663Y-109352458D01*
X158291946Y-109349645D01*
X158285773Y-109348037D01*
X158285770Y-109348036D01*
X158166949Y-109317086D01*
X158094467Y-109298206D01*
X157992572Y-109292865D01*
X157897058Y-109287859D01*
X157897054Y-109287859D01*
X157890677Y-109287525D01*
X157688903Y-109318041D01*
X157497385Y-109388506D01*
X157323949Y-109496041D01*
X157175677Y-109636254D01*
X157172015Y-109641484D01*
X157172014Y-109641485D01*
X157062292Y-109798185D01*
X157058628Y-109803418D01*
X156977582Y-109990703D01*
X156935851Y-110190460D01*
X156935500Y-110197158D01*
X156935500Y-111654997D01*
X144860173Y-111654997D01*
X144902219Y-111604442D01*
X144905043Y-111599399D01*
X144905046Y-111599395D01*
X145002713Y-111424998D01*
X145002714Y-111424996D01*
X145005537Y-111419955D01*
X145007393Y-111414488D01*
X145007395Y-111414483D01*
X145071647Y-111225200D01*
X145073504Y-111219730D01*
X145079126Y-111180961D01*
X145103314Y-111014140D01*
X145103314Y-111014138D01*
X145103846Y-111010470D01*
X145105429Y-110950000D01*
X145086081Y-110739440D01*
X145028686Y-110535931D01*
X145017553Y-110513354D01*
X144937719Y-110351469D01*
X144935165Y-110346290D01*
X144808651Y-110176867D01*
X144685821Y-110063324D01*
X144657622Y-110037257D01*
X144657620Y-110037255D01*
X144653381Y-110033337D01*
X144566129Y-109978285D01*
X144479434Y-109923584D01*
X144479433Y-109923584D01*
X144474554Y-109920505D01*
X144278160Y-109842152D01*
X144272503Y-109841027D01*
X144272497Y-109841025D01*
X144076442Y-109802028D01*
X144076440Y-109802028D01*
X144070775Y-109800901D01*
X144065000Y-109800825D01*
X144064996Y-109800825D01*
X143958976Y-109799437D01*
X143859346Y-109798133D01*
X143853649Y-109799112D01*
X143853648Y-109799112D01*
X143656650Y-109832962D01*
X143656649Y-109832962D01*
X143650953Y-109833941D01*
X143452575Y-109907127D01*
X143447614Y-109910079D01*
X143447613Y-109910079D01*
X143321946Y-109984843D01*
X143270856Y-110015238D01*
X143111881Y-110154655D01*
X142980976Y-110320708D01*
X142978287Y-110325819D01*
X142978285Y-110325822D01*
X142964792Y-110351469D01*
X142882523Y-110507836D01*
X142819820Y-110709773D01*
X142819141Y-110715510D01*
X142805088Y-110834239D01*
X142777217Y-110899537D01*
X142718469Y-110939401D01*
X142647494Y-110941174D01*
X142586828Y-110904295D01*
X142555730Y-110840471D01*
X142554490Y-110830958D01*
X142546610Y-110745197D01*
X142546081Y-110739440D01*
X142488686Y-110535931D01*
X142477553Y-110513354D01*
X142397719Y-110351469D01*
X142395165Y-110346290D01*
X142268651Y-110176867D01*
X142145821Y-110063324D01*
X142117622Y-110037257D01*
X142117620Y-110037255D01*
X142113381Y-110033337D01*
X142026129Y-109978285D01*
X141939434Y-109923584D01*
X141939433Y-109923584D01*
X141934554Y-109920505D01*
X141738160Y-109842152D01*
X141732503Y-109841027D01*
X141732497Y-109841025D01*
X141536442Y-109802028D01*
X141536440Y-109802028D01*
X141530775Y-109800901D01*
X141525000Y-109800825D01*
X141524996Y-109800825D01*
X141418976Y-109799437D01*
X141319346Y-109798133D01*
X141313649Y-109799112D01*
X141313648Y-109799112D01*
X141116650Y-109832962D01*
X141116649Y-109832962D01*
X141110953Y-109833941D01*
X140912575Y-109907127D01*
X140907614Y-109910079D01*
X140907613Y-109910079D01*
X140781946Y-109984843D01*
X140730856Y-110015238D01*
X140571881Y-110154655D01*
X140440976Y-110320708D01*
X140438287Y-110325819D01*
X140438285Y-110325822D01*
X140424792Y-110351469D01*
X140342523Y-110507836D01*
X140279820Y-110709773D01*
X140254967Y-110919754D01*
X130500000Y-110919754D01*
X130500000Y-109654669D01*
X134942453Y-109654669D01*
X134942823Y-109661490D01*
X134948347Y-109712352D01*
X134951973Y-109727604D01*
X134997128Y-109848054D01*
X135005666Y-109863649D01*
X135082167Y-109965724D01*
X135094728Y-109978285D01*
X135196803Y-110054786D01*
X135212398Y-110063324D01*
X135332846Y-110108478D01*
X135348101Y-110112105D01*
X135398966Y-110117631D01*
X135405780Y-110118000D01*
X136078337Y-110118000D01*
X136093576Y-110113525D01*
X136094781Y-110112135D01*
X136096452Y-110104452D01*
X136096452Y-110099884D01*
X136604452Y-110099884D01*
X136608927Y-110115123D01*
X136610317Y-110116328D01*
X136618000Y-110117999D01*
X137295121Y-110117999D01*
X137301942Y-110117629D01*
X137352804Y-110112105D01*
X137368056Y-110108479D01*
X137488506Y-110063324D01*
X137504101Y-110054786D01*
X137606176Y-109978285D01*
X137618737Y-109965724D01*
X137695238Y-109863649D01*
X137703776Y-109848054D01*
X137748930Y-109727606D01*
X137752557Y-109712351D01*
X137758083Y-109661486D01*
X137758452Y-109654672D01*
X137758452Y-108982115D01*
X137753977Y-108966876D01*
X137752587Y-108965671D01*
X137744904Y-108964000D01*
X136622567Y-108964000D01*
X136607328Y-108968475D01*
X136606123Y-108969865D01*
X136604452Y-108977548D01*
X136604452Y-110099884D01*
X136096452Y-110099884D01*
X136096452Y-108982115D01*
X136091977Y-108966876D01*
X136090587Y-108965671D01*
X136082904Y-108964000D01*
X134960568Y-108964000D01*
X134945329Y-108968475D01*
X134944124Y-108969865D01*
X134942453Y-108977548D01*
X134942453Y-109654669D01*
X130500000Y-109654669D01*
X130500000Y-108437885D01*
X134942452Y-108437885D01*
X134946927Y-108453124D01*
X134948317Y-108454329D01*
X134956000Y-108456000D01*
X137740336Y-108456000D01*
X137755575Y-108451525D01*
X137756780Y-108450135D01*
X137758451Y-108442452D01*
X137758451Y-107765331D01*
X137758081Y-107758510D01*
X137752557Y-107707648D01*
X137748931Y-107692396D01*
X137703776Y-107571946D01*
X137695238Y-107556351D01*
X137618737Y-107454276D01*
X137606176Y-107441715D01*
X137504101Y-107365214D01*
X137488506Y-107356676D01*
X137368058Y-107311522D01*
X137352803Y-107307895D01*
X137301938Y-107302369D01*
X137295124Y-107302000D01*
X137291117Y-107302000D01*
X137222996Y-107281998D01*
X137176503Y-107228342D01*
X137166399Y-107158068D01*
X137195893Y-107093488D01*
X137202022Y-107086905D01*
X137312050Y-106976877D01*
X137437554Y-106797638D01*
X137530027Y-106599330D01*
X137586659Y-106387977D01*
X137605729Y-106170000D01*
X137586659Y-105952023D01*
X137530027Y-105740670D01*
X137522022Y-105723504D01*
X137439877Y-105547343D01*
X137439875Y-105547340D01*
X137437554Y-105542362D01*
X137312050Y-105363123D01*
X137157329Y-105208402D01*
X137152821Y-105205245D01*
X137152818Y-105205243D01*
X136982600Y-105086055D01*
X136982597Y-105086053D01*
X136978091Y-105082898D01*
X136973109Y-105080575D01*
X136973104Y-105080572D01*
X136784764Y-104992748D01*
X136784763Y-104992747D01*
X136779782Y-104990425D01*
X136774474Y-104989003D01*
X136774472Y-104989002D01*
X136708707Y-104971380D01*
X136568429Y-104933793D01*
X136350452Y-104914723D01*
X136132475Y-104933793D01*
X135992197Y-104971380D01*
X135926432Y-104989002D01*
X135926430Y-104989003D01*
X135921122Y-104990425D01*
X135916142Y-104992747D01*
X135916140Y-104992748D01*
X135727795Y-105080575D01*
X135727792Y-105080577D01*
X135722814Y-105082898D01*
X135543575Y-105208402D01*
X135388854Y-105363123D01*
X135263350Y-105542362D01*
X135261029Y-105547340D01*
X135261027Y-105547343D01*
X135178882Y-105723504D01*
X135170877Y-105740670D01*
X135114245Y-105952023D01*
X135095175Y-106170000D01*
X135114245Y-106387977D01*
X135170877Y-106599330D01*
X135263350Y-106797638D01*
X135388854Y-106976877D01*
X135498883Y-107086906D01*
X135532909Y-107149218D01*
X135527844Y-107220033D01*
X135485297Y-107276869D01*
X135418777Y-107301680D01*
X135409788Y-107302001D01*
X135405783Y-107302001D01*
X135398962Y-107302371D01*
X135348100Y-107307895D01*
X135332848Y-107311521D01*
X135212398Y-107356676D01*
X135196803Y-107365214D01*
X135094728Y-107441715D01*
X135082167Y-107454276D01*
X135005666Y-107556351D01*
X134997128Y-107571946D01*
X134951974Y-107692394D01*
X134948347Y-107707649D01*
X134942821Y-107758514D01*
X134942452Y-107765328D01*
X134942452Y-108437885D01*
X130500000Y-108437885D01*
X130500000Y-104569754D01*
X140254967Y-104569754D01*
X140268796Y-104780749D01*
X140270217Y-104786345D01*
X140270218Y-104786350D01*
X140299753Y-104902641D01*
X140320845Y-104985690D01*
X140323262Y-104990933D01*
X140364586Y-105080572D01*
X140409369Y-105177714D01*
X140531405Y-105350391D01*
X140682865Y-105497937D01*
X140687661Y-105501142D01*
X140687664Y-105501144D01*
X140801245Y-105577036D01*
X140858677Y-105615411D01*
X140863985Y-105617692D01*
X140863986Y-105617692D01*
X141047650Y-105696600D01*
X141047653Y-105696601D01*
X141052953Y-105698878D01*
X141058582Y-105700152D01*
X141058583Y-105700152D01*
X141253550Y-105744269D01*
X141253553Y-105744269D01*
X141259186Y-105745544D01*
X141264957Y-105745771D01*
X141264959Y-105745771D01*
X141326989Y-105748208D01*
X141470470Y-105753846D01*
X141476179Y-105753018D01*
X141476183Y-105753018D01*
X141674015Y-105724333D01*
X141674019Y-105724332D01*
X141679730Y-105723504D01*
X141758987Y-105696600D01*
X141874483Y-105657395D01*
X141874488Y-105657393D01*
X141879955Y-105655537D01*
X141884998Y-105652713D01*
X142059395Y-105555046D01*
X142059399Y-105555043D01*
X142064442Y-105552219D01*
X142227012Y-105417012D01*
X142362219Y-105254442D01*
X142365043Y-105249399D01*
X142365046Y-105249395D01*
X142462713Y-105074998D01*
X142462714Y-105074996D01*
X142465537Y-105069955D01*
X142467393Y-105064488D01*
X142467395Y-105064483D01*
X142522332Y-104902641D01*
X142533504Y-104869730D01*
X142534333Y-104864015D01*
X142555090Y-104720860D01*
X142584660Y-104656315D01*
X142644432Y-104618003D01*
X142715429Y-104618087D01*
X142775109Y-104656542D01*
X142804525Y-104721158D01*
X142805515Y-104730695D01*
X142808796Y-104780749D01*
X142810217Y-104786345D01*
X142810218Y-104786350D01*
X142839753Y-104902641D01*
X142860845Y-104985690D01*
X142863262Y-104990933D01*
X142904586Y-105080572D01*
X142949369Y-105177714D01*
X143071405Y-105350391D01*
X143222865Y-105497937D01*
X143227661Y-105501142D01*
X143227664Y-105501144D01*
X143341245Y-105577036D01*
X143398677Y-105615411D01*
X143403985Y-105617692D01*
X143403986Y-105617692D01*
X143587650Y-105696600D01*
X143587653Y-105696601D01*
X143592953Y-105698878D01*
X143598582Y-105700152D01*
X143598583Y-105700152D01*
X143793550Y-105744269D01*
X143793553Y-105744269D01*
X143799186Y-105745544D01*
X143804957Y-105745771D01*
X143804959Y-105745771D01*
X143866989Y-105748208D01*
X144010470Y-105753846D01*
X144016179Y-105753018D01*
X144016183Y-105753018D01*
X144214015Y-105724333D01*
X144214019Y-105724332D01*
X144219730Y-105723504D01*
X144298987Y-105696600D01*
X144414483Y-105657395D01*
X144414488Y-105657393D01*
X144419955Y-105655537D01*
X144424998Y-105652713D01*
X144599395Y-105555046D01*
X144599399Y-105555043D01*
X144604442Y-105552219D01*
X144767012Y-105417012D01*
X144902219Y-105254442D01*
X144905043Y-105249399D01*
X144905046Y-105249395D01*
X145002713Y-105074998D01*
X145002714Y-105074996D01*
X145005537Y-105069955D01*
X145007393Y-105064488D01*
X145007395Y-105064483D01*
X145062332Y-104902641D01*
X145073504Y-104869730D01*
X145075948Y-104852880D01*
X145103314Y-104664140D01*
X145103314Y-104664138D01*
X145103846Y-104660470D01*
X145105429Y-104600000D01*
X145086081Y-104389440D01*
X145028686Y-104185931D01*
X145017553Y-104163354D01*
X144937719Y-104001469D01*
X144935165Y-103996290D01*
X144808651Y-103826867D01*
X144653381Y-103683337D01*
X144474554Y-103570505D01*
X144278160Y-103492152D01*
X144272503Y-103491027D01*
X144272497Y-103491025D01*
X144076442Y-103452028D01*
X144076440Y-103452028D01*
X144070775Y-103450901D01*
X144065000Y-103450825D01*
X144064996Y-103450825D01*
X143958976Y-103449437D01*
X143859346Y-103448133D01*
X143853649Y-103449112D01*
X143853648Y-103449112D01*
X143656650Y-103482962D01*
X143656649Y-103482962D01*
X143650953Y-103483941D01*
X143452575Y-103557127D01*
X143447614Y-103560079D01*
X143447613Y-103560079D01*
X143404871Y-103585508D01*
X143270856Y-103665238D01*
X143111881Y-103804655D01*
X142980976Y-103970708D01*
X142978287Y-103975819D01*
X142978285Y-103975822D01*
X142964792Y-104001469D01*
X142882523Y-104157836D01*
X142819820Y-104359773D01*
X142819141Y-104365510D01*
X142805088Y-104484239D01*
X142777217Y-104549537D01*
X142718469Y-104589401D01*
X142647494Y-104591174D01*
X142586828Y-104554295D01*
X142555730Y-104490471D01*
X142554490Y-104480958D01*
X142546610Y-104395197D01*
X142546081Y-104389440D01*
X142488686Y-104185931D01*
X142477553Y-104163354D01*
X142397719Y-104001469D01*
X142395165Y-103996290D01*
X142268651Y-103826867D01*
X142113381Y-103683337D01*
X141934554Y-103570505D01*
X141738160Y-103492152D01*
X141732503Y-103491027D01*
X141732497Y-103491025D01*
X141536442Y-103452028D01*
X141536440Y-103452028D01*
X141530775Y-103450901D01*
X141525000Y-103450825D01*
X141524996Y-103450825D01*
X141418976Y-103449437D01*
X141319346Y-103448133D01*
X141313649Y-103449112D01*
X141313648Y-103449112D01*
X141116650Y-103482962D01*
X141116649Y-103482962D01*
X141110953Y-103483941D01*
X140912575Y-103557127D01*
X140907614Y-103560079D01*
X140907613Y-103560079D01*
X140864871Y-103585508D01*
X140730856Y-103665238D01*
X140571881Y-103804655D01*
X140440976Y-103970708D01*
X140438287Y-103975819D01*
X140438285Y-103975822D01*
X140424792Y-104001469D01*
X140342523Y-104157836D01*
X140279820Y-104359773D01*
X140254967Y-104569754D01*
X130500000Y-104569754D01*
X130500000Y-102039754D01*
X159324967Y-102039754D01*
X159338796Y-102250749D01*
X159340217Y-102256345D01*
X159340218Y-102256350D01*
X159362784Y-102345200D01*
X159390845Y-102455690D01*
X159479369Y-102647714D01*
X159601405Y-102820391D01*
X159752865Y-102967937D01*
X159757661Y-102971142D01*
X159757664Y-102971144D01*
X159878141Y-103051644D01*
X159928677Y-103085411D01*
X159933985Y-103087692D01*
X159933986Y-103087692D01*
X160117650Y-103166600D01*
X160117653Y-103166601D01*
X160122953Y-103168878D01*
X160128582Y-103170152D01*
X160128583Y-103170152D01*
X160323550Y-103214269D01*
X160323553Y-103214269D01*
X160329186Y-103215544D01*
X160334957Y-103215771D01*
X160334959Y-103215771D01*
X160396989Y-103218208D01*
X160540470Y-103223846D01*
X160546179Y-103223018D01*
X160546183Y-103223018D01*
X160744015Y-103194333D01*
X160744019Y-103194332D01*
X160749730Y-103193504D01*
X160828987Y-103166600D01*
X160944483Y-103127395D01*
X160944488Y-103127393D01*
X160949955Y-103125537D01*
X160954998Y-103122713D01*
X161129395Y-103025046D01*
X161129399Y-103025043D01*
X161134442Y-103022219D01*
X161297012Y-102887012D01*
X161432219Y-102724442D01*
X161435043Y-102719399D01*
X161435046Y-102719395D01*
X161532713Y-102544998D01*
X161532714Y-102544996D01*
X161535537Y-102539955D01*
X161537393Y-102534488D01*
X161537395Y-102534483D01*
X161601647Y-102345200D01*
X161603504Y-102339730D01*
X161617242Y-102244982D01*
X161625090Y-102190860D01*
X161654660Y-102126315D01*
X161714432Y-102088003D01*
X161785429Y-102088087D01*
X161845109Y-102126542D01*
X161874525Y-102191158D01*
X161875515Y-102200695D01*
X161878796Y-102250749D01*
X161880217Y-102256345D01*
X161880218Y-102256350D01*
X161902784Y-102345200D01*
X161930845Y-102455690D01*
X162019369Y-102647714D01*
X162141405Y-102820391D01*
X162292865Y-102967937D01*
X162297661Y-102971142D01*
X162297664Y-102971144D01*
X162418141Y-103051644D01*
X162468677Y-103085411D01*
X162473985Y-103087692D01*
X162473986Y-103087692D01*
X162657650Y-103166600D01*
X162657653Y-103166601D01*
X162662953Y-103168878D01*
X162668582Y-103170152D01*
X162668583Y-103170152D01*
X162863550Y-103214269D01*
X162863553Y-103214269D01*
X162869186Y-103215544D01*
X162874957Y-103215771D01*
X162874959Y-103215771D01*
X162936989Y-103218208D01*
X163080470Y-103223846D01*
X163086179Y-103223018D01*
X163086183Y-103223018D01*
X163284015Y-103194333D01*
X163284019Y-103194332D01*
X163289730Y-103193504D01*
X163368987Y-103166600D01*
X163484483Y-103127395D01*
X163484488Y-103127393D01*
X163489955Y-103125537D01*
X163494998Y-103122713D01*
X163669395Y-103025046D01*
X163669399Y-103025043D01*
X163674442Y-103022219D01*
X163837012Y-102887012D01*
X163972219Y-102724442D01*
X163975043Y-102719399D01*
X163975046Y-102719395D01*
X164072713Y-102544998D01*
X164072714Y-102544996D01*
X164075537Y-102539955D01*
X164077393Y-102534488D01*
X164077395Y-102534483D01*
X164141647Y-102345200D01*
X164143504Y-102339730D01*
X164157242Y-102244982D01*
X164165090Y-102190860D01*
X164194660Y-102126315D01*
X164254432Y-102088003D01*
X164325429Y-102088087D01*
X164385109Y-102126542D01*
X164414525Y-102191158D01*
X164415515Y-102200695D01*
X164418796Y-102250749D01*
X164420217Y-102256345D01*
X164420218Y-102256350D01*
X164442784Y-102345200D01*
X164470845Y-102455690D01*
X164559369Y-102647714D01*
X164681405Y-102820391D01*
X164832865Y-102967937D01*
X164837661Y-102971142D01*
X164837664Y-102971144D01*
X164958141Y-103051644D01*
X165008677Y-103085411D01*
X165013985Y-103087692D01*
X165013986Y-103087692D01*
X165197650Y-103166600D01*
X165197653Y-103166601D01*
X165202953Y-103168878D01*
X165208582Y-103170152D01*
X165208583Y-103170152D01*
X165403550Y-103214269D01*
X165403553Y-103214269D01*
X165409186Y-103215544D01*
X165414957Y-103215771D01*
X165414959Y-103215771D01*
X165476989Y-103218208D01*
X165620470Y-103223846D01*
X165626179Y-103223018D01*
X165626183Y-103223018D01*
X165824015Y-103194333D01*
X165824019Y-103194332D01*
X165829730Y-103193504D01*
X165908987Y-103166600D01*
X166024483Y-103127395D01*
X166024488Y-103127393D01*
X166029955Y-103125537D01*
X166034998Y-103122713D01*
X166209395Y-103025046D01*
X166209399Y-103025043D01*
X166214442Y-103022219D01*
X166377012Y-102887012D01*
X166512219Y-102724442D01*
X166515043Y-102719399D01*
X166515046Y-102719395D01*
X166612713Y-102544998D01*
X166612714Y-102544996D01*
X166615537Y-102539955D01*
X166617393Y-102534488D01*
X166617395Y-102534483D01*
X166681647Y-102345200D01*
X166683504Y-102339730D01*
X166697242Y-102244982D01*
X166705090Y-102190860D01*
X166734660Y-102126315D01*
X166794432Y-102088003D01*
X166865429Y-102088087D01*
X166925109Y-102126542D01*
X166954525Y-102191158D01*
X166955515Y-102200695D01*
X166958796Y-102250749D01*
X166960217Y-102256345D01*
X166960218Y-102256350D01*
X166982784Y-102345200D01*
X167010845Y-102455690D01*
X167099369Y-102647714D01*
X167221405Y-102820391D01*
X167372865Y-102967937D01*
X167377661Y-102971142D01*
X167377664Y-102971144D01*
X167498141Y-103051644D01*
X167548677Y-103085411D01*
X167553985Y-103087692D01*
X167553986Y-103087692D01*
X167737650Y-103166600D01*
X167737653Y-103166601D01*
X167742953Y-103168878D01*
X167748582Y-103170152D01*
X167748583Y-103170152D01*
X167943550Y-103214269D01*
X167943553Y-103214269D01*
X167949186Y-103215544D01*
X167954957Y-103215771D01*
X167954959Y-103215771D01*
X168016989Y-103218208D01*
X168160470Y-103223846D01*
X168166179Y-103223018D01*
X168166183Y-103223018D01*
X168364015Y-103194333D01*
X168364019Y-103194332D01*
X168369730Y-103193504D01*
X168448987Y-103166600D01*
X168564483Y-103127395D01*
X168564488Y-103127393D01*
X168569955Y-103125537D01*
X168574998Y-103122713D01*
X168749395Y-103025046D01*
X168749399Y-103025043D01*
X168754442Y-103022219D01*
X168917012Y-102887012D01*
X169052219Y-102724442D01*
X169055043Y-102719399D01*
X169055046Y-102719395D01*
X169152713Y-102544998D01*
X169152714Y-102544996D01*
X169155537Y-102539955D01*
X169157393Y-102534488D01*
X169157395Y-102534483D01*
X169221647Y-102345200D01*
X169223504Y-102339730D01*
X169237242Y-102244982D01*
X169245090Y-102190860D01*
X169274660Y-102126315D01*
X169334432Y-102088003D01*
X169405429Y-102088087D01*
X169465109Y-102126542D01*
X169494525Y-102191158D01*
X169495515Y-102200695D01*
X169498796Y-102250749D01*
X169500217Y-102256345D01*
X169500218Y-102256350D01*
X169522784Y-102345200D01*
X169550845Y-102455690D01*
X169639369Y-102647714D01*
X169761405Y-102820391D01*
X169912865Y-102967937D01*
X169917661Y-102971142D01*
X169917664Y-102971144D01*
X170038141Y-103051644D01*
X170088677Y-103085411D01*
X170093985Y-103087692D01*
X170093986Y-103087692D01*
X170277650Y-103166600D01*
X170277653Y-103166601D01*
X170282953Y-103168878D01*
X170288582Y-103170152D01*
X170288583Y-103170152D01*
X170483550Y-103214269D01*
X170483553Y-103214269D01*
X170489186Y-103215544D01*
X170494957Y-103215771D01*
X170494959Y-103215771D01*
X170556989Y-103218208D01*
X170700470Y-103223846D01*
X170706179Y-103223018D01*
X170706183Y-103223018D01*
X170904015Y-103194333D01*
X170904019Y-103194332D01*
X170909730Y-103193504D01*
X170988987Y-103166600D01*
X171104483Y-103127395D01*
X171104488Y-103127393D01*
X171109955Y-103125537D01*
X171114998Y-103122713D01*
X171289395Y-103025046D01*
X171289399Y-103025043D01*
X171294442Y-103022219D01*
X171457012Y-102887012D01*
X171592219Y-102724442D01*
X171595043Y-102719399D01*
X171595046Y-102719395D01*
X171692713Y-102544998D01*
X171692714Y-102544996D01*
X171695537Y-102539955D01*
X171697393Y-102534488D01*
X171697395Y-102534483D01*
X171761647Y-102345200D01*
X171763504Y-102339730D01*
X171777242Y-102244982D01*
X171785090Y-102190860D01*
X171814660Y-102126315D01*
X171874432Y-102088003D01*
X171945429Y-102088087D01*
X172005109Y-102126542D01*
X172034525Y-102191158D01*
X172035515Y-102200695D01*
X172038796Y-102250749D01*
X172040217Y-102256345D01*
X172040218Y-102256350D01*
X172062784Y-102345200D01*
X172090845Y-102455690D01*
X172179369Y-102647714D01*
X172301405Y-102820391D01*
X172452865Y-102967937D01*
X172457661Y-102971142D01*
X172457664Y-102971144D01*
X172578141Y-103051644D01*
X172628677Y-103085411D01*
X172633985Y-103087692D01*
X172633986Y-103087692D01*
X172817650Y-103166600D01*
X172817653Y-103166601D01*
X172822953Y-103168878D01*
X172828582Y-103170152D01*
X172828583Y-103170152D01*
X173023550Y-103214269D01*
X173023553Y-103214269D01*
X173029186Y-103215544D01*
X173034957Y-103215771D01*
X173034959Y-103215771D01*
X173096989Y-103218208D01*
X173240470Y-103223846D01*
X173246179Y-103223018D01*
X173246183Y-103223018D01*
X173444015Y-103194333D01*
X173444019Y-103194332D01*
X173449730Y-103193504D01*
X173528987Y-103166600D01*
X173644483Y-103127395D01*
X173644488Y-103127393D01*
X173649955Y-103125537D01*
X173654998Y-103122713D01*
X173829395Y-103025046D01*
X173829399Y-103025043D01*
X173834442Y-103022219D01*
X173997012Y-102887012D01*
X174132219Y-102724442D01*
X174135043Y-102719399D01*
X174135046Y-102719395D01*
X174232713Y-102544998D01*
X174232714Y-102544996D01*
X174235537Y-102539955D01*
X174237393Y-102534488D01*
X174237395Y-102534483D01*
X174301647Y-102345200D01*
X174303504Y-102339730D01*
X174317242Y-102244982D01*
X174325090Y-102190860D01*
X174354660Y-102126315D01*
X174414432Y-102088003D01*
X174485429Y-102088087D01*
X174545109Y-102126542D01*
X174574525Y-102191158D01*
X174575515Y-102200695D01*
X174578796Y-102250749D01*
X174580217Y-102256345D01*
X174580218Y-102256350D01*
X174602784Y-102345200D01*
X174630845Y-102455690D01*
X174719369Y-102647714D01*
X174841405Y-102820391D01*
X174992865Y-102967937D01*
X174997661Y-102971142D01*
X174997664Y-102971144D01*
X175118141Y-103051644D01*
X175168677Y-103085411D01*
X175173985Y-103087692D01*
X175173986Y-103087692D01*
X175357650Y-103166600D01*
X175357653Y-103166601D01*
X175362953Y-103168878D01*
X175368582Y-103170152D01*
X175368583Y-103170152D01*
X175563550Y-103214269D01*
X175563553Y-103214269D01*
X175569186Y-103215544D01*
X175574957Y-103215771D01*
X175574959Y-103215771D01*
X175636989Y-103218208D01*
X175780470Y-103223846D01*
X175786179Y-103223018D01*
X175786183Y-103223018D01*
X175984015Y-103194333D01*
X175984019Y-103194332D01*
X175989730Y-103193504D01*
X176068987Y-103166600D01*
X176184483Y-103127395D01*
X176184488Y-103127393D01*
X176189955Y-103125537D01*
X176194998Y-103122713D01*
X176369395Y-103025046D01*
X176369399Y-103025043D01*
X176374442Y-103022219D01*
X176537012Y-102887012D01*
X176672219Y-102724442D01*
X176675043Y-102719399D01*
X176675046Y-102719395D01*
X176772713Y-102544998D01*
X176772714Y-102544996D01*
X176775537Y-102539955D01*
X176777393Y-102534488D01*
X176777395Y-102534483D01*
X176841647Y-102345200D01*
X176843504Y-102339730D01*
X176857242Y-102244982D01*
X176865090Y-102190860D01*
X176894660Y-102126315D01*
X176954432Y-102088003D01*
X177025429Y-102088087D01*
X177085109Y-102126542D01*
X177114525Y-102191158D01*
X177115515Y-102200695D01*
X177118796Y-102250749D01*
X177120217Y-102256345D01*
X177120218Y-102256350D01*
X177142784Y-102345200D01*
X177170845Y-102455690D01*
X177259369Y-102647714D01*
X177381405Y-102820391D01*
X177532865Y-102967937D01*
X177537661Y-102971142D01*
X177537664Y-102971144D01*
X177658141Y-103051644D01*
X177708677Y-103085411D01*
X177713985Y-103087692D01*
X177713986Y-103087692D01*
X177897650Y-103166600D01*
X177897653Y-103166601D01*
X177902953Y-103168878D01*
X177908582Y-103170152D01*
X177908583Y-103170152D01*
X178103550Y-103214269D01*
X178103553Y-103214269D01*
X178109186Y-103215544D01*
X178114957Y-103215771D01*
X178114959Y-103215771D01*
X178176989Y-103218208D01*
X178320470Y-103223846D01*
X178326179Y-103223018D01*
X178326183Y-103223018D01*
X178524015Y-103194333D01*
X178524019Y-103194332D01*
X178529730Y-103193504D01*
X178695399Y-103137267D01*
X178766334Y-103134311D01*
X178827606Y-103170174D01*
X178859763Y-103233471D01*
X178861900Y-103256580D01*
X178861900Y-104612465D01*
X178841898Y-104680586D01*
X178824995Y-104701560D01*
X174002961Y-109523594D01*
X173940649Y-109557620D01*
X173869834Y-109552555D01*
X173836640Y-109534058D01*
X173720094Y-109443656D01*
X173720088Y-109443652D01*
X173715049Y-109439743D01*
X173606439Y-109386300D01*
X173537668Y-109352460D01*
X173537663Y-109352458D01*
X173531946Y-109349645D01*
X173525773Y-109348037D01*
X173525770Y-109348036D01*
X173406949Y-109317086D01*
X173334467Y-109298206D01*
X173232572Y-109292865D01*
X173137058Y-109287859D01*
X173137054Y-109287859D01*
X173130677Y-109287525D01*
X172928903Y-109318041D01*
X172737385Y-109388506D01*
X172563949Y-109496041D01*
X172415677Y-109636254D01*
X172412015Y-109641484D01*
X172412014Y-109641485D01*
X172302292Y-109798185D01*
X172298628Y-109803418D01*
X172217582Y-109990703D01*
X172175851Y-110190460D01*
X172175500Y-110197158D01*
X172175500Y-111654997D01*
X172190942Y-111807024D01*
X172251967Y-112001755D01*
X172255065Y-112007344D01*
X172269390Y-112033187D01*
X172350902Y-112180238D01*
X172483705Y-112335182D01*
X172644951Y-112460257D01*
X172650673Y-112463072D01*
X172650672Y-112463072D01*
X172822332Y-112547540D01*
X172822337Y-112547542D01*
X172828054Y-112550355D01*
X172834227Y-112551963D01*
X172834230Y-112551964D01*
X172901557Y-112569501D01*
X173025533Y-112601794D01*
X173127428Y-112607134D01*
X173222942Y-112612141D01*
X173222946Y-112612141D01*
X173229323Y-112612475D01*
X173431097Y-112581959D01*
X173622615Y-112511494D01*
X173796051Y-112403959D01*
X173944323Y-112263746D01*
X173956727Y-112246032D01*
X174057708Y-112101815D01*
X174057711Y-112101810D01*
X174061372Y-112096582D01*
X174142418Y-111909297D01*
X174184149Y-111709540D01*
X174184500Y-111702842D01*
X174184500Y-110601135D01*
X174204502Y-110533014D01*
X174221405Y-110512040D01*
X174500405Y-110233040D01*
X174562717Y-110199014D01*
X174633532Y-110204079D01*
X174690368Y-110246626D01*
X174715179Y-110313146D01*
X174715500Y-110322135D01*
X174715500Y-111654997D01*
X174730942Y-111807024D01*
X174791967Y-112001755D01*
X174795065Y-112007344D01*
X174809390Y-112033187D01*
X174890902Y-112180238D01*
X175023705Y-112335182D01*
X175184951Y-112460257D01*
X175190673Y-112463072D01*
X175190672Y-112463072D01*
X175362332Y-112547540D01*
X175362337Y-112547542D01*
X175368054Y-112550355D01*
X175374227Y-112551963D01*
X175374230Y-112551964D01*
X175441557Y-112569501D01*
X175565533Y-112601794D01*
X175667428Y-112607134D01*
X175762942Y-112612141D01*
X175762946Y-112612141D01*
X175769323Y-112612475D01*
X175971097Y-112581959D01*
X176162615Y-112511494D01*
X176336051Y-112403959D01*
X176484323Y-112263746D01*
X176496727Y-112246032D01*
X176597708Y-112101815D01*
X176597711Y-112101810D01*
X176601372Y-112096582D01*
X176682418Y-111909297D01*
X176724149Y-111709540D01*
X176724500Y-111702842D01*
X176724500Y-111654997D01*
X177255500Y-111654997D01*
X177270942Y-111807024D01*
X177331967Y-112001755D01*
X177335065Y-112007344D01*
X177349390Y-112033187D01*
X177430902Y-112180238D01*
X177563705Y-112335182D01*
X177724951Y-112460257D01*
X177730673Y-112463072D01*
X177730672Y-112463072D01*
X177902332Y-112547540D01*
X177902337Y-112547542D01*
X177908054Y-112550355D01*
X177914227Y-112551963D01*
X177914230Y-112551964D01*
X177981557Y-112569501D01*
X178105533Y-112601794D01*
X178207428Y-112607134D01*
X178302942Y-112612141D01*
X178302946Y-112612141D01*
X178309323Y-112612475D01*
X178511097Y-112581959D01*
X178702615Y-112511494D01*
X178876051Y-112403959D01*
X179024323Y-112263746D01*
X179036727Y-112246032D01*
X179137708Y-112101815D01*
X179137711Y-112101810D01*
X179141372Y-112096582D01*
X179222418Y-111909297D01*
X179264149Y-111709540D01*
X179264500Y-111702842D01*
X179264500Y-111654997D01*
X179795500Y-111654997D01*
X179810942Y-111807024D01*
X179871967Y-112001755D01*
X179875065Y-112007344D01*
X179889390Y-112033187D01*
X179970902Y-112180238D01*
X180103705Y-112335182D01*
X180264951Y-112460257D01*
X180270673Y-112463072D01*
X180270672Y-112463072D01*
X180442332Y-112547540D01*
X180442337Y-112547542D01*
X180448054Y-112550355D01*
X180454227Y-112551963D01*
X180454230Y-112551964D01*
X180521557Y-112569501D01*
X180645533Y-112601794D01*
X180747428Y-112607134D01*
X180842942Y-112612141D01*
X180842946Y-112612141D01*
X180849323Y-112612475D01*
X181051097Y-112581959D01*
X181242615Y-112511494D01*
X181416051Y-112403959D01*
X181564323Y-112263746D01*
X181576727Y-112246032D01*
X181677708Y-112101815D01*
X181677711Y-112101810D01*
X181681372Y-112096582D01*
X181762418Y-111909297D01*
X181804149Y-111709540D01*
X181804500Y-111702842D01*
X181804500Y-110245003D01*
X181795323Y-110154655D01*
X181789703Y-110099324D01*
X181789703Y-110099322D01*
X181789058Y-110092976D01*
X181728033Y-109898245D01*
X181629098Y-109719762D01*
X181496295Y-109564818D01*
X181335049Y-109439743D01*
X181226439Y-109386300D01*
X181157668Y-109352460D01*
X181157663Y-109352458D01*
X181151946Y-109349645D01*
X181145773Y-109348037D01*
X181145770Y-109348036D01*
X181026949Y-109317086D01*
X180954467Y-109298206D01*
X180852572Y-109292865D01*
X180757058Y-109287859D01*
X180757054Y-109287859D01*
X180750677Y-109287525D01*
X180548903Y-109318041D01*
X180357385Y-109388506D01*
X180183949Y-109496041D01*
X180035677Y-109636254D01*
X180032015Y-109641484D01*
X180032014Y-109641485D01*
X179922292Y-109798185D01*
X179918628Y-109803418D01*
X179837582Y-109990703D01*
X179795851Y-110190460D01*
X179795500Y-110197158D01*
X179795500Y-111654997D01*
X179264500Y-111654997D01*
X179264500Y-110245003D01*
X179255323Y-110154655D01*
X179249703Y-110099324D01*
X179249703Y-110099322D01*
X179249058Y-110092976D01*
X179188033Y-109898245D01*
X179089098Y-109719762D01*
X178956295Y-109564818D01*
X178795049Y-109439743D01*
X178686439Y-109386300D01*
X178617668Y-109352460D01*
X178617663Y-109352458D01*
X178611946Y-109349645D01*
X178605773Y-109348037D01*
X178605770Y-109348036D01*
X178486949Y-109317086D01*
X178414467Y-109298206D01*
X178312572Y-109292865D01*
X178217058Y-109287859D01*
X178217054Y-109287859D01*
X178210677Y-109287525D01*
X178008903Y-109318041D01*
X177817385Y-109388506D01*
X177643949Y-109496041D01*
X177495677Y-109636254D01*
X177492015Y-109641484D01*
X177492014Y-109641485D01*
X177382292Y-109798185D01*
X177378628Y-109803418D01*
X177297582Y-109990703D01*
X177255851Y-110190460D01*
X177255500Y-110197158D01*
X177255500Y-111654997D01*
X176724500Y-111654997D01*
X176724500Y-110245003D01*
X176715323Y-110154655D01*
X176709703Y-110099324D01*
X176709703Y-110099322D01*
X176709058Y-110092976D01*
X176648033Y-109898245D01*
X176549098Y-109719762D01*
X176416295Y-109564818D01*
X176255049Y-109439743D01*
X176146439Y-109386300D01*
X176077668Y-109352460D01*
X176077663Y-109352458D01*
X176071946Y-109349645D01*
X176065773Y-109348037D01*
X176065770Y-109348036D01*
X175946949Y-109317086D01*
X175874467Y-109298206D01*
X175739722Y-109291144D01*
X175672743Y-109267604D01*
X175629122Y-109211589D01*
X175622710Y-109140882D01*
X175657223Y-109076222D01*
X179567122Y-105166323D01*
X179578212Y-105156468D01*
X179595767Y-105142629D01*
X179595770Y-105142625D01*
X179603165Y-105136796D01*
X179608519Y-105129049D01*
X179608523Y-105129045D01*
X179634715Y-105091149D01*
X179637015Y-105087929D01*
X179644143Y-105078278D01*
X194248050Y-105078278D01*
X194284750Y-105318116D01*
X194360129Y-105548739D01*
X194362519Y-105553330D01*
X194462698Y-105745771D01*
X194472163Y-105763954D01*
X194475266Y-105768087D01*
X194475268Y-105768090D01*
X194614737Y-105953846D01*
X194617842Y-105957981D01*
X194793255Y-106125609D01*
X194993691Y-106262337D01*
X195035793Y-106281880D01*
X195209071Y-106362313D01*
X195209075Y-106362314D01*
X195213766Y-106364492D01*
X195447571Y-106429332D01*
X195452708Y-106429881D01*
X195642309Y-106450144D01*
X195642317Y-106450144D01*
X195645644Y-106450500D01*
X198036508Y-106450500D01*
X198039081Y-106450288D01*
X198039092Y-106450288D01*
X198211662Y-106436100D01*
X198211668Y-106436099D01*
X198216813Y-106435676D01*
X198406712Y-106387977D01*
X198447122Y-106377827D01*
X198447126Y-106377826D01*
X198452133Y-106376568D01*
X198456866Y-106374510D01*
X198456869Y-106374509D01*
X198669901Y-106281880D01*
X198669904Y-106281878D01*
X198674638Y-106279820D01*
X198878355Y-106148030D01*
X198902996Y-106125609D01*
X199053989Y-105988215D01*
X199053990Y-105988213D01*
X199057811Y-105984737D01*
X199061010Y-105980686D01*
X199061014Y-105980682D01*
X199204982Y-105798386D01*
X199208187Y-105794328D01*
X199325446Y-105581914D01*
X199406437Y-105353202D01*
X199407778Y-105345676D01*
X199448080Y-105119422D01*
X199448081Y-105119416D01*
X199448986Y-105114333D01*
X199450626Y-104980095D01*
X199451887Y-104876892D01*
X199451887Y-104876890D01*
X199451950Y-104871722D01*
X199415250Y-104631884D01*
X199339871Y-104401261D01*
X199227837Y-104186046D01*
X199210800Y-104163354D01*
X199085263Y-103996154D01*
X199085261Y-103996151D01*
X199082158Y-103992019D01*
X198906745Y-103824391D01*
X198706309Y-103687663D01*
X198596271Y-103636585D01*
X198490929Y-103587687D01*
X198490925Y-103587686D01*
X198486234Y-103585508D01*
X198252429Y-103520668D01*
X198247292Y-103520119D01*
X198057691Y-103499856D01*
X198057683Y-103499856D01*
X198054356Y-103499500D01*
X195663492Y-103499500D01*
X195660919Y-103499712D01*
X195660908Y-103499712D01*
X195488338Y-103513900D01*
X195488332Y-103513901D01*
X195483187Y-103514324D01*
X195365527Y-103543878D01*
X195252878Y-103572173D01*
X195252874Y-103572174D01*
X195247867Y-103573432D01*
X195243134Y-103575490D01*
X195243131Y-103575491D01*
X195030099Y-103668120D01*
X195030096Y-103668122D01*
X195025362Y-103670180D01*
X194821645Y-103801970D01*
X194817822Y-103805449D01*
X194817819Y-103805451D01*
X194793080Y-103827962D01*
X194642189Y-103965263D01*
X194638990Y-103969314D01*
X194638986Y-103969318D01*
X194617685Y-103996290D01*
X194491813Y-104155672D01*
X194374554Y-104368086D01*
X194364954Y-104395197D01*
X194295555Y-104591174D01*
X194293563Y-104596798D01*
X194292656Y-104601891D01*
X194292655Y-104601894D01*
X194256751Y-104803461D01*
X194251014Y-104835667D01*
X194250951Y-104840830D01*
X194248219Y-105064483D01*
X194248050Y-105078278D01*
X179644143Y-105078278D01*
X179664368Y-105050896D01*
X179669963Y-105043321D01*
X179672229Y-105036869D01*
X179676117Y-105031243D01*
X179692293Y-104980095D01*
X179692848Y-104978339D01*
X179694102Y-104974581D01*
X179709357Y-104931143D01*
X179712477Y-104922259D01*
X179712746Y-104915423D01*
X179714807Y-104908905D01*
X179715300Y-104902641D01*
X179715300Y-104852880D01*
X179715397Y-104847934D01*
X179717144Y-104803461D01*
X179717514Y-104794048D01*
X179715708Y-104787237D01*
X179715300Y-104779822D01*
X179715300Y-102918260D01*
X179735302Y-102850139D01*
X179788958Y-102803646D01*
X179859232Y-102793542D01*
X179923812Y-102823036D01*
X179929222Y-102828006D01*
X179985238Y-102882574D01*
X180072865Y-102967937D01*
X180077661Y-102971142D01*
X180077664Y-102971144D01*
X180198141Y-103051644D01*
X180248677Y-103085411D01*
X180253985Y-103087692D01*
X180253986Y-103087692D01*
X180437650Y-103166600D01*
X180437653Y-103166601D01*
X180442953Y-103168878D01*
X180448582Y-103170152D01*
X180448583Y-103170152D01*
X180643550Y-103214269D01*
X180643553Y-103214269D01*
X180649186Y-103215544D01*
X180654957Y-103215771D01*
X180654959Y-103215771D01*
X180716989Y-103218208D01*
X180860470Y-103223846D01*
X180866179Y-103223018D01*
X180866183Y-103223018D01*
X181064015Y-103194333D01*
X181064019Y-103194332D01*
X181069730Y-103193504D01*
X181148987Y-103166600D01*
X181264483Y-103127395D01*
X181264488Y-103127393D01*
X181269955Y-103125537D01*
X181274998Y-103122713D01*
X181449395Y-103025046D01*
X181449399Y-103025043D01*
X181454442Y-103022219D01*
X181617012Y-102887012D01*
X181752219Y-102724442D01*
X181755043Y-102719399D01*
X181755046Y-102719395D01*
X181852713Y-102544998D01*
X181852714Y-102544996D01*
X181855537Y-102539955D01*
X181857393Y-102534488D01*
X181857395Y-102534483D01*
X181921647Y-102345200D01*
X181923504Y-102339730D01*
X181937243Y-102244981D01*
X181953314Y-102134140D01*
X181953314Y-102134138D01*
X181953846Y-102130470D01*
X181955429Y-102070000D01*
X181936081Y-101859440D01*
X181878686Y-101655931D01*
X181867553Y-101633354D01*
X181787719Y-101471469D01*
X181785165Y-101466290D01*
X181669152Y-101310930D01*
X181662104Y-101301491D01*
X181662103Y-101301490D01*
X181658651Y-101296867D01*
X181503381Y-101153337D01*
X181324554Y-101040505D01*
X181128160Y-100962152D01*
X181122503Y-100961027D01*
X181122497Y-100961025D01*
X180926442Y-100922028D01*
X180926440Y-100922028D01*
X180920775Y-100920901D01*
X180915000Y-100920825D01*
X180914996Y-100920825D01*
X180808976Y-100919437D01*
X180709346Y-100918133D01*
X180703649Y-100919112D01*
X180703648Y-100919112D01*
X180506650Y-100952962D01*
X180506649Y-100952962D01*
X180500953Y-100953941D01*
X180302575Y-101027127D01*
X180297614Y-101030079D01*
X180297613Y-101030079D01*
X180280089Y-101040505D01*
X180120856Y-101135238D01*
X179961881Y-101274655D01*
X179958310Y-101279184D01*
X179958305Y-101279190D01*
X179940250Y-101302093D01*
X179882369Y-101343207D01*
X179811449Y-101346501D01*
X179750006Y-101310930D01*
X179717549Y-101247787D01*
X179715300Y-101224088D01*
X179715300Y-98169754D01*
X185994967Y-98169754D01*
X186008796Y-98380749D01*
X186010217Y-98386345D01*
X186010218Y-98386350D01*
X186032784Y-98475200D01*
X186060845Y-98585690D01*
X186149369Y-98777714D01*
X186271405Y-98950391D01*
X186275539Y-98954418D01*
X186384152Y-99060224D01*
X186422865Y-99097937D01*
X186427661Y-99101142D01*
X186427664Y-99101144D01*
X186570936Y-99196875D01*
X186598677Y-99215411D01*
X186603985Y-99217692D01*
X186603986Y-99217692D01*
X186787650Y-99296600D01*
X186787653Y-99296601D01*
X186792953Y-99298878D01*
X186798582Y-99300152D01*
X186798583Y-99300152D01*
X186993550Y-99344269D01*
X186993553Y-99344269D01*
X186999186Y-99345544D01*
X187004957Y-99345771D01*
X187004959Y-99345771D01*
X187066989Y-99348208D01*
X187210470Y-99353846D01*
X187216179Y-99353018D01*
X187216183Y-99353018D01*
X187414015Y-99324333D01*
X187414019Y-99324332D01*
X187419730Y-99323504D01*
X187498987Y-99296600D01*
X187614483Y-99257395D01*
X187614488Y-99257393D01*
X187619955Y-99255537D01*
X187624998Y-99252713D01*
X187799395Y-99155046D01*
X187799399Y-99155043D01*
X187804442Y-99152219D01*
X187967012Y-99017012D01*
X188102219Y-98854442D01*
X188105043Y-98849399D01*
X188105046Y-98849395D01*
X188202713Y-98674998D01*
X188202714Y-98674996D01*
X188205537Y-98669955D01*
X188207393Y-98664488D01*
X188207395Y-98664483D01*
X188271647Y-98475200D01*
X188273504Y-98469730D01*
X188281252Y-98416299D01*
X188303314Y-98264140D01*
X188303314Y-98264138D01*
X188303846Y-98260470D01*
X188305429Y-98200000D01*
X188286081Y-97989440D01*
X188285642Y-97987882D01*
X191899500Y-97987882D01*
X191899693Y-97990330D01*
X191899693Y-97990339D01*
X191904492Y-98051313D01*
X191914317Y-98176148D01*
X191915471Y-98180955D01*
X191915472Y-98180961D01*
X191933671Y-98256763D01*
X191973127Y-98421111D01*
X191975020Y-98425682D01*
X191975021Y-98425684D01*
X192041298Y-98585690D01*
X192069534Y-98653859D01*
X192201164Y-98868659D01*
X192204376Y-98872419D01*
X192204379Y-98872424D01*
X192274409Y-98954418D01*
X192364776Y-99060224D01*
X192368538Y-99063437D01*
X192552576Y-99220621D01*
X192552581Y-99220624D01*
X192556341Y-99223836D01*
X192771141Y-99355466D01*
X192775711Y-99357359D01*
X192775715Y-99357361D01*
X192999316Y-99449979D01*
X193003889Y-99451873D01*
X193088289Y-99472135D01*
X193244039Y-99509528D01*
X193244045Y-99509529D01*
X193248852Y-99510683D01*
X193500000Y-99530449D01*
X193751148Y-99510683D01*
X193755955Y-99509529D01*
X193755961Y-99509528D01*
X193911711Y-99472135D01*
X193996111Y-99451873D01*
X194000684Y-99449979D01*
X194224285Y-99357361D01*
X194224289Y-99357359D01*
X194228859Y-99355466D01*
X194443659Y-99223836D01*
X194447419Y-99220624D01*
X194447424Y-99220621D01*
X194631462Y-99063437D01*
X194635224Y-99060224D01*
X194725591Y-98954418D01*
X194795621Y-98872424D01*
X194795624Y-98872419D01*
X194798836Y-98868659D01*
X194930466Y-98653859D01*
X194958703Y-98585690D01*
X195024979Y-98425684D01*
X195024980Y-98425682D01*
X195026873Y-98421111D01*
X195066329Y-98256763D01*
X195084528Y-98180961D01*
X195084529Y-98180955D01*
X195085683Y-98176148D01*
X195095508Y-98051313D01*
X195100307Y-97990339D01*
X195100307Y-97990330D01*
X195100500Y-97987882D01*
X195100500Y-97861698D01*
X197867000Y-97861698D01*
X197867193Y-97866624D01*
X197881729Y-98051313D01*
X197883272Y-98061060D01*
X197940967Y-98301373D01*
X197944016Y-98310758D01*
X198038592Y-98539085D01*
X198043073Y-98547879D01*
X198172208Y-98758608D01*
X198178001Y-98766581D01*
X198338516Y-98954520D01*
X198345480Y-98961484D01*
X198533419Y-99121999D01*
X198541392Y-99127792D01*
X198752121Y-99256927D01*
X198760915Y-99261408D01*
X198989242Y-99355984D01*
X198998627Y-99359033D01*
X199233608Y-99415447D01*
X199243029Y-99413469D01*
X199246000Y-99402002D01*
X199246000Y-99399945D01*
X199754000Y-99399945D01*
X199758344Y-99414738D01*
X199764681Y-99415858D01*
X200001373Y-99359033D01*
X200010758Y-99355984D01*
X200239085Y-99261408D01*
X200247879Y-99256927D01*
X200458608Y-99127792D01*
X200466581Y-99121999D01*
X200654520Y-98961484D01*
X200661484Y-98954520D01*
X200821999Y-98766581D01*
X200827792Y-98758608D01*
X200956927Y-98547879D01*
X200961408Y-98539085D01*
X201055984Y-98310758D01*
X201059033Y-98301373D01*
X201116728Y-98061060D01*
X201118271Y-98051313D01*
X201132807Y-97866624D01*
X201133000Y-97861698D01*
X201133000Y-96947115D01*
X201128525Y-96931876D01*
X201127135Y-96930671D01*
X201119452Y-96929000D01*
X199772115Y-96929000D01*
X199756876Y-96933475D01*
X199755671Y-96934865D01*
X199754000Y-96942548D01*
X199754000Y-99399945D01*
X199246000Y-99399945D01*
X199246000Y-96947115D01*
X199241525Y-96931876D01*
X199240135Y-96930671D01*
X199232452Y-96929000D01*
X197885115Y-96929000D01*
X197869876Y-96933475D01*
X197868671Y-96934865D01*
X197867000Y-96942548D01*
X197867000Y-97861698D01*
X195100500Y-97861698D01*
X195100500Y-96402885D01*
X197867000Y-96402885D01*
X197871475Y-96418124D01*
X197872865Y-96419329D01*
X197880548Y-96421000D01*
X199227885Y-96421000D01*
X199243124Y-96416525D01*
X199244329Y-96415135D01*
X199246000Y-96407452D01*
X199246000Y-96402885D01*
X199754000Y-96402885D01*
X199758475Y-96418124D01*
X199759865Y-96419329D01*
X199767548Y-96421000D01*
X201114885Y-96421000D01*
X201130124Y-96416525D01*
X201131329Y-96415135D01*
X201133000Y-96407452D01*
X201133000Y-95488303D01*
X201132807Y-95483376D01*
X201118271Y-95298687D01*
X201116728Y-95288940D01*
X201059033Y-95048627D01*
X201055984Y-95039242D01*
X200961408Y-94810915D01*
X200956927Y-94802121D01*
X200827792Y-94591392D01*
X200821999Y-94583419D01*
X200661484Y-94395480D01*
X200654520Y-94388516D01*
X200466581Y-94228001D01*
X200458608Y-94222208D01*
X200247879Y-94093073D01*
X200239085Y-94088592D01*
X200010758Y-93994016D01*
X200001373Y-93990967D01*
X199766392Y-93934553D01*
X199756971Y-93936531D01*
X199754000Y-93947998D01*
X199754000Y-96402885D01*
X199246000Y-96402885D01*
X199246000Y-93950055D01*
X199241656Y-93935262D01*
X199235319Y-93934142D01*
X198998627Y-93990967D01*
X198989242Y-93994016D01*
X198760915Y-94088592D01*
X198752121Y-94093073D01*
X198541392Y-94222208D01*
X198533419Y-94228001D01*
X198345480Y-94388516D01*
X198338516Y-94395480D01*
X198178001Y-94583419D01*
X198172208Y-94591392D01*
X198043073Y-94802121D01*
X198038592Y-94810915D01*
X197944016Y-95039242D01*
X197940967Y-95048627D01*
X197883272Y-95288940D01*
X197881729Y-95298687D01*
X197867193Y-95483376D01*
X197867000Y-95488303D01*
X197867000Y-96402885D01*
X195100500Y-96402885D01*
X195100500Y-95362118D01*
X195099637Y-95351144D01*
X195089329Y-95220181D01*
X195085683Y-95173852D01*
X195076954Y-95137490D01*
X195043942Y-94999986D01*
X195026873Y-94928889D01*
X195024979Y-94924316D01*
X194932361Y-94700715D01*
X194932359Y-94700711D01*
X194930466Y-94696141D01*
X194798836Y-94481341D01*
X194795624Y-94477581D01*
X194795621Y-94477576D01*
X194638437Y-94293538D01*
X194635224Y-94289776D01*
X194601110Y-94260640D01*
X194447424Y-94129379D01*
X194447419Y-94129376D01*
X194443659Y-94126164D01*
X194228859Y-93994534D01*
X194224289Y-93992641D01*
X194224285Y-93992639D01*
X194000684Y-93900021D01*
X194000682Y-93900020D01*
X193996111Y-93898127D01*
X193865066Y-93866666D01*
X193755961Y-93840472D01*
X193755955Y-93840471D01*
X193751148Y-93839317D01*
X193500000Y-93819551D01*
X193248852Y-93839317D01*
X193244045Y-93840471D01*
X193244039Y-93840472D01*
X193134934Y-93866666D01*
X193003889Y-93898127D01*
X192999318Y-93900020D01*
X192999316Y-93900021D01*
X192775715Y-93992639D01*
X192775711Y-93992641D01*
X192771141Y-93994534D01*
X192556341Y-94126164D01*
X192552581Y-94129376D01*
X192552576Y-94129379D01*
X192398890Y-94260640D01*
X192364776Y-94289776D01*
X192361563Y-94293538D01*
X192204379Y-94477576D01*
X192204376Y-94477581D01*
X192201164Y-94481341D01*
X192069534Y-94696141D01*
X192067641Y-94700711D01*
X192067639Y-94700715D01*
X191975021Y-94924316D01*
X191973127Y-94928889D01*
X191956058Y-94999986D01*
X191923047Y-95137490D01*
X191914317Y-95173852D01*
X191910671Y-95220181D01*
X191900364Y-95351144D01*
X191899500Y-95362118D01*
X191899500Y-97987882D01*
X188285642Y-97987882D01*
X188228686Y-97785931D01*
X188218916Y-97766118D01*
X188137719Y-97601469D01*
X188135165Y-97596290D01*
X188008651Y-97426867D01*
X187853381Y-97283337D01*
X187820014Y-97262284D01*
X187679434Y-97173584D01*
X187679433Y-97173584D01*
X187674554Y-97170505D01*
X187631251Y-97153229D01*
X187631091Y-97153165D01*
X187575232Y-97109343D01*
X187551932Y-97042279D01*
X187568588Y-96973264D01*
X187624532Y-96921940D01*
X187801511Y-96839414D01*
X187811006Y-96833931D01*
X187863048Y-96797491D01*
X187871424Y-96787012D01*
X187864356Y-96773566D01*
X187162812Y-96072022D01*
X187148868Y-96064408D01*
X187147035Y-96064539D01*
X187140420Y-96068790D01*
X186434923Y-96774287D01*
X186428493Y-96786062D01*
X186437789Y-96798077D01*
X186488994Y-96833931D01*
X186498489Y-96839414D01*
X186672942Y-96920762D01*
X186726227Y-96967679D01*
X186745688Y-97035956D01*
X186725146Y-97103916D01*
X186671124Y-97149982D01*
X186663305Y-97153168D01*
X186657994Y-97155127D01*
X186657986Y-97155131D01*
X186652575Y-97157127D01*
X186647614Y-97160079D01*
X186647613Y-97160079D01*
X186630089Y-97170505D01*
X186470856Y-97265238D01*
X186311881Y-97404655D01*
X186180976Y-97570708D01*
X186178287Y-97575819D01*
X186178285Y-97575822D01*
X186128400Y-97670638D01*
X186082523Y-97757836D01*
X186019820Y-97959773D01*
X185994967Y-98169754D01*
X179715300Y-98169754D01*
X179715300Y-95705475D01*
X185837483Y-95705475D01*
X185856472Y-95922519D01*
X185858375Y-95933312D01*
X185914764Y-96143761D01*
X185918510Y-96154053D01*
X186010586Y-96351511D01*
X186016069Y-96361006D01*
X186052509Y-96413048D01*
X186062988Y-96421424D01*
X186076434Y-96414356D01*
X186777978Y-95712812D01*
X186784356Y-95701132D01*
X187514408Y-95701132D01*
X187514539Y-95702965D01*
X187518790Y-95709580D01*
X188224287Y-96415077D01*
X188236062Y-96421507D01*
X188248077Y-96412211D01*
X188283931Y-96361006D01*
X188289414Y-96351511D01*
X188381490Y-96154053D01*
X188385236Y-96143761D01*
X188441625Y-95933312D01*
X188443528Y-95922519D01*
X188462517Y-95705475D01*
X188462517Y-95694525D01*
X188443528Y-95477481D01*
X188441625Y-95466688D01*
X188385236Y-95256239D01*
X188381490Y-95245947D01*
X188289414Y-95048489D01*
X188283931Y-95038994D01*
X188247491Y-94986952D01*
X188237012Y-94978576D01*
X188223566Y-94985644D01*
X187522022Y-95687188D01*
X187514408Y-95701132D01*
X186784356Y-95701132D01*
X186785592Y-95698868D01*
X186785461Y-95697035D01*
X186781210Y-95690420D01*
X186075713Y-94984923D01*
X186063938Y-94978493D01*
X186051923Y-94987789D01*
X186016069Y-95038994D01*
X186010586Y-95048489D01*
X185918510Y-95245947D01*
X185914764Y-95256239D01*
X185858375Y-95466688D01*
X185856472Y-95477481D01*
X185837483Y-95694525D01*
X185837483Y-95705475D01*
X179715300Y-95705475D01*
X179715300Y-95702832D01*
X179735302Y-95634711D01*
X179788958Y-95588218D01*
X179859232Y-95578114D01*
X179879998Y-95584510D01*
X179880355Y-95583354D01*
X179889694Y-95586240D01*
X179898482Y-95590536D01*
X179924071Y-95594269D01*
X179962256Y-95599840D01*
X179962260Y-95599840D01*
X179966782Y-95600500D01*
X181633218Y-95600500D01*
X181637768Y-95599830D01*
X181637771Y-95599830D01*
X181692426Y-95591784D01*
X181692427Y-95591784D01*
X181702112Y-95590358D01*
X181752809Y-95565467D01*
X181797507Y-95543522D01*
X181797509Y-95543521D01*
X181806855Y-95538932D01*
X181880248Y-95465411D01*
X181881935Y-95463721D01*
X181881935Y-95463720D01*
X181889293Y-95456350D01*
X181940536Y-95351518D01*
X181948755Y-95295181D01*
X181949840Y-95287744D01*
X181949840Y-95287740D01*
X181950500Y-95283218D01*
X181950500Y-94612988D01*
X186428576Y-94612988D01*
X186435644Y-94626434D01*
X187137188Y-95327978D01*
X187151132Y-95335592D01*
X187152965Y-95335461D01*
X187159580Y-95331210D01*
X187865077Y-94625713D01*
X187871507Y-94613938D01*
X187862211Y-94601923D01*
X187811006Y-94566069D01*
X187801511Y-94560586D01*
X187604053Y-94468510D01*
X187593761Y-94464764D01*
X187383312Y-94408375D01*
X187372519Y-94406472D01*
X187155475Y-94387483D01*
X187144525Y-94387483D01*
X186927481Y-94406472D01*
X186916688Y-94408375D01*
X186706239Y-94464764D01*
X186695947Y-94468510D01*
X186498489Y-94560586D01*
X186488994Y-94566069D01*
X186436952Y-94602509D01*
X186428576Y-94612988D01*
X181950500Y-94612988D01*
X181950500Y-93616782D01*
X181948343Y-93602125D01*
X181941784Y-93557574D01*
X181941784Y-93557573D01*
X181940358Y-93547888D01*
X181902765Y-93471320D01*
X181893522Y-93452493D01*
X181893521Y-93452491D01*
X181888932Y-93443145D01*
X181806350Y-93360707D01*
X181772769Y-93344292D01*
X181755686Y-93335942D01*
X181701518Y-93309464D01*
X181671027Y-93305016D01*
X181637744Y-93300160D01*
X181637740Y-93300160D01*
X181633218Y-93299500D01*
X179966782Y-93299500D01*
X179962232Y-93300170D01*
X179962229Y-93300170D01*
X179907574Y-93308216D01*
X179907573Y-93308216D01*
X179897888Y-93309642D01*
X179847992Y-93334140D01*
X179802493Y-93356478D01*
X179802491Y-93356479D01*
X179793145Y-93361068D01*
X179710707Y-93443650D01*
X179659464Y-93548482D01*
X179658052Y-93558162D01*
X179650412Y-93610533D01*
X179649500Y-93616782D01*
X179649500Y-94249111D01*
X179629498Y-94317232D01*
X179575842Y-94363725D01*
X179505568Y-94373829D01*
X179440988Y-94344335D01*
X179402604Y-94284609D01*
X179398029Y-94260640D01*
X179396610Y-94245197D01*
X179396081Y-94239440D01*
X179338686Y-94035931D01*
X179331612Y-94021585D01*
X179247719Y-93851469D01*
X179245165Y-93846290D01*
X179129045Y-93690786D01*
X179122104Y-93681491D01*
X179122103Y-93681490D01*
X179118651Y-93676867D01*
X178990237Y-93558162D01*
X178967622Y-93537257D01*
X178967620Y-93537255D01*
X178963381Y-93533337D01*
X178891964Y-93488276D01*
X178789434Y-93423584D01*
X178789433Y-93423584D01*
X178784554Y-93420505D01*
X178588160Y-93342152D01*
X178582503Y-93341027D01*
X178582497Y-93341025D01*
X178386442Y-93302028D01*
X178386440Y-93302028D01*
X178380775Y-93300901D01*
X178375000Y-93300825D01*
X178374996Y-93300825D01*
X178268976Y-93299437D01*
X178169346Y-93298133D01*
X178163649Y-93299112D01*
X178163648Y-93299112D01*
X177966650Y-93332962D01*
X177966649Y-93332962D01*
X177960953Y-93333941D01*
X177762575Y-93407127D01*
X177757614Y-93410079D01*
X177757613Y-93410079D01*
X177690028Y-93450288D01*
X177580856Y-93515238D01*
X177421881Y-93654655D01*
X177290976Y-93820708D01*
X177288287Y-93825819D01*
X177288285Y-93825822D01*
X177260875Y-93877920D01*
X177192523Y-94007836D01*
X177129820Y-94209773D01*
X177129141Y-94215510D01*
X177115088Y-94334239D01*
X177087217Y-94399537D01*
X177028469Y-94439401D01*
X176957494Y-94441174D01*
X176896828Y-94404295D01*
X176865730Y-94340471D01*
X176864490Y-94330958D01*
X176860232Y-94284609D01*
X176856081Y-94239440D01*
X176798686Y-94035931D01*
X176791612Y-94021585D01*
X176707719Y-93851469D01*
X176705165Y-93846290D01*
X176589045Y-93690786D01*
X176582104Y-93681491D01*
X176582103Y-93681490D01*
X176578651Y-93676867D01*
X176450237Y-93558162D01*
X176427622Y-93537257D01*
X176427620Y-93537255D01*
X176423381Y-93533337D01*
X176351964Y-93488276D01*
X176249434Y-93423584D01*
X176249433Y-93423584D01*
X176244554Y-93420505D01*
X176048160Y-93342152D01*
X176042503Y-93341027D01*
X176042497Y-93341025D01*
X175846442Y-93302028D01*
X175846440Y-93302028D01*
X175840775Y-93300901D01*
X175835000Y-93300825D01*
X175834996Y-93300825D01*
X175728976Y-93299437D01*
X175629346Y-93298133D01*
X175623649Y-93299112D01*
X175623648Y-93299112D01*
X175426650Y-93332962D01*
X175426649Y-93332962D01*
X175420953Y-93333941D01*
X175222575Y-93407127D01*
X175217614Y-93410079D01*
X175217613Y-93410079D01*
X175150028Y-93450288D01*
X175040856Y-93515238D01*
X174881881Y-93654655D01*
X174750976Y-93820708D01*
X174748287Y-93825819D01*
X174748285Y-93825822D01*
X174720875Y-93877920D01*
X174652523Y-94007836D01*
X174589820Y-94209773D01*
X174589141Y-94215510D01*
X174575088Y-94334239D01*
X174547217Y-94399537D01*
X174488469Y-94439401D01*
X174417494Y-94441174D01*
X174356828Y-94404295D01*
X174325730Y-94340471D01*
X174324490Y-94330958D01*
X174320232Y-94284609D01*
X174316081Y-94239440D01*
X174258686Y-94035931D01*
X174251612Y-94021585D01*
X174167719Y-93851469D01*
X174165165Y-93846290D01*
X174049045Y-93690786D01*
X174042104Y-93681491D01*
X174042103Y-93681490D01*
X174038651Y-93676867D01*
X173910237Y-93558162D01*
X173887622Y-93537257D01*
X173887620Y-93537255D01*
X173883381Y-93533337D01*
X173811964Y-93488276D01*
X173709434Y-93423584D01*
X173709433Y-93423584D01*
X173704554Y-93420505D01*
X173508160Y-93342152D01*
X173502503Y-93341027D01*
X173502497Y-93341025D01*
X173306442Y-93302028D01*
X173306440Y-93302028D01*
X173300775Y-93300901D01*
X173295000Y-93300825D01*
X173294996Y-93300825D01*
X173188976Y-93299437D01*
X173089346Y-93298133D01*
X173083649Y-93299112D01*
X173083648Y-93299112D01*
X172886650Y-93332962D01*
X172886649Y-93332962D01*
X172880953Y-93333941D01*
X172682575Y-93407127D01*
X172677614Y-93410079D01*
X172677613Y-93410079D01*
X172610028Y-93450288D01*
X172500856Y-93515238D01*
X172341881Y-93654655D01*
X172210976Y-93820708D01*
X172208287Y-93825819D01*
X172208285Y-93825822D01*
X172115211Y-94002726D01*
X172115209Y-94002731D01*
X172112523Y-94007836D01*
X172110811Y-94013349D01*
X172110788Y-94013405D01*
X172066240Y-94068686D01*
X171998876Y-94091106D01*
X171930085Y-94073547D01*
X171881707Y-94021585D01*
X171875979Y-94008280D01*
X171871491Y-93995950D01*
X171779414Y-93798489D01*
X171773931Y-93788993D01*
X171648972Y-93610533D01*
X171641916Y-93602125D01*
X171487875Y-93448084D01*
X171479467Y-93441028D01*
X171301007Y-93316069D01*
X171291511Y-93310586D01*
X171094053Y-93218510D01*
X171083761Y-93214764D01*
X170911497Y-93168606D01*
X170897401Y-93168942D01*
X170894000Y-93176884D01*
X170894000Y-95717967D01*
X170897973Y-95731498D01*
X170906522Y-95732727D01*
X171083761Y-95685236D01*
X171094053Y-95681490D01*
X171291511Y-95589414D01*
X171301007Y-95583931D01*
X171479467Y-95458972D01*
X171487875Y-95451916D01*
X171641916Y-95297875D01*
X171648972Y-95289467D01*
X171773931Y-95111007D01*
X171779414Y-95101511D01*
X171871490Y-94904053D01*
X171877119Y-94888587D01*
X171879329Y-94889391D01*
X171911051Y-94837324D01*
X171974904Y-94806288D01*
X172045401Y-94814701D01*
X172100157Y-94859892D01*
X172110252Y-94877788D01*
X172160963Y-94987789D01*
X172179369Y-95027714D01*
X172301405Y-95200391D01*
X172365238Y-95262574D01*
X172440193Y-95335592D01*
X172452865Y-95347937D01*
X172457661Y-95351142D01*
X172457664Y-95351144D01*
X172589131Y-95438987D01*
X172628677Y-95465411D01*
X172633985Y-95467692D01*
X172633986Y-95467692D01*
X172817650Y-95546600D01*
X172817653Y-95546601D01*
X172822953Y-95548878D01*
X172828582Y-95550152D01*
X172828583Y-95550152D01*
X173023550Y-95594269D01*
X173023553Y-95594269D01*
X173029186Y-95595544D01*
X173034957Y-95595771D01*
X173034959Y-95595771D01*
X173096989Y-95598208D01*
X173240470Y-95603846D01*
X173246179Y-95603018D01*
X173246183Y-95603018D01*
X173444015Y-95574333D01*
X173444019Y-95574332D01*
X173449730Y-95573504D01*
X173528987Y-95546600D01*
X173644483Y-95507395D01*
X173644488Y-95507393D01*
X173649955Y-95505537D01*
X173667938Y-95495466D01*
X173829395Y-95405046D01*
X173829399Y-95405043D01*
X173834442Y-95402219D01*
X173997012Y-95267012D01*
X174132219Y-95104442D01*
X174135043Y-95099399D01*
X174135046Y-95099395D01*
X174232713Y-94924998D01*
X174232714Y-94924996D01*
X174235537Y-94919955D01*
X174237393Y-94914488D01*
X174237395Y-94914483D01*
X174301647Y-94725200D01*
X174303504Y-94719730D01*
X174306261Y-94700715D01*
X174325090Y-94570860D01*
X174354660Y-94506315D01*
X174414432Y-94468003D01*
X174485429Y-94468087D01*
X174545109Y-94506542D01*
X174574525Y-94571158D01*
X174575515Y-94580695D01*
X174578796Y-94630749D01*
X174580217Y-94636345D01*
X174580218Y-94636350D01*
X174601571Y-94720426D01*
X174630845Y-94835690D01*
X174633262Y-94840933D01*
X174700963Y-94987789D01*
X174719369Y-95027714D01*
X174841405Y-95200391D01*
X174905238Y-95262574D01*
X174980193Y-95335592D01*
X174992865Y-95347937D01*
X174997661Y-95351142D01*
X174997664Y-95351144D01*
X175129131Y-95438987D01*
X175168677Y-95465411D01*
X175173985Y-95467692D01*
X175173986Y-95467692D01*
X175357650Y-95546600D01*
X175357653Y-95546601D01*
X175362953Y-95548878D01*
X175368582Y-95550152D01*
X175368583Y-95550152D01*
X175563550Y-95594269D01*
X175563553Y-95594269D01*
X175569186Y-95595544D01*
X175574957Y-95595771D01*
X175574959Y-95595771D01*
X175636989Y-95598208D01*
X175780470Y-95603846D01*
X175786179Y-95603018D01*
X175786183Y-95603018D01*
X175984015Y-95574333D01*
X175984019Y-95574332D01*
X175989730Y-95573504D01*
X176068987Y-95546600D01*
X176184483Y-95507395D01*
X176184488Y-95507393D01*
X176189955Y-95505537D01*
X176207938Y-95495466D01*
X176369395Y-95405046D01*
X176369399Y-95405043D01*
X176374442Y-95402219D01*
X176537012Y-95267012D01*
X176672219Y-95104442D01*
X176675043Y-95099399D01*
X176675046Y-95099395D01*
X176772713Y-94924998D01*
X176772714Y-94924996D01*
X176775537Y-94919955D01*
X176777393Y-94914488D01*
X176777395Y-94914483D01*
X176841647Y-94725200D01*
X176843504Y-94719730D01*
X176846261Y-94700715D01*
X176865090Y-94570860D01*
X176894660Y-94506315D01*
X176954432Y-94468003D01*
X177025429Y-94468087D01*
X177085109Y-94506542D01*
X177114525Y-94571158D01*
X177115515Y-94580695D01*
X177118796Y-94630749D01*
X177120217Y-94636345D01*
X177120218Y-94636350D01*
X177141571Y-94720426D01*
X177170845Y-94835690D01*
X177173262Y-94840933D01*
X177240963Y-94987789D01*
X177259369Y-95027714D01*
X177381405Y-95200391D01*
X177445238Y-95262574D01*
X177520193Y-95335592D01*
X177532865Y-95347937D01*
X177537661Y-95351142D01*
X177537664Y-95351144D01*
X177669131Y-95438987D01*
X177708677Y-95465411D01*
X177713985Y-95467692D01*
X177713986Y-95467692D01*
X177897650Y-95546600D01*
X177897653Y-95546601D01*
X177902953Y-95548878D01*
X177908582Y-95550152D01*
X177908583Y-95550152D01*
X178103550Y-95594269D01*
X178103553Y-95594269D01*
X178109186Y-95595544D01*
X178114957Y-95595771D01*
X178114959Y-95595771D01*
X178176989Y-95598208D01*
X178320470Y-95603846D01*
X178326179Y-95603018D01*
X178326183Y-95603018D01*
X178524015Y-95574333D01*
X178524019Y-95574332D01*
X178529730Y-95573504D01*
X178642426Y-95535249D01*
X178713361Y-95532293D01*
X178772022Y-95565467D01*
X178824995Y-95618440D01*
X178859021Y-95680752D01*
X178861900Y-95707535D01*
X178861900Y-100885437D01*
X178841898Y-100953558D01*
X178788242Y-101000051D01*
X178717968Y-101010155D01*
X178689212Y-101002468D01*
X178588160Y-100962152D01*
X178582503Y-100961027D01*
X178582497Y-100961025D01*
X178386442Y-100922028D01*
X178386440Y-100922028D01*
X178380775Y-100920901D01*
X178375000Y-100920825D01*
X178374996Y-100920825D01*
X178268976Y-100919437D01*
X178169346Y-100918133D01*
X178163649Y-100919112D01*
X178163648Y-100919112D01*
X177966650Y-100952962D01*
X177966649Y-100952962D01*
X177960953Y-100953941D01*
X177762575Y-101027127D01*
X177757614Y-101030079D01*
X177757613Y-101030079D01*
X177740089Y-101040505D01*
X177580856Y-101135238D01*
X177421881Y-101274655D01*
X177290976Y-101440708D01*
X177288287Y-101445819D01*
X177288285Y-101445822D01*
X177274792Y-101471469D01*
X177192523Y-101627836D01*
X177129820Y-101829773D01*
X177129141Y-101835510D01*
X177115088Y-101954239D01*
X177087217Y-102019537D01*
X177028469Y-102059401D01*
X176957494Y-102061174D01*
X176896828Y-102024295D01*
X176865730Y-101960471D01*
X176864490Y-101950958D01*
X176856610Y-101865197D01*
X176856081Y-101859440D01*
X176798686Y-101655931D01*
X176787553Y-101633354D01*
X176707719Y-101471469D01*
X176705165Y-101466290D01*
X176589152Y-101310930D01*
X176582104Y-101301491D01*
X176582103Y-101301490D01*
X176578651Y-101296867D01*
X176423381Y-101153337D01*
X176244554Y-101040505D01*
X176048160Y-100962152D01*
X176042503Y-100961027D01*
X176042497Y-100961025D01*
X175846442Y-100922028D01*
X175846440Y-100922028D01*
X175840775Y-100920901D01*
X175835000Y-100920825D01*
X175834996Y-100920825D01*
X175728976Y-100919437D01*
X175629346Y-100918133D01*
X175623649Y-100919112D01*
X175623648Y-100919112D01*
X175426650Y-100952962D01*
X175426649Y-100952962D01*
X175420953Y-100953941D01*
X175222575Y-101027127D01*
X175217614Y-101030079D01*
X175217613Y-101030079D01*
X175200089Y-101040505D01*
X175040856Y-101135238D01*
X174881881Y-101274655D01*
X174750976Y-101440708D01*
X174748287Y-101445819D01*
X174748285Y-101445822D01*
X174734792Y-101471469D01*
X174652523Y-101627836D01*
X174589820Y-101829773D01*
X174589141Y-101835510D01*
X174575088Y-101954239D01*
X174547217Y-102019537D01*
X174488469Y-102059401D01*
X174417494Y-102061174D01*
X174356828Y-102024295D01*
X174325730Y-101960471D01*
X174324490Y-101950958D01*
X174316610Y-101865197D01*
X174316081Y-101859440D01*
X174258686Y-101655931D01*
X174247553Y-101633354D01*
X174167719Y-101471469D01*
X174165165Y-101466290D01*
X174049152Y-101310930D01*
X174042104Y-101301491D01*
X174042103Y-101301490D01*
X174038651Y-101296867D01*
X173883381Y-101153337D01*
X173704554Y-101040505D01*
X173508160Y-100962152D01*
X173502503Y-100961027D01*
X173502497Y-100961025D01*
X173306442Y-100922028D01*
X173306440Y-100922028D01*
X173300775Y-100920901D01*
X173295000Y-100920825D01*
X173294996Y-100920825D01*
X173188976Y-100919437D01*
X173089346Y-100918133D01*
X173083649Y-100919112D01*
X173083648Y-100919112D01*
X172886650Y-100952962D01*
X172886649Y-100952962D01*
X172880953Y-100953941D01*
X172682575Y-101027127D01*
X172677614Y-101030079D01*
X172677613Y-101030079D01*
X172660089Y-101040505D01*
X172500856Y-101135238D01*
X172341881Y-101274655D01*
X172210976Y-101440708D01*
X172208287Y-101445819D01*
X172208285Y-101445822D01*
X172194792Y-101471469D01*
X172112523Y-101627836D01*
X172049820Y-101829773D01*
X172049141Y-101835510D01*
X172035088Y-101954239D01*
X172007217Y-102019537D01*
X171948469Y-102059401D01*
X171877494Y-102061174D01*
X171816828Y-102024295D01*
X171785730Y-101960471D01*
X171784490Y-101950958D01*
X171776610Y-101865197D01*
X171776081Y-101859440D01*
X171718686Y-101655931D01*
X171707553Y-101633354D01*
X171627719Y-101471469D01*
X171625165Y-101466290D01*
X171509152Y-101310930D01*
X171502104Y-101301491D01*
X171502103Y-101301490D01*
X171498651Y-101296867D01*
X171343381Y-101153337D01*
X171164554Y-101040505D01*
X170968160Y-100962152D01*
X170962503Y-100961027D01*
X170962497Y-100961025D01*
X170766442Y-100922028D01*
X170766440Y-100922028D01*
X170760775Y-100920901D01*
X170755000Y-100920825D01*
X170754996Y-100920825D01*
X170648976Y-100919437D01*
X170549346Y-100918133D01*
X170543649Y-100919112D01*
X170543648Y-100919112D01*
X170346650Y-100952962D01*
X170346649Y-100952962D01*
X170340953Y-100953941D01*
X170142575Y-101027127D01*
X170137614Y-101030079D01*
X170137613Y-101030079D01*
X170120089Y-101040505D01*
X169960856Y-101135238D01*
X169801881Y-101274655D01*
X169670976Y-101440708D01*
X169668287Y-101445819D01*
X169668285Y-101445822D01*
X169654792Y-101471469D01*
X169572523Y-101627836D01*
X169509820Y-101829773D01*
X169509141Y-101835510D01*
X169495088Y-101954239D01*
X169467217Y-102019537D01*
X169408469Y-102059401D01*
X169337494Y-102061174D01*
X169276828Y-102024295D01*
X169245730Y-101960471D01*
X169244490Y-101950958D01*
X169236610Y-101865197D01*
X169236081Y-101859440D01*
X169178686Y-101655931D01*
X169167553Y-101633354D01*
X169087719Y-101471469D01*
X169085165Y-101466290D01*
X168969152Y-101310930D01*
X168962104Y-101301491D01*
X168962103Y-101301490D01*
X168958651Y-101296867D01*
X168803381Y-101153337D01*
X168624554Y-101040505D01*
X168428160Y-100962152D01*
X168422503Y-100961027D01*
X168422497Y-100961025D01*
X168226442Y-100922028D01*
X168226440Y-100922028D01*
X168220775Y-100920901D01*
X168215000Y-100920825D01*
X168214996Y-100920825D01*
X168108976Y-100919437D01*
X168009346Y-100918133D01*
X168003649Y-100919112D01*
X168003648Y-100919112D01*
X167806650Y-100952962D01*
X167806649Y-100952962D01*
X167800953Y-100953941D01*
X167602575Y-101027127D01*
X167597614Y-101030079D01*
X167597613Y-101030079D01*
X167580089Y-101040505D01*
X167420856Y-101135238D01*
X167261881Y-101274655D01*
X167130976Y-101440708D01*
X167128287Y-101445819D01*
X167128285Y-101445822D01*
X167114792Y-101471469D01*
X167032523Y-101627836D01*
X166969820Y-101829773D01*
X166969141Y-101835510D01*
X166955088Y-101954239D01*
X166927217Y-102019537D01*
X166868469Y-102059401D01*
X166797494Y-102061174D01*
X166736828Y-102024295D01*
X166705730Y-101960471D01*
X166704490Y-101950958D01*
X166696610Y-101865197D01*
X166696081Y-101859440D01*
X166638686Y-101655931D01*
X166627553Y-101633354D01*
X166547719Y-101471469D01*
X166545165Y-101466290D01*
X166429152Y-101310930D01*
X166422104Y-101301491D01*
X166422103Y-101301490D01*
X166418651Y-101296867D01*
X166263381Y-101153337D01*
X166084554Y-101040505D01*
X165888160Y-100962152D01*
X165882503Y-100961027D01*
X165882497Y-100961025D01*
X165686442Y-100922028D01*
X165686440Y-100922028D01*
X165680775Y-100920901D01*
X165675000Y-100920825D01*
X165674996Y-100920825D01*
X165568976Y-100919437D01*
X165469346Y-100918133D01*
X165463649Y-100919112D01*
X165463648Y-100919112D01*
X165266650Y-100952962D01*
X165266649Y-100952962D01*
X165260953Y-100953941D01*
X165062575Y-101027127D01*
X165057614Y-101030079D01*
X165057613Y-101030079D01*
X165040089Y-101040505D01*
X164880856Y-101135238D01*
X164721881Y-101274655D01*
X164590976Y-101440708D01*
X164588287Y-101445819D01*
X164588285Y-101445822D01*
X164574792Y-101471469D01*
X164492523Y-101627836D01*
X164429820Y-101829773D01*
X164429141Y-101835510D01*
X164415088Y-101954239D01*
X164387217Y-102019537D01*
X164328469Y-102059401D01*
X164257494Y-102061174D01*
X164196828Y-102024295D01*
X164165730Y-101960471D01*
X164164490Y-101950958D01*
X164156610Y-101865197D01*
X164156081Y-101859440D01*
X164098686Y-101655931D01*
X164087553Y-101633354D01*
X164007719Y-101471469D01*
X164005165Y-101466290D01*
X163889152Y-101310930D01*
X163882104Y-101301491D01*
X163882103Y-101301490D01*
X163878651Y-101296867D01*
X163723381Y-101153337D01*
X163544554Y-101040505D01*
X163348160Y-100962152D01*
X163342503Y-100961027D01*
X163342497Y-100961025D01*
X163146442Y-100922028D01*
X163146440Y-100922028D01*
X163140775Y-100920901D01*
X163135000Y-100920825D01*
X163134996Y-100920825D01*
X163028976Y-100919437D01*
X162929346Y-100918133D01*
X162923649Y-100919112D01*
X162923648Y-100919112D01*
X162726650Y-100952962D01*
X162726649Y-100952962D01*
X162720953Y-100953941D01*
X162522575Y-101027127D01*
X162517614Y-101030079D01*
X162517613Y-101030079D01*
X162500089Y-101040505D01*
X162340856Y-101135238D01*
X162181881Y-101274655D01*
X162050976Y-101440708D01*
X162048287Y-101445819D01*
X162048285Y-101445822D01*
X162034792Y-101471469D01*
X161952523Y-101627836D01*
X161889820Y-101829773D01*
X161889141Y-101835510D01*
X161875088Y-101954239D01*
X161847217Y-102019537D01*
X161788469Y-102059401D01*
X161717494Y-102061174D01*
X161656828Y-102024295D01*
X161625730Y-101960471D01*
X161624490Y-101950958D01*
X161616610Y-101865197D01*
X161616081Y-101859440D01*
X161558686Y-101655931D01*
X161547553Y-101633354D01*
X161467719Y-101471469D01*
X161465165Y-101466290D01*
X161349152Y-101310930D01*
X161342104Y-101301491D01*
X161342103Y-101301490D01*
X161338651Y-101296867D01*
X161183381Y-101153337D01*
X161004554Y-101040505D01*
X160808160Y-100962152D01*
X160802503Y-100961027D01*
X160802497Y-100961025D01*
X160606442Y-100922028D01*
X160606440Y-100922028D01*
X160600775Y-100920901D01*
X160595000Y-100920825D01*
X160594996Y-100920825D01*
X160488976Y-100919437D01*
X160389346Y-100918133D01*
X160383649Y-100919112D01*
X160383648Y-100919112D01*
X160186650Y-100952962D01*
X160186649Y-100952962D01*
X160180953Y-100953941D01*
X159982575Y-101027127D01*
X159977614Y-101030079D01*
X159977613Y-101030079D01*
X159960089Y-101040505D01*
X159800856Y-101135238D01*
X159641881Y-101274655D01*
X159510976Y-101440708D01*
X159508287Y-101445819D01*
X159508285Y-101445822D01*
X159494792Y-101471469D01*
X159412523Y-101627836D01*
X159349820Y-101829773D01*
X159324967Y-102039754D01*
X130500000Y-102039754D01*
X130500000Y-89310816D01*
X142048257Y-89310816D01*
X142078565Y-89445296D01*
X142081645Y-89455125D01*
X142161770Y-89652453D01*
X142166413Y-89661644D01*
X142277694Y-89843238D01*
X142283777Y-89851549D01*
X142423213Y-90012517D01*
X142430580Y-90019733D01*
X142594434Y-90155766D01*
X142602881Y-90161681D01*
X142786756Y-90269129D01*
X142796043Y-90273579D01*
X142818682Y-90282224D01*
X142875186Y-90325212D01*
X142899478Y-90391923D01*
X142883847Y-90461178D01*
X142838156Y-90508219D01*
X142704583Y-90587687D01*
X142671341Y-90607464D01*
X142505457Y-90752940D01*
X142368863Y-90926210D01*
X142266131Y-91121470D01*
X142200703Y-91332183D01*
X142174770Y-91551290D01*
X142189200Y-91771454D01*
X142190621Y-91777050D01*
X142190622Y-91777055D01*
X142214665Y-91871722D01*
X142243511Y-91985302D01*
X142245928Y-91990544D01*
X142245928Y-91990545D01*
X142305342Y-92119422D01*
X142335883Y-92185671D01*
X142463222Y-92365852D01*
X142621264Y-92519811D01*
X142626060Y-92523016D01*
X142626063Y-92523018D01*
X142772226Y-92620680D01*
X142804717Y-92642390D01*
X142810020Y-92644668D01*
X142810023Y-92644670D01*
X143002129Y-92727205D01*
X143007436Y-92729485D01*
X143013071Y-92730760D01*
X143013074Y-92730761D01*
X143014484Y-92731080D01*
X143015083Y-92731414D01*
X143018562Y-92732544D01*
X143018340Y-92733227D01*
X143076511Y-92765622D01*
X143110016Y-92828216D01*
X143104362Y-92898987D01*
X143061344Y-92955466D01*
X143030287Y-92972185D01*
X142866376Y-93032654D01*
X142866368Y-93032658D01*
X142860957Y-93034654D01*
X142671341Y-93147464D01*
X142505457Y-93292940D01*
X142368863Y-93466210D01*
X142266131Y-93661470D01*
X142226534Y-93788993D01*
X142210550Y-93840472D01*
X142200703Y-93872183D01*
X142174770Y-94091290D01*
X142189200Y-94311454D01*
X142190621Y-94317050D01*
X142190622Y-94317055D01*
X142239744Y-94510470D01*
X142243511Y-94525302D01*
X142245928Y-94530544D01*
X142245928Y-94530545D01*
X142283935Y-94612988D01*
X142335883Y-94725671D01*
X142463222Y-94905852D01*
X142621264Y-95059811D01*
X142626060Y-95063016D01*
X142626063Y-95063018D01*
X142710261Y-95119277D01*
X142804717Y-95182390D01*
X142810020Y-95184668D01*
X142810023Y-95184670D01*
X142929614Y-95236050D01*
X143007436Y-95269485D01*
X143013071Y-95270760D01*
X143013074Y-95270761D01*
X143014484Y-95271080D01*
X143015083Y-95271414D01*
X143018562Y-95272544D01*
X143018340Y-95273227D01*
X143076511Y-95305622D01*
X143110016Y-95368216D01*
X143104362Y-95438987D01*
X143061344Y-95495466D01*
X143030287Y-95512185D01*
X142866376Y-95572654D01*
X142866368Y-95572658D01*
X142860957Y-95574654D01*
X142855996Y-95577606D01*
X142855995Y-95577606D01*
X142760011Y-95634711D01*
X142671341Y-95687464D01*
X142505457Y-95832940D01*
X142368863Y-96006210D01*
X142266131Y-96201470D01*
X142200703Y-96412183D01*
X142174770Y-96631290D01*
X142175148Y-96637056D01*
X142188052Y-96833931D01*
X142189200Y-96851454D01*
X142190621Y-96857050D01*
X142190622Y-96857055D01*
X142220136Y-96973264D01*
X142243511Y-97065302D01*
X142245928Y-97070544D01*
X142245928Y-97070545D01*
X142282549Y-97149982D01*
X142335883Y-97265671D01*
X142463222Y-97445852D01*
X142621264Y-97599811D01*
X142626060Y-97603016D01*
X142626063Y-97603018D01*
X142710261Y-97659277D01*
X142804717Y-97722390D01*
X142810020Y-97724668D01*
X142810023Y-97724670D01*
X142965565Y-97791496D01*
X143007436Y-97809485D01*
X143087088Y-97827508D01*
X143216995Y-97856904D01*
X143217001Y-97856905D01*
X143222632Y-97858179D01*
X143228403Y-97858406D01*
X143228405Y-97858406D01*
X143296211Y-97861070D01*
X143443098Y-97866841D01*
X143552275Y-97851011D01*
X143655738Y-97836010D01*
X143655743Y-97836009D01*
X143661452Y-97835181D01*
X143666916Y-97833326D01*
X143666921Y-97833325D01*
X143864907Y-97766118D01*
X143864912Y-97766116D01*
X143870379Y-97764260D01*
X144062884Y-97656452D01*
X144128994Y-97601469D01*
X144228086Y-97519054D01*
X144232518Y-97515368D01*
X144373602Y-97345734D01*
X144481410Y-97153229D01*
X144483266Y-97147762D01*
X144483268Y-97147757D01*
X144550475Y-96949771D01*
X144550476Y-96949766D01*
X144552331Y-96944302D01*
X144553159Y-96938593D01*
X144553160Y-96938588D01*
X144583458Y-96729622D01*
X144583991Y-96725948D01*
X144585643Y-96662850D01*
X144565454Y-96443139D01*
X144557337Y-96414356D01*
X144507134Y-96236350D01*
X144505565Y-96230786D01*
X144427271Y-96072022D01*
X144410535Y-96038084D01*
X144407980Y-96032903D01*
X144275967Y-95856117D01*
X144140679Y-95731058D01*
X144118189Y-95710268D01*
X144118186Y-95710266D01*
X144113949Y-95706349D01*
X143927350Y-95588614D01*
X143724955Y-95507867D01*
X143669096Y-95464046D01*
X143645795Y-95396982D01*
X143662451Y-95327967D01*
X143713775Y-95278913D01*
X143731144Y-95271524D01*
X143864907Y-95226118D01*
X143864912Y-95226116D01*
X143870379Y-95224260D01*
X143905810Y-95204418D01*
X144025318Y-95137490D01*
X144062884Y-95116452D01*
X144077325Y-95104442D01*
X144218590Y-94986952D01*
X144232518Y-94975368D01*
X144290334Y-94905852D01*
X144369908Y-94810176D01*
X144369910Y-94810173D01*
X144373602Y-94805734D01*
X144470735Y-94632291D01*
X144478586Y-94618272D01*
X144478587Y-94618270D01*
X144481410Y-94613229D01*
X144483266Y-94607762D01*
X144483268Y-94607757D01*
X144547086Y-94419754D01*
X159324967Y-94419754D01*
X159338796Y-94630749D01*
X159340217Y-94636345D01*
X159340218Y-94636350D01*
X159361571Y-94720426D01*
X159390845Y-94835690D01*
X159393262Y-94840933D01*
X159460963Y-94987789D01*
X159479369Y-95027714D01*
X159601405Y-95200391D01*
X159665238Y-95262574D01*
X159740193Y-95335592D01*
X159752865Y-95347937D01*
X159757661Y-95351142D01*
X159757664Y-95351144D01*
X159889131Y-95438987D01*
X159928677Y-95465411D01*
X159933985Y-95467692D01*
X159933986Y-95467692D01*
X160117650Y-95546600D01*
X160117653Y-95546601D01*
X160122953Y-95548878D01*
X160128582Y-95550152D01*
X160128583Y-95550152D01*
X160323550Y-95594269D01*
X160323553Y-95594269D01*
X160329186Y-95595544D01*
X160334957Y-95595771D01*
X160334959Y-95595771D01*
X160396989Y-95598208D01*
X160540470Y-95603846D01*
X160546179Y-95603018D01*
X160546183Y-95603018D01*
X160744015Y-95574333D01*
X160744019Y-95574332D01*
X160749730Y-95573504D01*
X160828987Y-95546600D01*
X160944483Y-95507395D01*
X160944488Y-95507393D01*
X160949955Y-95505537D01*
X160967938Y-95495466D01*
X161129395Y-95405046D01*
X161129399Y-95405043D01*
X161134442Y-95402219D01*
X161297012Y-95267012D01*
X161432219Y-95104442D01*
X161435043Y-95099399D01*
X161435046Y-95099395D01*
X161532713Y-94924998D01*
X161532714Y-94924996D01*
X161535537Y-94919955D01*
X161537393Y-94914488D01*
X161537395Y-94914483D01*
X161601647Y-94725200D01*
X161603504Y-94719730D01*
X161606261Y-94700715D01*
X161625090Y-94570860D01*
X161654660Y-94506315D01*
X161714432Y-94468003D01*
X161785429Y-94468087D01*
X161845109Y-94506542D01*
X161874525Y-94571158D01*
X161875515Y-94580695D01*
X161878796Y-94630749D01*
X161880217Y-94636345D01*
X161880218Y-94636350D01*
X161901571Y-94720426D01*
X161930845Y-94835690D01*
X161933262Y-94840933D01*
X162000963Y-94987789D01*
X162019369Y-95027714D01*
X162141405Y-95200391D01*
X162205238Y-95262574D01*
X162280193Y-95335592D01*
X162292865Y-95347937D01*
X162297661Y-95351142D01*
X162297664Y-95351144D01*
X162429131Y-95438987D01*
X162468677Y-95465411D01*
X162473985Y-95467692D01*
X162473986Y-95467692D01*
X162657650Y-95546600D01*
X162657653Y-95546601D01*
X162662953Y-95548878D01*
X162668582Y-95550152D01*
X162668583Y-95550152D01*
X162863550Y-95594269D01*
X162863553Y-95594269D01*
X162869186Y-95595544D01*
X162874957Y-95595771D01*
X162874959Y-95595771D01*
X162936989Y-95598208D01*
X163080470Y-95603846D01*
X163086179Y-95603018D01*
X163086183Y-95603018D01*
X163284015Y-95574333D01*
X163284019Y-95574332D01*
X163289730Y-95573504D01*
X163368987Y-95546600D01*
X163484483Y-95507395D01*
X163484488Y-95507393D01*
X163489955Y-95505537D01*
X163507938Y-95495466D01*
X163669395Y-95405046D01*
X163669399Y-95405043D01*
X163674442Y-95402219D01*
X163837012Y-95267012D01*
X163972219Y-95104442D01*
X163975043Y-95099399D01*
X163975046Y-95099395D01*
X164072713Y-94924998D01*
X164072714Y-94924996D01*
X164075537Y-94919955D01*
X164077393Y-94914488D01*
X164077395Y-94914483D01*
X164141647Y-94725200D01*
X164143504Y-94719730D01*
X164146261Y-94700715D01*
X164165090Y-94570860D01*
X164194660Y-94506315D01*
X164254432Y-94468003D01*
X164325429Y-94468087D01*
X164385109Y-94506542D01*
X164414525Y-94571158D01*
X164415515Y-94580695D01*
X164418796Y-94630749D01*
X164420217Y-94636345D01*
X164420218Y-94636350D01*
X164441571Y-94720426D01*
X164470845Y-94835690D01*
X164473262Y-94840933D01*
X164540963Y-94987789D01*
X164559369Y-95027714D01*
X164681405Y-95200391D01*
X164745238Y-95262574D01*
X164820193Y-95335592D01*
X164832865Y-95347937D01*
X164837661Y-95351142D01*
X164837664Y-95351144D01*
X164969131Y-95438987D01*
X165008677Y-95465411D01*
X165013985Y-95467692D01*
X165013986Y-95467692D01*
X165197650Y-95546600D01*
X165197653Y-95546601D01*
X165202953Y-95548878D01*
X165208582Y-95550152D01*
X165208583Y-95550152D01*
X165403550Y-95594269D01*
X165403553Y-95594269D01*
X165409186Y-95595544D01*
X165414957Y-95595771D01*
X165414959Y-95595771D01*
X165476989Y-95598208D01*
X165620470Y-95603846D01*
X165626179Y-95603018D01*
X165626183Y-95603018D01*
X165824015Y-95574333D01*
X165824019Y-95574332D01*
X165829730Y-95573504D01*
X165908987Y-95546600D01*
X166024483Y-95507395D01*
X166024488Y-95507393D01*
X166029955Y-95505537D01*
X166047938Y-95495466D01*
X166209395Y-95405046D01*
X166209399Y-95405043D01*
X166214442Y-95402219D01*
X166377012Y-95267012D01*
X166512219Y-95104442D01*
X166515043Y-95099399D01*
X166515046Y-95099395D01*
X166612713Y-94924998D01*
X166612714Y-94924996D01*
X166615537Y-94919955D01*
X166617393Y-94914488D01*
X166617395Y-94914483D01*
X166681647Y-94725200D01*
X166683504Y-94719730D01*
X166686261Y-94700715D01*
X166705090Y-94570860D01*
X166734660Y-94506315D01*
X166794432Y-94468003D01*
X166865429Y-94468087D01*
X166925109Y-94506542D01*
X166954525Y-94571158D01*
X166955515Y-94580695D01*
X166958796Y-94630749D01*
X166960217Y-94636345D01*
X166960218Y-94636350D01*
X166981571Y-94720426D01*
X167010845Y-94835690D01*
X167013262Y-94840933D01*
X167080963Y-94987789D01*
X167099369Y-95027714D01*
X167221405Y-95200391D01*
X167285238Y-95262574D01*
X167360193Y-95335592D01*
X167372865Y-95347937D01*
X167377661Y-95351142D01*
X167377664Y-95351144D01*
X167509131Y-95438987D01*
X167548677Y-95465411D01*
X167553985Y-95467692D01*
X167553986Y-95467692D01*
X167737650Y-95546600D01*
X167737653Y-95546601D01*
X167742953Y-95548878D01*
X167748582Y-95550152D01*
X167748583Y-95550152D01*
X167943550Y-95594269D01*
X167943553Y-95594269D01*
X167949186Y-95595544D01*
X167954957Y-95595771D01*
X167954959Y-95595771D01*
X168016989Y-95598208D01*
X168160470Y-95603846D01*
X168166179Y-95603018D01*
X168166183Y-95603018D01*
X168364015Y-95574333D01*
X168364019Y-95574332D01*
X168369730Y-95573504D01*
X168448987Y-95546600D01*
X168564483Y-95507395D01*
X168564488Y-95507393D01*
X168569955Y-95505537D01*
X168587938Y-95495466D01*
X168749395Y-95405046D01*
X168749399Y-95405043D01*
X168754442Y-95402219D01*
X168917012Y-95267012D01*
X169052219Y-95104442D01*
X169055043Y-95099399D01*
X169055046Y-95099395D01*
X169152713Y-94924998D01*
X169152714Y-94924996D01*
X169155537Y-94919955D01*
X169165239Y-94891375D01*
X169206074Y-94833300D01*
X169271827Y-94806521D01*
X169341619Y-94819542D01*
X169393293Y-94868228D01*
X169402952Y-94888783D01*
X169408509Y-94904050D01*
X169500586Y-95101511D01*
X169506069Y-95111007D01*
X169631028Y-95289467D01*
X169638084Y-95297875D01*
X169792125Y-95451916D01*
X169800533Y-95458972D01*
X169978993Y-95583931D01*
X169988489Y-95589414D01*
X170185947Y-95681490D01*
X170196239Y-95685236D01*
X170368503Y-95731394D01*
X170382599Y-95731058D01*
X170386000Y-95723116D01*
X170386000Y-93182033D01*
X170382027Y-93168502D01*
X170373478Y-93167273D01*
X170196239Y-93214764D01*
X170185947Y-93218510D01*
X169988489Y-93310586D01*
X169978993Y-93316069D01*
X169800533Y-93441028D01*
X169792125Y-93448084D01*
X169638084Y-93602125D01*
X169631028Y-93610533D01*
X169506069Y-93788993D01*
X169500586Y-93798489D01*
X169408510Y-93995947D01*
X169403455Y-94009836D01*
X169361361Y-94067007D01*
X169295039Y-94092345D01*
X169225548Y-94077804D01*
X169172048Y-94022470D01*
X169087719Y-93851469D01*
X169085165Y-93846290D01*
X168969045Y-93690786D01*
X168962104Y-93681491D01*
X168962103Y-93681490D01*
X168958651Y-93676867D01*
X168830237Y-93558162D01*
X168807622Y-93537257D01*
X168807620Y-93537255D01*
X168803381Y-93533337D01*
X168731964Y-93488276D01*
X168629434Y-93423584D01*
X168629433Y-93423584D01*
X168624554Y-93420505D01*
X168428160Y-93342152D01*
X168422503Y-93341027D01*
X168422497Y-93341025D01*
X168226442Y-93302028D01*
X168226440Y-93302028D01*
X168220775Y-93300901D01*
X168215000Y-93300825D01*
X168214996Y-93300825D01*
X168108976Y-93299437D01*
X168009346Y-93298133D01*
X168003649Y-93299112D01*
X168003648Y-93299112D01*
X167806650Y-93332962D01*
X167806649Y-93332962D01*
X167800953Y-93333941D01*
X167602575Y-93407127D01*
X167597614Y-93410079D01*
X167597613Y-93410079D01*
X167530028Y-93450288D01*
X167420856Y-93515238D01*
X167261881Y-93654655D01*
X167130976Y-93820708D01*
X167128287Y-93825819D01*
X167128285Y-93825822D01*
X167100875Y-93877920D01*
X167032523Y-94007836D01*
X166969820Y-94209773D01*
X166969141Y-94215510D01*
X166955088Y-94334239D01*
X166927217Y-94399537D01*
X166868469Y-94439401D01*
X166797494Y-94441174D01*
X166736828Y-94404295D01*
X166705730Y-94340471D01*
X166704490Y-94330958D01*
X166700232Y-94284609D01*
X166696081Y-94239440D01*
X166638686Y-94035931D01*
X166631612Y-94021585D01*
X166547719Y-93851469D01*
X166545165Y-93846290D01*
X166429045Y-93690786D01*
X166422104Y-93681491D01*
X166422103Y-93681490D01*
X166418651Y-93676867D01*
X166290237Y-93558162D01*
X166267622Y-93537257D01*
X166267620Y-93537255D01*
X166263381Y-93533337D01*
X166191964Y-93488276D01*
X166089434Y-93423584D01*
X166089433Y-93423584D01*
X166084554Y-93420505D01*
X165888160Y-93342152D01*
X165882503Y-93341027D01*
X165882497Y-93341025D01*
X165686442Y-93302028D01*
X165686440Y-93302028D01*
X165680775Y-93300901D01*
X165675000Y-93300825D01*
X165674996Y-93300825D01*
X165568976Y-93299437D01*
X165469346Y-93298133D01*
X165463649Y-93299112D01*
X165463648Y-93299112D01*
X165266650Y-93332962D01*
X165266649Y-93332962D01*
X165260953Y-93333941D01*
X165062575Y-93407127D01*
X165057614Y-93410079D01*
X165057613Y-93410079D01*
X164990028Y-93450288D01*
X164880856Y-93515238D01*
X164721881Y-93654655D01*
X164590976Y-93820708D01*
X164588287Y-93825819D01*
X164588285Y-93825822D01*
X164560875Y-93877920D01*
X164492523Y-94007836D01*
X164429820Y-94209773D01*
X164429141Y-94215510D01*
X164415088Y-94334239D01*
X164387217Y-94399537D01*
X164328469Y-94439401D01*
X164257494Y-94441174D01*
X164196828Y-94404295D01*
X164165730Y-94340471D01*
X164164490Y-94330958D01*
X164160232Y-94284609D01*
X164156081Y-94239440D01*
X164098686Y-94035931D01*
X164091612Y-94021585D01*
X164007719Y-93851469D01*
X164005165Y-93846290D01*
X163889045Y-93690786D01*
X163882104Y-93681491D01*
X163882103Y-93681490D01*
X163878651Y-93676867D01*
X163750237Y-93558162D01*
X163727622Y-93537257D01*
X163727620Y-93537255D01*
X163723381Y-93533337D01*
X163651964Y-93488276D01*
X163549434Y-93423584D01*
X163549433Y-93423584D01*
X163544554Y-93420505D01*
X163348160Y-93342152D01*
X163342503Y-93341027D01*
X163342497Y-93341025D01*
X163146442Y-93302028D01*
X163146440Y-93302028D01*
X163140775Y-93300901D01*
X163135000Y-93300825D01*
X163134996Y-93300825D01*
X163028976Y-93299437D01*
X162929346Y-93298133D01*
X162923649Y-93299112D01*
X162923648Y-93299112D01*
X162726650Y-93332962D01*
X162726649Y-93332962D01*
X162720953Y-93333941D01*
X162522575Y-93407127D01*
X162517614Y-93410079D01*
X162517613Y-93410079D01*
X162450028Y-93450288D01*
X162340856Y-93515238D01*
X162181881Y-93654655D01*
X162050976Y-93820708D01*
X162048287Y-93825819D01*
X162048285Y-93825822D01*
X162020875Y-93877920D01*
X161952523Y-94007836D01*
X161889820Y-94209773D01*
X161889141Y-94215510D01*
X161875088Y-94334239D01*
X161847217Y-94399537D01*
X161788469Y-94439401D01*
X161717494Y-94441174D01*
X161656828Y-94404295D01*
X161625730Y-94340471D01*
X161624490Y-94330958D01*
X161620232Y-94284609D01*
X161616081Y-94239440D01*
X161558686Y-94035931D01*
X161551612Y-94021585D01*
X161467719Y-93851469D01*
X161465165Y-93846290D01*
X161349045Y-93690786D01*
X161342104Y-93681491D01*
X161342103Y-93681490D01*
X161338651Y-93676867D01*
X161210237Y-93558162D01*
X161187622Y-93537257D01*
X161187620Y-93537255D01*
X161183381Y-93533337D01*
X161111964Y-93488276D01*
X161009434Y-93423584D01*
X161009433Y-93423584D01*
X161004554Y-93420505D01*
X160808160Y-93342152D01*
X160802503Y-93341027D01*
X160802497Y-93341025D01*
X160606442Y-93302028D01*
X160606440Y-93302028D01*
X160600775Y-93300901D01*
X160595000Y-93300825D01*
X160594996Y-93300825D01*
X160488976Y-93299437D01*
X160389346Y-93298133D01*
X160383649Y-93299112D01*
X160383648Y-93299112D01*
X160186650Y-93332962D01*
X160186649Y-93332962D01*
X160180953Y-93333941D01*
X159982575Y-93407127D01*
X159977614Y-93410079D01*
X159977613Y-93410079D01*
X159910028Y-93450288D01*
X159800856Y-93515238D01*
X159641881Y-93654655D01*
X159510976Y-93820708D01*
X159508287Y-93825819D01*
X159508285Y-93825822D01*
X159480875Y-93877920D01*
X159412523Y-94007836D01*
X159349820Y-94209773D01*
X159324967Y-94419754D01*
X144547086Y-94419754D01*
X144550475Y-94409771D01*
X144550476Y-94409766D01*
X144552331Y-94404302D01*
X144553159Y-94398593D01*
X144553160Y-94398588D01*
X144577042Y-94233876D01*
X144583991Y-94185948D01*
X144585643Y-94122850D01*
X144565454Y-93903139D01*
X144541990Y-93819939D01*
X144507134Y-93696350D01*
X144505565Y-93690786D01*
X144407980Y-93492903D01*
X144365247Y-93435676D01*
X144279420Y-93320741D01*
X144279420Y-93320740D01*
X144275967Y-93316117D01*
X144113949Y-93166349D01*
X143927350Y-93048614D01*
X143724955Y-92967867D01*
X143669096Y-92924046D01*
X143645795Y-92856982D01*
X143662451Y-92787967D01*
X143713775Y-92738913D01*
X143731144Y-92731524D01*
X143864907Y-92686118D01*
X143864912Y-92686116D01*
X143870379Y-92684260D01*
X144062884Y-92576452D01*
X144102119Y-92543821D01*
X144228086Y-92439054D01*
X144232518Y-92435368D01*
X144300855Y-92353202D01*
X144369908Y-92270176D01*
X144369910Y-92270173D01*
X144373602Y-92265734D01*
X144461282Y-92109170D01*
X144478583Y-92078278D01*
X193898050Y-92078278D01*
X193934750Y-92318116D01*
X194010129Y-92548739D01*
X194024860Y-92577036D01*
X194106168Y-92733227D01*
X194122163Y-92763954D01*
X194267842Y-92957981D01*
X194443255Y-93125609D01*
X194447527Y-93128523D01*
X194447528Y-93128524D01*
X194579443Y-93218510D01*
X194643691Y-93262337D01*
X194729198Y-93302028D01*
X194859071Y-93362313D01*
X194859075Y-93362314D01*
X194863766Y-93364492D01*
X195097571Y-93429332D01*
X195102708Y-93429881D01*
X195292309Y-93450144D01*
X195292317Y-93450144D01*
X195295644Y-93450500D01*
X197686508Y-93450500D01*
X197689081Y-93450288D01*
X197689092Y-93450288D01*
X197861662Y-93436100D01*
X197861668Y-93436099D01*
X197866813Y-93435676D01*
X197988426Y-93405129D01*
X198097122Y-93377827D01*
X198097126Y-93377826D01*
X198102133Y-93376568D01*
X198106866Y-93374510D01*
X198106869Y-93374509D01*
X198319901Y-93281880D01*
X198319904Y-93281878D01*
X198324638Y-93279820D01*
X198528355Y-93148030D01*
X198532224Y-93144510D01*
X198703989Y-92988215D01*
X198703990Y-92988213D01*
X198707811Y-92984737D01*
X198711010Y-92980686D01*
X198711014Y-92980682D01*
X198854982Y-92798386D01*
X198858187Y-92794328D01*
X198975446Y-92581914D01*
X199028910Y-92430936D01*
X199054711Y-92358077D01*
X199054712Y-92358073D01*
X199056437Y-92353202D01*
X199057345Y-92348106D01*
X199098080Y-92119422D01*
X199098081Y-92119416D01*
X199098986Y-92114333D01*
X199101950Y-91871722D01*
X199065250Y-91631884D01*
X198989871Y-91401261D01*
X198877837Y-91186046D01*
X198851364Y-91150786D01*
X198735263Y-90996154D01*
X198735261Y-90996151D01*
X198732158Y-90992019D01*
X198556745Y-90824391D01*
X198492757Y-90780741D01*
X198360588Y-90690582D01*
X198360589Y-90690582D01*
X198356309Y-90687663D01*
X198217579Y-90623267D01*
X198140929Y-90587687D01*
X198140925Y-90587686D01*
X198136234Y-90585508D01*
X197902429Y-90520668D01*
X197897292Y-90520119D01*
X197707691Y-90499856D01*
X197707683Y-90499856D01*
X197704356Y-90499500D01*
X195313492Y-90499500D01*
X195310919Y-90499712D01*
X195310908Y-90499712D01*
X195138338Y-90513900D01*
X195138332Y-90513901D01*
X195133187Y-90514324D01*
X195015527Y-90543878D01*
X194902878Y-90572173D01*
X194902874Y-90572174D01*
X194897867Y-90573432D01*
X194893134Y-90575490D01*
X194893131Y-90575491D01*
X194680099Y-90668120D01*
X194680096Y-90668122D01*
X194675362Y-90670180D01*
X194471645Y-90801970D01*
X194467822Y-90805449D01*
X194467819Y-90805451D01*
X194296011Y-90961785D01*
X194292189Y-90965263D01*
X194288990Y-90969314D01*
X194288986Y-90969318D01*
X194180949Y-91106117D01*
X194141813Y-91155672D01*
X194024554Y-91368086D01*
X194022827Y-91372964D01*
X193947191Y-91586554D01*
X193943563Y-91596798D01*
X193942656Y-91601891D01*
X193942655Y-91601894D01*
X193934154Y-91649622D01*
X193901014Y-91835667D01*
X193900951Y-91840830D01*
X193898179Y-92067757D01*
X193898050Y-92078278D01*
X144478583Y-92078278D01*
X144478586Y-92078272D01*
X144478587Y-92078270D01*
X144481410Y-92073229D01*
X144483266Y-92067762D01*
X144483268Y-92067757D01*
X144550475Y-91869771D01*
X144550476Y-91869766D01*
X144552331Y-91864302D01*
X144553159Y-91858593D01*
X144553160Y-91858588D01*
X144583458Y-91649622D01*
X144583991Y-91645948D01*
X144585643Y-91582850D01*
X144565454Y-91363139D01*
X144505565Y-91150786D01*
X144407980Y-90952903D01*
X144295273Y-90801970D01*
X144279420Y-90780741D01*
X144279420Y-90780740D01*
X144275967Y-90776117D01*
X144113949Y-90626349D01*
X143928702Y-90509467D01*
X143928700Y-90509465D01*
X143927350Y-90508614D01*
X143927517Y-90508349D01*
X143878071Y-90461652D01*
X143861002Y-90392738D01*
X143883901Y-90325536D01*
X143931454Y-90284979D01*
X144073095Y-90215589D01*
X144081945Y-90210314D01*
X144255328Y-90086642D01*
X144263200Y-90079989D01*
X144414052Y-89929662D01*
X144420730Y-89921815D01*
X144545003Y-89748870D01*
X144550313Y-89740033D01*
X144644670Y-89549117D01*
X144648469Y-89539522D01*
X144710377Y-89335760D01*
X144712555Y-89325687D01*
X144713986Y-89314812D01*
X144711775Y-89300628D01*
X144698617Y-89296850D01*
X142063225Y-89296850D01*
X142049694Y-89300823D01*
X142048257Y-89310816D01*
X130500000Y-89310816D01*
X130500000Y-88777033D01*
X142044389Y-88777033D01*
X142045912Y-88785457D01*
X142058292Y-88788850D01*
X144698344Y-88788850D01*
X144711875Y-88784877D01*
X144713180Y-88775797D01*
X144671214Y-88608725D01*
X144667894Y-88598974D01*
X144582972Y-88403664D01*
X144578105Y-88394589D01*
X144462426Y-88215776D01*
X144456136Y-88207607D01*
X144312806Y-88050090D01*
X144305273Y-88043065D01*
X144138139Y-87911072D01*
X144129552Y-87905367D01*
X143943115Y-87802448D01*
X143934687Y-87798660D01*
X143880752Y-87752491D01*
X143860340Y-87684492D01*
X143879932Y-87616252D01*
X143924771Y-87573799D01*
X144057843Y-87499275D01*
X144062884Y-87496452D01*
X144232518Y-87355368D01*
X144373602Y-87185734D01*
X144481410Y-86993229D01*
X144483266Y-86987762D01*
X144483268Y-86987757D01*
X144550475Y-86789771D01*
X144550476Y-86789766D01*
X144552331Y-86784302D01*
X144553159Y-86778593D01*
X144553160Y-86778588D01*
X144583458Y-86569622D01*
X144583991Y-86565948D01*
X144585643Y-86502850D01*
X144565454Y-86283139D01*
X144554092Y-86242850D01*
X144507134Y-86076350D01*
X144505565Y-86070786D01*
X144407980Y-85872903D01*
X144275967Y-85696117D01*
X144113949Y-85546349D01*
X143927350Y-85428614D01*
X143887348Y-85412655D01*
X143871620Y-85406380D01*
X143815760Y-85362559D01*
X143792460Y-85295495D01*
X143809116Y-85226480D01*
X143860440Y-85177426D01*
X143918310Y-85163350D01*
X144263218Y-85163350D01*
X144267768Y-85162680D01*
X144267771Y-85162680D01*
X144322426Y-85154634D01*
X144322427Y-85154634D01*
X144332112Y-85153208D01*
X144426804Y-85106717D01*
X144427507Y-85106372D01*
X144427509Y-85106371D01*
X144436855Y-85101782D01*
X144519293Y-85019200D01*
X144543692Y-84969285D01*
X198044759Y-84969285D01*
X198045003Y-84973720D01*
X198045003Y-84973724D01*
X198058914Y-85226480D01*
X198059938Y-85245087D01*
X198113825Y-85515999D01*
X198205347Y-85776616D01*
X198332678Y-86021737D01*
X198335261Y-86025352D01*
X198335265Y-86025358D01*
X198372272Y-86077144D01*
X198493275Y-86246471D01*
X198683936Y-86446335D01*
X198687431Y-86449091D01*
X198687433Y-86449092D01*
X198840325Y-86569622D01*
X198900856Y-86617341D01*
X198962559Y-86653181D01*
X199135853Y-86753839D01*
X199135859Y-86753842D01*
X199139707Y-86756077D01*
X199395723Y-86859774D01*
X199400036Y-86860845D01*
X199400041Y-86860847D01*
X199659475Y-86925291D01*
X199659480Y-86925292D01*
X199663796Y-86926364D01*
X199668224Y-86926818D01*
X199668226Y-86926818D01*
X199743339Y-86934514D01*
X199899370Y-86950500D01*
X200070362Y-86950500D01*
X200275530Y-86935973D01*
X200279885Y-86935035D01*
X200279888Y-86935035D01*
X200541215Y-86878773D01*
X200541217Y-86878773D01*
X200545562Y-86877837D01*
X200804709Y-86782233D01*
X200853185Y-86756077D01*
X201043884Y-86653181D01*
X201047800Y-86651068D01*
X201269984Y-86486960D01*
X201466829Y-86293183D01*
X201634406Y-86073604D01*
X201743903Y-85878084D01*
X201767197Y-85836490D01*
X201767198Y-85836487D01*
X201769373Y-85832604D01*
X201869036Y-85574991D01*
X201876390Y-85543267D01*
X201930401Y-85310244D01*
X201931407Y-85305905D01*
X201955241Y-85030715D01*
X201954635Y-85019705D01*
X201940307Y-84759356D01*
X201940306Y-84759349D01*
X201940062Y-84754913D01*
X201886175Y-84484001D01*
X201794653Y-84223384D01*
X201667322Y-83978263D01*
X201664739Y-83974648D01*
X201664735Y-83974642D01*
X201509313Y-83757150D01*
X201509310Y-83757146D01*
X201506725Y-83753529D01*
X201316064Y-83553665D01*
X201312567Y-83550908D01*
X201102639Y-83385414D01*
X201102637Y-83385413D01*
X201099144Y-83382659D01*
X200986609Y-83317294D01*
X200864147Y-83246161D01*
X200864141Y-83246158D01*
X200860293Y-83243923D01*
X200604277Y-83140226D01*
X200599964Y-83139155D01*
X200599959Y-83139153D01*
X200340525Y-83074709D01*
X200340520Y-83074708D01*
X200336204Y-83073636D01*
X200331776Y-83073182D01*
X200331774Y-83073182D01*
X200251573Y-83064965D01*
X200100630Y-83049500D01*
X199929638Y-83049500D01*
X199724470Y-83064027D01*
X199720115Y-83064965D01*
X199720112Y-83064965D01*
X199458785Y-83121227D01*
X199458783Y-83121227D01*
X199454438Y-83122163D01*
X199195291Y-83217767D01*
X199191373Y-83219881D01*
X199142668Y-83246161D01*
X198952200Y-83348932D01*
X198730016Y-83513040D01*
X198533171Y-83706817D01*
X198365594Y-83926396D01*
X198230627Y-84167396D01*
X198130964Y-84425009D01*
X198068593Y-84694095D01*
X198044759Y-84969285D01*
X144543692Y-84969285D01*
X144570536Y-84914368D01*
X144580500Y-84846068D01*
X144580500Y-83079632D01*
X144579776Y-83074709D01*
X144571784Y-83020424D01*
X144571784Y-83020423D01*
X144570358Y-83010738D01*
X144518932Y-82905995D01*
X144436350Y-82823557D01*
X144331518Y-82772314D01*
X144301027Y-82767866D01*
X144267744Y-82763010D01*
X144267740Y-82763010D01*
X144263218Y-82762350D01*
X142496782Y-82762350D01*
X142492232Y-82763020D01*
X142492229Y-82763020D01*
X142437574Y-82771066D01*
X142437573Y-82771066D01*
X142427888Y-82772492D01*
X142377992Y-82796990D01*
X142332493Y-82819328D01*
X142332491Y-82819329D01*
X142323145Y-82823918D01*
X142240707Y-82906500D01*
X142189464Y-83011332D01*
X142188052Y-83021012D01*
X142180375Y-83073636D01*
X142179500Y-83079632D01*
X142179500Y-84846068D01*
X142180170Y-84850618D01*
X142180170Y-84850621D01*
X142188216Y-84905276D01*
X142189642Y-84914962D01*
X142193958Y-84923752D01*
X142218493Y-84973724D01*
X142241068Y-85019705D01*
X142323650Y-85102143D01*
X142428482Y-85153386D01*
X142458973Y-85157834D01*
X142492256Y-85162690D01*
X142492260Y-85162690D01*
X142496782Y-85163350D01*
X142836570Y-85163350D01*
X142904691Y-85183352D01*
X142951184Y-85237008D01*
X142961288Y-85307282D01*
X142931794Y-85371862D01*
X142880180Y-85407562D01*
X142871382Y-85410808D01*
X142860957Y-85414654D01*
X142671341Y-85527464D01*
X142505457Y-85672940D01*
X142368863Y-85846210D01*
X142266131Y-86041470D01*
X142200703Y-86252183D01*
X142174770Y-86471290D01*
X142189200Y-86691454D01*
X142190621Y-86697050D01*
X142190622Y-86697055D01*
X142231524Y-86858103D01*
X142243511Y-86905302D01*
X142245928Y-86910544D01*
X142245928Y-86910545D01*
X142284046Y-86993229D01*
X142335883Y-87105671D01*
X142463222Y-87285852D01*
X142621264Y-87439811D01*
X142626060Y-87443016D01*
X142626063Y-87443018D01*
X142710258Y-87499275D01*
X142804717Y-87562390D01*
X142810020Y-87564668D01*
X142810023Y-87564670D01*
X142822546Y-87570050D01*
X142877239Y-87615319D01*
X142898776Y-87682970D01*
X142880319Y-87751525D01*
X142830988Y-87797581D01*
X142658463Y-87887392D01*
X142649738Y-87892886D01*
X142479433Y-88020755D01*
X142471726Y-88027598D01*
X142324590Y-88181567D01*
X142318104Y-88189577D01*
X142198098Y-88365499D01*
X142193000Y-88374473D01*
X142103338Y-88567633D01*
X142099775Y-88577320D01*
X142044389Y-88777033D01*
X130500000Y-88777033D01*
X130500000Y-80626000D01*
X130520002Y-80557879D01*
X130573658Y-80511386D01*
X130626000Y-80500000D01*
X204374000Y-80500000D01*
X204442121Y-80520002D01*
G37*
G04 #@! TD.AperFunction*
M02*
