G04 #@! TF.GenerationSoftware,KiCad,Pcbnew,(6.0.11-0)*
G04 #@! TF.CreationDate,2023-06-17T18:40:16+09:00*
G04 #@! TF.ProjectId,TargetSite-Truck,54617267-6574-4536-9974-652d54727563,1*
G04 #@! TF.SameCoordinates,Original*
G04 #@! TF.FileFunction,Legend,Top*
G04 #@! TF.FilePolarity,Positive*
%FSLAX46Y46*%
G04 Gerber Fmt 4.6, Leading zero omitted, Abs format (unit mm)*
G04 Created by KiCad (PCBNEW (6.0.11-0)) date 2023-06-17 18:40:16*
%MOMM*%
%LPD*%
G01*
G04 APERTURE LIST*
%ADD10C,0.150000*%
%ADD11C,0.120000*%
%ADD12C,0.127000*%
%ADD13C,0.400000*%
G04 APERTURE END LIST*
D10*
X145708333Y-94892380D02*
X145375000Y-94416190D01*
X145136904Y-94892380D02*
X145136904Y-93892380D01*
X145517857Y-93892380D01*
X145613095Y-93940000D01*
X145660714Y-93987619D01*
X145708333Y-94082857D01*
X145708333Y-94225714D01*
X145660714Y-94320952D01*
X145613095Y-94368571D01*
X145517857Y-94416190D01*
X145136904Y-94416190D01*
X146041666Y-93892380D02*
X146708333Y-94892380D01*
X146708333Y-93892380D02*
X146041666Y-94892380D01*
X189777380Y-109870476D02*
X189777380Y-110346666D01*
X190253571Y-110394285D01*
X190205952Y-110346666D01*
X190158333Y-110251428D01*
X190158333Y-110013333D01*
X190205952Y-109918095D01*
X190253571Y-109870476D01*
X190348809Y-109822857D01*
X190586904Y-109822857D01*
X190682142Y-109870476D01*
X190729761Y-109918095D01*
X190777380Y-110013333D01*
X190777380Y-110251428D01*
X190729761Y-110346666D01*
X190682142Y-110394285D01*
X189777380Y-109537142D02*
X190777380Y-109203809D01*
X189777380Y-108870476D01*
X145113095Y-88860000D02*
X145017857Y-88812380D01*
X144875000Y-88812380D01*
X144732142Y-88860000D01*
X144636904Y-88955238D01*
X144589285Y-89050476D01*
X144541666Y-89240952D01*
X144541666Y-89383809D01*
X144589285Y-89574285D01*
X144636904Y-89669523D01*
X144732142Y-89764761D01*
X144875000Y-89812380D01*
X144970238Y-89812380D01*
X145113095Y-89764761D01*
X145160714Y-89717142D01*
X145160714Y-89383809D01*
X144970238Y-89383809D01*
X145589285Y-89812380D02*
X145589285Y-88812380D01*
X146160714Y-89812380D01*
X146160714Y-88812380D01*
X146636904Y-89812380D02*
X146636904Y-88812380D01*
X146875000Y-88812380D01*
X147017857Y-88860000D01*
X147113095Y-88955238D01*
X147160714Y-89050476D01*
X147208333Y-89240952D01*
X147208333Y-89383809D01*
X147160714Y-89574285D01*
X147113095Y-89669523D01*
X147017857Y-89764761D01*
X146875000Y-89812380D01*
X146636904Y-89812380D01*
X185437738Y-125472380D02*
X186009166Y-125472380D01*
X185723452Y-126472380D02*
X185723452Y-125472380D01*
X186771071Y-126472380D02*
X186771071Y-125948571D01*
X186723452Y-125853333D01*
X186628214Y-125805714D01*
X186437738Y-125805714D01*
X186342500Y-125853333D01*
X186771071Y-126424761D02*
X186675833Y-126472380D01*
X186437738Y-126472380D01*
X186342500Y-126424761D01*
X186294880Y-126329523D01*
X186294880Y-126234285D01*
X186342500Y-126139047D01*
X186437738Y-126091428D01*
X186675833Y-126091428D01*
X186771071Y-126043809D01*
X187247261Y-126472380D02*
X187247261Y-125805714D01*
X187247261Y-125996190D02*
X187294880Y-125900952D01*
X187342500Y-125853333D01*
X187437738Y-125805714D01*
X187532976Y-125805714D01*
X188294880Y-125805714D02*
X188294880Y-126615238D01*
X188247261Y-126710476D01*
X188199642Y-126758095D01*
X188104404Y-126805714D01*
X187961547Y-126805714D01*
X187866309Y-126758095D01*
X188294880Y-126424761D02*
X188199642Y-126472380D01*
X188009166Y-126472380D01*
X187913928Y-126424761D01*
X187866309Y-126377142D01*
X187818690Y-126281904D01*
X187818690Y-125996190D01*
X187866309Y-125900952D01*
X187913928Y-125853333D01*
X188009166Y-125805714D01*
X188199642Y-125805714D01*
X188294880Y-125853333D01*
X189152023Y-126424761D02*
X189056785Y-126472380D01*
X188866309Y-126472380D01*
X188771071Y-126424761D01*
X188723452Y-126329523D01*
X188723452Y-125948571D01*
X188771071Y-125853333D01*
X188866309Y-125805714D01*
X189056785Y-125805714D01*
X189152023Y-125853333D01*
X189199642Y-125948571D01*
X189199642Y-126043809D01*
X188723452Y-126139047D01*
X189485357Y-125805714D02*
X189866309Y-125805714D01*
X189628214Y-125472380D02*
X189628214Y-126329523D01*
X189675833Y-126424761D01*
X189771071Y-126472380D01*
X189866309Y-126472380D01*
X190152023Y-126424761D02*
X190294880Y-126472380D01*
X190532976Y-126472380D01*
X190628214Y-126424761D01*
X190675833Y-126377142D01*
X190723452Y-126281904D01*
X190723452Y-126186666D01*
X190675833Y-126091428D01*
X190628214Y-126043809D01*
X190532976Y-125996190D01*
X190342500Y-125948571D01*
X190247261Y-125900952D01*
X190199642Y-125853333D01*
X190152023Y-125758095D01*
X190152023Y-125662857D01*
X190199642Y-125567619D01*
X190247261Y-125520000D01*
X190342500Y-125472380D01*
X190580595Y-125472380D01*
X190723452Y-125520000D01*
X191152023Y-126472380D02*
X191152023Y-125805714D01*
X191152023Y-125472380D02*
X191104404Y-125520000D01*
X191152023Y-125567619D01*
X191199642Y-125520000D01*
X191152023Y-125472380D01*
X191152023Y-125567619D01*
X191485357Y-125805714D02*
X191866309Y-125805714D01*
X191628214Y-125472380D02*
X191628214Y-126329523D01*
X191675833Y-126424761D01*
X191771071Y-126472380D01*
X191866309Y-126472380D01*
X192580595Y-126424761D02*
X192485357Y-126472380D01*
X192294880Y-126472380D01*
X192199642Y-126424761D01*
X192152023Y-126329523D01*
X192152023Y-125948571D01*
X192199642Y-125853333D01*
X192294880Y-125805714D01*
X192485357Y-125805714D01*
X192580595Y-125853333D01*
X192628214Y-125948571D01*
X192628214Y-126043809D01*
X192152023Y-126139047D01*
X193056785Y-126091428D02*
X193818690Y-126091428D01*
X194152023Y-125472380D02*
X194723452Y-125472380D01*
X194437738Y-126472380D02*
X194437738Y-125472380D01*
X195056785Y-126472380D02*
X195056785Y-125805714D01*
X195056785Y-125996190D02*
X195104404Y-125900952D01*
X195152023Y-125853333D01*
X195247261Y-125805714D01*
X195342500Y-125805714D01*
X196104404Y-125805714D02*
X196104404Y-126472380D01*
X195675833Y-125805714D02*
X195675833Y-126329523D01*
X195723452Y-126424761D01*
X195818690Y-126472380D01*
X195961547Y-126472380D01*
X196056785Y-126424761D01*
X196104404Y-126377142D01*
X197009166Y-126424761D02*
X196913928Y-126472380D01*
X196723452Y-126472380D01*
X196628214Y-126424761D01*
X196580595Y-126377142D01*
X196532976Y-126281904D01*
X196532976Y-125996190D01*
X196580595Y-125900952D01*
X196628214Y-125853333D01*
X196723452Y-125805714D01*
X196913928Y-125805714D01*
X197009166Y-125853333D01*
X197437738Y-126472380D02*
X197437738Y-125472380D01*
X197532976Y-126091428D02*
X197818690Y-126472380D01*
X197818690Y-125805714D02*
X197437738Y-126186666D01*
X199009166Y-126472380D02*
X199009166Y-125472380D01*
X199247261Y-125472380D01*
X199390119Y-125520000D01*
X199485357Y-125615238D01*
X199532976Y-125710476D01*
X199580595Y-125900952D01*
X199580595Y-126043809D01*
X199532976Y-126234285D01*
X199485357Y-126329523D01*
X199390119Y-126424761D01*
X199247261Y-126472380D01*
X199009166Y-126472380D01*
X200390119Y-126424761D02*
X200294880Y-126472380D01*
X200104404Y-126472380D01*
X200009166Y-126424761D01*
X199961547Y-126329523D01*
X199961547Y-125948571D01*
X200009166Y-125853333D01*
X200104404Y-125805714D01*
X200294880Y-125805714D01*
X200390119Y-125853333D01*
X200437738Y-125948571D01*
X200437738Y-126043809D01*
X199961547Y-126139047D01*
X200771071Y-125805714D02*
X201009166Y-126472380D01*
X201247261Y-125805714D01*
X201628214Y-126377142D02*
X201675833Y-126424761D01*
X201628214Y-126472380D01*
X201580595Y-126424761D01*
X201628214Y-126377142D01*
X201628214Y-126472380D01*
X201628214Y-125853333D02*
X201675833Y-125900952D01*
X201628214Y-125948571D01*
X201580595Y-125900952D01*
X201628214Y-125853333D01*
X201628214Y-125948571D01*
X202056785Y-125567619D02*
X202104404Y-125520000D01*
X202199642Y-125472380D01*
X202437738Y-125472380D01*
X202532976Y-125520000D01*
X202580595Y-125567619D01*
X202628214Y-125662857D01*
X202628214Y-125758095D01*
X202580595Y-125900952D01*
X202009166Y-126472380D01*
X202628214Y-126472380D01*
X186104404Y-127130000D02*
X186009166Y-127082380D01*
X185866309Y-127082380D01*
X185723452Y-127130000D01*
X185628214Y-127225238D01*
X185580595Y-127320476D01*
X185532976Y-127510952D01*
X185532976Y-127653809D01*
X185580595Y-127844285D01*
X185628214Y-127939523D01*
X185723452Y-128034761D01*
X185866309Y-128082380D01*
X185961547Y-128082380D01*
X186104404Y-128034761D01*
X186152023Y-127987142D01*
X186152023Y-127653809D01*
X185961547Y-127653809D01*
X186437738Y-127082380D02*
X187009166Y-127082380D01*
X186723452Y-128082380D02*
X186723452Y-127082380D01*
X187723452Y-128034761D02*
X187628214Y-128082380D01*
X187437738Y-128082380D01*
X187342500Y-128034761D01*
X187294880Y-127939523D01*
X187294880Y-127558571D01*
X187342500Y-127463333D01*
X187437738Y-127415714D01*
X187628214Y-127415714D01*
X187723452Y-127463333D01*
X187771071Y-127558571D01*
X187771071Y-127653809D01*
X187294880Y-127749047D01*
X188628214Y-128034761D02*
X188532976Y-128082380D01*
X188342500Y-128082380D01*
X188247261Y-128034761D01*
X188199642Y-127987142D01*
X188152023Y-127891904D01*
X188152023Y-127606190D01*
X188199642Y-127510952D01*
X188247261Y-127463333D01*
X188342500Y-127415714D01*
X188532976Y-127415714D01*
X188628214Y-127463333D01*
X189056785Y-128082380D02*
X189056785Y-127082380D01*
X189485357Y-128082380D02*
X189485357Y-127558571D01*
X189437738Y-127463333D01*
X189342500Y-127415714D01*
X189199642Y-127415714D01*
X189104404Y-127463333D01*
X189056785Y-127510952D01*
X190009166Y-128082380D02*
X190199642Y-128082380D01*
X190294880Y-128034761D01*
X190342500Y-127987142D01*
X190437738Y-127844285D01*
X190485357Y-127653809D01*
X190485357Y-127272857D01*
X190437738Y-127177619D01*
X190390119Y-127130000D01*
X190294880Y-127082380D01*
X190104404Y-127082380D01*
X190009166Y-127130000D01*
X189961547Y-127177619D01*
X189913928Y-127272857D01*
X189913928Y-127510952D01*
X189961547Y-127606190D01*
X190009166Y-127653809D01*
X190104404Y-127701428D01*
X190294880Y-127701428D01*
X190390119Y-127653809D01*
X190437738Y-127606190D01*
X190485357Y-127510952D01*
X190961547Y-128082380D02*
X191152023Y-128082380D01*
X191247261Y-128034761D01*
X191294880Y-127987142D01*
X191390119Y-127844285D01*
X191437738Y-127653809D01*
X191437738Y-127272857D01*
X191390119Y-127177619D01*
X191342500Y-127130000D01*
X191247261Y-127082380D01*
X191056785Y-127082380D01*
X190961547Y-127130000D01*
X190913928Y-127177619D01*
X190866309Y-127272857D01*
X190866309Y-127510952D01*
X190913928Y-127606190D01*
X190961547Y-127653809D01*
X191056785Y-127701428D01*
X191247261Y-127701428D01*
X191342500Y-127653809D01*
X191390119Y-127606190D01*
X191437738Y-127510952D01*
X191771071Y-127082380D02*
X192437738Y-127082380D01*
X192009166Y-128082380D01*
X193342500Y-128082380D02*
X192771071Y-128082380D01*
X193056785Y-128082380D02*
X193056785Y-127082380D01*
X192961547Y-127225238D01*
X192866309Y-127320476D01*
X192771071Y-127368095D01*
X194485357Y-127177619D02*
X194532976Y-127130000D01*
X194628214Y-127082380D01*
X194866309Y-127082380D01*
X194961547Y-127130000D01*
X195009166Y-127177619D01*
X195056785Y-127272857D01*
X195056785Y-127368095D01*
X195009166Y-127510952D01*
X194437738Y-128082380D01*
X195056785Y-128082380D01*
X195675833Y-127082380D02*
X195771071Y-127082380D01*
X195866309Y-127130000D01*
X195913928Y-127177619D01*
X195961547Y-127272857D01*
X196009166Y-127463333D01*
X196009166Y-127701428D01*
X195961547Y-127891904D01*
X195913928Y-127987142D01*
X195866309Y-128034761D01*
X195771071Y-128082380D01*
X195675833Y-128082380D01*
X195580595Y-128034761D01*
X195532976Y-127987142D01*
X195485357Y-127891904D01*
X195437738Y-127701428D01*
X195437738Y-127463333D01*
X195485357Y-127272857D01*
X195532976Y-127177619D01*
X195580595Y-127130000D01*
X195675833Y-127082380D01*
X196390119Y-127177619D02*
X196437738Y-127130000D01*
X196532976Y-127082380D01*
X196771071Y-127082380D01*
X196866309Y-127130000D01*
X196913928Y-127177619D01*
X196961547Y-127272857D01*
X196961547Y-127368095D01*
X196913928Y-127510952D01*
X196342500Y-128082380D01*
X196961547Y-128082380D01*
X197294880Y-127082380D02*
X197913928Y-127082380D01*
X197580595Y-127463333D01*
X197723452Y-127463333D01*
X197818690Y-127510952D01*
X197866309Y-127558571D01*
X197913928Y-127653809D01*
X197913928Y-127891904D01*
X197866309Y-127987142D01*
X197818690Y-128034761D01*
X197723452Y-128082380D01*
X197437738Y-128082380D01*
X197342500Y-128034761D01*
X197294880Y-127987142D01*
X199056785Y-127034761D02*
X198199642Y-128320476D01*
X199580595Y-127082380D02*
X199675833Y-127082380D01*
X199771071Y-127130000D01*
X199818690Y-127177619D01*
X199866309Y-127272857D01*
X199913928Y-127463333D01*
X199913928Y-127701428D01*
X199866309Y-127891904D01*
X199818690Y-127987142D01*
X199771071Y-128034761D01*
X199675833Y-128082380D01*
X199580595Y-128082380D01*
X199485357Y-128034761D01*
X199437738Y-127987142D01*
X199390119Y-127891904D01*
X199342500Y-127701428D01*
X199342500Y-127463333D01*
X199390119Y-127272857D01*
X199437738Y-127177619D01*
X199485357Y-127130000D01*
X199580595Y-127082380D01*
X200771071Y-127082380D02*
X200580595Y-127082380D01*
X200485357Y-127130000D01*
X200437738Y-127177619D01*
X200342500Y-127320476D01*
X200294880Y-127510952D01*
X200294880Y-127891904D01*
X200342500Y-127987142D01*
X200390119Y-128034761D01*
X200485357Y-128082380D01*
X200675833Y-128082380D01*
X200771071Y-128034761D01*
X200818690Y-127987142D01*
X200866309Y-127891904D01*
X200866309Y-127653809D01*
X200818690Y-127558571D01*
X200771071Y-127510952D01*
X200675833Y-127463333D01*
X200485357Y-127463333D01*
X200390119Y-127510952D01*
X200342500Y-127558571D01*
X200294880Y-127653809D01*
X202009166Y-127034761D02*
X201152023Y-128320476D01*
X202866309Y-128082380D02*
X202294880Y-128082380D01*
X202580595Y-128082380D02*
X202580595Y-127082380D01*
X202485357Y-127225238D01*
X202390119Y-127320476D01*
X202294880Y-127368095D01*
X203199642Y-127082380D02*
X203866309Y-127082380D01*
X203437738Y-128082380D01*
X144541666Y-86272380D02*
X144875000Y-87272380D01*
X145208333Y-86272380D01*
X146113095Y-87177142D02*
X146065476Y-87224761D01*
X145922619Y-87272380D01*
X145827380Y-87272380D01*
X145684523Y-87224761D01*
X145589285Y-87129523D01*
X145541666Y-87034285D01*
X145494047Y-86843809D01*
X145494047Y-86700952D01*
X145541666Y-86510476D01*
X145589285Y-86415238D01*
X145684523Y-86320000D01*
X145827380Y-86272380D01*
X145922619Y-86272380D01*
X146065476Y-86320000D01*
X146113095Y-86367619D01*
X147113095Y-87177142D02*
X147065476Y-87224761D01*
X146922619Y-87272380D01*
X146827380Y-87272380D01*
X146684523Y-87224761D01*
X146589285Y-87129523D01*
X146541666Y-87034285D01*
X146494047Y-86843809D01*
X146494047Y-86700952D01*
X146541666Y-86510476D01*
X146589285Y-86415238D01*
X146684523Y-86320000D01*
X146827380Y-86272380D01*
X146922619Y-86272380D01*
X147065476Y-86320000D01*
X147113095Y-86367619D01*
X132071666Y-109378095D02*
X132071666Y-108901904D01*
X132357380Y-109473333D02*
X131357380Y-109140000D01*
X132357380Y-108806666D01*
X132262142Y-107901904D02*
X132309761Y-107949523D01*
X132357380Y-108092380D01*
X132357380Y-108187619D01*
X132309761Y-108330476D01*
X132214523Y-108425714D01*
X132119285Y-108473333D01*
X131928809Y-108520952D01*
X131785952Y-108520952D01*
X131595476Y-108473333D01*
X131500238Y-108425714D01*
X131405000Y-108330476D01*
X131357380Y-108187619D01*
X131357380Y-108092380D01*
X131405000Y-107949523D01*
X131452619Y-107901904D01*
X131357380Y-107616190D02*
X131357380Y-107044761D01*
X132357380Y-107330476D02*
X131357380Y-107330476D01*
X132357380Y-106711428D02*
X131357380Y-106711428D01*
X131357380Y-106378095D02*
X132357380Y-106044761D01*
X131357380Y-105711428D01*
X131833571Y-105378095D02*
X131833571Y-105044761D01*
X132357380Y-104901904D02*
X132357380Y-105378095D01*
X131357380Y-105378095D01*
X131357380Y-104901904D01*
X132309761Y-115966190D02*
X132357380Y-115823333D01*
X132357380Y-115585238D01*
X132309761Y-115490000D01*
X132262142Y-115442380D01*
X132166904Y-115394761D01*
X132071666Y-115394761D01*
X131976428Y-115442380D01*
X131928809Y-115490000D01*
X131881190Y-115585238D01*
X131833571Y-115775714D01*
X131785952Y-115870952D01*
X131738333Y-115918571D01*
X131643095Y-115966190D01*
X131547857Y-115966190D01*
X131452619Y-115918571D01*
X131405000Y-115870952D01*
X131357380Y-115775714D01*
X131357380Y-115537619D01*
X131405000Y-115394761D01*
X131357380Y-115109047D02*
X131357380Y-114537619D01*
X132357380Y-114823333D02*
X131357380Y-114823333D01*
X132071666Y-114251904D02*
X132071666Y-113775714D01*
X132357380Y-114347142D02*
X131357380Y-114013809D01*
X132357380Y-113680476D01*
X131357380Y-113490000D02*
X131357380Y-112918571D01*
X132357380Y-113204285D02*
X131357380Y-113204285D01*
X131357380Y-112585238D02*
X132166904Y-112585238D01*
X132262142Y-112537619D01*
X132309761Y-112490000D01*
X132357380Y-112394761D01*
X132357380Y-112204285D01*
X132309761Y-112109047D01*
X132262142Y-112061428D01*
X132166904Y-112013809D01*
X131357380Y-112013809D01*
X132309761Y-111585238D02*
X132357380Y-111442380D01*
X132357380Y-111204285D01*
X132309761Y-111109047D01*
X132262142Y-111061428D01*
X132166904Y-111013809D01*
X132071666Y-111013809D01*
X131976428Y-111061428D01*
X131928809Y-111109047D01*
X131881190Y-111204285D01*
X131833571Y-111394761D01*
X131785952Y-111490000D01*
X131738333Y-111537619D01*
X131643095Y-111585238D01*
X131547857Y-111585238D01*
X131452619Y-111537619D01*
X131405000Y-111490000D01*
X131357380Y-111394761D01*
X131357380Y-111156666D01*
X131405000Y-111013809D01*
X145113095Y-91352380D02*
X145684523Y-91352380D01*
X145398809Y-92352380D02*
X145398809Y-91352380D01*
X145922619Y-91352380D02*
X146589285Y-92352380D01*
X146589285Y-91352380D02*
X145922619Y-92352380D01*
X189452380Y-97170476D02*
X189452380Y-97646666D01*
X189928571Y-97694285D01*
X189880952Y-97646666D01*
X189833333Y-97551428D01*
X189833333Y-97313333D01*
X189880952Y-97218095D01*
X189928571Y-97170476D01*
X190023809Y-97122857D01*
X190261904Y-97122857D01*
X190357142Y-97170476D01*
X190404761Y-97218095D01*
X190452380Y-97313333D01*
X190452380Y-97551428D01*
X190404761Y-97646666D01*
X190357142Y-97694285D01*
X189452380Y-96837142D02*
X190452380Y-96503809D01*
X189452380Y-96170476D01*
X132032857Y-99972380D02*
X132032857Y-98972380D01*
X132032857Y-99448571D02*
X132604285Y-99448571D01*
X132604285Y-99972380D02*
X132604285Y-98972380D01*
X133080476Y-99972380D02*
X133080476Y-98972380D01*
X133413809Y-99686666D01*
X133747142Y-98972380D01*
X133747142Y-99972380D01*
X134223333Y-99591428D02*
X134985238Y-99591428D01*
X135985238Y-99972380D02*
X135413809Y-99972380D01*
X135699523Y-99972380D02*
X135699523Y-98972380D01*
X135604285Y-99115238D01*
X135509047Y-99210476D01*
X135413809Y-99258095D01*
X136604285Y-98972380D02*
X136699523Y-98972380D01*
X136794761Y-99020000D01*
X136842380Y-99067619D01*
X136890000Y-99162857D01*
X136937619Y-99353333D01*
X136937619Y-99591428D01*
X136890000Y-99781904D01*
X136842380Y-99877142D01*
X136794761Y-99924761D01*
X136699523Y-99972380D01*
X136604285Y-99972380D01*
X136509047Y-99924761D01*
X136461428Y-99877142D01*
X136413809Y-99781904D01*
X136366190Y-99591428D01*
X136366190Y-99353333D01*
X136413809Y-99162857D01*
X136461428Y-99067619D01*
X136509047Y-99020000D01*
X136604285Y-98972380D01*
X138128095Y-99972380D02*
X138128095Y-98972380D01*
X138509047Y-98972380D01*
X138604285Y-99020000D01*
X138651904Y-99067619D01*
X138699523Y-99162857D01*
X138699523Y-99305714D01*
X138651904Y-99400952D01*
X138604285Y-99448571D01*
X138509047Y-99496190D01*
X138128095Y-99496190D01*
X139128095Y-99972380D02*
X139128095Y-99305714D01*
X139128095Y-98972380D02*
X139080476Y-99020000D01*
X139128095Y-99067619D01*
X139175714Y-99020000D01*
X139128095Y-98972380D01*
X139128095Y-99067619D01*
X139604285Y-99305714D02*
X139604285Y-99972380D01*
X139604285Y-99400952D02*
X139651904Y-99353333D01*
X139747142Y-99305714D01*
X139890000Y-99305714D01*
X139985238Y-99353333D01*
X140032857Y-99448571D01*
X140032857Y-99972380D01*
X141223333Y-99924761D02*
X141366190Y-99972380D01*
X141604285Y-99972380D01*
X141699523Y-99924761D01*
X141747142Y-99877142D01*
X141794761Y-99781904D01*
X141794761Y-99686666D01*
X141747142Y-99591428D01*
X141699523Y-99543809D01*
X141604285Y-99496190D01*
X141413809Y-99448571D01*
X141318571Y-99400952D01*
X141270952Y-99353333D01*
X141223333Y-99258095D01*
X141223333Y-99162857D01*
X141270952Y-99067619D01*
X141318571Y-99020000D01*
X141413809Y-98972380D01*
X141651904Y-98972380D01*
X141794761Y-99020000D01*
X142366190Y-99972380D02*
X142270952Y-99924761D01*
X142223333Y-99877142D01*
X142175714Y-99781904D01*
X142175714Y-99496190D01*
X142223333Y-99400952D01*
X142270952Y-99353333D01*
X142366190Y-99305714D01*
X142509047Y-99305714D01*
X142604285Y-99353333D01*
X142651904Y-99400952D01*
X142699523Y-99496190D01*
X142699523Y-99781904D01*
X142651904Y-99877142D01*
X142604285Y-99924761D01*
X142509047Y-99972380D01*
X142366190Y-99972380D01*
X143556666Y-99924761D02*
X143461428Y-99972380D01*
X143270952Y-99972380D01*
X143175714Y-99924761D01*
X143128095Y-99877142D01*
X143080476Y-99781904D01*
X143080476Y-99496190D01*
X143128095Y-99400952D01*
X143175714Y-99353333D01*
X143270952Y-99305714D01*
X143461428Y-99305714D01*
X143556666Y-99353333D01*
X143985238Y-99972380D02*
X143985238Y-98972380D01*
X144080476Y-99591428D02*
X144366190Y-99972380D01*
X144366190Y-99305714D02*
X143985238Y-99686666D01*
X145175714Y-99924761D02*
X145080476Y-99972380D01*
X144890000Y-99972380D01*
X144794761Y-99924761D01*
X144747142Y-99829523D01*
X144747142Y-99448571D01*
X144794761Y-99353333D01*
X144890000Y-99305714D01*
X145080476Y-99305714D01*
X145175714Y-99353333D01*
X145223333Y-99448571D01*
X145223333Y-99543809D01*
X144747142Y-99639047D01*
X145509047Y-99305714D02*
X145890000Y-99305714D01*
X145651904Y-98972380D02*
X145651904Y-99829523D01*
X145699523Y-99924761D01*
X145794761Y-99972380D01*
X145890000Y-99972380D01*
X133842832Y-114228095D02*
X132842832Y-114228095D01*
X132842832Y-113990000D01*
X132890452Y-113847142D01*
X132985690Y-113751904D01*
X133080928Y-113704285D01*
X133271404Y-113656666D01*
X133414261Y-113656666D01*
X133604737Y-113704285D01*
X133699975Y-113751904D01*
X133795213Y-113847142D01*
X133842832Y-113990000D01*
X133842832Y-114228095D01*
X133842832Y-112704285D02*
X133842832Y-113275714D01*
X133842832Y-112990000D02*
X132842832Y-112990000D01*
X132985690Y-113085238D01*
X133080928Y-113180476D01*
X133128547Y-113275714D01*
X141560952Y-113772380D02*
X141227619Y-113296190D01*
X140989523Y-113772380D02*
X140989523Y-112772380D01*
X141370476Y-112772380D01*
X141465714Y-112820000D01*
X141513333Y-112867619D01*
X141560952Y-112962857D01*
X141560952Y-113105714D01*
X141513333Y-113200952D01*
X141465714Y-113248571D01*
X141370476Y-113296190D01*
X140989523Y-113296190D01*
X141894285Y-112772380D02*
X142513333Y-112772380D01*
X142180000Y-113153333D01*
X142322857Y-113153333D01*
X142418095Y-113200952D01*
X142465714Y-113248571D01*
X142513333Y-113343809D01*
X142513333Y-113581904D01*
X142465714Y-113677142D01*
X142418095Y-113724761D01*
X142322857Y-113772380D01*
X142037142Y-113772380D01*
X141941904Y-113724761D01*
X141894285Y-113677142D01*
X142846666Y-112772380D02*
X143465714Y-112772380D01*
X143132380Y-113153333D01*
X143275238Y-113153333D01*
X143370476Y-113200952D01*
X143418095Y-113248571D01*
X143465714Y-113343809D01*
X143465714Y-113581904D01*
X143418095Y-113677142D01*
X143370476Y-113724761D01*
X143275238Y-113772380D01*
X142989523Y-113772380D01*
X142894285Y-113724761D01*
X142846666Y-113677142D01*
X144084761Y-112772380D02*
X144180000Y-112772380D01*
X144275238Y-112820000D01*
X144322857Y-112867619D01*
X144370476Y-112962857D01*
X144418095Y-113153333D01*
X144418095Y-113391428D01*
X144370476Y-113581904D01*
X144322857Y-113677142D01*
X144275238Y-113724761D01*
X144180000Y-113772380D01*
X144084761Y-113772380D01*
X143989523Y-113724761D01*
X143941904Y-113677142D01*
X143894285Y-113581904D01*
X143846666Y-113391428D01*
X143846666Y-113153333D01*
X143894285Y-112962857D01*
X143941904Y-112867619D01*
X143989523Y-112820000D01*
X144084761Y-112772380D01*
X195223177Y-90362082D02*
X195223177Y-89362035D01*
X195461283Y-89362035D01*
X195604147Y-89409656D01*
X195699390Y-89504899D01*
X195747011Y-89600141D01*
X195794632Y-89790626D01*
X195794632Y-89933490D01*
X195747011Y-90123975D01*
X195699390Y-90219218D01*
X195604147Y-90314460D01*
X195461283Y-90362082D01*
X195223177Y-90362082D01*
X196794679Y-90266839D02*
X196747058Y-90314460D01*
X196604194Y-90362082D01*
X196508952Y-90362082D01*
X196366088Y-90314460D01*
X196270845Y-90219218D01*
X196223224Y-90123975D01*
X196175603Y-89933490D01*
X196175603Y-89790626D01*
X196223224Y-89600141D01*
X196270845Y-89504899D01*
X196366088Y-89409656D01*
X196508952Y-89362035D01*
X196604194Y-89362035D01*
X196747058Y-89409656D01*
X196794679Y-89457277D01*
X154424619Y-129007015D02*
X154424619Y-128007015D01*
X154757953Y-128721301D01*
X155091286Y-128007015D01*
X155091286Y-129007015D01*
X155757953Y-128007015D02*
X155948429Y-128007015D01*
X156043667Y-128054635D01*
X156138905Y-128149873D01*
X156186524Y-128340349D01*
X156186524Y-128673682D01*
X156138905Y-128864158D01*
X156043667Y-128959396D01*
X155948429Y-129007015D01*
X155757953Y-129007015D01*
X155662715Y-128959396D01*
X155567477Y-128864158D01*
X155519857Y-128673682D01*
X155519857Y-128340349D01*
X155567477Y-128149873D01*
X155662715Y-128054635D01*
X155757953Y-128007015D01*
X156472238Y-128007015D02*
X157043667Y-128007015D01*
X156757953Y-129007015D02*
X156757953Y-128007015D01*
X157567477Y-128007015D02*
X157757953Y-128007015D01*
X157853191Y-128054635D01*
X157948429Y-128149873D01*
X157996048Y-128340349D01*
X157996048Y-128673682D01*
X157948429Y-128864158D01*
X157853191Y-128959396D01*
X157757953Y-129007015D01*
X157567477Y-129007015D01*
X157472238Y-128959396D01*
X157377000Y-128864158D01*
X157329381Y-128673682D01*
X157329381Y-128340349D01*
X157377000Y-128149873D01*
X157472238Y-128054635D01*
X157567477Y-128007015D01*
X158996048Y-129007015D02*
X158662715Y-128530825D01*
X158424619Y-129007015D02*
X158424619Y-128007015D01*
X158805572Y-128007015D01*
X158900810Y-128054635D01*
X158948429Y-128102254D01*
X158996048Y-128197492D01*
X158996048Y-128340349D01*
X158948429Y-128435587D01*
X158900810Y-128483206D01*
X158805572Y-128530825D01*
X158424619Y-128530825D01*
X159186524Y-129102254D02*
X159948429Y-129102254D01*
X160043667Y-128007015D02*
X160615096Y-128007015D01*
X160329381Y-129007015D02*
X160329381Y-128007015D01*
X160948429Y-128483206D02*
X161281762Y-128483206D01*
X161424619Y-129007015D02*
X160948429Y-129007015D01*
X160948429Y-128007015D01*
X161424619Y-128007015D01*
X162424619Y-129007015D02*
X162091286Y-128530825D01*
X161853191Y-129007015D02*
X161853191Y-128007015D01*
X162234143Y-128007015D01*
X162329381Y-128054635D01*
X162377000Y-128102254D01*
X162424619Y-128197492D01*
X162424619Y-128340349D01*
X162377000Y-128435587D01*
X162329381Y-128483206D01*
X162234143Y-128530825D01*
X161853191Y-128530825D01*
X162853191Y-129007015D02*
X162853191Y-128007015D01*
X163186524Y-128721301D01*
X163519857Y-128007015D01*
X163519857Y-129007015D01*
X163996048Y-129007015D02*
X163996048Y-128007015D01*
X164472238Y-129007015D02*
X164472238Y-128007015D01*
X165043667Y-129007015D01*
X165043667Y-128007015D01*
X165472238Y-128721301D02*
X165948429Y-128721301D01*
X165377000Y-129007015D02*
X165710334Y-128007015D01*
X166043667Y-129007015D01*
X166853191Y-129007015D02*
X166377000Y-129007015D01*
X166377000Y-128007015D01*
X184697212Y-114070005D02*
X184697212Y-113498401D01*
X185697519Y-113784203D02*
X184697212Y-113784203D01*
X185411717Y-113212599D02*
X185411717Y-112736262D01*
X185697519Y-113307866D02*
X184697212Y-112974430D01*
X185697519Y-112640995D01*
X184697212Y-112402826D02*
X184697212Y-111735955D01*
X185697519Y-112164658D01*
X184792480Y-111402519D02*
X184744846Y-111354886D01*
X184697212Y-111259618D01*
X184697212Y-111021450D01*
X184744846Y-110926183D01*
X184792480Y-110878549D01*
X184887747Y-110830915D01*
X184983014Y-110830915D01*
X185125915Y-110878549D01*
X185697519Y-111450153D01*
X185697519Y-110830915D01*
X185697519Y-110354579D02*
X185697519Y-110164044D01*
X185649886Y-110068777D01*
X185602252Y-110021143D01*
X185459351Y-109925876D01*
X185268816Y-109878242D01*
X184887747Y-109878242D01*
X184792480Y-109925876D01*
X184744846Y-109973509D01*
X184697212Y-110068777D01*
X184697212Y-110259311D01*
X184744846Y-110354579D01*
X184792480Y-110402212D01*
X184887747Y-110449846D01*
X185125915Y-110449846D01*
X185221183Y-110402212D01*
X185268816Y-110354579D01*
X185316450Y-110259311D01*
X185316450Y-110068777D01*
X185268816Y-109973509D01*
X185221183Y-109925876D01*
X185125915Y-109878242D01*
X185697519Y-108925569D02*
X185697519Y-109497173D01*
X185697519Y-109211371D02*
X184697212Y-109211371D01*
X184840113Y-109306638D01*
X184935381Y-109401905D01*
X184983014Y-109497173D01*
X185697519Y-108496866D02*
X184697212Y-108496866D01*
X184697212Y-108115796D01*
X184744846Y-108020529D01*
X184792480Y-107972895D01*
X184887747Y-107925262D01*
X185030648Y-107925262D01*
X185125915Y-107972895D01*
X185173549Y-108020529D01*
X185221183Y-108115796D01*
X185221183Y-108496866D01*
X192692089Y-103362082D02*
X192692089Y-102362035D01*
X192930196Y-102362035D01*
X193073059Y-102409656D01*
X193168302Y-102504899D01*
X193215923Y-102600141D01*
X193263545Y-102790626D01*
X193263545Y-102933490D01*
X193215923Y-103123975D01*
X193168302Y-103219218D01*
X193073059Y-103314460D01*
X192930196Y-103362082D01*
X192692089Y-103362082D01*
X194263592Y-103266839D02*
X194215970Y-103314460D01*
X194073106Y-103362082D01*
X193977864Y-103362082D01*
X193835000Y-103314460D01*
X193739757Y-103219218D01*
X193692136Y-103123975D01*
X193644515Y-102933490D01*
X193644515Y-102790626D01*
X193692136Y-102600141D01*
X193739757Y-102504899D01*
X193835000Y-102409656D01*
X193977864Y-102362035D01*
X194073106Y-102362035D01*
X194215970Y-102409656D01*
X194263592Y-102457277D01*
X194454077Y-103457324D02*
X195216017Y-103457324D01*
X195454124Y-103362082D02*
X195454124Y-102362035D01*
X195787473Y-103076354D01*
X196120822Y-102362035D01*
X196120822Y-103362082D01*
X196787520Y-102362035D02*
X196978005Y-102362035D01*
X197073247Y-102409656D01*
X197168490Y-102504899D01*
X197216111Y-102695384D01*
X197216111Y-103028733D01*
X197168490Y-103219218D01*
X197073247Y-103314460D01*
X196978005Y-103362082D01*
X196787520Y-103362082D01*
X196692277Y-103314460D01*
X196597035Y-103219218D01*
X196549413Y-103028733D01*
X196549413Y-102695384D01*
X196597035Y-102504899D01*
X196692277Y-102409656D01*
X196787520Y-102362035D01*
X197501839Y-102362035D02*
X198073294Y-102362035D01*
X197787567Y-103362082D02*
X197787567Y-102362035D01*
X198597129Y-102362035D02*
X198787614Y-102362035D01*
X198882856Y-102409656D01*
X198978099Y-102504899D01*
X199025720Y-102695384D01*
X199025720Y-103028733D01*
X198978099Y-103219218D01*
X198882856Y-103314460D01*
X198787614Y-103362082D01*
X198597129Y-103362082D01*
X198501886Y-103314460D01*
X198406643Y-103219218D01*
X198359022Y-103028733D01*
X198359022Y-102695384D01*
X198406643Y-102504899D01*
X198501886Y-102409656D01*
X198597129Y-102362035D01*
X200025767Y-103362082D02*
X199692418Y-102885869D01*
X199454312Y-103362082D02*
X199454312Y-102362035D01*
X199835282Y-102362035D01*
X199930525Y-102409656D01*
X199978146Y-102457277D01*
X200025767Y-102552520D01*
X200025767Y-102695384D01*
X199978146Y-102790626D01*
X199930525Y-102838248D01*
X199835282Y-102885869D01*
X199454312Y-102885869D01*
X133842832Y-108178095D02*
X132842832Y-108178095D01*
X132842832Y-107940000D01*
X132890452Y-107797142D01*
X132985690Y-107701904D01*
X133080928Y-107654285D01*
X133271404Y-107606666D01*
X133414261Y-107606666D01*
X133604737Y-107654285D01*
X133699975Y-107701904D01*
X133795213Y-107797142D01*
X133842832Y-107940000D01*
X133842832Y-108178095D01*
X132938071Y-107225714D02*
X132890452Y-107178095D01*
X132842832Y-107082857D01*
X132842832Y-106844761D01*
X132890452Y-106749523D01*
X132938071Y-106701904D01*
X133033309Y-106654285D01*
X133128547Y-106654285D01*
X133271404Y-106701904D01*
X133842832Y-107273333D01*
X133842832Y-106654285D01*
X184697380Y-98670476D02*
X184697380Y-98575238D01*
X184745000Y-98480000D01*
X184792619Y-98432380D01*
X184887857Y-98384761D01*
X185078333Y-98337142D01*
X185316428Y-98337142D01*
X185506904Y-98384761D01*
X185602142Y-98432380D01*
X185649761Y-98480000D01*
X185697380Y-98575238D01*
X185697380Y-98670476D01*
X185649761Y-98765714D01*
X185602142Y-98813333D01*
X185506904Y-98860952D01*
X185316428Y-98908571D01*
X185078333Y-98908571D01*
X184887857Y-98860952D01*
X184792619Y-98813333D01*
X184745000Y-98765714D01*
X184697380Y-98670476D01*
X185602142Y-97908571D02*
X185649761Y-97860952D01*
X185697380Y-97908571D01*
X185649761Y-97956190D01*
X185602142Y-97908571D01*
X185697380Y-97908571D01*
X184697380Y-97241904D02*
X184697380Y-97146666D01*
X184745000Y-97051428D01*
X184792619Y-97003809D01*
X184887857Y-96956190D01*
X185078333Y-96908571D01*
X185316428Y-96908571D01*
X185506904Y-96956190D01*
X185602142Y-97003809D01*
X185649761Y-97051428D01*
X185697380Y-97146666D01*
X185697380Y-97241904D01*
X185649761Y-97337142D01*
X185602142Y-97384761D01*
X185506904Y-97432380D01*
X185316428Y-97480000D01*
X185078333Y-97480000D01*
X184887857Y-97432380D01*
X184792619Y-97384761D01*
X184745000Y-97337142D01*
X184697380Y-97241904D01*
X185697380Y-95956190D02*
X185697380Y-96527619D01*
X185697380Y-96241904D02*
X184697380Y-96241904D01*
X184840238Y-96337142D01*
X184935476Y-96432380D01*
X184983095Y-96527619D01*
X185030714Y-95099047D02*
X185697380Y-95099047D01*
X185030714Y-95527619D02*
X185554523Y-95527619D01*
X185649761Y-95480000D01*
X185697380Y-95384761D01*
X185697380Y-95241904D01*
X185649761Y-95146666D01*
X185602142Y-95099047D01*
X141560952Y-107422380D02*
X141227619Y-106946190D01*
X140989523Y-107422380D02*
X140989523Y-106422380D01*
X141370476Y-106422380D01*
X141465714Y-106470000D01*
X141513333Y-106517619D01*
X141560952Y-106612857D01*
X141560952Y-106755714D01*
X141513333Y-106850952D01*
X141465714Y-106898571D01*
X141370476Y-106946190D01*
X140989523Y-106946190D01*
X141894285Y-106422380D02*
X142513333Y-106422380D01*
X142180000Y-106803333D01*
X142322857Y-106803333D01*
X142418095Y-106850952D01*
X142465714Y-106898571D01*
X142513333Y-106993809D01*
X142513333Y-107231904D01*
X142465714Y-107327142D01*
X142418095Y-107374761D01*
X142322857Y-107422380D01*
X142037142Y-107422380D01*
X141941904Y-107374761D01*
X141894285Y-107327142D01*
X142846666Y-106422380D02*
X143465714Y-106422380D01*
X143132380Y-106803333D01*
X143275238Y-106803333D01*
X143370476Y-106850952D01*
X143418095Y-106898571D01*
X143465714Y-106993809D01*
X143465714Y-107231904D01*
X143418095Y-107327142D01*
X143370476Y-107374761D01*
X143275238Y-107422380D01*
X142989523Y-107422380D01*
X142894285Y-107374761D01*
X142846666Y-107327142D01*
X144084761Y-106422380D02*
X144180000Y-106422380D01*
X144275238Y-106470000D01*
X144322857Y-106517619D01*
X144370476Y-106612857D01*
X144418095Y-106803333D01*
X144418095Y-107041428D01*
X144370476Y-107231904D01*
X144322857Y-107327142D01*
X144275238Y-107374761D01*
X144180000Y-107422380D01*
X144084761Y-107422380D01*
X143989523Y-107374761D01*
X143941904Y-107327142D01*
X143894285Y-107231904D01*
X143846666Y-107041428D01*
X143846666Y-106803333D01*
X143894285Y-106612857D01*
X143941904Y-106517619D01*
X143989523Y-106470000D01*
X144084761Y-106422380D01*
X183582380Y-102545714D02*
X182582380Y-102545714D01*
X182582380Y-102164761D01*
X182630000Y-102069523D01*
X182677619Y-102021904D01*
X182772857Y-101974285D01*
X182915714Y-101974285D01*
X183010952Y-102021904D01*
X183058571Y-102069523D01*
X183106190Y-102164761D01*
X183106190Y-102545714D01*
X183582380Y-101545714D02*
X182582380Y-101545714D01*
X183487142Y-100498095D02*
X183534761Y-100545714D01*
X183582380Y-100688571D01*
X183582380Y-100783809D01*
X183534761Y-100926666D01*
X183439523Y-101021904D01*
X183344285Y-101069523D01*
X183153809Y-101117142D01*
X183010952Y-101117142D01*
X182820476Y-101069523D01*
X182725238Y-101021904D01*
X182630000Y-100926666D01*
X182582380Y-100783809D01*
X182582380Y-100688571D01*
X182630000Y-100545714D01*
X182677619Y-100498095D01*
X183582380Y-99545714D02*
X183582380Y-100117142D01*
X183582380Y-99831428D02*
X182582380Y-99831428D01*
X182725238Y-99926666D01*
X182820476Y-100021904D01*
X182868095Y-100117142D01*
X182582380Y-98688571D02*
X182582380Y-98879047D01*
X182630000Y-98974285D01*
X182677619Y-99021904D01*
X182820476Y-99117142D01*
X183010952Y-99164761D01*
X183391904Y-99164761D01*
X183487142Y-99117142D01*
X183534761Y-99069523D01*
X183582380Y-98974285D01*
X183582380Y-98783809D01*
X183534761Y-98688571D01*
X183487142Y-98640952D01*
X183391904Y-98593333D01*
X183153809Y-98593333D01*
X183058571Y-98640952D01*
X183010952Y-98688571D01*
X182963333Y-98783809D01*
X182963333Y-98974285D01*
X183010952Y-99069523D01*
X183058571Y-99117142D01*
X183153809Y-99164761D01*
X183058571Y-97831428D02*
X183058571Y-98164761D01*
X183582380Y-98164761D02*
X182582380Y-98164761D01*
X182582380Y-97688571D01*
X183582380Y-96783809D02*
X183582380Y-97355238D01*
X183582380Y-97069523D02*
X182582380Y-97069523D01*
X182725238Y-97164761D01*
X182820476Y-97260000D01*
X182868095Y-97355238D01*
X183010952Y-96212380D02*
X182963333Y-96307619D01*
X182915714Y-96355238D01*
X182820476Y-96402857D01*
X182772857Y-96402857D01*
X182677619Y-96355238D01*
X182630000Y-96307619D01*
X182582380Y-96212380D01*
X182582380Y-96021904D01*
X182630000Y-95926666D01*
X182677619Y-95879047D01*
X182772857Y-95831428D01*
X182820476Y-95831428D01*
X182915714Y-95879047D01*
X182963333Y-95926666D01*
X183010952Y-96021904D01*
X183010952Y-96212380D01*
X183058571Y-96307619D01*
X183106190Y-96355238D01*
X183201428Y-96402857D01*
X183391904Y-96402857D01*
X183487142Y-96355238D01*
X183534761Y-96307619D01*
X183582380Y-96212380D01*
X183582380Y-96021904D01*
X183534761Y-95926666D01*
X183487142Y-95879047D01*
X183391904Y-95831428D01*
X183201428Y-95831428D01*
X183106190Y-95879047D01*
X183058571Y-95926666D01*
X183010952Y-96021904D01*
X182677619Y-95450476D02*
X182630000Y-95402857D01*
X182582380Y-95307619D01*
X182582380Y-95069523D01*
X182630000Y-94974285D01*
X182677619Y-94926666D01*
X182772857Y-94879047D01*
X182868095Y-94879047D01*
X183010952Y-94926666D01*
X183582380Y-95498095D01*
X183582380Y-94879047D01*
X182582380Y-94545714D02*
X182582380Y-93879047D01*
X183582380Y-94307619D01*
D11*
X144490000Y-82632850D02*
X144490000Y-83962850D01*
X133290000Y-97992850D02*
X141920000Y-97992850D01*
X133290000Y-84878560D02*
X141920000Y-84878560D01*
X141920000Y-96302850D02*
X142330000Y-96302850D01*
X133290000Y-84169990D02*
X141920000Y-84169990D01*
X133290000Y-83815705D02*
X141920000Y-83815705D01*
X133290000Y-87772850D02*
X141920000Y-87772850D01*
X133290000Y-82632850D02*
X133290000Y-97992850D01*
X133290000Y-82752850D02*
X141920000Y-82752850D01*
X133290000Y-84406180D02*
X141920000Y-84406180D01*
X141920000Y-83602850D02*
X142270000Y-83602850D01*
X133290000Y-84642370D02*
X141920000Y-84642370D01*
X143380000Y-82632850D02*
X144490000Y-82632850D01*
X133290000Y-85114750D02*
X141920000Y-85114750D01*
X141920000Y-89402850D02*
X142330000Y-89402850D01*
X141920000Y-86862850D02*
X142330000Y-86862850D01*
X133290000Y-84288085D02*
X141920000Y-84288085D01*
X141920000Y-91222850D02*
X142330000Y-91222850D01*
X141920000Y-84322850D02*
X142270000Y-84322850D01*
X141920000Y-93762850D02*
X142330000Y-93762850D01*
X133290000Y-92852850D02*
X141920000Y-92852850D01*
X141920000Y-97022850D02*
X142330000Y-97022850D01*
X133290000Y-82989040D02*
X141920000Y-82989040D01*
X133290000Y-83107135D02*
X141920000Y-83107135D01*
X133290000Y-83933800D02*
X141920000Y-83933800D01*
X133290000Y-84996655D02*
X141920000Y-84996655D01*
X133290000Y-83697610D02*
X141920000Y-83697610D01*
X141920000Y-88682850D02*
X142330000Y-88682850D01*
X133290000Y-84051895D02*
X141920000Y-84051895D01*
X133290000Y-83461420D02*
X141920000Y-83461420D01*
X133290000Y-82632850D02*
X141920000Y-82632850D01*
X141920000Y-86142850D02*
X142330000Y-86142850D01*
X141920000Y-91942850D02*
X142330000Y-91942850D01*
X133290000Y-83225230D02*
X141920000Y-83225230D01*
X133290000Y-83579515D02*
X141920000Y-83579515D01*
X133290000Y-84524275D02*
X141920000Y-84524275D01*
X133290000Y-85232850D02*
X141920000Y-85232850D01*
X141920000Y-94482850D02*
X142330000Y-94482850D01*
X133290000Y-90312850D02*
X141920000Y-90312850D01*
X133290000Y-84760465D02*
X141920000Y-84760465D01*
X133290000Y-83343325D02*
X141920000Y-83343325D01*
X141920000Y-82632850D02*
X141920000Y-97992850D01*
X133290000Y-82870945D02*
X141920000Y-82870945D01*
X133290000Y-95392850D02*
X141920000Y-95392850D01*
X135114452Y-115050000D02*
X135270452Y-115050000D01*
X137430452Y-115050000D02*
X137586452Y-115050000D01*
X137430452Y-114530961D02*
G75*
G03*
X137430289Y-112448870I-1080000J1040961D01*
G01*
X135270615Y-112448870D02*
G75*
G03*
X135270452Y-114530961I1079837J-1041130D01*
G01*
X135271844Y-111817665D02*
G75*
G03*
X135114936Y-115050000I1078608J-1672335D01*
G01*
X137585968Y-115050000D02*
G75*
G03*
X137429060Y-111817665I-1235516J1560000D01*
G01*
X142580000Y-110950000D02*
X142510000Y-110950000D01*
X145320000Y-110950000D02*
G75*
G03*
X145320000Y-110950000I-1370000J0D01*
G01*
D12*
X192800000Y-101175000D02*
X192800000Y-99325000D01*
X207200000Y-92175000D02*
X207200000Y-101175000D01*
X199050000Y-92175000D02*
X207200000Y-92175000D01*
X192800000Y-92175000D02*
X193950000Y-92175000D01*
X192800000Y-94125000D02*
X192800000Y-92175000D01*
X207200000Y-101175000D02*
X192800000Y-101175000D01*
D13*
X191700000Y-96675000D02*
G75*
G03*
X191700000Y-96675000I-200000J0D01*
G01*
D11*
X161878477Y-123758635D02*
X162094477Y-123543635D01*
X165707477Y-125694635D02*
X155427477Y-125694635D01*
X159383477Y-121173635D02*
X159490477Y-121066635D01*
X165707477Y-116434635D02*
X155427477Y-116434635D01*
X156798477Y-123758635D02*
X157189477Y-123368635D01*
X165947477Y-116194635D02*
X165447477Y-116194635D01*
X165707477Y-116994635D02*
X155427477Y-116994635D01*
X155427477Y-127554635D02*
X155427477Y-116434635D01*
X165707477Y-127554635D02*
X165707477Y-116434635D01*
X165707477Y-127554635D02*
X155427477Y-127554635D01*
X159174477Y-120911635D02*
X159255477Y-120830635D01*
X156563477Y-123523635D02*
X156913477Y-123173635D01*
X165947477Y-116934635D02*
X165947477Y-116194635D01*
X165707477Y-119494635D02*
X155427477Y-119494635D01*
X164628477Y-123483635D02*
G75*
G03*
X164629122Y-121106460I-1521000J1189000D01*
G01*
X163704477Y-120458635D02*
G75*
G03*
X163074208Y-120364299I-596995J-1835976D01*
G01*
X161607477Y-123509635D02*
G75*
G03*
X164607794Y-123509244I1500000J1214998D01*
G01*
X161586477Y-121105635D02*
G75*
G03*
X161585832Y-123482810I1521000J-1189000D01*
G01*
X159957477Y-122294635D02*
G75*
G03*
X159957477Y-122294635I-1930000J0D01*
G01*
X163107477Y-120364635D02*
G75*
G03*
X162511074Y-120459096I5J-1930033D01*
G01*
D12*
X183340000Y-113490000D02*
X183340000Y-108410000D01*
X183340000Y-108410000D02*
X155400000Y-108410000D01*
X155400000Y-113490000D02*
X183340000Y-113490000D01*
X155400000Y-108410000D02*
X155400000Y-113490000D01*
X207550000Y-105175000D02*
X207550000Y-114175000D01*
X207550000Y-114175000D02*
X193150000Y-114175000D01*
X193150000Y-114175000D02*
X193150000Y-112325000D01*
X193150000Y-107125000D02*
X193150000Y-105175000D01*
X199400000Y-105175000D02*
X207550000Y-105175000D01*
X193150000Y-105175000D02*
X194300000Y-105175000D01*
D13*
X192050000Y-109675000D02*
G75*
G03*
X192050000Y-109675000I-200000J0D01*
G01*
D11*
X135114452Y-109000000D02*
X135270452Y-109000000D01*
X137430452Y-109000000D02*
X137586452Y-109000000D01*
X137430452Y-108480961D02*
G75*
G03*
X137430289Y-106398870I-1080000J1040961D01*
G01*
X137585968Y-109000000D02*
G75*
G03*
X137429060Y-105767665I-1235516J1560000D01*
G01*
X135271844Y-105767665D02*
G75*
G03*
X135114936Y-109000000I1078608J-1672335D01*
G01*
X135270615Y-106398870D02*
G75*
G03*
X135270452Y-108480961I1079837J-1041130D01*
G01*
X188070000Y-96321000D02*
X188070000Y-97579000D01*
X186230000Y-96321000D02*
X186230000Y-97579000D01*
X142580000Y-104600000D02*
X142510000Y-104600000D01*
X145320000Y-104600000D02*
G75*
G03*
X145320000Y-104600000I-1370000J0D01*
G01*
X182130000Y-95610000D02*
X159150000Y-95610000D01*
X159150000Y-100910000D02*
X182130000Y-100910000D01*
X182190000Y-103400000D02*
X182190000Y-93120000D01*
X182130000Y-97260000D02*
X182130000Y-95610000D01*
X182190000Y-93120000D02*
X159090000Y-93120000D01*
X159090000Y-93120000D02*
X159090000Y-103400000D01*
X159150000Y-95610000D02*
X159150000Y-100910000D01*
X159090000Y-103400000D02*
X182190000Y-103400000D01*
X182130000Y-100910000D02*
X182130000Y-99260000D01*
X182130000Y-97260000D02*
G75*
G03*
X182130000Y-99260000I0J-1000000D01*
G01*
M02*
