G04 #@! TF.GenerationSoftware,KiCad,Pcbnew,(6.0.11-0)*
G04 #@! TF.CreationDate,2023-06-17T18:40:16+09:00*
G04 #@! TF.ProjectId,TargetSite-Truck,54617267-6574-4536-9974-652d54727563,1*
G04 #@! TF.SameCoordinates,Original*
G04 #@! TF.FileFunction,Soldermask,Bot*
G04 #@! TF.FilePolarity,Negative*
%FSLAX46Y46*%
G04 Gerber Fmt 4.6, Leading zero omitted, Abs format (unit mm)*
G04 Created by KiCad (PCBNEW (6.0.11-0)) date 2023-06-17 18:40:16*
%MOMM*%
%LPD*%
G01*
G04 APERTURE LIST*
%ADD10R,1.700000X1.700000*%
%ADD11O,1.700000X1.700000*%
%ADD12R,1.800000X1.800000*%
%ADD13C,1.800000*%
%ADD14C,3.200000*%
%ADD15C,1.600000*%
%ADD16O,1.600000X1.600000*%
%ADD17O,2.500000X5.000000*%
%ADD18O,2.250000X4.500000*%
%ADD19O,4.500000X2.250000*%
%ADD20R,2.600000X2.600000*%
%ADD21C,2.600000*%
%ADD22O,1.308000X2.616000*%
%ADD23R,1.600000X1.600000*%
%ADD24C,0.605000*%
G04 APERTURE END LIST*
D10*
X143380000Y-83962850D03*
D11*
X143380000Y-86502850D03*
X143380000Y-89042850D03*
X143380000Y-91582850D03*
X143380000Y-94122850D03*
X143380000Y-96662850D03*
D12*
X136350452Y-114760000D03*
D13*
X136350452Y-112220000D03*
D14*
X200000000Y-85000000D03*
D15*
X143950000Y-110950000D03*
D16*
X141410000Y-110950000D03*
D17*
X193500000Y-96675000D03*
D18*
X199500000Y-96675000D03*
D19*
X196500000Y-91975000D03*
D20*
X163107477Y-121994635D03*
D21*
X158027477Y-121994635D03*
D22*
X180800000Y-110950000D03*
X178260000Y-110950000D03*
X175720000Y-110950000D03*
X173180000Y-110950000D03*
X170640000Y-110950000D03*
X168100000Y-110950000D03*
X165560000Y-110950000D03*
X163020000Y-110950000D03*
X160480000Y-110950000D03*
X157940000Y-110950000D03*
D17*
X193850000Y-109675000D03*
D18*
X199850000Y-109675000D03*
D19*
X196850000Y-104975000D03*
D12*
X136350452Y-108710000D03*
D13*
X136350452Y-106170000D03*
D15*
X187150000Y-95700000D03*
X187150000Y-98200000D03*
X143950000Y-104600000D03*
D16*
X141410000Y-104600000D03*
D14*
X135000000Y-125000000D03*
D23*
X180800000Y-94450000D03*
D16*
X178260000Y-94450000D03*
X175720000Y-94450000D03*
X173180000Y-94450000D03*
X170640000Y-94450000D03*
X168100000Y-94450000D03*
X165560000Y-94450000D03*
X163020000Y-94450000D03*
X160480000Y-94450000D03*
X160480000Y-102070000D03*
X163020000Y-102070000D03*
X165560000Y-102070000D03*
X168100000Y-102070000D03*
X170640000Y-102070000D03*
X173180000Y-102070000D03*
X175720000Y-102070000D03*
X178260000Y-102070000D03*
X180800000Y-102070000D03*
D24*
X150320000Y-84280000D03*
X194770000Y-124285000D03*
X183975000Y-119205000D03*
X149050000Y-119205000D03*
X184610000Y-104600000D03*
X157305000Y-103965000D03*
X144605000Y-119205000D03*
X175085000Y-107140000D03*
X190960000Y-90630000D03*
X150320000Y-89995000D03*
X150320000Y-96345000D03*
X153495000Y-124285000D03*
X150320000Y-103965000D03*
X183975000Y-124285000D03*
X175085000Y-124285000D03*
X164925000Y-90630000D03*
X149050000Y-124285000D03*
X164925000Y-104600000D03*
X194770000Y-119205000D03*
X190960000Y-104600000D03*
X164925000Y-84280000D03*
X178260000Y-90630000D03*
X178895000Y-107140000D03*
X157305000Y-96345000D03*
X177625000Y-96345000D03*
X178260000Y-84280000D03*
X175085000Y-119205000D03*
X136350000Y-103965000D03*
X136350000Y-119205000D03*
X162385000Y-107140000D03*
X161750000Y-96345000D03*
X170640000Y-107140000D03*
X144605000Y-124285000D03*
X153495000Y-119205000D03*
X190960000Y-84280000D03*
M02*
