G04 #@! TF.GenerationSoftware,KiCad,Pcbnew,(6.0.11-0)*
G04 #@! TF.CreationDate,2023-06-17T18:40:16+09:00*
G04 #@! TF.ProjectId,TargetSite-Truck,54617267-6574-4536-9974-652d54727563,1*
G04 #@! TF.SameCoordinates,Original*
G04 #@! TF.FileFunction,Copper,L1,Top*
G04 #@! TF.FilePolarity,Positive*
%FSLAX46Y46*%
G04 Gerber Fmt 4.6, Leading zero omitted, Abs format (unit mm)*
G04 Created by KiCad (PCBNEW (6.0.11-0)) date 2023-06-17 18:40:16*
%MOMM*%
%LPD*%
G01*
G04 APERTURE LIST*
G04 #@! TA.AperFunction,ComponentPad*
%ADD10R,1.700000X1.700000*%
G04 #@! TD*
G04 #@! TA.AperFunction,ComponentPad*
%ADD11O,1.700000X1.700000*%
G04 #@! TD*
G04 #@! TA.AperFunction,ComponentPad*
%ADD12R,1.800000X1.800000*%
G04 #@! TD*
G04 #@! TA.AperFunction,ComponentPad*
%ADD13C,1.800000*%
G04 #@! TD*
G04 #@! TA.AperFunction,ComponentPad*
%ADD14C,1.600000*%
G04 #@! TD*
G04 #@! TA.AperFunction,ComponentPad*
%ADD15O,1.600000X1.600000*%
G04 #@! TD*
G04 #@! TA.AperFunction,ComponentPad*
%ADD16O,2.500000X5.000000*%
G04 #@! TD*
G04 #@! TA.AperFunction,ComponentPad*
%ADD17O,2.250000X4.500000*%
G04 #@! TD*
G04 #@! TA.AperFunction,ComponentPad*
%ADD18O,4.500000X2.250000*%
G04 #@! TD*
G04 #@! TA.AperFunction,ComponentPad*
%ADD19R,2.600000X2.600000*%
G04 #@! TD*
G04 #@! TA.AperFunction,ComponentPad*
%ADD20C,2.600000*%
G04 #@! TD*
G04 #@! TA.AperFunction,ComponentPad*
%ADD21O,1.308000X2.616000*%
G04 #@! TD*
G04 #@! TA.AperFunction,ComponentPad*
%ADD22R,1.600000X1.600000*%
G04 #@! TD*
G04 #@! TA.AperFunction,ViaPad*
%ADD23C,0.605000*%
G04 #@! TD*
G04 #@! TA.AperFunction,Conductor*
%ADD24C,0.152400*%
G04 #@! TD*
G04 APERTURE END LIST*
D10*
X143380000Y-83962850D03*
D11*
X143380000Y-86502850D03*
X143380000Y-89042850D03*
X143380000Y-91582850D03*
X143380000Y-94122850D03*
X143380000Y-96662850D03*
D12*
X136350452Y-114760000D03*
D13*
X136350452Y-112220000D03*
D14*
X143950000Y-110950000D03*
D15*
X141410000Y-110950000D03*
D16*
X193500000Y-96675000D03*
D17*
X199500000Y-96675000D03*
D18*
X196500000Y-91975000D03*
D19*
X163107477Y-121994635D03*
D20*
X158027477Y-121994635D03*
D21*
X180800000Y-110950000D03*
X178260000Y-110950000D03*
X175720000Y-110950000D03*
X173180000Y-110950000D03*
X170640000Y-110950000D03*
X168100000Y-110950000D03*
X165560000Y-110950000D03*
X163020000Y-110950000D03*
X160480000Y-110950000D03*
X157940000Y-110950000D03*
D16*
X193850000Y-109675000D03*
D17*
X199850000Y-109675000D03*
D18*
X196850000Y-104975000D03*
D12*
X136350452Y-108710000D03*
D13*
X136350452Y-106170000D03*
D14*
X187150000Y-95700000D03*
X187150000Y-98200000D03*
X143950000Y-104600000D03*
D15*
X141410000Y-104600000D03*
D22*
X180800000Y-94450000D03*
D15*
X178260000Y-94450000D03*
X175720000Y-94450000D03*
X173180000Y-94450000D03*
X170640000Y-94450000D03*
X168100000Y-94450000D03*
X165560000Y-94450000D03*
X163020000Y-94450000D03*
X160480000Y-94450000D03*
X160480000Y-102070000D03*
X163020000Y-102070000D03*
X165560000Y-102070000D03*
X168100000Y-102070000D03*
X170640000Y-102070000D03*
X173180000Y-102070000D03*
X175720000Y-102070000D03*
X178260000Y-102070000D03*
X180800000Y-102070000D03*
D23*
X150320000Y-84280000D03*
X194770000Y-124285000D03*
X183975000Y-119205000D03*
X149050000Y-119205000D03*
X184610000Y-104600000D03*
X157305000Y-103965000D03*
X144605000Y-119205000D03*
X175085000Y-107140000D03*
X190960000Y-90630000D03*
X150320000Y-89995000D03*
X150320000Y-96345000D03*
X153495000Y-124285000D03*
X150320000Y-103965000D03*
X183975000Y-124285000D03*
X175085000Y-124285000D03*
X164925000Y-90630000D03*
X149050000Y-124285000D03*
X164925000Y-104600000D03*
X194770000Y-119205000D03*
X190960000Y-104600000D03*
X164925000Y-84280000D03*
X178260000Y-90630000D03*
X178895000Y-107140000D03*
X157305000Y-96345000D03*
X177625000Y-96345000D03*
X178260000Y-84280000D03*
X175085000Y-119205000D03*
X136350000Y-103965000D03*
X136350000Y-119205000D03*
X162385000Y-107140000D03*
X161750000Y-96345000D03*
X170640000Y-107140000D03*
X144605000Y-124285000D03*
X153495000Y-119205000D03*
X190960000Y-84280000D03*
D24*
X136350000Y-91900000D02*
X136350000Y-98250000D01*
X191975000Y-98200000D02*
X193500000Y-96675000D01*
X166820000Y-98250000D02*
X170640000Y-102070000D01*
X165560000Y-107150000D02*
X170640000Y-102070000D01*
X141747150Y-86502850D02*
X136350000Y-91900000D01*
X187150000Y-98200000D02*
X191975000Y-98200000D01*
X143380000Y-86502850D02*
X141747150Y-86502850D01*
X187150000Y-98200000D02*
X174510000Y-98200000D01*
X174510000Y-98200000D02*
X170640000Y-102070000D01*
X165560000Y-110950000D02*
X165560000Y-107150000D01*
X136350000Y-98250000D02*
X166820000Y-98250000D01*
X170640000Y-94450000D02*
X171890000Y-95700000D01*
X187150000Y-95700000D02*
X188903600Y-93946400D01*
X188903600Y-93946400D02*
X196771400Y-93946400D01*
X165232850Y-89042850D02*
X143380000Y-89042850D01*
X171890000Y-95700000D02*
X187150000Y-95700000D01*
X170640000Y-94450000D02*
X165232850Y-89042850D01*
X196771400Y-93946400D02*
X199500000Y-96675000D01*
X197121400Y-106946400D02*
X184803600Y-106946400D01*
X184803600Y-106946400D02*
X180800000Y-110950000D01*
X199850000Y-109675000D02*
X197121400Y-106946400D01*
X136350452Y-112220000D02*
X140140000Y-112220000D01*
X140140000Y-112220000D02*
X141410000Y-110950000D01*
X178260000Y-110950000D02*
X167215365Y-121994635D01*
X167215365Y-121994635D02*
X163107477Y-121994635D01*
X157940000Y-121907158D02*
X158027477Y-121994635D01*
X157940000Y-110950000D02*
X157940000Y-121907158D01*
X139840000Y-106170000D02*
X141410000Y-104600000D01*
X136350452Y-106170000D02*
X139840000Y-106170000D01*
X162692850Y-91582850D02*
X143380000Y-91582850D01*
X165560000Y-94450000D02*
X162692850Y-91582850D01*
X168100000Y-106900000D02*
X170400000Y-104600000D01*
X170400000Y-104600000D02*
X175730000Y-104600000D01*
X168100000Y-110950000D02*
X168100000Y-106900000D01*
X175730000Y-104600000D02*
X178260000Y-102070000D01*
X161842850Y-93272850D02*
X144230000Y-93272850D01*
X144230000Y-93272850D02*
X143380000Y-94122850D01*
X163020000Y-94450000D02*
X161842850Y-93272850D01*
X155400000Y-110950000D02*
X143950000Y-110950000D01*
X165560000Y-102070000D02*
X164531400Y-103098600D01*
X163251400Y-103098600D02*
X155400000Y-110950000D01*
X164531400Y-103098600D02*
X163251400Y-103098600D01*
X149050000Y-98554800D02*
X149050000Y-99500000D01*
X149050000Y-99500000D02*
X143950000Y-104600000D01*
X168100000Y-102070000D02*
X164584800Y-98554800D01*
X164584800Y-98554800D02*
X149050000Y-98554800D01*
G04 #@! TA.AperFunction,Conductor*
G36*
X204442121Y-80520002D02*
G01*
X204488614Y-80573658D01*
X204500000Y-80626000D01*
X204500000Y-129374000D01*
X204479998Y-129442121D01*
X204426342Y-129488614D01*
X204374000Y-129500000D01*
X130626000Y-129500000D01*
X130557879Y-129479998D01*
X130511386Y-129426342D01*
X130500000Y-129374000D01*
X130500000Y-124969285D01*
X133044759Y-124969285D01*
X133045003Y-124973720D01*
X133045003Y-124973724D01*
X133048384Y-125035147D01*
X133059938Y-125245087D01*
X133113825Y-125515999D01*
X133205347Y-125776616D01*
X133332678Y-126021737D01*
X133335261Y-126025352D01*
X133335265Y-126025358D01*
X133372272Y-126077144D01*
X133493275Y-126246471D01*
X133683936Y-126446335D01*
X133687431Y-126449091D01*
X133687433Y-126449092D01*
X133735469Y-126486960D01*
X133900856Y-126617341D01*
X133962559Y-126653181D01*
X134135853Y-126753839D01*
X134135859Y-126753842D01*
X134139707Y-126756077D01*
X134395723Y-126859774D01*
X134400036Y-126860845D01*
X134400041Y-126860847D01*
X134659475Y-126925291D01*
X134659480Y-126925292D01*
X134663796Y-126926364D01*
X134668224Y-126926818D01*
X134668226Y-126926818D01*
X134743339Y-126934514D01*
X134899370Y-126950500D01*
X135070362Y-126950500D01*
X135275530Y-126935973D01*
X135279885Y-126935035D01*
X135279888Y-126935035D01*
X135541215Y-126878773D01*
X135541217Y-126878773D01*
X135545562Y-126877837D01*
X135804709Y-126782233D01*
X135853185Y-126756077D01*
X136043884Y-126653181D01*
X136047800Y-126651068D01*
X136269984Y-126486960D01*
X136466829Y-126293183D01*
X136634406Y-126073604D01*
X136769373Y-125832604D01*
X136869036Y-125574991D01*
X136931407Y-125305905D01*
X136955241Y-125030715D01*
X136954997Y-125026276D01*
X136940307Y-124759356D01*
X136940306Y-124759349D01*
X136940062Y-124754913D01*
X136886175Y-124484001D01*
X136794653Y-124223384D01*
X136667322Y-123978263D01*
X136664739Y-123974648D01*
X136664735Y-123974642D01*
X136509313Y-123757150D01*
X136509310Y-123757146D01*
X136506725Y-123753529D01*
X136395164Y-123636583D01*
X136319136Y-123556885D01*
X136319134Y-123556883D01*
X136316064Y-123553665D01*
X136312567Y-123550908D01*
X136102639Y-123385414D01*
X136102637Y-123385413D01*
X136099144Y-123382659D01*
X135986609Y-123317294D01*
X135864147Y-123246161D01*
X135864141Y-123246158D01*
X135860293Y-123243923D01*
X135604277Y-123140226D01*
X135599964Y-123139155D01*
X135599959Y-123139153D01*
X135340525Y-123074709D01*
X135340520Y-123074708D01*
X135336204Y-123073636D01*
X135331776Y-123073182D01*
X135331774Y-123073182D01*
X135251573Y-123064965D01*
X135100630Y-123049500D01*
X134929638Y-123049500D01*
X134724470Y-123064027D01*
X134720115Y-123064965D01*
X134720112Y-123064965D01*
X134458785Y-123121227D01*
X134458783Y-123121227D01*
X134454438Y-123122163D01*
X134195291Y-123217767D01*
X134191373Y-123219881D01*
X134142668Y-123246161D01*
X133952200Y-123348932D01*
X133730016Y-123513040D01*
X133533171Y-123706817D01*
X133365594Y-123926396D01*
X133230627Y-124167396D01*
X133130964Y-124425009D01*
X133068593Y-124694095D01*
X133044759Y-124969285D01*
X130500000Y-124969285D01*
X130500000Y-115704669D01*
X134942453Y-115704669D01*
X134942823Y-115711490D01*
X134948347Y-115762352D01*
X134951973Y-115777604D01*
X134997128Y-115898054D01*
X135005666Y-115913649D01*
X135082167Y-116015724D01*
X135094728Y-116028285D01*
X135196803Y-116104786D01*
X135212398Y-116113324D01*
X135332846Y-116158478D01*
X135348101Y-116162105D01*
X135398966Y-116167631D01*
X135405780Y-116168000D01*
X136078337Y-116168000D01*
X136093576Y-116163525D01*
X136094781Y-116162135D01*
X136096452Y-116154452D01*
X136096452Y-116149884D01*
X136604452Y-116149884D01*
X136608927Y-116165123D01*
X136610317Y-116166328D01*
X136618000Y-116167999D01*
X137295121Y-116167999D01*
X137301942Y-116167629D01*
X137352804Y-116162105D01*
X137368056Y-116158479D01*
X137488506Y-116113324D01*
X137504101Y-116104786D01*
X137606176Y-116028285D01*
X137618737Y-116015724D01*
X137695238Y-115913649D01*
X137703776Y-115898054D01*
X137748930Y-115777606D01*
X137752557Y-115762351D01*
X137758083Y-115711486D01*
X137758452Y-115704672D01*
X137758452Y-115032115D01*
X137753977Y-115016876D01*
X137752587Y-115015671D01*
X137744904Y-115014000D01*
X136622567Y-115014000D01*
X136607328Y-115018475D01*
X136606123Y-115019865D01*
X136604452Y-115027548D01*
X136604452Y-116149884D01*
X136096452Y-116149884D01*
X136096452Y-115032115D01*
X136091977Y-115016876D01*
X136090587Y-115015671D01*
X136082904Y-115014000D01*
X134960568Y-115014000D01*
X134945329Y-115018475D01*
X134944124Y-115019865D01*
X134942453Y-115027548D01*
X134942453Y-115704669D01*
X130500000Y-115704669D01*
X130500000Y-114487885D01*
X134942452Y-114487885D01*
X134946927Y-114503124D01*
X134948317Y-114504329D01*
X134956000Y-114506000D01*
X137740336Y-114506000D01*
X137755575Y-114501525D01*
X137756780Y-114500135D01*
X137758451Y-114492452D01*
X137758451Y-113815331D01*
X137758081Y-113808510D01*
X137752557Y-113757648D01*
X137748931Y-113742396D01*
X137703776Y-113621946D01*
X137695238Y-113606351D01*
X137618737Y-113504276D01*
X137606176Y-113491715D01*
X137504101Y-113415214D01*
X137488506Y-113406676D01*
X137368058Y-113361522D01*
X137352803Y-113357895D01*
X137301938Y-113352369D01*
X137295124Y-113352000D01*
X137291117Y-113352000D01*
X137222996Y-113331998D01*
X137176503Y-113278342D01*
X137166399Y-113208068D01*
X137195893Y-113143488D01*
X137202022Y-113136905D01*
X137312050Y-113026877D01*
X137437554Y-112847638D01*
X137497330Y-112719449D01*
X137544246Y-112666165D01*
X137611524Y-112646700D01*
X140107190Y-112646700D01*
X140121998Y-112647573D01*
X140153555Y-112651308D01*
X140162817Y-112649616D01*
X140162826Y-112649616D01*
X140208152Y-112641337D01*
X140212060Y-112640686D01*
X140214089Y-112640381D01*
X140266884Y-112632444D01*
X140273048Y-112629484D01*
X140279777Y-112628255D01*
X140329015Y-112602678D01*
X140332531Y-112600921D01*
X140374059Y-112580980D01*
X140374063Y-112580978D01*
X140382550Y-112576902D01*
X140387572Y-112572259D01*
X140393641Y-112569107D01*
X140398419Y-112565026D01*
X140433594Y-112529851D01*
X140437160Y-112526421D01*
X140446973Y-112517350D01*
X140476771Y-112489805D01*
X140480310Y-112483713D01*
X140485269Y-112478176D01*
X140895775Y-112067670D01*
X140958087Y-112033644D01*
X141034604Y-112040996D01*
X141047638Y-112046595D01*
X141047643Y-112046597D01*
X141052953Y-112048878D01*
X141153577Y-112071647D01*
X141253550Y-112094269D01*
X141253553Y-112094269D01*
X141259186Y-112095544D01*
X141264957Y-112095771D01*
X141264959Y-112095771D01*
X141326989Y-112098208D01*
X141470470Y-112103846D01*
X141476179Y-112103018D01*
X141476183Y-112103018D01*
X141674015Y-112074333D01*
X141674019Y-112074332D01*
X141679730Y-112073504D01*
X141791136Y-112035687D01*
X141874483Y-112007395D01*
X141874488Y-112007393D01*
X141879955Y-112005537D01*
X141886230Y-112002023D01*
X142059395Y-111905046D01*
X142059399Y-111905043D01*
X142064442Y-111902219D01*
X142227012Y-111767012D01*
X142362219Y-111604442D01*
X142365043Y-111599399D01*
X142365046Y-111599395D01*
X142462713Y-111424998D01*
X142462714Y-111424996D01*
X142465537Y-111419955D01*
X142467393Y-111414488D01*
X142467395Y-111414483D01*
X142531647Y-111225200D01*
X142533504Y-111219730D01*
X142534333Y-111214015D01*
X142555090Y-111070860D01*
X142584660Y-111006315D01*
X142644432Y-110968003D01*
X142715429Y-110968087D01*
X142775109Y-111006542D01*
X142804525Y-111071158D01*
X142805515Y-111080695D01*
X142808796Y-111130749D01*
X142810217Y-111136345D01*
X142810218Y-111136350D01*
X142854569Y-111310980D01*
X142860845Y-111335690D01*
X142863262Y-111340933D01*
X142873092Y-111362256D01*
X142949369Y-111527714D01*
X143071405Y-111700391D01*
X143222865Y-111847937D01*
X143227661Y-111851142D01*
X143227664Y-111851144D01*
X143353849Y-111935458D01*
X143398677Y-111965411D01*
X143403985Y-111967692D01*
X143403986Y-111967692D01*
X143587650Y-112046600D01*
X143587653Y-112046601D01*
X143592953Y-112048878D01*
X143598582Y-112050152D01*
X143598583Y-112050152D01*
X143793550Y-112094269D01*
X143793553Y-112094269D01*
X143799186Y-112095544D01*
X143804957Y-112095771D01*
X143804959Y-112095771D01*
X143866989Y-112098208D01*
X144010470Y-112103846D01*
X144016179Y-112103018D01*
X144016183Y-112103018D01*
X144214015Y-112074333D01*
X144214019Y-112074332D01*
X144219730Y-112073504D01*
X144331136Y-112035687D01*
X144414483Y-112007395D01*
X144414488Y-112007393D01*
X144419955Y-112005537D01*
X144426230Y-112002023D01*
X144599395Y-111905046D01*
X144599399Y-111905043D01*
X144604442Y-111902219D01*
X144767012Y-111767012D01*
X144902219Y-111604442D01*
X144993676Y-111441134D01*
X145044413Y-111391472D01*
X145103610Y-111376700D01*
X155367190Y-111376700D01*
X155381998Y-111377573D01*
X155413555Y-111381308D01*
X155422817Y-111379616D01*
X155422826Y-111379616D01*
X155468152Y-111371337D01*
X155472060Y-111370686D01*
X155474089Y-111370381D01*
X155526884Y-111362444D01*
X155533048Y-111359484D01*
X155539777Y-111358255D01*
X155589015Y-111332678D01*
X155592531Y-111330921D01*
X155634059Y-111310980D01*
X155634063Y-111310978D01*
X155642550Y-111306902D01*
X155647572Y-111302259D01*
X155653641Y-111299107D01*
X155658419Y-111295026D01*
X155693594Y-111259851D01*
X155697160Y-111256421D01*
X155729856Y-111226197D01*
X155736771Y-111219805D01*
X155740310Y-111213713D01*
X155745269Y-111208176D01*
X156720405Y-110233040D01*
X156782717Y-110199014D01*
X156853532Y-110204079D01*
X156910368Y-110246626D01*
X156935179Y-110313146D01*
X156935500Y-110322135D01*
X156935500Y-111654997D01*
X156935823Y-111658176D01*
X156949256Y-111790421D01*
X156950942Y-111807024D01*
X157011967Y-112001755D01*
X157015065Y-112007344D01*
X157029390Y-112033187D01*
X157110902Y-112180238D01*
X157243705Y-112335182D01*
X157336711Y-112407325D01*
X157391701Y-112449979D01*
X157404951Y-112460257D01*
X157442930Y-112478945D01*
X157495220Y-112526966D01*
X157513300Y-112591999D01*
X157513300Y-120336935D01*
X157493298Y-120405056D01*
X157435519Y-120453343D01*
X157352382Y-120487780D01*
X157280423Y-120517586D01*
X157280419Y-120517588D01*
X157275849Y-120519481D01*
X157054337Y-120655223D01*
X156856788Y-120823946D01*
X156688065Y-121021495D01*
X156552323Y-121243007D01*
X156452904Y-121483025D01*
X156451749Y-121487837D01*
X156393411Y-121730828D01*
X156393410Y-121730834D01*
X156392256Y-121735641D01*
X156371873Y-121994635D01*
X156392256Y-122253629D01*
X156393410Y-122258436D01*
X156393411Y-122258442D01*
X156413890Y-122343742D01*
X156452904Y-122506245D01*
X156552323Y-122746263D01*
X156688065Y-122967775D01*
X156856788Y-123165324D01*
X157054337Y-123334047D01*
X157275849Y-123469789D01*
X157280419Y-123471682D01*
X157280423Y-123471684D01*
X157511294Y-123567314D01*
X157515867Y-123569208D01*
X157577180Y-123583928D01*
X157763670Y-123628701D01*
X157763676Y-123628702D01*
X157768483Y-123629856D01*
X158027477Y-123650239D01*
X158286471Y-123629856D01*
X158291278Y-123628702D01*
X158291284Y-123628701D01*
X158477774Y-123583928D01*
X158539087Y-123569208D01*
X158543660Y-123567314D01*
X158774531Y-123471684D01*
X158774535Y-123471682D01*
X158779105Y-123469789D01*
X159000617Y-123334047D01*
X159007869Y-123327853D01*
X161456977Y-123327853D01*
X161457647Y-123332403D01*
X161457647Y-123332406D01*
X161465693Y-123387061D01*
X161467119Y-123396747D01*
X161471435Y-123405537D01*
X161502981Y-123469789D01*
X161518545Y-123501490D01*
X161601127Y-123583928D01*
X161705959Y-123635171D01*
X161736450Y-123639619D01*
X161769733Y-123644475D01*
X161769737Y-123644475D01*
X161774259Y-123645135D01*
X164440695Y-123645135D01*
X164445245Y-123644465D01*
X164445248Y-123644465D01*
X164499903Y-123636419D01*
X164499904Y-123636419D01*
X164509589Y-123634993D01*
X164604281Y-123588502D01*
X164604984Y-123588157D01*
X164604986Y-123588156D01*
X164614332Y-123583567D01*
X164655750Y-123542077D01*
X164689412Y-123508356D01*
X164689412Y-123508355D01*
X164696770Y-123500985D01*
X164748013Y-123396153D01*
X164756697Y-123336629D01*
X164757317Y-123332379D01*
X164757317Y-123332375D01*
X164757977Y-123327853D01*
X164757977Y-122547335D01*
X164777979Y-122479214D01*
X164831635Y-122432721D01*
X164883977Y-122421335D01*
X167182555Y-122421335D01*
X167197363Y-122422208D01*
X167228920Y-122425943D01*
X167238182Y-122424251D01*
X167238191Y-122424251D01*
X167283517Y-122415972D01*
X167287425Y-122415321D01*
X167289454Y-122415016D01*
X167342249Y-122407079D01*
X167348413Y-122404119D01*
X167355142Y-122402890D01*
X167404380Y-122377313D01*
X167407896Y-122375556D01*
X167449424Y-122355615D01*
X167449428Y-122355613D01*
X167457915Y-122351537D01*
X167462937Y-122346894D01*
X167469006Y-122343742D01*
X167473784Y-122339661D01*
X167508959Y-122304486D01*
X167512525Y-122301056D01*
X167545221Y-122270832D01*
X167552136Y-122264440D01*
X167555675Y-122258348D01*
X167560634Y-122252811D01*
X177437039Y-112376406D01*
X177499351Y-112342380D01*
X177570166Y-112347445D01*
X177603360Y-112365942D01*
X177714142Y-112451873D01*
X177724951Y-112460257D01*
X177730673Y-112463072D01*
X177730672Y-112463072D01*
X177902332Y-112547540D01*
X177902337Y-112547542D01*
X177908054Y-112550355D01*
X177914227Y-112551963D01*
X177914230Y-112551964D01*
X178020919Y-112579754D01*
X178105533Y-112601794D01*
X178207428Y-112607134D01*
X178302942Y-112612141D01*
X178302946Y-112612141D01*
X178309323Y-112612475D01*
X178511097Y-112581959D01*
X178702615Y-112511494D01*
X178876051Y-112403959D01*
X179024323Y-112263746D01*
X179040228Y-112241032D01*
X179137708Y-112101815D01*
X179137709Y-112101814D01*
X179141372Y-112096582D01*
X179222418Y-111909297D01*
X179264149Y-111709540D01*
X179264500Y-111702842D01*
X179264500Y-111654997D01*
X179795500Y-111654997D01*
X179795823Y-111658176D01*
X179809256Y-111790421D01*
X179810942Y-111807024D01*
X179871967Y-112001755D01*
X179875065Y-112007344D01*
X179889390Y-112033187D01*
X179970902Y-112180238D01*
X180103705Y-112335182D01*
X180264951Y-112460257D01*
X180270673Y-112463072D01*
X180270672Y-112463072D01*
X180442332Y-112547540D01*
X180442337Y-112547542D01*
X180448054Y-112550355D01*
X180454227Y-112551963D01*
X180454230Y-112551964D01*
X180560919Y-112579754D01*
X180645533Y-112601794D01*
X180747428Y-112607134D01*
X180842942Y-112612141D01*
X180842946Y-112612141D01*
X180849323Y-112612475D01*
X181051097Y-112581959D01*
X181242615Y-112511494D01*
X181416051Y-112403959D01*
X181564323Y-112263746D01*
X181580228Y-112241032D01*
X181677708Y-112101815D01*
X181677709Y-112101814D01*
X181681372Y-112096582D01*
X181762418Y-111909297D01*
X181804149Y-111709540D01*
X181804500Y-111702842D01*
X181804500Y-110601135D01*
X181824502Y-110533014D01*
X181841405Y-110512040D01*
X184943440Y-107410005D01*
X185005752Y-107375979D01*
X185032535Y-107373100D01*
X192392504Y-107373100D01*
X192460625Y-107393102D01*
X192507118Y-107446758D01*
X192517222Y-107517032D01*
X192499937Y-107564935D01*
X192452210Y-107642819D01*
X192419534Y-107696141D01*
X192417641Y-107700711D01*
X192417639Y-107700715D01*
X192325021Y-107924316D01*
X192323127Y-107928889D01*
X192264317Y-108173852D01*
X192263929Y-108178786D01*
X192253745Y-108308187D01*
X192249500Y-108362118D01*
X192249500Y-110987882D01*
X192249693Y-110990330D01*
X192249693Y-110990339D01*
X192253818Y-111042748D01*
X192264317Y-111176148D01*
X192265471Y-111180955D01*
X192265472Y-111180961D01*
X192295708Y-111306902D01*
X192323127Y-111421111D01*
X192325020Y-111425682D01*
X192325021Y-111425684D01*
X192391780Y-111586854D01*
X192419534Y-111653859D01*
X192551164Y-111868659D01*
X192554376Y-111872419D01*
X192554379Y-111872424D01*
X192665657Y-112002713D01*
X192714776Y-112060224D01*
X192718538Y-112063437D01*
X192902576Y-112220621D01*
X192902581Y-112220624D01*
X192906341Y-112223836D01*
X193121141Y-112355466D01*
X193125711Y-112357359D01*
X193125715Y-112357361D01*
X193349316Y-112449979D01*
X193353889Y-112451873D01*
X193438289Y-112472135D01*
X193594039Y-112509528D01*
X193594045Y-112509529D01*
X193598852Y-112510683D01*
X193850000Y-112530449D01*
X194101148Y-112510683D01*
X194105955Y-112509529D01*
X194105961Y-112509528D01*
X194261711Y-112472135D01*
X194346111Y-112451873D01*
X194350684Y-112449979D01*
X194574285Y-112357361D01*
X194574289Y-112357359D01*
X194578859Y-112355466D01*
X194793659Y-112223836D01*
X194797419Y-112220624D01*
X194797424Y-112220621D01*
X194981462Y-112063437D01*
X194985224Y-112060224D01*
X195034343Y-112002713D01*
X195145621Y-111872424D01*
X195145624Y-111872419D01*
X195148836Y-111868659D01*
X195280466Y-111653859D01*
X195308221Y-111586854D01*
X195374979Y-111425684D01*
X195374980Y-111425682D01*
X195376873Y-111421111D01*
X195404292Y-111306902D01*
X195434528Y-111180961D01*
X195434529Y-111180955D01*
X195435683Y-111176148D01*
X195446182Y-111042748D01*
X195450307Y-110990339D01*
X195450307Y-110990330D01*
X195450500Y-110987882D01*
X195450500Y-108362118D01*
X195446256Y-108308187D01*
X195436071Y-108178786D01*
X195435683Y-108173852D01*
X195376873Y-107928889D01*
X195374979Y-107924316D01*
X195282361Y-107700715D01*
X195282359Y-107700711D01*
X195280466Y-107696141D01*
X195247790Y-107642819D01*
X195200063Y-107564935D01*
X195181525Y-107496401D01*
X195202981Y-107428725D01*
X195257621Y-107383392D01*
X195307496Y-107373100D01*
X196892465Y-107373100D01*
X196960586Y-107393102D01*
X196981560Y-107410005D01*
X198337595Y-108766040D01*
X198371621Y-108828352D01*
X198374500Y-108855135D01*
X198374500Y-110861508D01*
X198374712Y-110864081D01*
X198374712Y-110864092D01*
X198388900Y-111036662D01*
X198388901Y-111036668D01*
X198389324Y-111041813D01*
X198390583Y-111046824D01*
X198443230Y-111256421D01*
X198448432Y-111277133D01*
X198450490Y-111281866D01*
X198450491Y-111281869D01*
X198519742Y-111441134D01*
X198545180Y-111499638D01*
X198676970Y-111703355D01*
X198680449Y-111707178D01*
X198680451Y-111707181D01*
X198836785Y-111878989D01*
X198840263Y-111882811D01*
X198844314Y-111886010D01*
X198844318Y-111886014D01*
X198940788Y-111962201D01*
X199030672Y-112033187D01*
X199243086Y-112150446D01*
X199367040Y-112194340D01*
X199466923Y-112229711D01*
X199466927Y-112229712D01*
X199471798Y-112231437D01*
X199476891Y-112232344D01*
X199476894Y-112232345D01*
X199705578Y-112273080D01*
X199705584Y-112273081D01*
X199710667Y-112273986D01*
X199790442Y-112274961D01*
X199948108Y-112276887D01*
X199948110Y-112276887D01*
X199953278Y-112276950D01*
X200193116Y-112240250D01*
X200423739Y-112164871D01*
X200599253Y-112073504D01*
X200634365Y-112055226D01*
X200634366Y-112055225D01*
X200638954Y-112052837D01*
X200643087Y-112049734D01*
X200643090Y-112049732D01*
X200828846Y-111910263D01*
X200828849Y-111910261D01*
X200832981Y-111907158D01*
X201000609Y-111731745D01*
X201017366Y-111707181D01*
X201134418Y-111535588D01*
X201137337Y-111531309D01*
X201211758Y-111370982D01*
X201237313Y-111315929D01*
X201237314Y-111315925D01*
X201239492Y-111311234D01*
X201304332Y-111077429D01*
X201314390Y-110983314D01*
X201325144Y-110882691D01*
X201325144Y-110882683D01*
X201325500Y-110879356D01*
X201325500Y-108488492D01*
X201322829Y-108456000D01*
X201311100Y-108313338D01*
X201311099Y-108313332D01*
X201310676Y-108308187D01*
X201251568Y-108072867D01*
X201154820Y-107850362D01*
X201023030Y-107646645D01*
X200948680Y-107564935D01*
X200863215Y-107471011D01*
X200863213Y-107471010D01*
X200859737Y-107467189D01*
X200855686Y-107463990D01*
X200855682Y-107463986D01*
X200673386Y-107320018D01*
X200669328Y-107316813D01*
X200456914Y-107199554D01*
X200257492Y-107128935D01*
X200233077Y-107120289D01*
X200233073Y-107120288D01*
X200228202Y-107118563D01*
X200223109Y-107117656D01*
X200223106Y-107117655D01*
X199994422Y-107076920D01*
X199994416Y-107076919D01*
X199989333Y-107076014D01*
X199909558Y-107075039D01*
X199751892Y-107073113D01*
X199751890Y-107073113D01*
X199746722Y-107073050D01*
X199506884Y-107109750D01*
X199276261Y-107185129D01*
X199248551Y-107199554D01*
X199090178Y-107281998D01*
X199061046Y-107297163D01*
X199056913Y-107300266D01*
X199056910Y-107300268D01*
X198890413Y-107425277D01*
X198867019Y-107442842D01*
X198699391Y-107618255D01*
X198696478Y-107622525D01*
X198696475Y-107622529D01*
X198662320Y-107672599D01*
X198607409Y-107717603D01*
X198536884Y-107725775D01*
X198469136Y-107690691D01*
X197446323Y-106667878D01*
X197436473Y-106656795D01*
X197434673Y-106654512D01*
X197408204Y-106588634D01*
X197421553Y-106518904D01*
X197470481Y-106467460D01*
X197533618Y-106450500D01*
X198036508Y-106450500D01*
X198039081Y-106450288D01*
X198039092Y-106450288D01*
X198211662Y-106436100D01*
X198211668Y-106436099D01*
X198216813Y-106435676D01*
X198334473Y-106406122D01*
X198447122Y-106377827D01*
X198447126Y-106377826D01*
X198452133Y-106376568D01*
X198456866Y-106374510D01*
X198456869Y-106374509D01*
X198669901Y-106281880D01*
X198669904Y-106281878D01*
X198674638Y-106279820D01*
X198878355Y-106148030D01*
X198902996Y-106125609D01*
X199053989Y-105988215D01*
X199053990Y-105988213D01*
X199057811Y-105984737D01*
X199061010Y-105980686D01*
X199061014Y-105980682D01*
X199204982Y-105798386D01*
X199208187Y-105794328D01*
X199325446Y-105581914D01*
X199406437Y-105353202D01*
X199407778Y-105345676D01*
X199448080Y-105119422D01*
X199448081Y-105119416D01*
X199448986Y-105114333D01*
X199451005Y-104949107D01*
X199451887Y-104876892D01*
X199451887Y-104876890D01*
X199451950Y-104871722D01*
X199415250Y-104631884D01*
X199339871Y-104401261D01*
X199258457Y-104244867D01*
X199230226Y-104190635D01*
X199230225Y-104190634D01*
X199227837Y-104186046D01*
X199216106Y-104170421D01*
X199085263Y-103996154D01*
X199085261Y-103996151D01*
X199082158Y-103992019D01*
X198906745Y-103824391D01*
X198706309Y-103687663D01*
X198596271Y-103636585D01*
X198490929Y-103587687D01*
X198490925Y-103587686D01*
X198486234Y-103585508D01*
X198252429Y-103520668D01*
X198242267Y-103519582D01*
X198057691Y-103499856D01*
X198057683Y-103499856D01*
X198054356Y-103499500D01*
X195663492Y-103499500D01*
X195660919Y-103499712D01*
X195660908Y-103499712D01*
X195488338Y-103513900D01*
X195488332Y-103513901D01*
X195483187Y-103514324D01*
X195365527Y-103543878D01*
X195252878Y-103572173D01*
X195252874Y-103572174D01*
X195247867Y-103573432D01*
X195243134Y-103575490D01*
X195243131Y-103575491D01*
X195030099Y-103668120D01*
X195030096Y-103668122D01*
X195025362Y-103670180D01*
X194821645Y-103801970D01*
X194817822Y-103805449D01*
X194817819Y-103805451D01*
X194793080Y-103827962D01*
X194642189Y-103965263D01*
X194638990Y-103969314D01*
X194638986Y-103969318D01*
X194617685Y-103996290D01*
X194491813Y-104155672D01*
X194374554Y-104368086D01*
X194364954Y-104395197D01*
X194295555Y-104591174D01*
X194293563Y-104596798D01*
X194292656Y-104601891D01*
X194292655Y-104601894D01*
X194259799Y-104786350D01*
X194251014Y-104835667D01*
X194250951Y-104840830D01*
X194248219Y-105064483D01*
X194248050Y-105078278D01*
X194284750Y-105318116D01*
X194360129Y-105548739D01*
X194362519Y-105553330D01*
X194462698Y-105745771D01*
X194472163Y-105763954D01*
X194475266Y-105768087D01*
X194475268Y-105768090D01*
X194614737Y-105953846D01*
X194617842Y-105957981D01*
X194793255Y-106125609D01*
X194993691Y-106262337D01*
X194998380Y-106264513D01*
X194998386Y-106264517D01*
X195030476Y-106279412D01*
X195083843Y-106326236D01*
X195103424Y-106394480D01*
X195083000Y-106462475D01*
X195029058Y-106508635D01*
X194977426Y-106519700D01*
X184836402Y-106519700D01*
X184821592Y-106518827D01*
X184790045Y-106515093D01*
X184780781Y-106516785D01*
X184780778Y-106516785D01*
X184735478Y-106525058D01*
X184731575Y-106525708D01*
X184686025Y-106532556D01*
X184686022Y-106532557D01*
X184676716Y-106533956D01*
X184670551Y-106536916D01*
X184663823Y-106538145D01*
X184614585Y-106563722D01*
X184611069Y-106565479D01*
X184569541Y-106585420D01*
X184569537Y-106585422D01*
X184561050Y-106589498D01*
X184556028Y-106594141D01*
X184549959Y-106597293D01*
X184545181Y-106601374D01*
X184510006Y-106636549D01*
X184506441Y-106639978D01*
X184466829Y-106676595D01*
X184463290Y-106682687D01*
X184458331Y-106688224D01*
X181622961Y-109523594D01*
X181560649Y-109557620D01*
X181489834Y-109552555D01*
X181456640Y-109534058D01*
X181340094Y-109443656D01*
X181340088Y-109443652D01*
X181335049Y-109439743D01*
X181226439Y-109386300D01*
X181157668Y-109352460D01*
X181157663Y-109352458D01*
X181151946Y-109349645D01*
X181145773Y-109348037D01*
X181145770Y-109348036D01*
X180994017Y-109308508D01*
X180954467Y-109298206D01*
X180852572Y-109292865D01*
X180757058Y-109287859D01*
X180757054Y-109287859D01*
X180750677Y-109287525D01*
X180548903Y-109318041D01*
X180357385Y-109388506D01*
X180183949Y-109496041D01*
X180035677Y-109636254D01*
X180032015Y-109641484D01*
X180032014Y-109641485D01*
X179922292Y-109798185D01*
X179918628Y-109803418D01*
X179837582Y-109990703D01*
X179795851Y-110190460D01*
X179795500Y-110197158D01*
X179795500Y-111654997D01*
X179264500Y-111654997D01*
X179264500Y-110245003D01*
X179255323Y-110154655D01*
X179249703Y-110099324D01*
X179249703Y-110099322D01*
X179249058Y-110092976D01*
X179188033Y-109898245D01*
X179089098Y-109719762D01*
X178956295Y-109564818D01*
X178795049Y-109439743D01*
X178686439Y-109386300D01*
X178617668Y-109352460D01*
X178617663Y-109352458D01*
X178611946Y-109349645D01*
X178605773Y-109348037D01*
X178605770Y-109348036D01*
X178454017Y-109308508D01*
X178414467Y-109298206D01*
X178312572Y-109292865D01*
X178217058Y-109287859D01*
X178217054Y-109287859D01*
X178210677Y-109287525D01*
X178008903Y-109318041D01*
X177817385Y-109388506D01*
X177643949Y-109496041D01*
X177495677Y-109636254D01*
X177492015Y-109641484D01*
X177492014Y-109641485D01*
X177382292Y-109798185D01*
X177378628Y-109803418D01*
X177297582Y-109990703D01*
X177255851Y-110190460D01*
X177255500Y-110197158D01*
X177255500Y-111298865D01*
X177235498Y-111366986D01*
X177218595Y-111387960D01*
X176939595Y-111666960D01*
X176877283Y-111700986D01*
X176806468Y-111695921D01*
X176749632Y-111653374D01*
X176724821Y-111586854D01*
X176724500Y-111577865D01*
X176724500Y-110245003D01*
X176715323Y-110154655D01*
X176709703Y-110099324D01*
X176709703Y-110099322D01*
X176709058Y-110092976D01*
X176648033Y-109898245D01*
X176549098Y-109719762D01*
X176416295Y-109564818D01*
X176255049Y-109439743D01*
X176146439Y-109386300D01*
X176077668Y-109352460D01*
X176077663Y-109352458D01*
X176071946Y-109349645D01*
X176065773Y-109348037D01*
X176065770Y-109348036D01*
X175914017Y-109308508D01*
X175874467Y-109298206D01*
X175772572Y-109292865D01*
X175677058Y-109287859D01*
X175677054Y-109287859D01*
X175670677Y-109287525D01*
X175468903Y-109318041D01*
X175277385Y-109388506D01*
X175103949Y-109496041D01*
X174955677Y-109636254D01*
X174952015Y-109641484D01*
X174952014Y-109641485D01*
X174842292Y-109798185D01*
X174838628Y-109803418D01*
X174757582Y-109990703D01*
X174715851Y-110190460D01*
X174715500Y-110197158D01*
X174715500Y-111654997D01*
X174715823Y-111658176D01*
X174729256Y-111790421D01*
X174730942Y-111807024D01*
X174791967Y-112001755D01*
X174795065Y-112007344D01*
X174809390Y-112033187D01*
X174890902Y-112180238D01*
X175023705Y-112335182D01*
X175184951Y-112460257D01*
X175190673Y-112463072D01*
X175190672Y-112463072D01*
X175362332Y-112547540D01*
X175362337Y-112547542D01*
X175368054Y-112550355D01*
X175374227Y-112551963D01*
X175374230Y-112551964D01*
X175480919Y-112579754D01*
X175565533Y-112601794D01*
X175700278Y-112608856D01*
X175767257Y-112632396D01*
X175810878Y-112688411D01*
X175817290Y-112759118D01*
X175782777Y-112823778D01*
X167075525Y-121531030D01*
X167013213Y-121565056D01*
X166986430Y-121567935D01*
X164883977Y-121567935D01*
X164815856Y-121547933D01*
X164769363Y-121494277D01*
X164757977Y-121441935D01*
X164757977Y-120661417D01*
X164749348Y-120602797D01*
X164749261Y-120602209D01*
X164749261Y-120602208D01*
X164747835Y-120592523D01*
X164713243Y-120522067D01*
X164700999Y-120497128D01*
X164700998Y-120497126D01*
X164696409Y-120487780D01*
X164613827Y-120405342D01*
X164508995Y-120354099D01*
X164478504Y-120349651D01*
X164445221Y-120344795D01*
X164445217Y-120344795D01*
X164440695Y-120344135D01*
X161774259Y-120344135D01*
X161769709Y-120344805D01*
X161769706Y-120344805D01*
X161715051Y-120352851D01*
X161715050Y-120352851D01*
X161705365Y-120354277D01*
X161655672Y-120378675D01*
X161609970Y-120401113D01*
X161609968Y-120401114D01*
X161600622Y-120405703D01*
X161518184Y-120488285D01*
X161466941Y-120593117D01*
X161465529Y-120602797D01*
X161457881Y-120655223D01*
X161456977Y-120661417D01*
X161456977Y-123327853D01*
X159007869Y-123327853D01*
X159198166Y-123165324D01*
X159366889Y-122967775D01*
X159502631Y-122746263D01*
X159602050Y-122506245D01*
X159641064Y-122343742D01*
X159661543Y-122258442D01*
X159661544Y-122258436D01*
X159662698Y-122253629D01*
X159683081Y-121994635D01*
X159662698Y-121735641D01*
X159661544Y-121730834D01*
X159661543Y-121730828D01*
X159603205Y-121487837D01*
X159602050Y-121483025D01*
X159502631Y-121243007D01*
X159366889Y-121021495D01*
X159198166Y-120823946D01*
X159000617Y-120655223D01*
X158779105Y-120519481D01*
X158774535Y-120517588D01*
X158774531Y-120517586D01*
X158543660Y-120421956D01*
X158543658Y-120421955D01*
X158539087Y-120420062D01*
X158463285Y-120401863D01*
X158401717Y-120366512D01*
X158369034Y-120303485D01*
X158366700Y-120279345D01*
X158366700Y-112591492D01*
X158386702Y-112523371D01*
X158426303Y-112484406D01*
X158556051Y-112403959D01*
X158704323Y-112263746D01*
X158720228Y-112241032D01*
X158817708Y-112101815D01*
X158817709Y-112101814D01*
X158821372Y-112096582D01*
X158902418Y-111909297D01*
X158944149Y-111709540D01*
X158944500Y-111702842D01*
X158944500Y-111654997D01*
X159475500Y-111654997D01*
X159475823Y-111658176D01*
X159489256Y-111790421D01*
X159490942Y-111807024D01*
X159551967Y-112001755D01*
X159555065Y-112007344D01*
X159569390Y-112033187D01*
X159650902Y-112180238D01*
X159783705Y-112335182D01*
X159944951Y-112460257D01*
X159950673Y-112463072D01*
X159950672Y-112463072D01*
X160122332Y-112547540D01*
X160122337Y-112547542D01*
X160128054Y-112550355D01*
X160134227Y-112551963D01*
X160134230Y-112551964D01*
X160240919Y-112579754D01*
X160325533Y-112601794D01*
X160427428Y-112607134D01*
X160522942Y-112612141D01*
X160522946Y-112612141D01*
X160529323Y-112612475D01*
X160731097Y-112581959D01*
X160922615Y-112511494D01*
X161096051Y-112403959D01*
X161244323Y-112263746D01*
X161260228Y-112241032D01*
X161357708Y-112101815D01*
X161357709Y-112101814D01*
X161361372Y-112096582D01*
X161442418Y-111909297D01*
X161484149Y-111709540D01*
X161484500Y-111702842D01*
X161484500Y-111654997D01*
X162015500Y-111654997D01*
X162015823Y-111658176D01*
X162029256Y-111790421D01*
X162030942Y-111807024D01*
X162091967Y-112001755D01*
X162095065Y-112007344D01*
X162109390Y-112033187D01*
X162190902Y-112180238D01*
X162323705Y-112335182D01*
X162484951Y-112460257D01*
X162490673Y-112463072D01*
X162490672Y-112463072D01*
X162662332Y-112547540D01*
X162662337Y-112547542D01*
X162668054Y-112550355D01*
X162674227Y-112551963D01*
X162674230Y-112551964D01*
X162780919Y-112579754D01*
X162865533Y-112601794D01*
X162967428Y-112607134D01*
X163062942Y-112612141D01*
X163062946Y-112612141D01*
X163069323Y-112612475D01*
X163271097Y-112581959D01*
X163462615Y-112511494D01*
X163636051Y-112403959D01*
X163784323Y-112263746D01*
X163800228Y-112241032D01*
X163897708Y-112101815D01*
X163897709Y-112101814D01*
X163901372Y-112096582D01*
X163982418Y-111909297D01*
X164024149Y-111709540D01*
X164024500Y-111702842D01*
X164024500Y-110245003D01*
X164015323Y-110154655D01*
X164009703Y-110099324D01*
X164009703Y-110099322D01*
X164009058Y-110092976D01*
X163948033Y-109898245D01*
X163849098Y-109719762D01*
X163716295Y-109564818D01*
X163555049Y-109439743D01*
X163446439Y-109386300D01*
X163377668Y-109352460D01*
X163377663Y-109352458D01*
X163371946Y-109349645D01*
X163365773Y-109348037D01*
X163365770Y-109348036D01*
X163214017Y-109308508D01*
X163174467Y-109298206D01*
X163072572Y-109292865D01*
X162977058Y-109287859D01*
X162977054Y-109287859D01*
X162970677Y-109287525D01*
X162768903Y-109318041D01*
X162577385Y-109388506D01*
X162403949Y-109496041D01*
X162255677Y-109636254D01*
X162252015Y-109641484D01*
X162252014Y-109641485D01*
X162142292Y-109798185D01*
X162138628Y-109803418D01*
X162057582Y-109990703D01*
X162015851Y-110190460D01*
X162015500Y-110197158D01*
X162015500Y-111654997D01*
X161484500Y-111654997D01*
X161484500Y-110245003D01*
X161475323Y-110154655D01*
X161469703Y-110099324D01*
X161469703Y-110099322D01*
X161469058Y-110092976D01*
X161408033Y-109898245D01*
X161309098Y-109719762D01*
X161176295Y-109564818D01*
X161015049Y-109439743D01*
X160906439Y-109386300D01*
X160837668Y-109352460D01*
X160837663Y-109352458D01*
X160831946Y-109349645D01*
X160825773Y-109348037D01*
X160825770Y-109348036D01*
X160674017Y-109308508D01*
X160634467Y-109298206D01*
X160532572Y-109292865D01*
X160437058Y-109287859D01*
X160437054Y-109287859D01*
X160430677Y-109287525D01*
X160228903Y-109318041D01*
X160037385Y-109388506D01*
X159863949Y-109496041D01*
X159715677Y-109636254D01*
X159712015Y-109641484D01*
X159712014Y-109641485D01*
X159602292Y-109798185D01*
X159598628Y-109803418D01*
X159517582Y-109990703D01*
X159475851Y-110190460D01*
X159475500Y-110197158D01*
X159475500Y-111654997D01*
X158944500Y-111654997D01*
X158944500Y-110245003D01*
X158935323Y-110154655D01*
X158929703Y-110099324D01*
X158929703Y-110099322D01*
X158929058Y-110092976D01*
X158868033Y-109898245D01*
X158769098Y-109719762D01*
X158636295Y-109564818D01*
X158475049Y-109439743D01*
X158366439Y-109386300D01*
X158297668Y-109352460D01*
X158297663Y-109352458D01*
X158291946Y-109349645D01*
X158285773Y-109348037D01*
X158285770Y-109348036D01*
X158134017Y-109308508D01*
X158094467Y-109298206D01*
X157959722Y-109291144D01*
X157892743Y-109267604D01*
X157849122Y-109211589D01*
X157842710Y-109140882D01*
X157877223Y-109076222D01*
X163391240Y-103562205D01*
X163453552Y-103528179D01*
X163480335Y-103525300D01*
X164498590Y-103525300D01*
X164513398Y-103526173D01*
X164544955Y-103529908D01*
X164554217Y-103528216D01*
X164554226Y-103528216D01*
X164599552Y-103519937D01*
X164603460Y-103519286D01*
X164613697Y-103517747D01*
X164658284Y-103511044D01*
X164664448Y-103508084D01*
X164671177Y-103506855D01*
X164720415Y-103481278D01*
X164723931Y-103479521D01*
X164765459Y-103459580D01*
X164765463Y-103459578D01*
X164773950Y-103455502D01*
X164778972Y-103450859D01*
X164785041Y-103447707D01*
X164789819Y-103443626D01*
X164824994Y-103408451D01*
X164828560Y-103405021D01*
X164861256Y-103374797D01*
X164868171Y-103368405D01*
X164871710Y-103362313D01*
X164876669Y-103356776D01*
X165045775Y-103187670D01*
X165108087Y-103153644D01*
X165184604Y-103160996D01*
X165197638Y-103166595D01*
X165197643Y-103166597D01*
X165202953Y-103168878D01*
X165303577Y-103191647D01*
X165403550Y-103214269D01*
X165403553Y-103214269D01*
X165409186Y-103215544D01*
X165414957Y-103215771D01*
X165414959Y-103215771D01*
X165476989Y-103218208D01*
X165620470Y-103223846D01*
X165626179Y-103223018D01*
X165626183Y-103223018D01*
X165824015Y-103194333D01*
X165824019Y-103194332D01*
X165829730Y-103193504D01*
X165925496Y-103160996D01*
X166024483Y-103127395D01*
X166024488Y-103127393D01*
X166029955Y-103125537D01*
X166034998Y-103122713D01*
X166209395Y-103025046D01*
X166209399Y-103025043D01*
X166214442Y-103022219D01*
X166377012Y-102887012D01*
X166512219Y-102724442D01*
X166515043Y-102719399D01*
X166515046Y-102719395D01*
X166612713Y-102544998D01*
X166612714Y-102544996D01*
X166615537Y-102539955D01*
X166617393Y-102534488D01*
X166617395Y-102534483D01*
X166681647Y-102345200D01*
X166683504Y-102339730D01*
X166697242Y-102244982D01*
X166705090Y-102190860D01*
X166734660Y-102126315D01*
X166794432Y-102088003D01*
X166865429Y-102088087D01*
X166925109Y-102126542D01*
X166954525Y-102191158D01*
X166955515Y-102200695D01*
X166958796Y-102250749D01*
X166960217Y-102256345D01*
X166960218Y-102256350D01*
X166982784Y-102345200D01*
X167010845Y-102455690D01*
X167013262Y-102460933D01*
X167047169Y-102534483D01*
X167099369Y-102647714D01*
X167221405Y-102820391D01*
X167372865Y-102967937D01*
X167377661Y-102971142D01*
X167377664Y-102971144D01*
X167491815Y-103047417D01*
X167548677Y-103085411D01*
X167553985Y-103087692D01*
X167553986Y-103087692D01*
X167737650Y-103166600D01*
X167737653Y-103166601D01*
X167742953Y-103168878D01*
X167748582Y-103170152D01*
X167748583Y-103170152D01*
X167943550Y-103214269D01*
X167943553Y-103214269D01*
X167949186Y-103215544D01*
X167954957Y-103215771D01*
X167954959Y-103215771D01*
X168016989Y-103218208D01*
X168160470Y-103223846D01*
X168166179Y-103223018D01*
X168166183Y-103223018D01*
X168364015Y-103194333D01*
X168364019Y-103194332D01*
X168369730Y-103193504D01*
X168465496Y-103160996D01*
X168564483Y-103127395D01*
X168564488Y-103127393D01*
X168569955Y-103125537D01*
X168594026Y-103112057D01*
X168709450Y-103047416D01*
X168778658Y-103031582D01*
X168845440Y-103055679D01*
X168888593Y-103112056D01*
X168894416Y-103182813D01*
X168860111Y-103246445D01*
X167052405Y-105054150D01*
X165281478Y-106825077D01*
X165270388Y-106834932D01*
X165252834Y-106848770D01*
X165252830Y-106848774D01*
X165245435Y-106854604D01*
X165213843Y-106900315D01*
X165211610Y-106903438D01*
X165178638Y-106948079D01*
X165176373Y-106954529D01*
X165172483Y-106960157D01*
X165169645Y-106969132D01*
X165169642Y-106969137D01*
X165155756Y-107013046D01*
X165154503Y-107016803D01*
X165139243Y-107060255D01*
X165139242Y-107060258D01*
X165136123Y-107069141D01*
X165135854Y-107075977D01*
X165133793Y-107082495D01*
X165133300Y-107088759D01*
X165133300Y-107138520D01*
X165133203Y-107143466D01*
X165131086Y-107197352D01*
X165132892Y-107204163D01*
X165133300Y-107211578D01*
X165133300Y-109308508D01*
X165113298Y-109376629D01*
X165073698Y-109415593D01*
X164943949Y-109496041D01*
X164795677Y-109636254D01*
X164792015Y-109641484D01*
X164792014Y-109641485D01*
X164682292Y-109798185D01*
X164678628Y-109803418D01*
X164597582Y-109990703D01*
X164555851Y-110190460D01*
X164555500Y-110197158D01*
X164555500Y-111654997D01*
X164555823Y-111658176D01*
X164569256Y-111790421D01*
X164570942Y-111807024D01*
X164631967Y-112001755D01*
X164635065Y-112007344D01*
X164649390Y-112033187D01*
X164730902Y-112180238D01*
X164863705Y-112335182D01*
X165024951Y-112460257D01*
X165030673Y-112463072D01*
X165030672Y-112463072D01*
X165202332Y-112547540D01*
X165202337Y-112547542D01*
X165208054Y-112550355D01*
X165214227Y-112551963D01*
X165214230Y-112551964D01*
X165320919Y-112579754D01*
X165405533Y-112601794D01*
X165507428Y-112607134D01*
X165602942Y-112612141D01*
X165602946Y-112612141D01*
X165609323Y-112612475D01*
X165811097Y-112581959D01*
X166002615Y-112511494D01*
X166176051Y-112403959D01*
X166324323Y-112263746D01*
X166340228Y-112241032D01*
X166437708Y-112101815D01*
X166437709Y-112101814D01*
X166441372Y-112096582D01*
X166522418Y-111909297D01*
X166564149Y-111709540D01*
X166564500Y-111702842D01*
X166564500Y-110245003D01*
X166555323Y-110154655D01*
X166549703Y-110099324D01*
X166549703Y-110099322D01*
X166549058Y-110092976D01*
X166488033Y-109898245D01*
X166389098Y-109719762D01*
X166256295Y-109564818D01*
X166095049Y-109439743D01*
X166057070Y-109421055D01*
X166004780Y-109373034D01*
X165986700Y-109308001D01*
X165986700Y-107378935D01*
X166006702Y-107310814D01*
X166023605Y-107289840D01*
X170125775Y-103187670D01*
X170188087Y-103153644D01*
X170264604Y-103160996D01*
X170277638Y-103166595D01*
X170277643Y-103166597D01*
X170282953Y-103168878D01*
X170383577Y-103191647D01*
X170483550Y-103214269D01*
X170483553Y-103214269D01*
X170489186Y-103215544D01*
X170494957Y-103215771D01*
X170494959Y-103215771D01*
X170556989Y-103218208D01*
X170700470Y-103223846D01*
X170706179Y-103223018D01*
X170706183Y-103223018D01*
X170904015Y-103194333D01*
X170904019Y-103194332D01*
X170909730Y-103193504D01*
X171005496Y-103160996D01*
X171104483Y-103127395D01*
X171104488Y-103127393D01*
X171109955Y-103125537D01*
X171114998Y-103122713D01*
X171289395Y-103025046D01*
X171289399Y-103025043D01*
X171294442Y-103022219D01*
X171457012Y-102887012D01*
X171592219Y-102724442D01*
X171595043Y-102719399D01*
X171595046Y-102719395D01*
X171692713Y-102544998D01*
X171692714Y-102544996D01*
X171695537Y-102539955D01*
X171697393Y-102534488D01*
X171697395Y-102534483D01*
X171761647Y-102345200D01*
X171763504Y-102339730D01*
X171777242Y-102244982D01*
X171785090Y-102190860D01*
X171814660Y-102126315D01*
X171874432Y-102088003D01*
X171945429Y-102088087D01*
X172005109Y-102126542D01*
X172034525Y-102191158D01*
X172035515Y-102200695D01*
X172038796Y-102250749D01*
X172040217Y-102256345D01*
X172040218Y-102256350D01*
X172062784Y-102345200D01*
X172090845Y-102455690D01*
X172093262Y-102460933D01*
X172127169Y-102534483D01*
X172179369Y-102647714D01*
X172301405Y-102820391D01*
X172452865Y-102967937D01*
X172457661Y-102971142D01*
X172457664Y-102971144D01*
X172571815Y-103047417D01*
X172628677Y-103085411D01*
X172633985Y-103087692D01*
X172633986Y-103087692D01*
X172817650Y-103166600D01*
X172817653Y-103166601D01*
X172822953Y-103168878D01*
X172828582Y-103170152D01*
X172828583Y-103170152D01*
X173023550Y-103214269D01*
X173023553Y-103214269D01*
X173029186Y-103215544D01*
X173034957Y-103215771D01*
X173034959Y-103215771D01*
X173096989Y-103218208D01*
X173240470Y-103223846D01*
X173246179Y-103223018D01*
X173246183Y-103223018D01*
X173444015Y-103194333D01*
X173444019Y-103194332D01*
X173449730Y-103193504D01*
X173545496Y-103160996D01*
X173644483Y-103127395D01*
X173644488Y-103127393D01*
X173649955Y-103125537D01*
X173654998Y-103122713D01*
X173829395Y-103025046D01*
X173829399Y-103025043D01*
X173834442Y-103022219D01*
X173997012Y-102887012D01*
X174132219Y-102724442D01*
X174135043Y-102719399D01*
X174135046Y-102719395D01*
X174232713Y-102544998D01*
X174232714Y-102544996D01*
X174235537Y-102539955D01*
X174237393Y-102534488D01*
X174237395Y-102534483D01*
X174301647Y-102345200D01*
X174303504Y-102339730D01*
X174317242Y-102244982D01*
X174325090Y-102190860D01*
X174354660Y-102126315D01*
X174414432Y-102088003D01*
X174485429Y-102088087D01*
X174545109Y-102126542D01*
X174574525Y-102191158D01*
X174575515Y-102200695D01*
X174578796Y-102250749D01*
X174580217Y-102256345D01*
X174580218Y-102256350D01*
X174602784Y-102345200D01*
X174630845Y-102455690D01*
X174633262Y-102460933D01*
X174667169Y-102534483D01*
X174719369Y-102647714D01*
X174841405Y-102820391D01*
X174992865Y-102967937D01*
X174997661Y-102971142D01*
X174997664Y-102971144D01*
X175111815Y-103047417D01*
X175168677Y-103085411D01*
X175173985Y-103087692D01*
X175173986Y-103087692D01*
X175357650Y-103166600D01*
X175357653Y-103166601D01*
X175362953Y-103168878D01*
X175368582Y-103170152D01*
X175368583Y-103170152D01*
X175563550Y-103214269D01*
X175563553Y-103214269D01*
X175569186Y-103215544D01*
X175574957Y-103215771D01*
X175574959Y-103215771D01*
X175636989Y-103218208D01*
X175780470Y-103223846D01*
X175786179Y-103223018D01*
X175786183Y-103223018D01*
X175984015Y-103194333D01*
X175984019Y-103194332D01*
X175989730Y-103193504D01*
X176085496Y-103160996D01*
X176184483Y-103127395D01*
X176184488Y-103127393D01*
X176189955Y-103125537D01*
X176214026Y-103112057D01*
X176329448Y-103047417D01*
X176398656Y-103031583D01*
X176465438Y-103055680D01*
X176508591Y-103112057D01*
X176514414Y-103182814D01*
X176480109Y-103246446D01*
X175590160Y-104136395D01*
X175527848Y-104170421D01*
X175501065Y-104173300D01*
X170432803Y-104173300D01*
X170417994Y-104172427D01*
X170416833Y-104172290D01*
X170386445Y-104168693D01*
X170377181Y-104170385D01*
X170377178Y-104170385D01*
X170331878Y-104178658D01*
X170327975Y-104179308D01*
X170282425Y-104186156D01*
X170282422Y-104186157D01*
X170273116Y-104187556D01*
X170266951Y-104190516D01*
X170260223Y-104191745D01*
X170210985Y-104217322D01*
X170207469Y-104219079D01*
X170165941Y-104239020D01*
X170165937Y-104239022D01*
X170157450Y-104243098D01*
X170152428Y-104247741D01*
X170146359Y-104250893D01*
X170141581Y-104254974D01*
X170106406Y-104290149D01*
X170102841Y-104293578D01*
X170063229Y-104330195D01*
X170059690Y-104336287D01*
X170054731Y-104341824D01*
X167821478Y-106575077D01*
X167810388Y-106584932D01*
X167792834Y-106598770D01*
X167792830Y-106598774D01*
X167785435Y-106604604D01*
X167753843Y-106650315D01*
X167751610Y-106653438D01*
X167718638Y-106698079D01*
X167716373Y-106704529D01*
X167712483Y-106710157D01*
X167709645Y-106719132D01*
X167709642Y-106719137D01*
X167695756Y-106763046D01*
X167694503Y-106766803D01*
X167679243Y-106810255D01*
X167679242Y-106810258D01*
X167676123Y-106819141D01*
X167675854Y-106825977D01*
X167673793Y-106832495D01*
X167673300Y-106838759D01*
X167673300Y-106888515D01*
X167673203Y-106893461D01*
X167672323Y-106915872D01*
X167671086Y-106947352D01*
X167672892Y-106954163D01*
X167673300Y-106961578D01*
X167673300Y-109308508D01*
X167653298Y-109376629D01*
X167613698Y-109415593D01*
X167483949Y-109496041D01*
X167335677Y-109636254D01*
X167332015Y-109641484D01*
X167332014Y-109641485D01*
X167222292Y-109798185D01*
X167218628Y-109803418D01*
X167137582Y-109990703D01*
X167095851Y-110190460D01*
X167095500Y-110197158D01*
X167095500Y-111654997D01*
X167095823Y-111658176D01*
X167109256Y-111790421D01*
X167110942Y-111807024D01*
X167171967Y-112001755D01*
X167175065Y-112007344D01*
X167189390Y-112033187D01*
X167270902Y-112180238D01*
X167403705Y-112335182D01*
X167564951Y-112460257D01*
X167570673Y-112463072D01*
X167570672Y-112463072D01*
X167742332Y-112547540D01*
X167742337Y-112547542D01*
X167748054Y-112550355D01*
X167754227Y-112551963D01*
X167754230Y-112551964D01*
X167860919Y-112579754D01*
X167945533Y-112601794D01*
X168047428Y-112607134D01*
X168142942Y-112612141D01*
X168142946Y-112612141D01*
X168149323Y-112612475D01*
X168351097Y-112581959D01*
X168542615Y-112511494D01*
X168716051Y-112403959D01*
X168864323Y-112263746D01*
X168880228Y-112241032D01*
X168977708Y-112101815D01*
X168977709Y-112101814D01*
X168981372Y-112096582D01*
X169062418Y-111909297D01*
X169104149Y-111709540D01*
X169104500Y-111702842D01*
X169104500Y-111654997D01*
X169635500Y-111654997D01*
X169635823Y-111658176D01*
X169649256Y-111790421D01*
X169650942Y-111807024D01*
X169711967Y-112001755D01*
X169715065Y-112007344D01*
X169729390Y-112033187D01*
X169810902Y-112180238D01*
X169943705Y-112335182D01*
X170104951Y-112460257D01*
X170110673Y-112463072D01*
X170110672Y-112463072D01*
X170282332Y-112547540D01*
X170282337Y-112547542D01*
X170288054Y-112550355D01*
X170294227Y-112551963D01*
X170294230Y-112551964D01*
X170400919Y-112579754D01*
X170485533Y-112601794D01*
X170587428Y-112607134D01*
X170682942Y-112612141D01*
X170682946Y-112612141D01*
X170689323Y-112612475D01*
X170891097Y-112581959D01*
X171082615Y-112511494D01*
X171256051Y-112403959D01*
X171404323Y-112263746D01*
X171420228Y-112241032D01*
X171517708Y-112101815D01*
X171517709Y-112101814D01*
X171521372Y-112096582D01*
X171602418Y-111909297D01*
X171644149Y-111709540D01*
X171644500Y-111702842D01*
X171644500Y-111654997D01*
X172175500Y-111654997D01*
X172175823Y-111658176D01*
X172189256Y-111790421D01*
X172190942Y-111807024D01*
X172251967Y-112001755D01*
X172255065Y-112007344D01*
X172269390Y-112033187D01*
X172350902Y-112180238D01*
X172483705Y-112335182D01*
X172644951Y-112460257D01*
X172650673Y-112463072D01*
X172650672Y-112463072D01*
X172822332Y-112547540D01*
X172822337Y-112547542D01*
X172828054Y-112550355D01*
X172834227Y-112551963D01*
X172834230Y-112551964D01*
X172940919Y-112579754D01*
X173025533Y-112601794D01*
X173127428Y-112607134D01*
X173222942Y-112612141D01*
X173222946Y-112612141D01*
X173229323Y-112612475D01*
X173431097Y-112581959D01*
X173622615Y-112511494D01*
X173796051Y-112403959D01*
X173944323Y-112263746D01*
X173960228Y-112241032D01*
X174057708Y-112101815D01*
X174057709Y-112101814D01*
X174061372Y-112096582D01*
X174142418Y-111909297D01*
X174184149Y-111709540D01*
X174184500Y-111702842D01*
X174184500Y-110245003D01*
X174175323Y-110154655D01*
X174169703Y-110099324D01*
X174169703Y-110099322D01*
X174169058Y-110092976D01*
X174108033Y-109898245D01*
X174009098Y-109719762D01*
X173876295Y-109564818D01*
X173715049Y-109439743D01*
X173606439Y-109386300D01*
X173537668Y-109352460D01*
X173537663Y-109352458D01*
X173531946Y-109349645D01*
X173525773Y-109348037D01*
X173525770Y-109348036D01*
X173374017Y-109308508D01*
X173334467Y-109298206D01*
X173232572Y-109292865D01*
X173137058Y-109287859D01*
X173137054Y-109287859D01*
X173130677Y-109287525D01*
X172928903Y-109318041D01*
X172737385Y-109388506D01*
X172563949Y-109496041D01*
X172415677Y-109636254D01*
X172412015Y-109641484D01*
X172412014Y-109641485D01*
X172302292Y-109798185D01*
X172298628Y-109803418D01*
X172217582Y-109990703D01*
X172175851Y-110190460D01*
X172175500Y-110197158D01*
X172175500Y-111654997D01*
X171644500Y-111654997D01*
X171644500Y-110245003D01*
X171635323Y-110154655D01*
X171629703Y-110099324D01*
X171629703Y-110099322D01*
X171629058Y-110092976D01*
X171568033Y-109898245D01*
X171469098Y-109719762D01*
X171336295Y-109564818D01*
X171175049Y-109439743D01*
X171066439Y-109386300D01*
X170997668Y-109352460D01*
X170997663Y-109352458D01*
X170991946Y-109349645D01*
X170985773Y-109348037D01*
X170985770Y-109348036D01*
X170834017Y-109308508D01*
X170794467Y-109298206D01*
X170692572Y-109292865D01*
X170597058Y-109287859D01*
X170597054Y-109287859D01*
X170590677Y-109287525D01*
X170388903Y-109318041D01*
X170197385Y-109388506D01*
X170023949Y-109496041D01*
X169875677Y-109636254D01*
X169872015Y-109641484D01*
X169872014Y-109641485D01*
X169762292Y-109798185D01*
X169758628Y-109803418D01*
X169677582Y-109990703D01*
X169635851Y-110190460D01*
X169635500Y-110197158D01*
X169635500Y-111654997D01*
X169104500Y-111654997D01*
X169104500Y-110245003D01*
X169095323Y-110154655D01*
X169089703Y-110099324D01*
X169089703Y-110099322D01*
X169089058Y-110092976D01*
X169028033Y-109898245D01*
X168929098Y-109719762D01*
X168796295Y-109564818D01*
X168635049Y-109439743D01*
X168597070Y-109421055D01*
X168544780Y-109373034D01*
X168526700Y-109308001D01*
X168526700Y-107128935D01*
X168546702Y-107060814D01*
X168563605Y-107039840D01*
X170539840Y-105063605D01*
X170602152Y-105029579D01*
X170628935Y-105026700D01*
X175697190Y-105026700D01*
X175711998Y-105027573D01*
X175743555Y-105031308D01*
X175752817Y-105029616D01*
X175752826Y-105029616D01*
X175798152Y-105021337D01*
X175802060Y-105020686D01*
X175804089Y-105020381D01*
X175856884Y-105012444D01*
X175863048Y-105009484D01*
X175869777Y-105008255D01*
X175919015Y-104982678D01*
X175922531Y-104980921D01*
X175964059Y-104960980D01*
X175964063Y-104960978D01*
X175972550Y-104956902D01*
X175977572Y-104952259D01*
X175983641Y-104949107D01*
X175988419Y-104945026D01*
X176023594Y-104909851D01*
X176027160Y-104906421D01*
X176059856Y-104876197D01*
X176066771Y-104869805D01*
X176070310Y-104863713D01*
X176075269Y-104858176D01*
X177745775Y-103187670D01*
X177808087Y-103153644D01*
X177884604Y-103160996D01*
X177897638Y-103166595D01*
X177897643Y-103166597D01*
X177902953Y-103168878D01*
X178003577Y-103191647D01*
X178103550Y-103214269D01*
X178103553Y-103214269D01*
X178109186Y-103215544D01*
X178114957Y-103215771D01*
X178114959Y-103215771D01*
X178176989Y-103218208D01*
X178320470Y-103223846D01*
X178326179Y-103223018D01*
X178326183Y-103223018D01*
X178524015Y-103194333D01*
X178524019Y-103194332D01*
X178529730Y-103193504D01*
X178625496Y-103160996D01*
X178724483Y-103127395D01*
X178724488Y-103127393D01*
X178729955Y-103125537D01*
X178734998Y-103122713D01*
X178909395Y-103025046D01*
X178909399Y-103025043D01*
X178914442Y-103022219D01*
X179077012Y-102887012D01*
X179212219Y-102724442D01*
X179215043Y-102719399D01*
X179215046Y-102719395D01*
X179312713Y-102544998D01*
X179312714Y-102544996D01*
X179315537Y-102539955D01*
X179317393Y-102534488D01*
X179317395Y-102534483D01*
X179381647Y-102345200D01*
X179383504Y-102339730D01*
X179397242Y-102244982D01*
X179405090Y-102190860D01*
X179434660Y-102126315D01*
X179494432Y-102088003D01*
X179565429Y-102088087D01*
X179625109Y-102126542D01*
X179654525Y-102191158D01*
X179655515Y-102200695D01*
X179658796Y-102250749D01*
X179660217Y-102256345D01*
X179660218Y-102256350D01*
X179682784Y-102345200D01*
X179710845Y-102455690D01*
X179713262Y-102460933D01*
X179747169Y-102534483D01*
X179799369Y-102647714D01*
X179921405Y-102820391D01*
X180072865Y-102967937D01*
X180077661Y-102971142D01*
X180077664Y-102971144D01*
X180191815Y-103047417D01*
X180248677Y-103085411D01*
X180253985Y-103087692D01*
X180253986Y-103087692D01*
X180437650Y-103166600D01*
X180437653Y-103166601D01*
X180442953Y-103168878D01*
X180448582Y-103170152D01*
X180448583Y-103170152D01*
X180643550Y-103214269D01*
X180643553Y-103214269D01*
X180649186Y-103215544D01*
X180654957Y-103215771D01*
X180654959Y-103215771D01*
X180716989Y-103218208D01*
X180860470Y-103223846D01*
X180866179Y-103223018D01*
X180866183Y-103223018D01*
X181064015Y-103194333D01*
X181064019Y-103194332D01*
X181069730Y-103193504D01*
X181165496Y-103160996D01*
X181264483Y-103127395D01*
X181264488Y-103127393D01*
X181269955Y-103125537D01*
X181274998Y-103122713D01*
X181449395Y-103025046D01*
X181449399Y-103025043D01*
X181454442Y-103022219D01*
X181617012Y-102887012D01*
X181752219Y-102724442D01*
X181755043Y-102719399D01*
X181755046Y-102719395D01*
X181852713Y-102544998D01*
X181852714Y-102544996D01*
X181855537Y-102539955D01*
X181857393Y-102534488D01*
X181857395Y-102534483D01*
X181921647Y-102345200D01*
X181923504Y-102339730D01*
X181937243Y-102244981D01*
X181953314Y-102134140D01*
X181953314Y-102134138D01*
X181953846Y-102130470D01*
X181955429Y-102070000D01*
X181936081Y-101859440D01*
X181878686Y-101655931D01*
X181867553Y-101633354D01*
X181787719Y-101471469D01*
X181785165Y-101466290D01*
X181658651Y-101296867D01*
X181503381Y-101153337D01*
X181324554Y-101040505D01*
X181128160Y-100962152D01*
X181122503Y-100961027D01*
X181122497Y-100961025D01*
X180926442Y-100922028D01*
X180926440Y-100922028D01*
X180920775Y-100920901D01*
X180915000Y-100920825D01*
X180914996Y-100920825D01*
X180808976Y-100919437D01*
X180709346Y-100918133D01*
X180703649Y-100919112D01*
X180703648Y-100919112D01*
X180506650Y-100952962D01*
X180506649Y-100952962D01*
X180500953Y-100953941D01*
X180302575Y-101027127D01*
X180297614Y-101030079D01*
X180297613Y-101030079D01*
X180160254Y-101111799D01*
X180120856Y-101135238D01*
X179961881Y-101274655D01*
X179830976Y-101440708D01*
X179828287Y-101445819D01*
X179828285Y-101445822D01*
X179814792Y-101471469D01*
X179732523Y-101627836D01*
X179669820Y-101829773D01*
X179669141Y-101835510D01*
X179655088Y-101954239D01*
X179627217Y-102019537D01*
X179568469Y-102059401D01*
X179497494Y-102061174D01*
X179436828Y-102024295D01*
X179405730Y-101960471D01*
X179404490Y-101950958D01*
X179396610Y-101865197D01*
X179396081Y-101859440D01*
X179338686Y-101655931D01*
X179327553Y-101633354D01*
X179247719Y-101471469D01*
X179245165Y-101466290D01*
X179118651Y-101296867D01*
X178963381Y-101153337D01*
X178784554Y-101040505D01*
X178588160Y-100962152D01*
X178582503Y-100961027D01*
X178582497Y-100961025D01*
X178386442Y-100922028D01*
X178386440Y-100922028D01*
X178380775Y-100920901D01*
X178375000Y-100920825D01*
X178374996Y-100920825D01*
X178268976Y-100919437D01*
X178169346Y-100918133D01*
X178163649Y-100919112D01*
X178163648Y-100919112D01*
X177966650Y-100952962D01*
X177966649Y-100952962D01*
X177960953Y-100953941D01*
X177762575Y-101027127D01*
X177757614Y-101030079D01*
X177757613Y-101030079D01*
X177620254Y-101111799D01*
X177580856Y-101135238D01*
X177421881Y-101274655D01*
X177290976Y-101440708D01*
X177288287Y-101445819D01*
X177288285Y-101445822D01*
X177274792Y-101471469D01*
X177192523Y-101627836D01*
X177129820Y-101829773D01*
X177129141Y-101835510D01*
X177115088Y-101954239D01*
X177087217Y-102019537D01*
X177028469Y-102059401D01*
X176957494Y-102061174D01*
X176896828Y-102024295D01*
X176865730Y-101960471D01*
X176864490Y-101950958D01*
X176856610Y-101865197D01*
X176856081Y-101859440D01*
X176798686Y-101655931D01*
X176787553Y-101633354D01*
X176707719Y-101471469D01*
X176705165Y-101466290D01*
X176578651Y-101296867D01*
X176423381Y-101153337D01*
X176244554Y-101040505D01*
X176048160Y-100962152D01*
X176042503Y-100961027D01*
X176042497Y-100961025D01*
X175846442Y-100922028D01*
X175846440Y-100922028D01*
X175840775Y-100920901D01*
X175835000Y-100920825D01*
X175834996Y-100920825D01*
X175728976Y-100919437D01*
X175629346Y-100918133D01*
X175623649Y-100919112D01*
X175623648Y-100919112D01*
X175426650Y-100952962D01*
X175426649Y-100952962D01*
X175420953Y-100953941D01*
X175222575Y-101027127D01*
X175217614Y-101030079D01*
X175217613Y-101030079D01*
X175080254Y-101111799D01*
X175040856Y-101135238D01*
X174881881Y-101274655D01*
X174750976Y-101440708D01*
X174748287Y-101445819D01*
X174748285Y-101445822D01*
X174734792Y-101471469D01*
X174652523Y-101627836D01*
X174589820Y-101829773D01*
X174589141Y-101835510D01*
X174575088Y-101954239D01*
X174547217Y-102019537D01*
X174488469Y-102059401D01*
X174417494Y-102061174D01*
X174356828Y-102024295D01*
X174325730Y-101960471D01*
X174324490Y-101950958D01*
X174316610Y-101865197D01*
X174316081Y-101859440D01*
X174258686Y-101655931D01*
X174247553Y-101633354D01*
X174167719Y-101471469D01*
X174165165Y-101466290D01*
X174038651Y-101296867D01*
X173883381Y-101153337D01*
X173704554Y-101040505D01*
X173508160Y-100962152D01*
X173502503Y-100961027D01*
X173502497Y-100961025D01*
X173306442Y-100922028D01*
X173306440Y-100922028D01*
X173300775Y-100920901D01*
X173295000Y-100920825D01*
X173294996Y-100920825D01*
X173188976Y-100919437D01*
X173089346Y-100918133D01*
X173083649Y-100919112D01*
X173083648Y-100919112D01*
X172886650Y-100952962D01*
X172886649Y-100952962D01*
X172880953Y-100953941D01*
X172682575Y-101027127D01*
X172677614Y-101030079D01*
X172677613Y-101030079D01*
X172654913Y-101043584D01*
X172572387Y-101092682D01*
X172570595Y-101093748D01*
X172501825Y-101111388D01*
X172434434Y-101089047D01*
X172389821Y-101033820D01*
X172382147Y-100963239D01*
X172417077Y-100896368D01*
X174649840Y-98663605D01*
X174712152Y-98629579D01*
X174738935Y-98626700D01*
X185999093Y-98626700D01*
X186067214Y-98646702D01*
X186113519Y-98699949D01*
X186136758Y-98750358D01*
X186149369Y-98777714D01*
X186271405Y-98950391D01*
X186275539Y-98954418D01*
X186384152Y-99060224D01*
X186422865Y-99097937D01*
X186427661Y-99101142D01*
X186427664Y-99101144D01*
X186570936Y-99196875D01*
X186598677Y-99215411D01*
X186603985Y-99217692D01*
X186603986Y-99217692D01*
X186787650Y-99296600D01*
X186787653Y-99296601D01*
X186792953Y-99298878D01*
X186798582Y-99300152D01*
X186798583Y-99300152D01*
X186993550Y-99344269D01*
X186993553Y-99344269D01*
X186999186Y-99345544D01*
X187004957Y-99345771D01*
X187004959Y-99345771D01*
X187066989Y-99348208D01*
X187210470Y-99353846D01*
X187216179Y-99353018D01*
X187216183Y-99353018D01*
X187414015Y-99324333D01*
X187414019Y-99324332D01*
X187419730Y-99323504D01*
X187498987Y-99296600D01*
X187614483Y-99257395D01*
X187614488Y-99257393D01*
X187619955Y-99255537D01*
X187624998Y-99252713D01*
X187799395Y-99155046D01*
X187799399Y-99155043D01*
X187804442Y-99152219D01*
X187967012Y-99017012D01*
X188102219Y-98854442D01*
X188193676Y-98691134D01*
X188244413Y-98641472D01*
X188303610Y-98626700D01*
X191942190Y-98626700D01*
X191956998Y-98627573D01*
X191988555Y-98631308D01*
X191988556Y-98631308D01*
X191988446Y-98632238D01*
X192049171Y-98648016D01*
X192091843Y-98690264D01*
X192201164Y-98868659D01*
X192204376Y-98872419D01*
X192204379Y-98872424D01*
X192274409Y-98954418D01*
X192364776Y-99060224D01*
X192368538Y-99063437D01*
X192552576Y-99220621D01*
X192552581Y-99220624D01*
X192556341Y-99223836D01*
X192771141Y-99355466D01*
X192775711Y-99357359D01*
X192775715Y-99357361D01*
X192985601Y-99444298D01*
X193003889Y-99451873D01*
X193088289Y-99472135D01*
X193244039Y-99509528D01*
X193244045Y-99509529D01*
X193248852Y-99510683D01*
X193500000Y-99530449D01*
X193751148Y-99510683D01*
X193755955Y-99509529D01*
X193755961Y-99509528D01*
X193911711Y-99472135D01*
X193996111Y-99451873D01*
X194014399Y-99444298D01*
X194224285Y-99357361D01*
X194224289Y-99357359D01*
X194228859Y-99355466D01*
X194443659Y-99223836D01*
X194447419Y-99220624D01*
X194447424Y-99220621D01*
X194631462Y-99063437D01*
X194635224Y-99060224D01*
X194725591Y-98954418D01*
X194795621Y-98872424D01*
X194795624Y-98872419D01*
X194798836Y-98868659D01*
X194930466Y-98653859D01*
X194932887Y-98648016D01*
X195024979Y-98425684D01*
X195024980Y-98425682D01*
X195026873Y-98421111D01*
X195053366Y-98310758D01*
X195084528Y-98180961D01*
X195084529Y-98180955D01*
X195085683Y-98176148D01*
X195100500Y-97987882D01*
X195100500Y-97861698D01*
X197867000Y-97861698D01*
X197867193Y-97866624D01*
X197881729Y-98051313D01*
X197883272Y-98061060D01*
X197940967Y-98301373D01*
X197944016Y-98310758D01*
X198038592Y-98539085D01*
X198043073Y-98547879D01*
X198172208Y-98758608D01*
X198178001Y-98766581D01*
X198338516Y-98954520D01*
X198345480Y-98961484D01*
X198533419Y-99121999D01*
X198541392Y-99127792D01*
X198752121Y-99256927D01*
X198760915Y-99261408D01*
X198989242Y-99355984D01*
X198998627Y-99359033D01*
X199233608Y-99415447D01*
X199243029Y-99413469D01*
X199246000Y-99402002D01*
X199246000Y-99399945D01*
X199754000Y-99399945D01*
X199758344Y-99414738D01*
X199764681Y-99415858D01*
X200001373Y-99359033D01*
X200010758Y-99355984D01*
X200239085Y-99261408D01*
X200247879Y-99256927D01*
X200458608Y-99127792D01*
X200466581Y-99121999D01*
X200654520Y-98961484D01*
X200661484Y-98954520D01*
X200821999Y-98766581D01*
X200827792Y-98758608D01*
X200956927Y-98547879D01*
X200961408Y-98539085D01*
X201055984Y-98310758D01*
X201059033Y-98301373D01*
X201116728Y-98061060D01*
X201118271Y-98051313D01*
X201132807Y-97866624D01*
X201133000Y-97861698D01*
X201133000Y-96947115D01*
X201128525Y-96931876D01*
X201127135Y-96930671D01*
X201119452Y-96929000D01*
X199772115Y-96929000D01*
X199756876Y-96933475D01*
X199755671Y-96934865D01*
X199754000Y-96942548D01*
X199754000Y-99399945D01*
X199246000Y-99399945D01*
X199246000Y-96947115D01*
X199241525Y-96931876D01*
X199240135Y-96930671D01*
X199232452Y-96929000D01*
X197885115Y-96929000D01*
X197869876Y-96933475D01*
X197868671Y-96934865D01*
X197867000Y-96942548D01*
X197867000Y-97861698D01*
X195100500Y-97861698D01*
X195100500Y-96402885D01*
X197867000Y-96402885D01*
X197871475Y-96418124D01*
X197872865Y-96419329D01*
X197880548Y-96421000D01*
X199227885Y-96421000D01*
X199243124Y-96416525D01*
X199244329Y-96415135D01*
X199246000Y-96407452D01*
X199246000Y-96402885D01*
X199754000Y-96402885D01*
X199758475Y-96418124D01*
X199759865Y-96419329D01*
X199767548Y-96421000D01*
X201114885Y-96421000D01*
X201130124Y-96416525D01*
X201131329Y-96415135D01*
X201133000Y-96407452D01*
X201133000Y-95488303D01*
X201132807Y-95483376D01*
X201118271Y-95298687D01*
X201116728Y-95288940D01*
X201059033Y-95048627D01*
X201055984Y-95039242D01*
X200961408Y-94810915D01*
X200956927Y-94802121D01*
X200827792Y-94591392D01*
X200821999Y-94583419D01*
X200661484Y-94395480D01*
X200654520Y-94388516D01*
X200466581Y-94228001D01*
X200458608Y-94222208D01*
X200247879Y-94093073D01*
X200239085Y-94088592D01*
X200010758Y-93994016D01*
X200001373Y-93990967D01*
X199766392Y-93934553D01*
X199756971Y-93936531D01*
X199754000Y-93947998D01*
X199754000Y-96402885D01*
X199246000Y-96402885D01*
X199246000Y-93950055D01*
X199241656Y-93935262D01*
X199235319Y-93934142D01*
X198998627Y-93990967D01*
X198989242Y-93994016D01*
X198760915Y-94088592D01*
X198752121Y-94093073D01*
X198541392Y-94222208D01*
X198533419Y-94228001D01*
X198345480Y-94388516D01*
X198338516Y-94395480D01*
X198178001Y-94583419D01*
X198172208Y-94591392D01*
X198043073Y-94802121D01*
X198038592Y-94810915D01*
X197944016Y-95039242D01*
X197940967Y-95048627D01*
X197883272Y-95288940D01*
X197881729Y-95298687D01*
X197867193Y-95483376D01*
X197867000Y-95488303D01*
X197867000Y-96402885D01*
X195100500Y-96402885D01*
X195100500Y-95362118D01*
X195099637Y-95351144D01*
X195089428Y-95221436D01*
X195085683Y-95173852D01*
X195070596Y-95111007D01*
X195047135Y-95013289D01*
X195026873Y-94928889D01*
X195024979Y-94924316D01*
X194932361Y-94700715D01*
X194932359Y-94700711D01*
X194930466Y-94696141D01*
X194798836Y-94481341D01*
X194795624Y-94477581D01*
X194795621Y-94477576D01*
X194638437Y-94293538D01*
X194635224Y-94289776D01*
X194601110Y-94260640D01*
X194447424Y-94129379D01*
X194447419Y-94129376D01*
X194443659Y-94126164D01*
X194228859Y-93994534D01*
X194224289Y-93992641D01*
X194224285Y-93992639D01*
X194000684Y-93900021D01*
X194000682Y-93900020D01*
X193996111Y-93898127D01*
X193865066Y-93866666D01*
X193755961Y-93840472D01*
X193755955Y-93840471D01*
X193751148Y-93839317D01*
X193500000Y-93819551D01*
X193248852Y-93839317D01*
X193244045Y-93840471D01*
X193244039Y-93840472D01*
X193134934Y-93866666D01*
X193003889Y-93898127D01*
X192999318Y-93900020D01*
X192999316Y-93900021D01*
X192775715Y-93992639D01*
X192775711Y-93992641D01*
X192771141Y-93994534D01*
X192556341Y-94126164D01*
X192552581Y-94129376D01*
X192552576Y-94129379D01*
X192398890Y-94260640D01*
X192364776Y-94289776D01*
X192361563Y-94293538D01*
X192204379Y-94477576D01*
X192204376Y-94477581D01*
X192201164Y-94481341D01*
X192069534Y-94696141D01*
X192067641Y-94700711D01*
X192067639Y-94700715D01*
X191975021Y-94924316D01*
X191973127Y-94928889D01*
X191952865Y-95013289D01*
X191929405Y-95111007D01*
X191914317Y-95173852D01*
X191910572Y-95221436D01*
X191900364Y-95351144D01*
X191899500Y-95362118D01*
X191899500Y-97619865D01*
X191879498Y-97687986D01*
X191862595Y-97708960D01*
X191835160Y-97736395D01*
X191772848Y-97770421D01*
X191746065Y-97773300D01*
X188300809Y-97773300D01*
X188232688Y-97753298D01*
X188187803Y-97703029D01*
X188137719Y-97601469D01*
X188135165Y-97596290D01*
X188008651Y-97426867D01*
X187853381Y-97283337D01*
X187820014Y-97262284D01*
X187679434Y-97173584D01*
X187679433Y-97173584D01*
X187674554Y-97170505D01*
X187631251Y-97153229D01*
X187631091Y-97153165D01*
X187575232Y-97109343D01*
X187551932Y-97042279D01*
X187568588Y-96973264D01*
X187624532Y-96921940D01*
X187801511Y-96839414D01*
X187811006Y-96833931D01*
X187863048Y-96797491D01*
X187871424Y-96787012D01*
X187864356Y-96773566D01*
X187162812Y-96072022D01*
X187148868Y-96064408D01*
X187147035Y-96064539D01*
X187140420Y-96068790D01*
X186434923Y-96774287D01*
X186428493Y-96786062D01*
X186437789Y-96798077D01*
X186488994Y-96833931D01*
X186498489Y-96839414D01*
X186672942Y-96920762D01*
X186726227Y-96967679D01*
X186745688Y-97035956D01*
X186725146Y-97103916D01*
X186671124Y-97149982D01*
X186663305Y-97153168D01*
X186657994Y-97155127D01*
X186657986Y-97155131D01*
X186652575Y-97157127D01*
X186647614Y-97160079D01*
X186647613Y-97160079D01*
X186630089Y-97170505D01*
X186470856Y-97265238D01*
X186311881Y-97404655D01*
X186180976Y-97570708D01*
X186178287Y-97575819D01*
X186178285Y-97575822D01*
X186109812Y-97705968D01*
X186060393Y-97756940D01*
X185998304Y-97773300D01*
X174542803Y-97773300D01*
X174527993Y-97772427D01*
X174505798Y-97769800D01*
X174496445Y-97768693D01*
X174487181Y-97770385D01*
X174487178Y-97770385D01*
X174441878Y-97778658D01*
X174437975Y-97779308D01*
X174392425Y-97786156D01*
X174392422Y-97786157D01*
X174383116Y-97787556D01*
X174376951Y-97790516D01*
X174370223Y-97791745D01*
X174320985Y-97817322D01*
X174317469Y-97819079D01*
X174275941Y-97839020D01*
X174275937Y-97839022D01*
X174267450Y-97843098D01*
X174262428Y-97847741D01*
X174256359Y-97850893D01*
X174251581Y-97854974D01*
X174216406Y-97890149D01*
X174212841Y-97893578D01*
X174173229Y-97930195D01*
X174169690Y-97936287D01*
X174164731Y-97941824D01*
X171152834Y-100953721D01*
X171090522Y-100987747D01*
X171017050Y-100981657D01*
X170968160Y-100962152D01*
X170962503Y-100961027D01*
X170962497Y-100961025D01*
X170766442Y-100922028D01*
X170766440Y-100922028D01*
X170760775Y-100920901D01*
X170755000Y-100920825D01*
X170754996Y-100920825D01*
X170648976Y-100919437D01*
X170549346Y-100918133D01*
X170543649Y-100919112D01*
X170543648Y-100919112D01*
X170346650Y-100952962D01*
X170346649Y-100952962D01*
X170340953Y-100953941D01*
X170260614Y-100983580D01*
X170189781Y-100988392D01*
X170127908Y-100954463D01*
X167144923Y-97971478D01*
X167135068Y-97960388D01*
X167121230Y-97942834D01*
X167121226Y-97942830D01*
X167115396Y-97935435D01*
X167069685Y-97903843D01*
X167066562Y-97901610D01*
X167021921Y-97868638D01*
X167015471Y-97866373D01*
X167009843Y-97862483D01*
X167000868Y-97859645D01*
X167000863Y-97859642D01*
X166956954Y-97845756D01*
X166953213Y-97844508D01*
X166937584Y-97839020D01*
X166909745Y-97829243D01*
X166909742Y-97829242D01*
X166900859Y-97826123D01*
X166894023Y-97825854D01*
X166887505Y-97823793D01*
X166881241Y-97823300D01*
X166831480Y-97823300D01*
X166826534Y-97823203D01*
X166826256Y-97823192D01*
X166772648Y-97821086D01*
X166765837Y-97822892D01*
X166758422Y-97823300D01*
X144210818Y-97823300D01*
X144142697Y-97803298D01*
X144096204Y-97749642D01*
X144086100Y-97679368D01*
X144115594Y-97614788D01*
X144130248Y-97600426D01*
X144228085Y-97519055D01*
X144228086Y-97519054D01*
X144232518Y-97515368D01*
X144373602Y-97345734D01*
X144481410Y-97153229D01*
X144483266Y-97147762D01*
X144483268Y-97147757D01*
X144550475Y-96949771D01*
X144550476Y-96949766D01*
X144552331Y-96944302D01*
X144553159Y-96938593D01*
X144553160Y-96938588D01*
X144583458Y-96729622D01*
X144583991Y-96725948D01*
X144585643Y-96662850D01*
X144565454Y-96443139D01*
X144557337Y-96414356D01*
X144507134Y-96236350D01*
X144505565Y-96230786D01*
X144427271Y-96072022D01*
X144410535Y-96038084D01*
X144407980Y-96032903D01*
X144275967Y-95856117D01*
X144140679Y-95731058D01*
X144118189Y-95710268D01*
X144118186Y-95710266D01*
X144113949Y-95706349D01*
X143927350Y-95588614D01*
X143724955Y-95507867D01*
X143669096Y-95464046D01*
X143645795Y-95396982D01*
X143662451Y-95327967D01*
X143713775Y-95278913D01*
X143731144Y-95271524D01*
X143864907Y-95226118D01*
X143864912Y-95226116D01*
X143870379Y-95224260D01*
X143905810Y-95204418D01*
X143968983Y-95169039D01*
X144062884Y-95116452D01*
X144077325Y-95104442D01*
X144218590Y-94986952D01*
X144232518Y-94975368D01*
X144290334Y-94905852D01*
X144369908Y-94810176D01*
X144369910Y-94810173D01*
X144373602Y-94805734D01*
X144470735Y-94632291D01*
X144478586Y-94618272D01*
X144478587Y-94618270D01*
X144481410Y-94613229D01*
X144483266Y-94607762D01*
X144483268Y-94607757D01*
X144550475Y-94409771D01*
X144550476Y-94409766D01*
X144552331Y-94404302D01*
X144553159Y-94398593D01*
X144553160Y-94398588D01*
X144577042Y-94233876D01*
X144583991Y-94185948D01*
X144585643Y-94122850D01*
X144568598Y-93937350D01*
X144565983Y-93908892D01*
X144565982Y-93908888D01*
X144565454Y-93903139D01*
X144563888Y-93897588D01*
X144563887Y-93897580D01*
X144553218Y-93859750D01*
X144553980Y-93788757D01*
X144593002Y-93729446D01*
X144657895Y-93700647D01*
X144674488Y-93699550D01*
X159366054Y-93699550D01*
X159434175Y-93719552D01*
X159480668Y-93773208D01*
X159490772Y-93843482D01*
X159477562Y-93884217D01*
X159412523Y-94007836D01*
X159349820Y-94209773D01*
X159324967Y-94419754D01*
X159338796Y-94630749D01*
X159340217Y-94636345D01*
X159340218Y-94636350D01*
X159361571Y-94720426D01*
X159390845Y-94835690D01*
X159393262Y-94840933D01*
X159460963Y-94987789D01*
X159479369Y-95027714D01*
X159601405Y-95200391D01*
X159665238Y-95262574D01*
X159740193Y-95335592D01*
X159752865Y-95347937D01*
X159757661Y-95351142D01*
X159757664Y-95351144D01*
X159889131Y-95438987D01*
X159928677Y-95465411D01*
X159933985Y-95467692D01*
X159933986Y-95467692D01*
X160117650Y-95546600D01*
X160117653Y-95546601D01*
X160122953Y-95548878D01*
X160128582Y-95550152D01*
X160128583Y-95550152D01*
X160323550Y-95594269D01*
X160323553Y-95594269D01*
X160329186Y-95595544D01*
X160334957Y-95595771D01*
X160334959Y-95595771D01*
X160396989Y-95598208D01*
X160540470Y-95603846D01*
X160546179Y-95603018D01*
X160546183Y-95603018D01*
X160744015Y-95574333D01*
X160744019Y-95574332D01*
X160749730Y-95573504D01*
X160837038Y-95543867D01*
X160944483Y-95507395D01*
X160944488Y-95507393D01*
X160949955Y-95505537D01*
X160967938Y-95495466D01*
X161129395Y-95405046D01*
X161129399Y-95405043D01*
X161134442Y-95402219D01*
X161297012Y-95267012D01*
X161432219Y-95104442D01*
X161435043Y-95099399D01*
X161435046Y-95099395D01*
X161532713Y-94924998D01*
X161532714Y-94924996D01*
X161535537Y-94919955D01*
X161537393Y-94914488D01*
X161537395Y-94914483D01*
X161601647Y-94725200D01*
X161603504Y-94719730D01*
X161606261Y-94700715D01*
X161625090Y-94570860D01*
X161654660Y-94506315D01*
X161714432Y-94468003D01*
X161785429Y-94468087D01*
X161845109Y-94506542D01*
X161874525Y-94571158D01*
X161875515Y-94580695D01*
X161878796Y-94630749D01*
X161880217Y-94636345D01*
X161880218Y-94636350D01*
X161901571Y-94720426D01*
X161930845Y-94835690D01*
X161933262Y-94840933D01*
X162000963Y-94987789D01*
X162019369Y-95027714D01*
X162141405Y-95200391D01*
X162205238Y-95262574D01*
X162280193Y-95335592D01*
X162292865Y-95347937D01*
X162297661Y-95351142D01*
X162297664Y-95351144D01*
X162429131Y-95438987D01*
X162468677Y-95465411D01*
X162473985Y-95467692D01*
X162473986Y-95467692D01*
X162657650Y-95546600D01*
X162657653Y-95546601D01*
X162662953Y-95548878D01*
X162668582Y-95550152D01*
X162668583Y-95550152D01*
X162863550Y-95594269D01*
X162863553Y-95594269D01*
X162869186Y-95595544D01*
X162874957Y-95595771D01*
X162874959Y-95595771D01*
X162936989Y-95598208D01*
X163080470Y-95603846D01*
X163086179Y-95603018D01*
X163086183Y-95603018D01*
X163284015Y-95574333D01*
X163284019Y-95574332D01*
X163289730Y-95573504D01*
X163377038Y-95543867D01*
X163484483Y-95507395D01*
X163484488Y-95507393D01*
X163489955Y-95505537D01*
X163507938Y-95495466D01*
X163669395Y-95405046D01*
X163669399Y-95405043D01*
X163674442Y-95402219D01*
X163837012Y-95267012D01*
X163972219Y-95104442D01*
X163975043Y-95099399D01*
X163975046Y-95099395D01*
X164072713Y-94924998D01*
X164072714Y-94924996D01*
X164075537Y-94919955D01*
X164077393Y-94914488D01*
X164077395Y-94914483D01*
X164141647Y-94725200D01*
X164143504Y-94719730D01*
X164146261Y-94700715D01*
X164165090Y-94570860D01*
X164194660Y-94506315D01*
X164254432Y-94468003D01*
X164325429Y-94468087D01*
X164385109Y-94506542D01*
X164414525Y-94571158D01*
X164415515Y-94580695D01*
X164418796Y-94630749D01*
X164420217Y-94636345D01*
X164420218Y-94636350D01*
X164441571Y-94720426D01*
X164470845Y-94835690D01*
X164473262Y-94840933D01*
X164540963Y-94987789D01*
X164559369Y-95027714D01*
X164681405Y-95200391D01*
X164745238Y-95262574D01*
X164820193Y-95335592D01*
X164832865Y-95347937D01*
X164837661Y-95351142D01*
X164837664Y-95351144D01*
X164969131Y-95438987D01*
X165008677Y-95465411D01*
X165013985Y-95467692D01*
X165013986Y-95467692D01*
X165197650Y-95546600D01*
X165197653Y-95546601D01*
X165202953Y-95548878D01*
X165208582Y-95550152D01*
X165208583Y-95550152D01*
X165403550Y-95594269D01*
X165403553Y-95594269D01*
X165409186Y-95595544D01*
X165414957Y-95595771D01*
X165414959Y-95595771D01*
X165476989Y-95598208D01*
X165620470Y-95603846D01*
X165626179Y-95603018D01*
X165626183Y-95603018D01*
X165824015Y-95574333D01*
X165824019Y-95574332D01*
X165829730Y-95573504D01*
X165917038Y-95543867D01*
X166024483Y-95507395D01*
X166024488Y-95507393D01*
X166029955Y-95505537D01*
X166047938Y-95495466D01*
X166209395Y-95405046D01*
X166209399Y-95405043D01*
X166214442Y-95402219D01*
X166377012Y-95267012D01*
X166512219Y-95104442D01*
X166515043Y-95099399D01*
X166515046Y-95099395D01*
X166612713Y-94924998D01*
X166612714Y-94924996D01*
X166615537Y-94919955D01*
X166617393Y-94914488D01*
X166617395Y-94914483D01*
X166681647Y-94725200D01*
X166683504Y-94719730D01*
X166686261Y-94700715D01*
X166705090Y-94570860D01*
X166734660Y-94506315D01*
X166794432Y-94468003D01*
X166865429Y-94468087D01*
X166925109Y-94506542D01*
X166954525Y-94571158D01*
X166955515Y-94580695D01*
X166958796Y-94630749D01*
X166960217Y-94636345D01*
X166960218Y-94636350D01*
X166981571Y-94720426D01*
X167010845Y-94835690D01*
X167013262Y-94840933D01*
X167080963Y-94987789D01*
X167099369Y-95027714D01*
X167221405Y-95200391D01*
X167285238Y-95262574D01*
X167360193Y-95335592D01*
X167372865Y-95347937D01*
X167377661Y-95351142D01*
X167377664Y-95351144D01*
X167509131Y-95438987D01*
X167548677Y-95465411D01*
X167553985Y-95467692D01*
X167553986Y-95467692D01*
X167737650Y-95546600D01*
X167737653Y-95546601D01*
X167742953Y-95548878D01*
X167748582Y-95550152D01*
X167748583Y-95550152D01*
X167943550Y-95594269D01*
X167943553Y-95594269D01*
X167949186Y-95595544D01*
X167954957Y-95595771D01*
X167954959Y-95595771D01*
X168016989Y-95598208D01*
X168160470Y-95603846D01*
X168166179Y-95603018D01*
X168166183Y-95603018D01*
X168364015Y-95574333D01*
X168364019Y-95574332D01*
X168369730Y-95573504D01*
X168457038Y-95543867D01*
X168564483Y-95507395D01*
X168564488Y-95507393D01*
X168569955Y-95505537D01*
X168587938Y-95495466D01*
X168749395Y-95405046D01*
X168749399Y-95405043D01*
X168754442Y-95402219D01*
X168917012Y-95267012D01*
X169052219Y-95104442D01*
X169055043Y-95099399D01*
X169055046Y-95099395D01*
X169152713Y-94924998D01*
X169152714Y-94924996D01*
X169155537Y-94919955D01*
X169165239Y-94891375D01*
X169206074Y-94833300D01*
X169271827Y-94806521D01*
X169341619Y-94819542D01*
X169393293Y-94868228D01*
X169402952Y-94888783D01*
X169408509Y-94904050D01*
X169500586Y-95101511D01*
X169506069Y-95111007D01*
X169631028Y-95289467D01*
X169638084Y-95297875D01*
X169792125Y-95451916D01*
X169800533Y-95458972D01*
X169978993Y-95583931D01*
X169988489Y-95589414D01*
X170185947Y-95681490D01*
X170196239Y-95685236D01*
X170368503Y-95731394D01*
X170382599Y-95731058D01*
X170386000Y-95723116D01*
X170386000Y-95717967D01*
X170894000Y-95717967D01*
X170897973Y-95731498D01*
X170906522Y-95732727D01*
X171008228Y-95705475D01*
X185837483Y-95705475D01*
X185856472Y-95922519D01*
X185858375Y-95933312D01*
X185914764Y-96143761D01*
X185918510Y-96154053D01*
X186010586Y-96351511D01*
X186016069Y-96361006D01*
X186052509Y-96413048D01*
X186062988Y-96421424D01*
X186076434Y-96414356D01*
X186777978Y-95712812D01*
X186784356Y-95701132D01*
X187514408Y-95701132D01*
X187514539Y-95702965D01*
X187518790Y-95709580D01*
X188224287Y-96415077D01*
X188236062Y-96421507D01*
X188248077Y-96412211D01*
X188283931Y-96361006D01*
X188289414Y-96351511D01*
X188381490Y-96154053D01*
X188385236Y-96143761D01*
X188441625Y-95933312D01*
X188443528Y-95922519D01*
X188462517Y-95705475D01*
X188462517Y-95694525D01*
X188443528Y-95477481D01*
X188441625Y-95466688D01*
X188385236Y-95256239D01*
X188381490Y-95245947D01*
X188289414Y-95048489D01*
X188283931Y-95038994D01*
X188247491Y-94986952D01*
X188237012Y-94978576D01*
X188223566Y-94985644D01*
X187522022Y-95687188D01*
X187514408Y-95701132D01*
X186784356Y-95701132D01*
X186785592Y-95698868D01*
X186785461Y-95697035D01*
X186781210Y-95690420D01*
X186075713Y-94984923D01*
X186063938Y-94978493D01*
X186051923Y-94987789D01*
X186016069Y-95038994D01*
X186010586Y-95048489D01*
X185918510Y-95245947D01*
X185914764Y-95256239D01*
X185858375Y-95466688D01*
X185856472Y-95477481D01*
X185837483Y-95694525D01*
X185837483Y-95705475D01*
X171008228Y-95705475D01*
X171083761Y-95685236D01*
X171094053Y-95681490D01*
X171291511Y-95589414D01*
X171301007Y-95583931D01*
X171479467Y-95458972D01*
X171487875Y-95451916D01*
X171641916Y-95297875D01*
X171648972Y-95289467D01*
X171773931Y-95111007D01*
X171779414Y-95101511D01*
X171871490Y-94904053D01*
X171877119Y-94888587D01*
X171879329Y-94889391D01*
X171911051Y-94837324D01*
X171974904Y-94806288D01*
X172045401Y-94814701D01*
X172100157Y-94859892D01*
X172110252Y-94877788D01*
X172160963Y-94987789D01*
X172179369Y-95027714D01*
X172301405Y-95200391D01*
X172365238Y-95262574D01*
X172440193Y-95335592D01*
X172452865Y-95347937D01*
X172457661Y-95351142D01*
X172457664Y-95351144D01*
X172589131Y-95438987D01*
X172628677Y-95465411D01*
X172633985Y-95467692D01*
X172633986Y-95467692D01*
X172817650Y-95546600D01*
X172817653Y-95546601D01*
X172822953Y-95548878D01*
X172828582Y-95550152D01*
X172828583Y-95550152D01*
X173023550Y-95594269D01*
X173023553Y-95594269D01*
X173029186Y-95595544D01*
X173034957Y-95595771D01*
X173034959Y-95595771D01*
X173096989Y-95598208D01*
X173240470Y-95603846D01*
X173246179Y-95603018D01*
X173246183Y-95603018D01*
X173444015Y-95574333D01*
X173444019Y-95574332D01*
X173449730Y-95573504D01*
X173537038Y-95543867D01*
X173644483Y-95507395D01*
X173644488Y-95507393D01*
X173649955Y-95505537D01*
X173667938Y-95495466D01*
X173829395Y-95405046D01*
X173829399Y-95405043D01*
X173834442Y-95402219D01*
X173997012Y-95267012D01*
X174132219Y-95104442D01*
X174135043Y-95099399D01*
X174135046Y-95099395D01*
X174232713Y-94924998D01*
X174232714Y-94924996D01*
X174235537Y-94919955D01*
X174237393Y-94914488D01*
X174237395Y-94914483D01*
X174301647Y-94725200D01*
X174303504Y-94719730D01*
X174306261Y-94700715D01*
X174325090Y-94570860D01*
X174354660Y-94506315D01*
X174414432Y-94468003D01*
X174485429Y-94468087D01*
X174545109Y-94506542D01*
X174574525Y-94571158D01*
X174575515Y-94580695D01*
X174578796Y-94630749D01*
X174580217Y-94636345D01*
X174580218Y-94636350D01*
X174601571Y-94720426D01*
X174630845Y-94835690D01*
X174633262Y-94840933D01*
X174700963Y-94987789D01*
X174719369Y-95027714D01*
X174841405Y-95200391D01*
X174905238Y-95262574D01*
X174980193Y-95335592D01*
X174992865Y-95347937D01*
X174997661Y-95351142D01*
X174997664Y-95351144D01*
X175129131Y-95438987D01*
X175168677Y-95465411D01*
X175173985Y-95467692D01*
X175173986Y-95467692D01*
X175357650Y-95546600D01*
X175357653Y-95546601D01*
X175362953Y-95548878D01*
X175368582Y-95550152D01*
X175368583Y-95550152D01*
X175563550Y-95594269D01*
X175563553Y-95594269D01*
X175569186Y-95595544D01*
X175574957Y-95595771D01*
X175574959Y-95595771D01*
X175636989Y-95598208D01*
X175780470Y-95603846D01*
X175786179Y-95603018D01*
X175786183Y-95603018D01*
X175984015Y-95574333D01*
X175984019Y-95574332D01*
X175989730Y-95573504D01*
X176077038Y-95543867D01*
X176184483Y-95507395D01*
X176184488Y-95507393D01*
X176189955Y-95505537D01*
X176207938Y-95495466D01*
X176369395Y-95405046D01*
X176369399Y-95405043D01*
X176374442Y-95402219D01*
X176537012Y-95267012D01*
X176672219Y-95104442D01*
X176675043Y-95099399D01*
X176675046Y-95099395D01*
X176772713Y-94924998D01*
X176772714Y-94924996D01*
X176775537Y-94919955D01*
X176777393Y-94914488D01*
X176777395Y-94914483D01*
X176841647Y-94725200D01*
X176843504Y-94719730D01*
X176846261Y-94700715D01*
X176865090Y-94570860D01*
X176894660Y-94506315D01*
X176954432Y-94468003D01*
X177025429Y-94468087D01*
X177085109Y-94506542D01*
X177114525Y-94571158D01*
X177115515Y-94580695D01*
X177118796Y-94630749D01*
X177120217Y-94636345D01*
X177120218Y-94636350D01*
X177141571Y-94720426D01*
X177170845Y-94835690D01*
X177173262Y-94840933D01*
X177240963Y-94987789D01*
X177259369Y-95027714D01*
X177381405Y-95200391D01*
X177445238Y-95262574D01*
X177520193Y-95335592D01*
X177532865Y-95347937D01*
X177537661Y-95351142D01*
X177537664Y-95351144D01*
X177669131Y-95438987D01*
X177708677Y-95465411D01*
X177713985Y-95467692D01*
X177713986Y-95467692D01*
X177897650Y-95546600D01*
X177897653Y-95546601D01*
X177902953Y-95548878D01*
X177908582Y-95550152D01*
X177908583Y-95550152D01*
X178103550Y-95594269D01*
X178103553Y-95594269D01*
X178109186Y-95595544D01*
X178114957Y-95595771D01*
X178114959Y-95595771D01*
X178176989Y-95598208D01*
X178320470Y-95603846D01*
X178326179Y-95603018D01*
X178326183Y-95603018D01*
X178524015Y-95574333D01*
X178524019Y-95574332D01*
X178529730Y-95573504D01*
X178617038Y-95543867D01*
X178724483Y-95507395D01*
X178724488Y-95507393D01*
X178729955Y-95505537D01*
X178747938Y-95495466D01*
X178909395Y-95405046D01*
X178909399Y-95405043D01*
X178914442Y-95402219D01*
X179077012Y-95267012D01*
X179212219Y-95104442D01*
X179215043Y-95099399D01*
X179215046Y-95099395D01*
X179312713Y-94924998D01*
X179312714Y-94924996D01*
X179315537Y-94919955D01*
X179317393Y-94914488D01*
X179317395Y-94914483D01*
X179381647Y-94725200D01*
X179383504Y-94719730D01*
X179398804Y-94614211D01*
X179428374Y-94549665D01*
X179488146Y-94511353D01*
X179559143Y-94511437D01*
X179618823Y-94549892D01*
X179648239Y-94614508D01*
X179649500Y-94632291D01*
X179649500Y-95283218D01*
X179650170Y-95287768D01*
X179650170Y-95287771D01*
X179658216Y-95342426D01*
X179659642Y-95352112D01*
X179711068Y-95456855D01*
X179793650Y-95539293D01*
X179803006Y-95543866D01*
X179803007Y-95543867D01*
X179813259Y-95548878D01*
X179898482Y-95590536D01*
X179924071Y-95594269D01*
X179962256Y-95599840D01*
X179962260Y-95599840D01*
X179966782Y-95600500D01*
X181633218Y-95600500D01*
X181637768Y-95599830D01*
X181637771Y-95599830D01*
X181692426Y-95591784D01*
X181692427Y-95591784D01*
X181702112Y-95590358D01*
X181752008Y-95565860D01*
X181797507Y-95543522D01*
X181797509Y-95543521D01*
X181806855Y-95538932D01*
X181881445Y-95464212D01*
X181881935Y-95463721D01*
X181881935Y-95463720D01*
X181889293Y-95456350D01*
X181940536Y-95351518D01*
X181948755Y-95295181D01*
X181949840Y-95287744D01*
X181949840Y-95287740D01*
X181950500Y-95283218D01*
X181950500Y-94612988D01*
X186428576Y-94612988D01*
X186435644Y-94626434D01*
X187137188Y-95327978D01*
X187151132Y-95335592D01*
X187152965Y-95335461D01*
X187159580Y-95331210D01*
X187865077Y-94625713D01*
X187871507Y-94613938D01*
X187862211Y-94601923D01*
X187811006Y-94566069D01*
X187801511Y-94560586D01*
X187604053Y-94468510D01*
X187593761Y-94464764D01*
X187383312Y-94408375D01*
X187372519Y-94406472D01*
X187155475Y-94387483D01*
X187144525Y-94387483D01*
X186927481Y-94406472D01*
X186916688Y-94408375D01*
X186706239Y-94464764D01*
X186695947Y-94468510D01*
X186498489Y-94560586D01*
X186488994Y-94566069D01*
X186436952Y-94602509D01*
X186428576Y-94612988D01*
X181950500Y-94612988D01*
X181950500Y-93616782D01*
X181948343Y-93602125D01*
X181941784Y-93557574D01*
X181941784Y-93557573D01*
X181940358Y-93547888D01*
X181902765Y-93471320D01*
X181893522Y-93452493D01*
X181893521Y-93452491D01*
X181888932Y-93443145D01*
X181814095Y-93368438D01*
X181813721Y-93368065D01*
X181813720Y-93368065D01*
X181806350Y-93360707D01*
X181772769Y-93344292D01*
X181755686Y-93335942D01*
X181701518Y-93309464D01*
X181671027Y-93305016D01*
X181637744Y-93300160D01*
X181637740Y-93300160D01*
X181633218Y-93299500D01*
X179966782Y-93299500D01*
X179962232Y-93300170D01*
X179962229Y-93300170D01*
X179907574Y-93308216D01*
X179907573Y-93308216D01*
X179897888Y-93309642D01*
X179847992Y-93334140D01*
X179802493Y-93356478D01*
X179802491Y-93356479D01*
X179793145Y-93361068D01*
X179710707Y-93443650D01*
X179659464Y-93548482D01*
X179658052Y-93558162D01*
X179650412Y-93610533D01*
X179649500Y-93616782D01*
X179649500Y-94249111D01*
X179629498Y-94317232D01*
X179575842Y-94363725D01*
X179505568Y-94373829D01*
X179440988Y-94344335D01*
X179402604Y-94284609D01*
X179398029Y-94260640D01*
X179396610Y-94245197D01*
X179396081Y-94239440D01*
X179338686Y-94035931D01*
X179336129Y-94030744D01*
X179247719Y-93851469D01*
X179245165Y-93846290D01*
X179118651Y-93676867D01*
X178990237Y-93558162D01*
X178967622Y-93537257D01*
X178967620Y-93537255D01*
X178963381Y-93533337D01*
X178867249Y-93472682D01*
X178789434Y-93423584D01*
X178789433Y-93423584D01*
X178784554Y-93420505D01*
X178588160Y-93342152D01*
X178582503Y-93341027D01*
X178582497Y-93341025D01*
X178386442Y-93302028D01*
X178386440Y-93302028D01*
X178380775Y-93300901D01*
X178375000Y-93300825D01*
X178374996Y-93300825D01*
X178268976Y-93299437D01*
X178169346Y-93298133D01*
X178163649Y-93299112D01*
X178163648Y-93299112D01*
X177966650Y-93332962D01*
X177966649Y-93332962D01*
X177960953Y-93333941D01*
X177762575Y-93407127D01*
X177757614Y-93410079D01*
X177757613Y-93410079D01*
X177620254Y-93491799D01*
X177580856Y-93515238D01*
X177421881Y-93654655D01*
X177290976Y-93820708D01*
X177288287Y-93825819D01*
X177288285Y-93825822D01*
X177257562Y-93884218D01*
X177192523Y-94007836D01*
X177129820Y-94209773D01*
X177129141Y-94215510D01*
X177115088Y-94334239D01*
X177087217Y-94399537D01*
X177028469Y-94439401D01*
X176957494Y-94441174D01*
X176896828Y-94404295D01*
X176865730Y-94340471D01*
X176864490Y-94330958D01*
X176860232Y-94284609D01*
X176856081Y-94239440D01*
X176798686Y-94035931D01*
X176796129Y-94030744D01*
X176707719Y-93851469D01*
X176705165Y-93846290D01*
X176578651Y-93676867D01*
X176450237Y-93558162D01*
X176427622Y-93537257D01*
X176427620Y-93537255D01*
X176423381Y-93533337D01*
X176327249Y-93472682D01*
X176249434Y-93423584D01*
X176249433Y-93423584D01*
X176244554Y-93420505D01*
X176048160Y-93342152D01*
X176042503Y-93341027D01*
X176042497Y-93341025D01*
X175846442Y-93302028D01*
X175846440Y-93302028D01*
X175840775Y-93300901D01*
X175835000Y-93300825D01*
X175834996Y-93300825D01*
X175728976Y-93299437D01*
X175629346Y-93298133D01*
X175623649Y-93299112D01*
X175623648Y-93299112D01*
X175426650Y-93332962D01*
X175426649Y-93332962D01*
X175420953Y-93333941D01*
X175222575Y-93407127D01*
X175217614Y-93410079D01*
X175217613Y-93410079D01*
X175080254Y-93491799D01*
X175040856Y-93515238D01*
X174881881Y-93654655D01*
X174750976Y-93820708D01*
X174748287Y-93825819D01*
X174748285Y-93825822D01*
X174717562Y-93884218D01*
X174652523Y-94007836D01*
X174589820Y-94209773D01*
X174589141Y-94215510D01*
X174575088Y-94334239D01*
X174547217Y-94399537D01*
X174488469Y-94439401D01*
X174417494Y-94441174D01*
X174356828Y-94404295D01*
X174325730Y-94340471D01*
X174324490Y-94330958D01*
X174320232Y-94284609D01*
X174316081Y-94239440D01*
X174258686Y-94035931D01*
X174256129Y-94030744D01*
X174167719Y-93851469D01*
X174165165Y-93846290D01*
X174038651Y-93676867D01*
X173910237Y-93558162D01*
X173887622Y-93537257D01*
X173887620Y-93537255D01*
X173883381Y-93533337D01*
X173787249Y-93472682D01*
X173709434Y-93423584D01*
X173709433Y-93423584D01*
X173704554Y-93420505D01*
X173508160Y-93342152D01*
X173502503Y-93341027D01*
X173502497Y-93341025D01*
X173306442Y-93302028D01*
X173306440Y-93302028D01*
X173300775Y-93300901D01*
X173295000Y-93300825D01*
X173294996Y-93300825D01*
X173188976Y-93299437D01*
X173089346Y-93298133D01*
X173083649Y-93299112D01*
X173083648Y-93299112D01*
X172886650Y-93332962D01*
X172886649Y-93332962D01*
X172880953Y-93333941D01*
X172682575Y-93407127D01*
X172677614Y-93410079D01*
X172677613Y-93410079D01*
X172540254Y-93491799D01*
X172500856Y-93515238D01*
X172341881Y-93654655D01*
X172210976Y-93820708D01*
X172208287Y-93825819D01*
X172208285Y-93825822D01*
X172115211Y-94002726D01*
X172115209Y-94002731D01*
X172112523Y-94007836D01*
X172110811Y-94013349D01*
X172110788Y-94013405D01*
X172066240Y-94068686D01*
X171998876Y-94091106D01*
X171930085Y-94073547D01*
X171881707Y-94021585D01*
X171875979Y-94008280D01*
X171871491Y-93995950D01*
X171779414Y-93798489D01*
X171773931Y-93788993D01*
X171648972Y-93610533D01*
X171641916Y-93602125D01*
X171487875Y-93448084D01*
X171479467Y-93441028D01*
X171301007Y-93316069D01*
X171291511Y-93310586D01*
X171094053Y-93218510D01*
X171083761Y-93214764D01*
X170911497Y-93168606D01*
X170897401Y-93168942D01*
X170894000Y-93176884D01*
X170894000Y-95717967D01*
X170386000Y-95717967D01*
X170386000Y-93182033D01*
X170382027Y-93168502D01*
X170373478Y-93167273D01*
X170196239Y-93214764D01*
X170185947Y-93218510D01*
X169988489Y-93310586D01*
X169978993Y-93316069D01*
X169800533Y-93441028D01*
X169792125Y-93448084D01*
X169638084Y-93602125D01*
X169631028Y-93610533D01*
X169506069Y-93788993D01*
X169500586Y-93798489D01*
X169408510Y-93995947D01*
X169403455Y-94009836D01*
X169361361Y-94067007D01*
X169295039Y-94092345D01*
X169225548Y-94077804D01*
X169172048Y-94022470D01*
X169087719Y-93851469D01*
X169085165Y-93846290D01*
X168958651Y-93676867D01*
X168830237Y-93558162D01*
X168807622Y-93537257D01*
X168807620Y-93537255D01*
X168803381Y-93533337D01*
X168707249Y-93472682D01*
X168629434Y-93423584D01*
X168629433Y-93423584D01*
X168624554Y-93420505D01*
X168428160Y-93342152D01*
X168422503Y-93341027D01*
X168422497Y-93341025D01*
X168226442Y-93302028D01*
X168226440Y-93302028D01*
X168220775Y-93300901D01*
X168215000Y-93300825D01*
X168214996Y-93300825D01*
X168108976Y-93299437D01*
X168009346Y-93298133D01*
X168003649Y-93299112D01*
X168003648Y-93299112D01*
X167806650Y-93332962D01*
X167806649Y-93332962D01*
X167800953Y-93333941D01*
X167602575Y-93407127D01*
X167597614Y-93410079D01*
X167597613Y-93410079D01*
X167460254Y-93491799D01*
X167420856Y-93515238D01*
X167261881Y-93654655D01*
X167130976Y-93820708D01*
X167128287Y-93825819D01*
X167128285Y-93825822D01*
X167097562Y-93884218D01*
X167032523Y-94007836D01*
X166969820Y-94209773D01*
X166969141Y-94215510D01*
X166955088Y-94334239D01*
X166927217Y-94399537D01*
X166868469Y-94439401D01*
X166797494Y-94441174D01*
X166736828Y-94404295D01*
X166705730Y-94340471D01*
X166704490Y-94330958D01*
X166700232Y-94284609D01*
X166696081Y-94239440D01*
X166638686Y-94035931D01*
X166636129Y-94030744D01*
X166547719Y-93851469D01*
X166545165Y-93846290D01*
X166418651Y-93676867D01*
X166290237Y-93558162D01*
X166267622Y-93537257D01*
X166267620Y-93537255D01*
X166263381Y-93533337D01*
X166167249Y-93472682D01*
X166089434Y-93423584D01*
X166089433Y-93423584D01*
X166084554Y-93420505D01*
X165888160Y-93342152D01*
X165882503Y-93341027D01*
X165882497Y-93341025D01*
X165686442Y-93302028D01*
X165686440Y-93302028D01*
X165680775Y-93300901D01*
X165675000Y-93300825D01*
X165674996Y-93300825D01*
X165568976Y-93299437D01*
X165469346Y-93298133D01*
X165463649Y-93299112D01*
X165463648Y-93299112D01*
X165266650Y-93332962D01*
X165266649Y-93332962D01*
X165260953Y-93333941D01*
X165187423Y-93361068D01*
X165180614Y-93363580D01*
X165109781Y-93368392D01*
X165047908Y-93334463D01*
X163791723Y-92078278D01*
X193898050Y-92078278D01*
X193934750Y-92318116D01*
X194010129Y-92548739D01*
X194024860Y-92577036D01*
X194106168Y-92733227D01*
X194122163Y-92763954D01*
X194125266Y-92768087D01*
X194125268Y-92768090D01*
X194264052Y-92952933D01*
X194267842Y-92957981D01*
X194443255Y-93125609D01*
X194447527Y-93128523D01*
X194447528Y-93128524D01*
X194579443Y-93218510D01*
X194643691Y-93262337D01*
X194729198Y-93302028D01*
X194859071Y-93362313D01*
X194859075Y-93362314D01*
X194863766Y-93364492D01*
X195097571Y-93429332D01*
X195102708Y-93429881D01*
X195292309Y-93450144D01*
X195292317Y-93450144D01*
X195295644Y-93450500D01*
X197686508Y-93450500D01*
X197689081Y-93450288D01*
X197689092Y-93450288D01*
X197861662Y-93436100D01*
X197861668Y-93436099D01*
X197866813Y-93435676D01*
X197988426Y-93405129D01*
X198097122Y-93377827D01*
X198097126Y-93377826D01*
X198102133Y-93376568D01*
X198106866Y-93374510D01*
X198106869Y-93374509D01*
X198319901Y-93281880D01*
X198319904Y-93281878D01*
X198324638Y-93279820D01*
X198528355Y-93148030D01*
X198532224Y-93144510D01*
X198703989Y-92988215D01*
X198703990Y-92988213D01*
X198707811Y-92984737D01*
X198711010Y-92980686D01*
X198711014Y-92980682D01*
X198854982Y-92798386D01*
X198858187Y-92794328D01*
X198975446Y-92581914D01*
X199028910Y-92430936D01*
X199054711Y-92358077D01*
X199054712Y-92358073D01*
X199056437Y-92353202D01*
X199057345Y-92348106D01*
X199098080Y-92119422D01*
X199098081Y-92119416D01*
X199098986Y-92114333D01*
X199101950Y-91871722D01*
X199065250Y-91631884D01*
X198989871Y-91401261D01*
X198917862Y-91262933D01*
X198880226Y-91190635D01*
X198880225Y-91190634D01*
X198877837Y-91186046D01*
X198871311Y-91177353D01*
X198735263Y-90996154D01*
X198735261Y-90996151D01*
X198732158Y-90992019D01*
X198556745Y-90824391D01*
X198492757Y-90780741D01*
X198360588Y-90690582D01*
X198360589Y-90690582D01*
X198356309Y-90687663D01*
X198217579Y-90623267D01*
X198140929Y-90587687D01*
X198140925Y-90587686D01*
X198136234Y-90585508D01*
X197902429Y-90520668D01*
X197897292Y-90520119D01*
X197707691Y-90499856D01*
X197707683Y-90499856D01*
X197704356Y-90499500D01*
X195313492Y-90499500D01*
X195310919Y-90499712D01*
X195310908Y-90499712D01*
X195138338Y-90513900D01*
X195138332Y-90513901D01*
X195133187Y-90514324D01*
X195015527Y-90543878D01*
X194902878Y-90572173D01*
X194902874Y-90572174D01*
X194897867Y-90573432D01*
X194893134Y-90575490D01*
X194893131Y-90575491D01*
X194680099Y-90668120D01*
X194680096Y-90668122D01*
X194675362Y-90670180D01*
X194471645Y-90801970D01*
X194467822Y-90805449D01*
X194467819Y-90805451D01*
X194296011Y-90961785D01*
X194292189Y-90965263D01*
X194288990Y-90969314D01*
X194288986Y-90969318D01*
X194196933Y-91085878D01*
X194141813Y-91155672D01*
X194024554Y-91368086D01*
X193943563Y-91596798D01*
X193942656Y-91601891D01*
X193942655Y-91601894D01*
X193903958Y-91819141D01*
X193901014Y-91835667D01*
X193900951Y-91840830D01*
X193898520Y-92039840D01*
X193898050Y-92078278D01*
X163791723Y-92078278D01*
X163017773Y-91304328D01*
X163007918Y-91293238D01*
X162994080Y-91275684D01*
X162994076Y-91275680D01*
X162988246Y-91268285D01*
X162942535Y-91236693D01*
X162939412Y-91234460D01*
X162894771Y-91201488D01*
X162888321Y-91199223D01*
X162882693Y-91195333D01*
X162873718Y-91192495D01*
X162873713Y-91192492D01*
X162829804Y-91178606D01*
X162826063Y-91177358D01*
X162810629Y-91171938D01*
X162782595Y-91162093D01*
X162782592Y-91162092D01*
X162773709Y-91158973D01*
X162766873Y-91158704D01*
X162760355Y-91156643D01*
X162754091Y-91156150D01*
X162704330Y-91156150D01*
X162699384Y-91156053D01*
X162699106Y-91156042D01*
X162645498Y-91153936D01*
X162638687Y-91155742D01*
X162631272Y-91156150D01*
X144586562Y-91156150D01*
X144518441Y-91136148D01*
X144473556Y-91085878D01*
X144410535Y-90958084D01*
X144407980Y-90952903D01*
X144295273Y-90801970D01*
X144279420Y-90780741D01*
X144279420Y-90780740D01*
X144275967Y-90776117D01*
X144113949Y-90626349D01*
X143928702Y-90509467D01*
X143928700Y-90509465D01*
X143927350Y-90508614D01*
X143927517Y-90508349D01*
X143878071Y-90461652D01*
X143861002Y-90392738D01*
X143883901Y-90325536D01*
X143931454Y-90284979D01*
X144073095Y-90215589D01*
X144081945Y-90210314D01*
X144255328Y-90086642D01*
X144263200Y-90079989D01*
X144414052Y-89929662D01*
X144420730Y-89921815D01*
X144545003Y-89748870D01*
X144550313Y-89740033D01*
X144644670Y-89549117D01*
X144648469Y-89539522D01*
X144710377Y-89335760D01*
X144712555Y-89325687D01*
X144713986Y-89314812D01*
X144711775Y-89300628D01*
X144698617Y-89296850D01*
X142063225Y-89296850D01*
X142049694Y-89300823D01*
X142048257Y-89310816D01*
X142078565Y-89445296D01*
X142081645Y-89455125D01*
X142161770Y-89652453D01*
X142166413Y-89661644D01*
X142277694Y-89843238D01*
X142283777Y-89851549D01*
X142423213Y-90012517D01*
X142430580Y-90019733D01*
X142594434Y-90155766D01*
X142602881Y-90161681D01*
X142786756Y-90269129D01*
X142796043Y-90273579D01*
X142818682Y-90282224D01*
X142875186Y-90325212D01*
X142899478Y-90391923D01*
X142883847Y-90461178D01*
X142838156Y-90508219D01*
X142704583Y-90587687D01*
X142671341Y-90607464D01*
X142505457Y-90752940D01*
X142368863Y-90926210D01*
X142266131Y-91121470D01*
X142200703Y-91332183D01*
X142174770Y-91551290D01*
X142189200Y-91771454D01*
X142190621Y-91777050D01*
X142190622Y-91777055D01*
X142213366Y-91866608D01*
X142243511Y-91985302D01*
X142245928Y-91990544D01*
X142245928Y-91990545D01*
X142305342Y-92119422D01*
X142335883Y-92185671D01*
X142463222Y-92365852D01*
X142621264Y-92519811D01*
X142626060Y-92523016D01*
X142626063Y-92523018D01*
X142772226Y-92620680D01*
X142804717Y-92642390D01*
X142810020Y-92644668D01*
X142810023Y-92644670D01*
X143002129Y-92727205D01*
X143007436Y-92729485D01*
X143013071Y-92730760D01*
X143013074Y-92730761D01*
X143014484Y-92731080D01*
X143015083Y-92731414D01*
X143018562Y-92732544D01*
X143018340Y-92733227D01*
X143076511Y-92765622D01*
X143110016Y-92828216D01*
X143104362Y-92898987D01*
X143061344Y-92955466D01*
X143030287Y-92972185D01*
X142866376Y-93032654D01*
X142866368Y-93032658D01*
X142860957Y-93034654D01*
X142671341Y-93147464D01*
X142505457Y-93292940D01*
X142368863Y-93466210D01*
X142266131Y-93661470D01*
X142218095Y-93816171D01*
X142204564Y-93859750D01*
X142200703Y-93872183D01*
X142174770Y-94091290D01*
X142189200Y-94311454D01*
X142190621Y-94317050D01*
X142190622Y-94317055D01*
X142239744Y-94510470D01*
X142243511Y-94525302D01*
X142245928Y-94530544D01*
X142245928Y-94530545D01*
X142283935Y-94612988D01*
X142335883Y-94725671D01*
X142463222Y-94905852D01*
X142621264Y-95059811D01*
X142626060Y-95063016D01*
X142626063Y-95063018D01*
X142710261Y-95119277D01*
X142804717Y-95182390D01*
X142810020Y-95184668D01*
X142810023Y-95184670D01*
X142952650Y-95245947D01*
X143007436Y-95269485D01*
X143013071Y-95270760D01*
X143013074Y-95270761D01*
X143014484Y-95271080D01*
X143015083Y-95271414D01*
X143018562Y-95272544D01*
X143018340Y-95273227D01*
X143076511Y-95305622D01*
X143110016Y-95368216D01*
X143104362Y-95438987D01*
X143061344Y-95495466D01*
X143030287Y-95512185D01*
X142866376Y-95572654D01*
X142866368Y-95572658D01*
X142860957Y-95574654D01*
X142855996Y-95577606D01*
X142855995Y-95577606D01*
X142813282Y-95603018D01*
X142671341Y-95687464D01*
X142505457Y-95832940D01*
X142368863Y-96006210D01*
X142266131Y-96201470D01*
X142200703Y-96412183D01*
X142174770Y-96631290D01*
X142175148Y-96637056D01*
X142188052Y-96833931D01*
X142189200Y-96851454D01*
X142190621Y-96857050D01*
X142190622Y-96857055D01*
X142220136Y-96973264D01*
X142243511Y-97065302D01*
X142245928Y-97070544D01*
X142245928Y-97070545D01*
X142282549Y-97149982D01*
X142335883Y-97265671D01*
X142463222Y-97445852D01*
X142621264Y-97599811D01*
X142622387Y-97600562D01*
X142661922Y-97657790D01*
X142664289Y-97728748D01*
X142627919Y-97789720D01*
X142564357Y-97821350D01*
X142542277Y-97823300D01*
X136902700Y-97823300D01*
X136834579Y-97803298D01*
X136788086Y-97749642D01*
X136776700Y-97697300D01*
X136776700Y-92128935D01*
X136796702Y-92060814D01*
X136813605Y-92039840D01*
X141886989Y-86966455D01*
X141949301Y-86932429D01*
X141976084Y-86929550D01*
X142174032Y-86929550D01*
X142242153Y-86949552D01*
X142288458Y-87002799D01*
X142335883Y-87105671D01*
X142463222Y-87285852D01*
X142621264Y-87439811D01*
X142626060Y-87443016D01*
X142626063Y-87443018D01*
X142710258Y-87499275D01*
X142804717Y-87562390D01*
X142810020Y-87564668D01*
X142810023Y-87564670D01*
X142822546Y-87570050D01*
X142877239Y-87615319D01*
X142898776Y-87682970D01*
X142880319Y-87751525D01*
X142830988Y-87797581D01*
X142658463Y-87887392D01*
X142649738Y-87892886D01*
X142479433Y-88020755D01*
X142471726Y-88027598D01*
X142324590Y-88181567D01*
X142318104Y-88189577D01*
X142198098Y-88365499D01*
X142193000Y-88374473D01*
X142103338Y-88567633D01*
X142099775Y-88577320D01*
X142044389Y-88777033D01*
X142045912Y-88785457D01*
X142058292Y-88788850D01*
X144698344Y-88788850D01*
X144711875Y-88784877D01*
X144713180Y-88775797D01*
X144671214Y-88608725D01*
X144667894Y-88598974D01*
X144582972Y-88403664D01*
X144578105Y-88394589D01*
X144462426Y-88215776D01*
X144456136Y-88207607D01*
X144312806Y-88050090D01*
X144305273Y-88043065D01*
X144138139Y-87911072D01*
X144129552Y-87905367D01*
X143943115Y-87802448D01*
X143934687Y-87798660D01*
X143880752Y-87752491D01*
X143860340Y-87684492D01*
X143879932Y-87616252D01*
X143924771Y-87573799D01*
X144057843Y-87499275D01*
X144062884Y-87496452D01*
X144232518Y-87355368D01*
X144373602Y-87185734D01*
X144481410Y-86993229D01*
X144483266Y-86987762D01*
X144483268Y-86987757D01*
X144550475Y-86789771D01*
X144550476Y-86789766D01*
X144552331Y-86784302D01*
X144553159Y-86778593D01*
X144553160Y-86778588D01*
X144583458Y-86569622D01*
X144583991Y-86565948D01*
X144585643Y-86502850D01*
X144565454Y-86283139D01*
X144554092Y-86242850D01*
X144511098Y-86090406D01*
X144505565Y-86070786D01*
X144407980Y-85872903D01*
X144275967Y-85696117D01*
X144113949Y-85546349D01*
X143927350Y-85428614D01*
X143887348Y-85412655D01*
X143871620Y-85406380D01*
X143815760Y-85362559D01*
X143792460Y-85295495D01*
X143809116Y-85226480D01*
X143860440Y-85177426D01*
X143918310Y-85163350D01*
X144263218Y-85163350D01*
X144267768Y-85162680D01*
X144267771Y-85162680D01*
X144322426Y-85154634D01*
X144322427Y-85154634D01*
X144332112Y-85153208D01*
X144426804Y-85106717D01*
X144427507Y-85106372D01*
X144427509Y-85106371D01*
X144436855Y-85101782D01*
X144519293Y-85019200D01*
X144543692Y-84969285D01*
X198044759Y-84969285D01*
X198045003Y-84973720D01*
X198045003Y-84973724D01*
X198058914Y-85226480D01*
X198059938Y-85245087D01*
X198113825Y-85515999D01*
X198205347Y-85776616D01*
X198332678Y-86021737D01*
X198335261Y-86025352D01*
X198335265Y-86025358D01*
X198490687Y-86242850D01*
X198493275Y-86246471D01*
X198683936Y-86446335D01*
X198687431Y-86449091D01*
X198687433Y-86449092D01*
X198840325Y-86569622D01*
X198900856Y-86617341D01*
X198962559Y-86653181D01*
X199135853Y-86753839D01*
X199135859Y-86753842D01*
X199139707Y-86756077D01*
X199395723Y-86859774D01*
X199400036Y-86860845D01*
X199400041Y-86860847D01*
X199659475Y-86925291D01*
X199659480Y-86925292D01*
X199663796Y-86926364D01*
X199668224Y-86926818D01*
X199668226Y-86926818D01*
X199722992Y-86932429D01*
X199899370Y-86950500D01*
X200070362Y-86950500D01*
X200275530Y-86935973D01*
X200279885Y-86935035D01*
X200279888Y-86935035D01*
X200541215Y-86878773D01*
X200541217Y-86878773D01*
X200545562Y-86877837D01*
X200804709Y-86782233D01*
X200853185Y-86756077D01*
X201043884Y-86653181D01*
X201047800Y-86651068D01*
X201269984Y-86486960D01*
X201466829Y-86293183D01*
X201634406Y-86073604D01*
X201743903Y-85878084D01*
X201767197Y-85836490D01*
X201767198Y-85836487D01*
X201769373Y-85832604D01*
X201869036Y-85574991D01*
X201876390Y-85543267D01*
X201930401Y-85310244D01*
X201931407Y-85305905D01*
X201955241Y-85030715D01*
X201954635Y-85019705D01*
X201940307Y-84759356D01*
X201940306Y-84759349D01*
X201940062Y-84754913D01*
X201886175Y-84484001D01*
X201794653Y-84223384D01*
X201667322Y-83978263D01*
X201664739Y-83974648D01*
X201664735Y-83974642D01*
X201509313Y-83757150D01*
X201509310Y-83757146D01*
X201506725Y-83753529D01*
X201316064Y-83553665D01*
X201312567Y-83550908D01*
X201102639Y-83385414D01*
X201102637Y-83385413D01*
X201099144Y-83382659D01*
X200986609Y-83317294D01*
X200864147Y-83246161D01*
X200864141Y-83246158D01*
X200860293Y-83243923D01*
X200604277Y-83140226D01*
X200599964Y-83139155D01*
X200599959Y-83139153D01*
X200340525Y-83074709D01*
X200340520Y-83074708D01*
X200336204Y-83073636D01*
X200331776Y-83073182D01*
X200331774Y-83073182D01*
X200251573Y-83064965D01*
X200100630Y-83049500D01*
X199929638Y-83049500D01*
X199724470Y-83064027D01*
X199720115Y-83064965D01*
X199720112Y-83064965D01*
X199458785Y-83121227D01*
X199458783Y-83121227D01*
X199454438Y-83122163D01*
X199195291Y-83217767D01*
X199191373Y-83219881D01*
X199142668Y-83246161D01*
X198952200Y-83348932D01*
X198730016Y-83513040D01*
X198533171Y-83706817D01*
X198365594Y-83926396D01*
X198230627Y-84167396D01*
X198130964Y-84425009D01*
X198068593Y-84694095D01*
X198044759Y-84969285D01*
X144543692Y-84969285D01*
X144570536Y-84914368D01*
X144580500Y-84846068D01*
X144580500Y-83079632D01*
X144579776Y-83074709D01*
X144571784Y-83020424D01*
X144571784Y-83020423D01*
X144570358Y-83010738D01*
X144518932Y-82905995D01*
X144436350Y-82823557D01*
X144331518Y-82772314D01*
X144301027Y-82767866D01*
X144267744Y-82763010D01*
X144267740Y-82763010D01*
X144263218Y-82762350D01*
X142496782Y-82762350D01*
X142492232Y-82763020D01*
X142492229Y-82763020D01*
X142437574Y-82771066D01*
X142437573Y-82771066D01*
X142427888Y-82772492D01*
X142377992Y-82796990D01*
X142332493Y-82819328D01*
X142332491Y-82819329D01*
X142323145Y-82823918D01*
X142240707Y-82906500D01*
X142189464Y-83011332D01*
X142188052Y-83021012D01*
X142180375Y-83073636D01*
X142179500Y-83079632D01*
X142179500Y-84846068D01*
X142180170Y-84850618D01*
X142180170Y-84850621D01*
X142188216Y-84905276D01*
X142189642Y-84914962D01*
X142193958Y-84923752D01*
X142218493Y-84973724D01*
X142241068Y-85019705D01*
X142323650Y-85102143D01*
X142428482Y-85153386D01*
X142458973Y-85157834D01*
X142492256Y-85162690D01*
X142492260Y-85162690D01*
X142496782Y-85163350D01*
X142836570Y-85163350D01*
X142904691Y-85183352D01*
X142951184Y-85237008D01*
X142961288Y-85307282D01*
X142931794Y-85371862D01*
X142880180Y-85407562D01*
X142871382Y-85410808D01*
X142860957Y-85414654D01*
X142671341Y-85527464D01*
X142505457Y-85672940D01*
X142368863Y-85846210D01*
X142303955Y-85969580D01*
X142283310Y-86008818D01*
X142233890Y-86059790D01*
X142171802Y-86076150D01*
X141779961Y-86076150D01*
X141765153Y-86075277D01*
X141733596Y-86071542D01*
X141678995Y-86081514D01*
X141675106Y-86082162D01*
X141620266Y-86090406D01*
X141614101Y-86093366D01*
X141607374Y-86094595D01*
X141560130Y-86119136D01*
X141558172Y-86120153D01*
X141554635Y-86121920D01*
X141513092Y-86141869D01*
X141513086Y-86141873D01*
X141504600Y-86145948D01*
X141499576Y-86150592D01*
X141493510Y-86153743D01*
X141488732Y-86157823D01*
X141453556Y-86192999D01*
X141449991Y-86196428D01*
X141410379Y-86233045D01*
X141406840Y-86239137D01*
X141401881Y-86244674D01*
X136071478Y-91575077D01*
X136060388Y-91584932D01*
X136042834Y-91598770D01*
X136042830Y-91598774D01*
X136035435Y-91604604D01*
X136003843Y-91650315D01*
X136001610Y-91653438D01*
X135968638Y-91698079D01*
X135966373Y-91704529D01*
X135962483Y-91710157D01*
X135959645Y-91719132D01*
X135959642Y-91719137D01*
X135945756Y-91763046D01*
X135944508Y-91766787D01*
X135939088Y-91782221D01*
X135929243Y-91810255D01*
X135929242Y-91810258D01*
X135926123Y-91819141D01*
X135925854Y-91825977D01*
X135923793Y-91832495D01*
X135923300Y-91838759D01*
X135923300Y-91888520D01*
X135923203Y-91893466D01*
X135921086Y-91947352D01*
X135922892Y-91954163D01*
X135923300Y-91961578D01*
X135923300Y-98186674D01*
X135922059Y-98197527D01*
X135922676Y-98197576D01*
X135921937Y-98206967D01*
X135919810Y-98216143D01*
X135920475Y-98225539D01*
X135920475Y-98225542D01*
X135922985Y-98260986D01*
X135923300Y-98269885D01*
X135923300Y-98282060D01*
X135923999Y-98286712D01*
X135924000Y-98286720D01*
X135924790Y-98291975D01*
X135925875Y-98301806D01*
X135928872Y-98344133D01*
X135932269Y-98352915D01*
X135933923Y-98360314D01*
X135936156Y-98367572D01*
X135937556Y-98376884D01*
X135955935Y-98415159D01*
X135959855Y-98424219D01*
X135975168Y-98463800D01*
X135980997Y-98471194D01*
X135984754Y-98477781D01*
X135989021Y-98484060D01*
X135993098Y-98492550D01*
X135999493Y-98499468D01*
X135999495Y-98499471D01*
X136021910Y-98523720D01*
X136028329Y-98531235D01*
X136054604Y-98564565D01*
X136062357Y-98569923D01*
X136067881Y-98575111D01*
X136073799Y-98579852D01*
X136080195Y-98586771D01*
X136116899Y-98608090D01*
X136125229Y-98613377D01*
X136160157Y-98637517D01*
X136169134Y-98640356D01*
X136175939Y-98643690D01*
X136183005Y-98646488D01*
X136191147Y-98651217D01*
X136200321Y-98653343D01*
X136200322Y-98653344D01*
X136232489Y-98660800D01*
X136242029Y-98663410D01*
X136282495Y-98676207D01*
X136288759Y-98676700D01*
X136291197Y-98676700D01*
X136297558Y-98677555D01*
X136297576Y-98677324D01*
X136306967Y-98678063D01*
X136316143Y-98680190D01*
X136325539Y-98679525D01*
X136325542Y-98679525D01*
X136360986Y-98677015D01*
X136369885Y-98676700D01*
X148497300Y-98676700D01*
X148565421Y-98696702D01*
X148611914Y-98750358D01*
X148623300Y-98802700D01*
X148623300Y-99271065D01*
X148603298Y-99339186D01*
X148586395Y-99360160D01*
X144462834Y-103483721D01*
X144400522Y-103517747D01*
X144327050Y-103511657D01*
X144278160Y-103492152D01*
X144272503Y-103491027D01*
X144272497Y-103491025D01*
X144076442Y-103452028D01*
X144076440Y-103452028D01*
X144070775Y-103450901D01*
X144065000Y-103450825D01*
X144064996Y-103450825D01*
X143958976Y-103449437D01*
X143859346Y-103448133D01*
X143853649Y-103449112D01*
X143853648Y-103449112D01*
X143656650Y-103482962D01*
X143656649Y-103482962D01*
X143650953Y-103483941D01*
X143452575Y-103557127D01*
X143447614Y-103560079D01*
X143447613Y-103560079D01*
X143404871Y-103585508D01*
X143270856Y-103665238D01*
X143111881Y-103804655D01*
X142980976Y-103970708D01*
X142978287Y-103975819D01*
X142978285Y-103975822D01*
X142964792Y-104001469D01*
X142882523Y-104157836D01*
X142819820Y-104359773D01*
X142819141Y-104365510D01*
X142805088Y-104484239D01*
X142777217Y-104549537D01*
X142718469Y-104589401D01*
X142647494Y-104591174D01*
X142586828Y-104554295D01*
X142555730Y-104490471D01*
X142554490Y-104480958D01*
X142546610Y-104395197D01*
X142546081Y-104389440D01*
X142488686Y-104185931D01*
X142485276Y-104179015D01*
X142397719Y-104001469D01*
X142395165Y-103996290D01*
X142268651Y-103826867D01*
X142113381Y-103683337D01*
X141934554Y-103570505D01*
X141738160Y-103492152D01*
X141732503Y-103491027D01*
X141732497Y-103491025D01*
X141536442Y-103452028D01*
X141536440Y-103452028D01*
X141530775Y-103450901D01*
X141525000Y-103450825D01*
X141524996Y-103450825D01*
X141418976Y-103449437D01*
X141319346Y-103448133D01*
X141313649Y-103449112D01*
X141313648Y-103449112D01*
X141116650Y-103482962D01*
X141116649Y-103482962D01*
X141110953Y-103483941D01*
X140912575Y-103557127D01*
X140907614Y-103560079D01*
X140907613Y-103560079D01*
X140864871Y-103585508D01*
X140730856Y-103665238D01*
X140571881Y-103804655D01*
X140440976Y-103970708D01*
X140438287Y-103975819D01*
X140438285Y-103975822D01*
X140424792Y-104001469D01*
X140342523Y-104157836D01*
X140279820Y-104359773D01*
X140254967Y-104569754D01*
X140268796Y-104780749D01*
X140270217Y-104786345D01*
X140270218Y-104786350D01*
X140313084Y-104955133D01*
X140320845Y-104985690D01*
X140320976Y-104985974D01*
X140324762Y-105055093D01*
X140291200Y-105115355D01*
X139700160Y-105706395D01*
X139637848Y-105740421D01*
X139611065Y-105743300D01*
X137611524Y-105743300D01*
X137543403Y-105723298D01*
X137497329Y-105670550D01*
X137490329Y-105655537D01*
X137458112Y-105586448D01*
X137439877Y-105547343D01*
X137439875Y-105547340D01*
X137437554Y-105542362D01*
X137312050Y-105363123D01*
X137157329Y-105208402D01*
X137152821Y-105205245D01*
X137152818Y-105205243D01*
X136982600Y-105086055D01*
X136982597Y-105086053D01*
X136978091Y-105082898D01*
X136973109Y-105080575D01*
X136973104Y-105080572D01*
X136784764Y-104992748D01*
X136784763Y-104992747D01*
X136779782Y-104990425D01*
X136774474Y-104989003D01*
X136774472Y-104989002D01*
X136658565Y-104957945D01*
X136568429Y-104933793D01*
X136350452Y-104914723D01*
X136132475Y-104933793D01*
X136042339Y-104957945D01*
X135926432Y-104989002D01*
X135926430Y-104989003D01*
X135921122Y-104990425D01*
X135916142Y-104992747D01*
X135916140Y-104992748D01*
X135727795Y-105080575D01*
X135727792Y-105080577D01*
X135722814Y-105082898D01*
X135543575Y-105208402D01*
X135388854Y-105363123D01*
X135263350Y-105542362D01*
X135261029Y-105547340D01*
X135261027Y-105547343D01*
X135178978Y-105723298D01*
X135170877Y-105740670D01*
X135114245Y-105952023D01*
X135095175Y-106170000D01*
X135114245Y-106387977D01*
X135150226Y-106522259D01*
X135168717Y-106591267D01*
X135170877Y-106599330D01*
X135173199Y-106604310D01*
X135173200Y-106604312D01*
X135222557Y-106710157D01*
X135263350Y-106797638D01*
X135388854Y-106976877D01*
X135498883Y-107086906D01*
X135532909Y-107149218D01*
X135527844Y-107220033D01*
X135485297Y-107276869D01*
X135418777Y-107301680D01*
X135409788Y-107302001D01*
X135405783Y-107302001D01*
X135398962Y-107302371D01*
X135348100Y-107307895D01*
X135332848Y-107311521D01*
X135212398Y-107356676D01*
X135196803Y-107365214D01*
X135094728Y-107441715D01*
X135082167Y-107454276D01*
X135005666Y-107556351D01*
X134997128Y-107571946D01*
X134951974Y-107692394D01*
X134948347Y-107707649D01*
X134942821Y-107758514D01*
X134942452Y-107765328D01*
X134942452Y-108437885D01*
X134946927Y-108453124D01*
X134948317Y-108454329D01*
X134956000Y-108456000D01*
X137740336Y-108456000D01*
X137755575Y-108451525D01*
X137756780Y-108450135D01*
X137758451Y-108442452D01*
X137758451Y-107765331D01*
X137758081Y-107758510D01*
X137752557Y-107707648D01*
X137748931Y-107692396D01*
X137703776Y-107571946D01*
X137695238Y-107556351D01*
X137618737Y-107454276D01*
X137606176Y-107441715D01*
X137504101Y-107365214D01*
X137488506Y-107356676D01*
X137368058Y-107311522D01*
X137352803Y-107307895D01*
X137301938Y-107302369D01*
X137295124Y-107302000D01*
X137291117Y-107302000D01*
X137222996Y-107281998D01*
X137176503Y-107228342D01*
X137166399Y-107158068D01*
X137195893Y-107093488D01*
X137202022Y-107086905D01*
X137312050Y-106976877D01*
X137437554Y-106797638D01*
X137497330Y-106669449D01*
X137544246Y-106616165D01*
X137611524Y-106596700D01*
X139807190Y-106596700D01*
X139821998Y-106597573D01*
X139853555Y-106601308D01*
X139862817Y-106599616D01*
X139862826Y-106599616D01*
X139908152Y-106591337D01*
X139912060Y-106590686D01*
X139926900Y-106588455D01*
X139966884Y-106582444D01*
X139973048Y-106579484D01*
X139979777Y-106578255D01*
X140029015Y-106552678D01*
X140032531Y-106550921D01*
X140074059Y-106530980D01*
X140074063Y-106530978D01*
X140082550Y-106526902D01*
X140087572Y-106522259D01*
X140093641Y-106519107D01*
X140098419Y-106515026D01*
X140133594Y-106479851D01*
X140137160Y-106476421D01*
X140165201Y-106450500D01*
X140176771Y-106439805D01*
X140180310Y-106433713D01*
X140185269Y-106428176D01*
X140895775Y-105717670D01*
X140958087Y-105683644D01*
X141034604Y-105690996D01*
X141047638Y-105696595D01*
X141047643Y-105696597D01*
X141052953Y-105698878D01*
X141153577Y-105721647D01*
X141253550Y-105744269D01*
X141253553Y-105744269D01*
X141259186Y-105745544D01*
X141264957Y-105745771D01*
X141264959Y-105745771D01*
X141326989Y-105748208D01*
X141470470Y-105753846D01*
X141476179Y-105753018D01*
X141476183Y-105753018D01*
X141674015Y-105724333D01*
X141674019Y-105724332D01*
X141679730Y-105723504D01*
X141775496Y-105690996D01*
X141874483Y-105657395D01*
X141874488Y-105657393D01*
X141879955Y-105655537D01*
X141884998Y-105652713D01*
X142059395Y-105555046D01*
X142059399Y-105555043D01*
X142064442Y-105552219D01*
X142227012Y-105417012D01*
X142362219Y-105254442D01*
X142365043Y-105249399D01*
X142365046Y-105249395D01*
X142462713Y-105074998D01*
X142462714Y-105074996D01*
X142465537Y-105069955D01*
X142467393Y-105064488D01*
X142467395Y-105064483D01*
X142531647Y-104875200D01*
X142533504Y-104869730D01*
X142534333Y-104864015D01*
X142555090Y-104720860D01*
X142584660Y-104656315D01*
X142644432Y-104618003D01*
X142715429Y-104618087D01*
X142775109Y-104656542D01*
X142804525Y-104721158D01*
X142805515Y-104730695D01*
X142808796Y-104780749D01*
X142810217Y-104786345D01*
X142810218Y-104786350D01*
X142854569Y-104960980D01*
X142860845Y-104985690D01*
X142863262Y-104990933D01*
X142904586Y-105080572D01*
X142949369Y-105177714D01*
X143071405Y-105350391D01*
X143222865Y-105497937D01*
X143227661Y-105501142D01*
X143227664Y-105501144D01*
X143341245Y-105577036D01*
X143398677Y-105615411D01*
X143403985Y-105617692D01*
X143403986Y-105617692D01*
X143587650Y-105696600D01*
X143587653Y-105696601D01*
X143592953Y-105698878D01*
X143598582Y-105700152D01*
X143598583Y-105700152D01*
X143793550Y-105744269D01*
X143793553Y-105744269D01*
X143799186Y-105745544D01*
X143804957Y-105745771D01*
X143804959Y-105745771D01*
X143866989Y-105748208D01*
X144010470Y-105753846D01*
X144016179Y-105753018D01*
X144016183Y-105753018D01*
X144214015Y-105724333D01*
X144214019Y-105724332D01*
X144219730Y-105723504D01*
X144315496Y-105690996D01*
X144414483Y-105657395D01*
X144414488Y-105657393D01*
X144419955Y-105655537D01*
X144424998Y-105652713D01*
X144599395Y-105555046D01*
X144599399Y-105555043D01*
X144604442Y-105552219D01*
X144767012Y-105417012D01*
X144902219Y-105254442D01*
X144905043Y-105249399D01*
X144905046Y-105249395D01*
X145002713Y-105074998D01*
X145002714Y-105074996D01*
X145005537Y-105069955D01*
X145007393Y-105064488D01*
X145007395Y-105064483D01*
X145071647Y-104875200D01*
X145073504Y-104869730D01*
X145074577Y-104862335D01*
X145103314Y-104664140D01*
X145103314Y-104664138D01*
X145103846Y-104660470D01*
X145105429Y-104600000D01*
X145086081Y-104389440D01*
X145035274Y-104209291D01*
X145036035Y-104138299D01*
X145067449Y-104085996D01*
X149328522Y-99824923D01*
X149339612Y-99815068D01*
X149357166Y-99801230D01*
X149357170Y-99801226D01*
X149364565Y-99795396D01*
X149396111Y-99749752D01*
X149398406Y-99746540D01*
X149425765Y-99709499D01*
X149431362Y-99701922D01*
X149433628Y-99695471D01*
X149437517Y-99689843D01*
X149454264Y-99636887D01*
X149455500Y-99633185D01*
X149470754Y-99589749D01*
X149473876Y-99580859D01*
X149474144Y-99574027D01*
X149476207Y-99567505D01*
X149476700Y-99561241D01*
X149476700Y-99511470D01*
X149476797Y-99506523D01*
X149478544Y-99462061D01*
X149478914Y-99452648D01*
X149477108Y-99445837D01*
X149476700Y-99438423D01*
X149476700Y-99107500D01*
X149496702Y-99039379D01*
X149550358Y-98992886D01*
X149602700Y-98981500D01*
X164355865Y-98981500D01*
X164423986Y-99001502D01*
X164444960Y-99018405D01*
X166323580Y-100897025D01*
X166357606Y-100959337D01*
X166352541Y-101030152D01*
X166309994Y-101086988D01*
X166243474Y-101111799D01*
X166174100Y-101096708D01*
X166167249Y-101092682D01*
X166089434Y-101043584D01*
X166089433Y-101043584D01*
X166084554Y-101040505D01*
X165888160Y-100962152D01*
X165882503Y-100961027D01*
X165882497Y-100961025D01*
X165686442Y-100922028D01*
X165686440Y-100922028D01*
X165680775Y-100920901D01*
X165675000Y-100920825D01*
X165674996Y-100920825D01*
X165568976Y-100919437D01*
X165469346Y-100918133D01*
X165463649Y-100919112D01*
X165463648Y-100919112D01*
X165266650Y-100952962D01*
X165266649Y-100952962D01*
X165260953Y-100953941D01*
X165062575Y-101027127D01*
X165057614Y-101030079D01*
X165057613Y-101030079D01*
X164920254Y-101111799D01*
X164880856Y-101135238D01*
X164721881Y-101274655D01*
X164590976Y-101440708D01*
X164588287Y-101445819D01*
X164588285Y-101445822D01*
X164574792Y-101471469D01*
X164492523Y-101627836D01*
X164429820Y-101829773D01*
X164429141Y-101835510D01*
X164415088Y-101954239D01*
X164387217Y-102019537D01*
X164328469Y-102059401D01*
X164257494Y-102061174D01*
X164196828Y-102024295D01*
X164165730Y-101960471D01*
X164164490Y-101950958D01*
X164156610Y-101865197D01*
X164156081Y-101859440D01*
X164098686Y-101655931D01*
X164087553Y-101633354D01*
X164007719Y-101471469D01*
X164005165Y-101466290D01*
X163878651Y-101296867D01*
X163723381Y-101153337D01*
X163544554Y-101040505D01*
X163348160Y-100962152D01*
X163342503Y-100961027D01*
X163342497Y-100961025D01*
X163146442Y-100922028D01*
X163146440Y-100922028D01*
X163140775Y-100920901D01*
X163135000Y-100920825D01*
X163134996Y-100920825D01*
X163028976Y-100919437D01*
X162929346Y-100918133D01*
X162923649Y-100919112D01*
X162923648Y-100919112D01*
X162726650Y-100952962D01*
X162726649Y-100952962D01*
X162720953Y-100953941D01*
X162522575Y-101027127D01*
X162517614Y-101030079D01*
X162517613Y-101030079D01*
X162380254Y-101111799D01*
X162340856Y-101135238D01*
X162181881Y-101274655D01*
X162050976Y-101440708D01*
X162048287Y-101445819D01*
X162048285Y-101445822D01*
X162034792Y-101471469D01*
X161952523Y-101627836D01*
X161889820Y-101829773D01*
X161889141Y-101835510D01*
X161875088Y-101954239D01*
X161847217Y-102019537D01*
X161788469Y-102059401D01*
X161717494Y-102061174D01*
X161656828Y-102024295D01*
X161625730Y-101960471D01*
X161624490Y-101950958D01*
X161616610Y-101865197D01*
X161616081Y-101859440D01*
X161558686Y-101655931D01*
X161547553Y-101633354D01*
X161467719Y-101471469D01*
X161465165Y-101466290D01*
X161338651Y-101296867D01*
X161183381Y-101153337D01*
X161004554Y-101040505D01*
X160808160Y-100962152D01*
X160802503Y-100961027D01*
X160802497Y-100961025D01*
X160606442Y-100922028D01*
X160606440Y-100922028D01*
X160600775Y-100920901D01*
X160595000Y-100920825D01*
X160594996Y-100920825D01*
X160488976Y-100919437D01*
X160389346Y-100918133D01*
X160383649Y-100919112D01*
X160383648Y-100919112D01*
X160186650Y-100952962D01*
X160186649Y-100952962D01*
X160180953Y-100953941D01*
X159982575Y-101027127D01*
X159977614Y-101030079D01*
X159977613Y-101030079D01*
X159840254Y-101111799D01*
X159800856Y-101135238D01*
X159641881Y-101274655D01*
X159510976Y-101440708D01*
X159508287Y-101445819D01*
X159508285Y-101445822D01*
X159494792Y-101471469D01*
X159412523Y-101627836D01*
X159349820Y-101829773D01*
X159324967Y-102039754D01*
X159338796Y-102250749D01*
X159340217Y-102256345D01*
X159340218Y-102256350D01*
X159362784Y-102345200D01*
X159390845Y-102455690D01*
X159393262Y-102460933D01*
X159427169Y-102534483D01*
X159479369Y-102647714D01*
X159601405Y-102820391D01*
X159752865Y-102967937D01*
X159757661Y-102971142D01*
X159757664Y-102971144D01*
X159871815Y-103047417D01*
X159928677Y-103085411D01*
X159933985Y-103087692D01*
X159933986Y-103087692D01*
X160117650Y-103166600D01*
X160117653Y-103166601D01*
X160122953Y-103168878D01*
X160128582Y-103170152D01*
X160128583Y-103170152D01*
X160323550Y-103214269D01*
X160323553Y-103214269D01*
X160329186Y-103215544D01*
X160334957Y-103215771D01*
X160334959Y-103215771D01*
X160396989Y-103218208D01*
X160540470Y-103223846D01*
X160546179Y-103223018D01*
X160546183Y-103223018D01*
X160744015Y-103194333D01*
X160744019Y-103194332D01*
X160749730Y-103193504D01*
X160845496Y-103160996D01*
X160944483Y-103127395D01*
X160944488Y-103127393D01*
X160949955Y-103125537D01*
X160954998Y-103122713D01*
X161129395Y-103025046D01*
X161129399Y-103025043D01*
X161134442Y-103022219D01*
X161297012Y-102887012D01*
X161432219Y-102724442D01*
X161435043Y-102719399D01*
X161435046Y-102719395D01*
X161532713Y-102544998D01*
X161532714Y-102544996D01*
X161535537Y-102539955D01*
X161537393Y-102534488D01*
X161537395Y-102534483D01*
X161601647Y-102345200D01*
X161603504Y-102339730D01*
X161617242Y-102244982D01*
X161625090Y-102190860D01*
X161654660Y-102126315D01*
X161714432Y-102088003D01*
X161785429Y-102088087D01*
X161845109Y-102126542D01*
X161874525Y-102191158D01*
X161875515Y-102200695D01*
X161878796Y-102250749D01*
X161880217Y-102256345D01*
X161880218Y-102256350D01*
X161902784Y-102345200D01*
X161930845Y-102455690D01*
X161933262Y-102460933D01*
X161967169Y-102534483D01*
X162019369Y-102647714D01*
X162141405Y-102820391D01*
X162292865Y-102967937D01*
X162297661Y-102971142D01*
X162297664Y-102971144D01*
X162353212Y-103008260D01*
X162456398Y-103077207D01*
X162501925Y-103131681D01*
X162510773Y-103202125D01*
X162475490Y-103271065D01*
X155260160Y-110486395D01*
X155197848Y-110520421D01*
X155171065Y-110523300D01*
X145100809Y-110523300D01*
X145032688Y-110503298D01*
X144987803Y-110453029D01*
X144937719Y-110351469D01*
X144935165Y-110346290D01*
X144808651Y-110176867D01*
X144685821Y-110063324D01*
X144657622Y-110037257D01*
X144657620Y-110037255D01*
X144653381Y-110033337D01*
X144566129Y-109978285D01*
X144479434Y-109923584D01*
X144479433Y-109923584D01*
X144474554Y-109920505D01*
X144278160Y-109842152D01*
X144272503Y-109841027D01*
X144272497Y-109841025D01*
X144076442Y-109802028D01*
X144076440Y-109802028D01*
X144070775Y-109800901D01*
X144065000Y-109800825D01*
X144064996Y-109800825D01*
X143958976Y-109799437D01*
X143859346Y-109798133D01*
X143853649Y-109799112D01*
X143853648Y-109799112D01*
X143656650Y-109832962D01*
X143656649Y-109832962D01*
X143650953Y-109833941D01*
X143452575Y-109907127D01*
X143447614Y-109910079D01*
X143447613Y-109910079D01*
X143321946Y-109984843D01*
X143270856Y-110015238D01*
X143111881Y-110154655D01*
X142980976Y-110320708D01*
X142978287Y-110325819D01*
X142978285Y-110325822D01*
X142964792Y-110351469D01*
X142882523Y-110507836D01*
X142819820Y-110709773D01*
X142819141Y-110715510D01*
X142805088Y-110834239D01*
X142777217Y-110899537D01*
X142718469Y-110939401D01*
X142647494Y-110941174D01*
X142586828Y-110904295D01*
X142555730Y-110840471D01*
X142554490Y-110830958D01*
X142546610Y-110745197D01*
X142546081Y-110739440D01*
X142488686Y-110535931D01*
X142482458Y-110523300D01*
X142397719Y-110351469D01*
X142395165Y-110346290D01*
X142268651Y-110176867D01*
X142145821Y-110063324D01*
X142117622Y-110037257D01*
X142117620Y-110037255D01*
X142113381Y-110033337D01*
X142026129Y-109978285D01*
X141939434Y-109923584D01*
X141939433Y-109923584D01*
X141934554Y-109920505D01*
X141738160Y-109842152D01*
X141732503Y-109841027D01*
X141732497Y-109841025D01*
X141536442Y-109802028D01*
X141536440Y-109802028D01*
X141530775Y-109800901D01*
X141525000Y-109800825D01*
X141524996Y-109800825D01*
X141418976Y-109799437D01*
X141319346Y-109798133D01*
X141313649Y-109799112D01*
X141313648Y-109799112D01*
X141116650Y-109832962D01*
X141116649Y-109832962D01*
X141110953Y-109833941D01*
X140912575Y-109907127D01*
X140907614Y-109910079D01*
X140907613Y-109910079D01*
X140781946Y-109984843D01*
X140730856Y-110015238D01*
X140571881Y-110154655D01*
X140440976Y-110320708D01*
X140438287Y-110325819D01*
X140438285Y-110325822D01*
X140424792Y-110351469D01*
X140342523Y-110507836D01*
X140279820Y-110709773D01*
X140254967Y-110919754D01*
X140268796Y-111130749D01*
X140270217Y-111136345D01*
X140270218Y-111136350D01*
X140313084Y-111305133D01*
X140320845Y-111335690D01*
X140320976Y-111335974D01*
X140324762Y-111405093D01*
X140291200Y-111465355D01*
X140000160Y-111756395D01*
X139937848Y-111790421D01*
X139911065Y-111793300D01*
X137611524Y-111793300D01*
X137543403Y-111773298D01*
X137497329Y-111720550D01*
X137489851Y-111704512D01*
X137437554Y-111592362D01*
X137312050Y-111413123D01*
X137157329Y-111258402D01*
X137152821Y-111255245D01*
X137152818Y-111255243D01*
X136982600Y-111136055D01*
X136982597Y-111136053D01*
X136978091Y-111132898D01*
X136973109Y-111130575D01*
X136973104Y-111130572D01*
X136784764Y-111042748D01*
X136784763Y-111042747D01*
X136779782Y-111040425D01*
X136774474Y-111039003D01*
X136774472Y-111039002D01*
X136708707Y-111021380D01*
X136568429Y-110983793D01*
X136350452Y-110964723D01*
X136132475Y-110983793D01*
X135992197Y-111021380D01*
X135926432Y-111039002D01*
X135926430Y-111039003D01*
X135921122Y-111040425D01*
X135916142Y-111042747D01*
X135916140Y-111042748D01*
X135727795Y-111130575D01*
X135727792Y-111130577D01*
X135722814Y-111132898D01*
X135543575Y-111258402D01*
X135388854Y-111413123D01*
X135263350Y-111592362D01*
X135261029Y-111597340D01*
X135261027Y-111597343D01*
X135200347Y-111727472D01*
X135170877Y-111790670D01*
X135114245Y-112002023D01*
X135095175Y-112220000D01*
X135114245Y-112437977D01*
X135144788Y-112551964D01*
X135166728Y-112633844D01*
X135170877Y-112649330D01*
X135173199Y-112654310D01*
X135173200Y-112654312D01*
X135203575Y-112719450D01*
X135263350Y-112847638D01*
X135388854Y-113026877D01*
X135498883Y-113136906D01*
X135532909Y-113199218D01*
X135527844Y-113270033D01*
X135485297Y-113326869D01*
X135418777Y-113351680D01*
X135409788Y-113352001D01*
X135405783Y-113352001D01*
X135398962Y-113352371D01*
X135348100Y-113357895D01*
X135332848Y-113361521D01*
X135212398Y-113406676D01*
X135196803Y-113415214D01*
X135094728Y-113491715D01*
X135082167Y-113504276D01*
X135005666Y-113606351D01*
X134997128Y-113621946D01*
X134951974Y-113742394D01*
X134948347Y-113757649D01*
X134942821Y-113808514D01*
X134942452Y-113815328D01*
X134942452Y-114487885D01*
X130500000Y-114487885D01*
X130500000Y-109654669D01*
X134942453Y-109654669D01*
X134942823Y-109661490D01*
X134948347Y-109712352D01*
X134951973Y-109727604D01*
X134997128Y-109848054D01*
X135005666Y-109863649D01*
X135082167Y-109965724D01*
X135094728Y-109978285D01*
X135196803Y-110054786D01*
X135212398Y-110063324D01*
X135332846Y-110108478D01*
X135348101Y-110112105D01*
X135398966Y-110117631D01*
X135405780Y-110118000D01*
X136078337Y-110118000D01*
X136093576Y-110113525D01*
X136094781Y-110112135D01*
X136096452Y-110104452D01*
X136096452Y-110099884D01*
X136604452Y-110099884D01*
X136608927Y-110115123D01*
X136610317Y-110116328D01*
X136618000Y-110117999D01*
X137295121Y-110117999D01*
X137301942Y-110117629D01*
X137352804Y-110112105D01*
X137368056Y-110108479D01*
X137488506Y-110063324D01*
X137504101Y-110054786D01*
X137606176Y-109978285D01*
X137618737Y-109965724D01*
X137695238Y-109863649D01*
X137703776Y-109848054D01*
X137748930Y-109727606D01*
X137752557Y-109712351D01*
X137758083Y-109661486D01*
X137758452Y-109654672D01*
X137758452Y-108982115D01*
X137753977Y-108966876D01*
X137752587Y-108965671D01*
X137744904Y-108964000D01*
X136622567Y-108964000D01*
X136607328Y-108968475D01*
X136606123Y-108969865D01*
X136604452Y-108977548D01*
X136604452Y-110099884D01*
X136096452Y-110099884D01*
X136096452Y-108982115D01*
X136091977Y-108966876D01*
X136090587Y-108965671D01*
X136082904Y-108964000D01*
X134960568Y-108964000D01*
X134945329Y-108968475D01*
X134944124Y-108969865D01*
X134942453Y-108977548D01*
X134942453Y-109654669D01*
X130500000Y-109654669D01*
X130500000Y-80626000D01*
X130520002Y-80557879D01*
X130573658Y-80511386D01*
X130626000Y-80500000D01*
X204374000Y-80500000D01*
X204442121Y-80520002D01*
G37*
G04 #@! TD.AperFunction*
M02*
