M48
; DRILL file {KiCad (6.0.11-0)} date 
; FORMAT={-:-/ absolute / metric / decimal}
; #@! TF.CreationDate,2023-05-27T08:56:05+09:00
; #@! TF.GenerationSoftware,Kicad,Pcbnew,(6.0.11-0)
; #@! TF.FileFunction,MixedPlating,1,2
FMAT,2
METRIC
; #@! TA.AperFunction,Plated,PTH,ViaDrill
T1C0.300
; #@! TA.AperFunction,Plated,PTH,ComponentDrill
T2C0.800
; #@! TA.AperFunction,Plated,PTH,ComponentDrill
T3C0.900
; #@! TA.AperFunction,Plated,PTH,ComponentDrill
T4C1.000
; #@! TA.AperFunction,Plated,PTH,ComponentDrill
T5C1.200
; #@! TA.AperFunction,NonPlated,NPTH,ComponentDrill
T6C3.200
%
G90
G05
T1
X136.35Y-103.965
X136.35Y-119.205
X144.605Y-119.205
X144.605Y-124.285
X149.05Y-119.205
X149.05Y-124.285
X150.32Y-84.28
X150.32Y-89.995
X150.32Y-96.345
X150.32Y-103.965
X153.495Y-119.205
X153.495Y-124.285
X157.305Y-96.345
X157.305Y-103.965
X161.75Y-96.345
X162.385Y-107.14
X164.925Y-84.28
X164.925Y-90.63
X164.925Y-104.6
X166.195Y-119.205
X166.195Y-124.285
X168.735Y-107.14
X171.91Y-104.6
X175.085Y-119.205
X175.085Y-124.285
X177.625Y-96.345
X178.26Y-84.28
X178.26Y-90.63
X181.435Y-104.6
X183.975Y-119.205
X183.975Y-124.285
X190.96Y-84.28
X190.96Y-90.63
X190.96Y-104.6
X194.77Y-119.205
X194.77Y-124.285
T2
X141.41Y-104.6
X141.41Y-110.95
X143.95Y-104.6
X143.95Y-110.95
X157.94Y-110.95
X160.48Y-94.45
X160.48Y-102.07
X160.48Y-110.95
X163.02Y-94.45
X163.02Y-102.07
X163.02Y-110.95
X165.56Y-94.45
X165.56Y-102.07
X165.56Y-110.95
X168.1Y-94.45
X168.1Y-102.07
X168.1Y-110.95
X170.64Y-94.45
X170.64Y-102.07
X170.64Y-110.95
X173.18Y-94.45
X173.18Y-102.07
X173.18Y-110.95
X175.72Y-94.45
X175.72Y-102.07
X175.72Y-110.95
X178.26Y-94.45
X178.26Y-102.07
X178.26Y-110.95
X180.8Y-94.45
X180.8Y-102.07
X180.8Y-110.95
X187.15Y-95.7
X187.15Y-98.2
T3
X136.35Y-106.17
X136.35Y-108.71
X136.35Y-112.22
X136.35Y-114.76
T4
X143.38Y-83.963
X143.38Y-86.503
X143.38Y-89.043
X143.38Y-91.583
X143.38Y-94.123
X143.38Y-96.663
T5
X158.25Y-124.134
X161.75Y-124.134
T6
X135.0Y-125.0
X200.0Y-85.0
T4
G00X193.5Y-95.425
M15
G01X193.5Y-97.925
M16
G05
G00X193.85Y-108.425
M15
G01X193.85Y-110.925
M16
G05
G00X195.5Y-91.975
M15
G01X197.5Y-91.975
M16
G05
G00X195.85Y-104.975
M15
G01X197.85Y-104.975
M16
G05
G00X199.5Y-95.675
M15
G01X199.5Y-97.675
M16
G05
G00X199.85Y-108.675
M15
G01X199.85Y-110.675
M16
G05
T0
M30
